<svg width="220" height="220" viewBox="0 0 220 220" fill="none" xmlns="http://www.w3.org/2000/svg">
<path d="M54.8594 111.492C55.3252 110.5 55.8619 109.542 56.4654 108.627C57.0015 107.672 57.6028 106.755 58.265 105.882C57.796 106.872 57.2594 107.829 56.659 108.746C56.1216 109.701 55.5203 110.618 54.8594 111.492V111.492Z" fill="#E0E0E0"/>
<path d="M53.4336 82.7553C53.9025 81.7647 54.4391 80.8077 55.0396 79.8909C55.577 78.9362 56.1782 78.0189 56.8392 77.1453C56.374 78.1369 55.8388 79.0941 55.2376 80.0097C54.6997 80.965 54.097 81.8824 53.4336 82.7553Z" fill="#E0E0E0"/>
<path d="M56.3643 151.475C56.8332 150.484 57.3698 149.527 57.9703 148.61C58.5077 147.655 59.1089 146.738 59.7699 145.865C59.3041 146.857 58.7674 147.814 58.1639 148.729C57.6296 149.685 57.0282 150.603 56.3643 151.475Z" fill="#E0E0E0"/>
<path d="M108.772 195.061C109.239 194.07 109.774 193.113 110.374 192.197C110.912 191.241 111.515 190.324 112.178 189.451C111.71 190.442 111.174 191.399 110.572 192.315C110.036 193.271 109.435 194.188 108.772 195.061Z" fill="#E0E0E0"/>
<path d="M27.0908 158.84C27.5566 157.848 28.0933 156.891 28.6968 155.976C29.2324 155.02 29.8337 154.103 30.4964 153.23C30.0275 154.221 29.4909 155.178 28.8904 156.095C28.353 157.049 27.7518 157.967 27.0908 158.84V158.84Z" fill="#E0E0E0"/>
<path d="M149.855 138.948C150.322 137.957 150.857 136.999 151.457 136.083C151.995 135.128 152.598 134.211 153.261 133.338C152.793 134.329 152.257 135.286 151.655 136.202C151.118 137.157 150.516 138.074 149.855 138.948V138.948Z" fill="#E0E0E0"/>
<path d="M115.72 181.241C116.188 180.25 116.725 179.292 117.326 178.376C117.862 177.421 118.464 176.503 119.126 175.631C118.659 176.622 118.122 177.579 117.52 178.495C116.984 179.451 116.383 180.368 115.72 181.241V181.241Z" fill="#E0E0E0"/>
<path d="M131.767 197.358C132.237 196.368 132.774 195.411 133.373 194.493C133.908 193.536 134.511 192.619 135.177 191.748C134.708 192.738 134.172 193.695 133.571 194.612C133.035 195.569 132.432 196.486 131.767 197.358V197.358Z" fill="#E0E0E0"/>
<path d="M169.871 131.793C170.34 130.803 170.877 129.846 171.477 128.929C172.013 127.972 172.616 127.055 173.281 126.183C172.813 127.174 172.277 128.132 171.675 129.048C171.139 130.004 170.536 130.922 169.871 131.793V131.793Z" fill="#E0E0E0"/>
<path d="M174.803 105.002C175.268 104.01 175.804 103.053 176.405 102.137C176.943 101.182 177.545 100.265 178.209 99.3916C177.74 100.382 177.203 101.339 176.603 102.256C176.065 103.211 175.464 104.128 174.803 105.002V105.002Z" fill="#E0E0E0"/>
<path d="M161.48 66.9989C161.949 66.0084 162.486 65.0513 163.086 64.1345C163.622 63.178 164.225 62.2606 164.89 61.3889C164.422 62.38 163.885 63.3371 163.284 64.2533C162.749 65.2106 162.146 66.1281 161.48 66.9989V66.9989Z" fill="#E0E0E0"/>
<path d="M140.84 116.433C141.309 115.442 141.845 114.485 142.446 113.569C142.983 112.614 143.584 111.697 144.245 110.823C143.778 111.814 143.241 112.771 142.639 113.687C142.103 114.643 141.502 115.56 140.84 116.433V116.433Z" fill="#E0E0E0"/>
<path d="M160.16 99.66C160.628 98.669 161.165 97.7118 161.766 96.7957C162.302 95.8402 162.904 94.9228 163.566 94.05C163.099 95.0417 162.562 95.9989 161.96 96.9144C161.424 97.8702 160.823 98.7876 160.16 99.66V99.66Z" fill="#E0E0E0"/>
<path d="M77.5059 116.433C77.9748 115.442 78.5114 114.485 79.1119 113.569C79.6493 112.614 80.2505 111.697 80.9115 110.823C80.4457 111.815 79.909 112.772 79.3055 113.687C78.7712 114.644 78.1699 115.561 77.5059 116.433Z" fill="#E0E0E0"/>
<path d="M39.3975 194.089C39.8627 193.097 40.3979 192.14 40.9991 191.224C41.5343 190.267 42.1372 189.35 42.8031 188.479C42.3341 189.469 41.7975 190.426 41.1971 191.343C40.6597 192.298 40.0584 193.215 39.3975 194.089V194.089Z" fill="#E0E0E0"/>
<path d="M78.6367 75.5348C79.1036 74.5432 79.6403 73.586 80.2427 72.6704C80.7783 71.7146 81.3796 70.7972 82.0423 69.9248C81.5745 70.9159 81.0378 71.873 80.4363 72.7892C79.9002 73.7446 79.2989 74.662 78.6367 75.5348V75.5348Z" fill="#E0E0E0"/>
<path d="M30.4966 130.161C30.9662 129.172 31.5028 128.217 32.1026 127.301C32.6374 126.345 33.2387 125.427 33.9022 124.555C33.4342 125.546 32.8976 126.504 32.2962 127.42C31.7627 128.375 31.1612 129.292 30.4966 130.161V130.161Z" fill="#E0E0E0"/>
<path d="M54.8594 132.559C55.3262 131.567 55.8629 130.61 56.4654 129.695C57.0028 128.74 57.604 127.823 58.265 126.949C57.7971 127.94 57.2605 128.897 56.659 129.813C56.1229 130.769 55.5216 131.686 54.8594 132.559V132.559Z" fill="#E0E0E0"/>
<path d="M182.411 34.5534C182.115 33.7588 181.591 33.0695 180.904 32.5723C180.218 32.0751 179.399 31.7922 178.552 31.7594C178.738 30.8509 178.662 29.9083 178.334 29.0409C178.006 28.1736 177.439 27.417 176.698 26.8588C175.958 26.3006 175.074 25.9638 174.15 25.8873C173.226 25.8108 172.299 25.9978 171.477 26.4266C170.946 25.063 170.027 23.8845 168.835 23.036C167.642 22.1875 166.228 21.706 164.766 21.6508C163.303 21.5957 161.857 21.9692 160.604 22.7255C159.351 23.4817 158.346 24.5877 157.714 25.9074V25.9074C157.12 25.749 156.864 25.991 156.262 26.101C155.38 26.2809 154.572 26.722 153.944 27.3671C153.317 28.0122 152.898 28.8313 152.742 29.7178C152.043 29.4931 151.306 29.4085 150.575 29.4689C149.843 29.5293 149.131 29.7335 148.478 30.0698C147.831 30.4186 147.291 30.938 146.918 31.5717C146.545 32.2055 146.352 32.9293 146.362 33.6646C146.399 34.3984 146.692 35.0962 147.188 35.6381C147.684 36.1801 148.353 36.5324 149.081 36.6346C148.382 37.8295 148.17 39.2478 148.488 40.5949C148.807 41.9421 149.633 43.1147 150.793 43.8694C151.954 44.6241 153.361 44.9029 154.721 44.6478C156.082 44.3928 157.292 43.6236 158.101 42.4998C158.571 43.5735 159.356 44.4789 160.352 45.0958C161.349 45.7127 162.509 46.012 163.68 45.9538C164.846 45.8561 165.956 45.4111 166.867 44.6762C167.777 43.9412 168.447 42.9502 168.788 41.831C169.186 42.7144 169.888 43.425 170.766 43.8325C171.645 44.2401 172.641 44.3173 173.572 44.0499C174.503 43.7826 175.306 43.1887 175.834 42.377C176.363 41.5654 176.581 40.5905 176.449 39.631C177.194 40.0426 178.046 40.2179 178.893 40.1334C179.74 40.049 180.541 39.7089 181.19 39.1584C181.839 38.6078 182.305 37.8729 182.526 37.0511C182.747 36.2294 182.713 35.3598 182.428 34.5578L182.411 34.5534Z" fill="#EBEBEB"/>
<path d="M201.375 58.6344C201.158 58.0531 200.774 57.5488 200.271 57.1848C199.769 56.8208 199.17 56.6133 198.55 56.5884C198.687 55.9223 198.631 55.2311 198.391 54.595C198.15 53.959 197.734 53.4043 197.191 52.9952C196.648 52.5861 196 52.3394 195.322 52.2839C194.645 52.2283 193.965 52.3661 193.363 52.6812C192.974 51.6818 192.301 50.818 191.427 50.196C190.554 49.574 189.517 49.2209 188.446 49.1802C187.374 49.1396 186.314 49.413 185.396 49.967C184.478 50.5211 183.741 51.3314 183.278 52.2984V52.2984C182.838 52.184 182.653 52.36 182.209 52.4436C181.562 52.572 180.97 52.8928 180.509 53.3639C180.048 53.835 179.74 54.4345 179.626 55.0836C179.113 54.9183 178.572 54.8562 178.036 54.9007C177.499 54.9453 176.976 55.0957 176.497 55.3432C176.022 55.5991 175.625 55.9805 175.352 56.446C175.078 56.9115 174.937 57.4432 174.944 57.9832C174.973 58.5214 175.189 59.0327 175.553 59.4299C175.917 59.8271 176.408 60.0856 176.942 60.1612C176.496 61.0325 176.389 62.0378 176.641 62.9833C176.893 63.9289 177.487 64.7476 178.307 65.2816C179.127 65.8157 180.115 66.0272 181.082 65.8755C182.049 65.7238 182.925 65.2195 183.542 64.46C183.886 65.2459 184.461 65.9088 185.19 66.3613C185.919 66.8138 186.768 67.0345 187.625 66.9944C188.48 66.9223 189.294 66.5953 189.962 66.0557C190.629 65.516 191.12 64.7885 191.369 63.9672C191.662 64.6125 192.177 65.1309 192.821 65.4278C193.464 65.7248 194.193 65.7804 194.874 65.5845C195.555 65.3886 196.143 64.9543 196.53 64.3609C196.917 63.7676 197.078 63.0547 196.984 62.3524C197.53 62.656 198.156 62.7861 198.779 62.7254C199.401 62.6647 199.99 62.4161 200.467 62.0125C200.945 61.609 201.288 61.0697 201.452 60.4663C201.616 59.8629 201.592 59.2239 201.384 58.6344H201.375Z" fill="#F5F5F5"/>
<path d="M54.2343 25.4453C54.0165 24.8636 53.6318 24.3592 53.1285 23.9952C52.6252 23.6313 52.0257 23.424 51.4051 23.3993C51.541 22.7338 51.4855 22.0433 51.2452 21.408C51.0048 20.7727 50.5893 20.2185 50.0469 19.8096C49.5044 19.4007 48.8572 19.1538 48.1803 19.0976C47.5033 19.0415 46.8243 19.1782 46.2219 19.4921C45.832 18.493 45.1588 17.6296 44.2849 17.0079C43.411 16.3862 42.3745 16.0334 41.3028 15.9927C40.2311 15.9521 39.1709 16.2254 38.2524 16.779C37.3339 17.3327 36.5972 18.1426 36.1327 19.1093C35.6927 18.9949 35.5123 19.1753 35.0679 19.2545C34.4211 19.3833 33.8283 19.7041 33.3667 20.1751C32.9051 20.646 32.5963 21.2453 32.4807 21.8945C31.9682 21.7286 31.4279 21.6657 30.891 21.7095C30.3541 21.7533 29.8311 21.9029 29.3523 22.1497C28.8778 22.4066 28.4827 22.7884 28.2097 23.2537C27.9367 23.7191 27.7962 24.2502 27.8035 24.7897C27.8328 25.3267 28.0475 25.8369 28.411 26.2333C28.7745 26.6297 29.2642 26.8877 29.7967 26.9633C29.3514 27.8346 29.2444 28.84 29.4964 29.7855C29.7485 30.731 30.3416 31.5497 31.1616 32.0837C31.9815 32.6178 32.9701 32.8294 33.9368 32.6776C34.9035 32.5259 35.7798 32.0217 36.3967 31.2621C36.7402 32.0492 37.3144 32.7137 38.0434 33.1677C38.7724 33.6218 39.6219 33.8441 40.4799 33.8053C41.3347 33.7368 42.1494 33.414 42.8191 32.8784C43.4888 32.3428 43.9828 31.6189 44.2375 30.8001C44.5302 31.4463 45.0457 31.9654 45.6898 32.2626C46.3339 32.5599 47.0634 32.6153 47.745 32.4187C48.4265 32.2221 49.0146 31.7867 49.4014 31.1922C49.7883 30.5977 49.9482 29.8837 49.8519 29.1809C50.3984 29.4845 51.0244 29.6147 51.6467 29.5539C52.269 29.4932 52.858 29.2446 53.3356 28.8411C53.8131 28.4375 54.1566 27.8982 54.3202 27.2948C54.4839 26.6914 54.4601 26.0525 54.2519 25.4629L54.2343 25.4453Z" fill="#F5F5F5"/>
<path d="M101.675 47.2649C101.161 45.8798 100.248 44.678 99.0513 43.8111C97.8548 42.9443 96.4283 42.4512 94.9519 42.3941C95.2741 40.8124 95.1416 39.1718 94.5699 37.6622C93.9982 36.1527 93.0106 34.8359 91.7215 33.8645C90.4323 32.893 88.8944 32.3066 87.2858 32.1731C85.6771 32.0396 84.0635 32.3645 82.6319 33.1101C81.707 30.7335 80.1073 28.6793 78.0299 27.2002C75.9524 25.7211 73.4878 24.8818 70.9394 24.7855C68.391 24.6891 65.8701 25.34 63.6869 26.6581C61.5037 27.9761 59.7536 29.9038 58.6519 32.2037V32.2037C57.6179 31.9309 57.1735 32.3489 56.1175 32.5425C54.5746 32.8479 53.1602 33.6133 52.0607 34.7379C50.9612 35.8626 50.2279 37.2939 49.9575 38.8433C47.5111 38.1129 44.7567 38.2141 42.5259 39.4549C40.2951 40.6957 38.6979 43.1685 38.8343 45.7205C38.9707 48.2725 41.0343 50.6793 43.5775 50.8949C41.1531 55.0089 42.5435 60.9225 46.5475 63.5229C50.5515 66.1233 56.5179 64.9969 59.3075 61.1117C60.1263 62.9806 61.493 64.5569 63.2269 65.6324C64.9608 66.708 66.9802 67.232 69.0183 67.1353C71.0514 66.9646 72.9866 66.1883 74.5741 64.9068C76.1616 63.6252 77.3284 61.8971 77.9239 59.9457C78.6152 61.4865 79.8392 62.7261 81.3712 63.4368C82.9031 64.1476 84.64 64.2817 86.2629 63.8146C87.8858 63.3474 89.2856 62.3105 90.2053 60.8941C91.1249 59.4777 91.5027 57.777 91.2691 56.1045C92.567 56.8205 94.052 57.125 95.5269 56.9774C97.0019 56.8298 98.3971 56.2372 99.5275 55.2783C100.658 54.3193 101.47 53.0393 101.856 51.6081C102.242 50.1769 102.183 48.6621 101.688 47.2649H101.675Z" fill="#EBEBEB"/>
<path d="M33.4401 148.901C33.4401 148.901 30.4833 148.984 31.4205 155.545C32.3577 162.105 33.3829 165.546 33.3829 165.546C33.3829 165.546 33.4401 167.015 32.2829 166.844C31.1257 166.672 28.8509 165.462 27.8829 166.633C26.9149 167.803 27.4429 169.497 29.1105 171.341C30.7781 173.184 34.2409 177.36 34.5489 177.76C34.8569 178.161 35.0373 178.869 34.2277 178.878C33.4181 178.887 27.8213 177.597 27.3681 180.29C26.9149 182.983 32.3489 187.37 32.9341 187.863C33.5193 188.355 33.5853 188.694 33.4005 189.046C33.2157 189.398 31.3809 188.787 29.7705 188.483C28.1601 188.179 26.2505 188.113 26.1185 189.693C25.9865 191.273 28.6177 195.571 37.2461 199.505L41.3601 201.045L44.8317 198.304C51.9025 191.985 53.1345 187.093 52.5449 185.627C51.9553 184.162 50.1425 184.796 48.6949 185.561C47.2473 186.327 45.6721 187.453 45.3949 187.172C45.1177 186.89 45.0781 186.547 45.4917 185.905C45.9053 185.262 49.7861 179.463 48.5717 177.025C47.3573 174.588 42.3765 177.465 41.6021 177.712C40.8277 177.958 40.7793 177.184 40.9597 176.739C41.1401 176.295 43.2125 171.27 44.2377 169.022C45.2629 166.773 45.3025 165.027 44.0089 164.16C42.7153 163.293 40.9289 165.15 39.8949 165.66C38.8609 166.171 38.4605 164.749 38.4605 164.749C38.4605 164.749 38.4165 161.159 37.3605 154.629C36.3045 148.1 33.4005 148.909 33.4005 148.909" fill="#EBEBEB"/>
<path d="M41.2455 202.101C40.4887 197.292 39.2875 188.725 38.2227 181.372C37.1579 174.02 36.1811 167.376 35.4507 162.562C35.0811 160.164 34.7863 158.22 34.5707 156.869C34.4695 156.2 34.3859 155.676 34.3331 155.316C34.3067 155.144 34.2891 155.012 34.2759 154.915C34.2627 154.818 34.2759 154.774 34.2759 154.774C34.2759 154.774 34.2759 154.823 34.3067 154.911L34.3771 155.311L34.6411 156.86C34.8655 158.202 35.1779 160.147 35.5519 162.549C36.3087 167.358 37.3119 173.989 38.3635 181.355C39.4151 188.72 40.6163 197.274 41.3467 202.083" fill="#E0E0E0"/>
<path d="M31.0156 168.45C31.1106 168.499 31.1993 168.559 31.2796 168.63C31.4424 168.749 31.6756 168.934 31.9572 169.167C32.5292 169.607 33.2772 170.285 34.1308 171.024L36.2604 172.92L36.9116 173.492C36.9944 173.558 37.0709 173.632 37.1404 173.712C37.0461 173.664 36.9576 173.604 36.8764 173.536C36.7136 173.413 36.4804 173.228 36.1988 172.995C35.6356 172.529 34.8788 171.86 34.0384 171.121L31.8956 169.233L31.24 168.67C31.1588 168.603 31.0837 168.53 31.0156 168.45V168.45Z" fill="#E0E0E0"/>
<path d="M37.5146 173.549C37.4882 173.523 38.7686 171.882 40.3834 169.875C41.9982 167.869 43.3314 166.267 43.3578 166.294C43.3842 166.32 42.1038 167.957 40.489 169.963C38.8742 171.97 37.5454 173.571 37.5146 173.549Z" fill="#E0E0E0"/>
<path d="M38.645 184.906C38.7265 184.833 38.8133 184.767 38.9046 184.708L39.6262 184.202C40.2378 183.762 41.0782 183.181 41.9846 182.49C42.891 181.799 43.6874 181.17 44.2638 180.677L44.9414 180.11C45.0221 180.038 45.1089 179.973 45.201 179.916C45.201 179.916 45.1306 180.008 44.9766 180.154C44.8226 180.299 44.607 180.501 44.3254 180.748C43.7666 181.245 42.9746 181.909 42.0682 182.6C41.1618 183.291 40.3082 183.876 39.6834 184.281C39.3666 184.488 39.1114 184.646 38.931 184.752C38.8433 184.816 38.747 184.868 38.645 184.906V184.906Z" fill="#E0E0E0"/>
<path d="M31.7505 181.588C31.849 181.612 31.9448 181.646 32.0365 181.689L32.7845 182.015C33.4137 182.297 34.2805 182.693 35.2353 183.137C36.1901 183.581 37.0481 183.991 37.6685 184.29L38.3989 184.655C38.4931 184.695 38.5818 184.747 38.6629 184.809C38.5647 184.782 38.4691 184.747 38.3769 184.703L37.6289 184.378C36.9997 184.101 36.1329 183.705 35.1781 183.26C34.2233 182.816 33.3653 182.407 32.7449 182.103L32.0145 181.72C31.9218 181.686 31.8333 181.642 31.7505 181.588V181.588Z" fill="#E0E0E0"/>
<path d="M31.4775 191.743C31.602 191.777 31.7228 191.823 31.8383 191.88L32.7975 192.293C33.6071 192.645 34.7247 193.143 35.9523 193.701C37.1799 194.26 38.2887 194.771 39.0895 195.149L40.0311 195.589C40.1494 195.638 40.2629 195.699 40.3699 195.769C40.2459 195.736 40.1252 195.692 40.0091 195.637L39.0499 195.224C38.2403 194.867 37.1227 194.37 35.8951 193.811C34.6675 193.253 33.5587 192.742 32.7579 192.368L31.8163 191.928C31.6972 191.879 31.5837 191.817 31.4775 191.743V191.743Z" fill="#E0E0E0"/>
<path d="M40.1851 195.629C40.2846 195.532 40.392 195.443 40.5063 195.365L41.3863 194.691C42.1431 194.124 43.1815 193.332 44.3079 192.425C45.4343 191.519 46.4287 190.665 47.1459 190.058C47.4891 189.759 47.7751 189.513 47.9951 189.328C48.097 189.235 48.2042 189.148 48.3163 189.068C48.233 189.179 48.137 189.279 48.0303 189.367C47.8411 189.548 47.5595 189.807 47.2075 190.129C46.5079 190.767 45.5179 191.625 44.3915 192.531C43.2651 193.437 42.1915 194.221 41.4435 194.771C41.0563 195.043 40.7439 195.263 40.5239 195.409C40.4165 195.49 40.3033 195.564 40.1851 195.629V195.629Z" fill="#E0E0E0"/>
<path d="M195.109 177.144C195.674 177.458 196.169 177.883 196.566 178.394C196.962 178.904 197.251 179.489 197.415 180.114C197.734 181.367 197.765 182.676 197.503 183.942C197.063 186.397 195.505 188.804 193.868 190.687C191.902 188.738 191.624 185.539 191.585 183.907C191.523 181.329 192.975 176.625 195.105 177.144" fill="#EBEBEB"/>
<path d="M196.029 194.92C195.931 194.205 196.024 193.476 196.299 192.808C196.575 192.14 197.022 191.557 197.595 191.118C198.175 190.69 198.834 190.381 199.534 190.209C200.235 190.038 200.962 190.007 201.674 190.12C202.006 190.134 202.33 190.22 202.625 190.372C202.919 190.524 203.178 190.738 203.381 191C203.523 191.275 203.59 191.582 203.576 191.891C203.561 192.2 203.465 192.5 203.298 192.76C202.947 193.278 202.466 193.696 201.903 193.97C200.029 194.99 198.031 195.633 196.029 194.889" fill="#EBEBEB"/>
<path d="M193.204 200.482C193.282 199.936 193.414 199.399 193.6 198.88C193.78 198.305 194.026 197.752 194.335 197.235C194.691 196.593 195.09 195.976 195.527 195.387C196.334 194.309 197.391 193.445 198.607 192.87C198.98 192.709 199.368 192.585 199.765 192.5C199.908 192.462 200.056 192.447 200.205 192.456C200.205 192.509 199.588 192.606 198.686 193.05C197.53 193.659 196.522 194.515 195.734 195.558C195.306 196.137 194.909 196.74 194.546 197.362C194.233 197.859 193.975 198.389 193.776 198.942C193.623 199.468 193.432 199.983 193.204 200.482Z" fill="#E0E0E0"/>
<path d="M194.317 180.84C194.355 181.116 194.365 181.394 194.348 181.672C194.348 182.208 194.348 182.992 194.322 183.942C194.286 185.86 194.203 188.505 194.04 191.422C193.877 194.339 193.657 196.984 193.455 198.902C193.358 199.852 193.266 200.622 193.191 201.155C193.168 201.432 193.122 201.708 193.054 201.978C193.037 201.7 193.048 201.422 193.085 201.146C193.129 200.561 193.191 199.8 193.261 198.884C193.411 196.975 193.6 194.335 193.763 191.404C193.925 188.474 194.031 185.891 194.128 183.924C194.172 183.005 194.211 182.244 194.242 181.658C194.245 181.384 194.27 181.11 194.317 180.84Z" fill="#E0E0E0"/>
<path d="M192.83 195.673C192.468 194.198 191.761 192.83 190.766 191.683C189.772 190.535 188.519 189.641 187.11 189.073C186.389 188.791 185.465 188.633 184.932 189.2C184.4 189.768 184.598 190.683 184.932 191.4C185.654 192.845 186.788 194.044 188.19 194.845C189.593 195.646 191.201 196.014 192.813 195.901" fill="#EBEBEB"/>
<path d="M187.748 191.233C187.892 191.267 188.028 191.325 188.153 191.405C188.404 191.528 188.756 191.73 189.187 191.99C190.324 192.67 191.326 193.553 192.144 194.595C192.581 195.184 192.918 195.841 193.142 196.539C193.32 197.11 193.418 197.702 193.433 198.299C193.444 198.7 193.419 199.1 193.358 199.496C193.351 199.647 193.318 199.796 193.261 199.936C193.204 199.936 193.301 199.311 193.235 198.326C193.151 197.037 192.692 195.802 191.915 194.771C191.113 193.757 190.155 192.878 189.077 192.166C188.616 191.88 188.173 191.569 187.748 191.233V191.233Z" fill="#E0E0E0"/>
<path d="M64.9307 77.4621C65.3975 76.4704 65.9342 75.5132 66.5367 74.5976C67.0741 73.643 67.6753 72.7257 68.3363 71.8521C67.8684 72.8431 67.3318 73.8003 66.7303 74.7164C66.1942 75.6719 65.5929 76.5893 64.9307 77.4621V77.4621Z" fill="#263238"/>
<path d="M78.6455 89.32C79.1124 88.3284 79.6491 87.3712 80.2515 86.4556C80.787 85.4998 81.3884 84.5824 82.0511 83.71C81.5832 84.7011 81.0466 85.6582 80.4451 86.5744C79.909 87.5298 79.3077 88.4472 78.6455 89.32V89.32Z" fill="#263238"/>
<path d="M64.2754 98.3795C64.7412 97.3874 65.2779 96.4301 65.8814 95.5151C66.4156 94.5586 67.017 93.6411 67.681 92.7695C67.212 93.7601 66.6754 94.7171 66.075 95.6339C65.5376 96.5886 64.9364 97.5059 64.2754 98.3795V98.3795Z" fill="#263238"/>
<path d="M45.0034 135.48C45.4724 134.49 46.009 133.533 46.6094 132.616C47.1468 131.661 47.748 130.744 48.409 129.87C47.9412 130.861 47.4045 131.819 46.803 132.735C46.2669 133.69 45.6656 134.608 45.0034 135.48V135.48Z" fill="#263238"/>
<path d="M108.297 195.958C108.766 194.968 109.303 194.011 109.903 193.094C110.439 192.14 111.04 191.224 111.703 190.353C111.233 191.343 110.696 192.3 110.097 193.217C109.562 194.172 108.96 195.088 108.297 195.958V195.958Z" fill="#263238"/>
<path d="M144.831 74.5184C145.3 73.5279 145.836 72.5709 146.437 71.654C146.974 70.6994 147.575 69.7821 148.236 68.9084C147.77 69.9006 147.234 70.8579 146.63 71.7728C146.096 72.7294 145.495 73.6469 144.831 74.5184V74.5184Z" fill="#263238"/>
<path d="M167.13 75.5216C167.599 74.5311 168.135 73.574 168.736 72.6572C169.272 71.7008 169.875 70.7833 170.54 69.9116C170.072 70.9027 169.535 71.8599 168.934 72.776C168.398 73.7325 167.795 74.65 167.13 75.5216V75.5216Z" fill="#263238"/>
<path d="M148.148 96.36C148.619 95.3705 149.156 94.4136 149.754 93.4956C150.29 92.5391 150.893 91.6217 151.558 90.75C151.09 91.7411 150.553 92.6982 149.952 93.6144C149.417 94.5716 148.814 95.4892 148.148 96.36V96.36Z" fill="#263238"/>
<path d="M157.08 121.924C157.549 120.933 158.086 119.976 158.686 119.06C159.222 118.103 159.825 117.186 160.49 116.314C160.022 117.305 159.486 118.262 158.884 119.178C158.349 120.136 157.746 121.053 157.08 121.924V121.924Z" fill="#263238"/>
<path d="M158.462 151.475C158.931 150.484 159.467 149.527 160.068 148.61C160.605 147.655 161.207 146.738 161.868 145.865C161.4 146.856 160.863 147.813 160.262 148.729C159.725 149.684 159.124 150.602 158.462 151.475V151.475Z" fill="#263238"/>
<path d="M25.4805 190.885C25.9494 189.895 26.486 188.938 27.0865 188.021C27.6225 187.064 28.2253 186.147 28.8905 185.275C28.4212 186.266 27.8831 187.224 27.2801 188.14C26.7454 189.096 26.1441 190.013 25.4805 190.885V190.885Z" fill="#263238"/>
<path d="M42.9883 114.497C43.4561 113.506 43.9928 112.549 44.5943 111.633C45.1304 110.677 45.7317 109.76 46.3939 108.887C45.9249 109.877 45.3883 110.835 44.7879 111.751C44.2505 112.706 43.6493 113.623 42.9883 114.497Z" fill="#263238"/>
<path d="M67.0386 120.3C67.5071 119.311 68.0422 118.354 68.6402 117.436C69.1736 116.478 69.7766 115.56 70.4442 114.69C69.9741 115.68 69.4376 116.637 68.8382 117.555C68.3035 118.511 67.7022 119.429 67.0386 120.3V120.3Z" fill="#263238"/>
<path d="M41.6636 162.061C42.1325 161.07 42.6691 160.113 43.2696 159.197C43.8056 158.24 44.4084 157.323 45.0736 156.451C44.6036 157.441 44.0671 158.398 43.4676 159.315C42.931 160.271 42.3282 161.189 41.6636 162.061V162.061Z" fill="#263238"/>
<path d="M112.2 173.14C112.669 172.149 113.206 171.192 113.806 170.276C114.342 169.319 114.945 168.402 115.61 167.53C115.142 168.521 114.606 169.478 114.004 170.394C113.469 171.352 112.867 172.269 112.2 173.14V173.14Z" fill="#263238"/>
<path d="M127.16 186.252C127.629 185.262 128.166 184.305 128.766 183.388C129.304 182.433 129.905 181.516 130.566 180.642C130.098 181.633 129.561 182.59 128.96 183.506C128.424 184.462 127.822 185.379 127.16 186.252Z" fill="#263238"/>
<path d="M123.864 112.046C124.332 111.055 124.869 110.098 125.47 109.182C126.005 108.224 126.608 107.307 127.274 106.436C126.805 107.427 126.269 108.384 125.668 109.3C125.132 110.257 124.529 111.174 123.864 112.046V112.046Z" fill="#263238"/>
<path d="M166.135 40.5944C165.366 38.5345 164.006 36.7476 162.225 35.4576C160.444 34.1677 158.322 33.4321 156.125 33.3432C156.606 30.986 156.409 28.5407 155.557 26.2909C154.705 24.041 153.233 22.0787 151.311 20.6313C149.389 19.184 147.097 18.3108 144.699 18.113C142.301 17.9153 139.897 18.4011 137.764 19.514C136.386 15.9754 134.003 12.9169 130.909 10.7148C127.815 8.51263 124.145 7.26292 120.35 7.11939C116.555 6.97586 112.801 7.94476 109.549 9.90691C106.298 11.869 103.691 14.7388 102.049 18.1632V18.1632C100.505 17.754 99.8492 18.3832 98.2696 18.6692C95.9747 19.1282 93.8721 20.2699 92.2373 21.9447C90.6026 23.6194 89.5121 25.7491 89.1088 28.0544C85.4656 26.9676 81.3648 27.1172 78.0384 28.9652C74.712 30.8132 72.3448 34.496 72.5428 38.28C72.7408 42.064 75.8164 45.6676 79.6092 45.9888C75.9968 52.118 78.0692 60.9224 84.0092 64.7944C89.9492 68.6664 98.8592 66.9944 102.991 61.2084C105.314 66.8008 111.412 70.5672 117.454 70.1756C123.495 69.784 129.048 65.2916 130.72 59.4704C132.766 64.0024 138.358 66.5896 143.136 65.2124C147.915 63.8352 151.272 58.6696 150.594 53.746C152.527 54.8122 154.739 55.2655 156.936 55.0456C159.132 54.8258 161.21 53.9433 162.894 52.5152C164.577 51.0871 165.787 49.1809 166.362 47.0495C166.937 44.9181 166.85 42.6623 166.113 40.5812L166.135 40.5944Z" fill="#455A64"/>
<path d="M119.654 28.7849C119.627 28.7849 119.306 28.3449 118.554 27.6145C117.469 26.6321 116.184 25.8979 114.787 25.4629C113.826 25.1706 112.826 25.0223 111.822 25.0229C110.67 25.01 109.526 25.2223 108.456 25.6477C107.235 26.1524 106.129 26.8986 105.205 27.8415C104.28 28.7844 103.555 29.9045 103.074 31.1345C102.585 32.363 102.359 33.6806 102.41 35.0021V35.1737L102.247 35.1121C100.202 34.3481 97.9469 34.3622 95.9112 35.1517C94.3036 35.7853 92.926 36.8914 91.96 38.3241C91.3125 39.2788 90.8526 40.3479 90.6048 41.4745C90.5342 41.776 90.4828 42.0817 90.4508 42.3897C90.441 42.4976 90.4248 42.6049 90.4024 42.7109C90.3926 42.604 90.3926 42.4965 90.4024 42.3897C90.4206 42.0779 90.4603 41.7677 90.5212 41.4613C90.7446 40.3125 91.1932 39.2194 91.8412 38.2449C92.2919 37.5641 92.832 36.947 93.4472 36.4101C94.1675 35.7893 94.987 35.294 95.8716 34.9449C97.9528 34.1238 100.264 34.1003 102.362 34.8789L102.208 34.9933C102.152 33.6403 102.383 32.2908 102.885 31.0333C103.376 29.7743 104.118 28.6284 105.065 27.6655C106.013 26.7025 107.147 25.9426 108.398 25.4321C109.497 25.0029 110.669 24.7936 111.848 24.8161C112.864 24.8312 113.873 24.9973 114.84 25.3089C116.251 25.764 117.543 26.5293 118.62 27.5485C118.905 27.8228 119.171 28.1169 119.416 28.4285L119.601 28.6793C119.623 28.7122 119.64 28.7476 119.654 28.7849V28.7849Z" fill="#263238"/>
<path d="M162.426 178.068L171.314 187.88C171.314 187.88 184.29 182.16 186.107 183.805L167.671 201.722L153.195 187L162.426 178.068Z" fill="#00ADB5"/>
<g opacity="0.3">
<path d="M162.426 178.068L171.314 187.88C171.314 187.88 184.29 182.16 186.107 183.805L167.671 201.722L153.195 187L162.426 178.068Z" fill="black"/>
</g>
<path d="M164.838 192.636C164.712 192.862 164.675 193.126 164.732 193.378C164.79 193.63 164.939 193.852 165.15 194C165.371 194.134 165.635 194.177 165.887 194.121C166.139 194.066 166.361 193.915 166.505 193.701C166.638 193.461 166.676 193.181 166.614 192.914C166.551 192.648 166.392 192.414 166.166 192.258C165.921 192.143 165.641 192.128 165.384 192.215C165.128 192.302 164.914 192.484 164.789 192.724" fill="#E0E0E0"/>
<path d="M167.671 201.736L166.268 200.2L184.47 183.599C184.47 183.599 185.641 183.159 186.107 183.828L167.671 201.736Z" fill="#263238"/>
<path d="M171.521 187.51C171.605 187.603 171.196 188.082 171.033 188.804C170.87 189.525 171.002 190.124 170.888 190.177C170.773 190.229 170.399 189.569 170.61 188.703C170.822 187.836 171.46 187.409 171.521 187.51Z" fill="#263238"/>
<path d="M174.24 186.432C174.346 186.498 174.104 187.031 174.17 187.708C174.236 188.386 174.535 188.874 174.442 188.958C174.35 189.042 173.796 188.588 173.734 187.744C173.672 186.899 174.148 186.349 174.24 186.432Z" fill="#263238"/>
<path d="M177.58 187.678C177.518 187.779 176.955 187.449 176.7 186.732C176.445 186.014 176.678 185.412 176.792 185.447C176.907 185.482 176.898 186.001 177.109 186.586C177.32 187.172 177.659 187.581 177.58 187.678Z" fill="#263238"/>
<path d="M169.246 185.495C169.29 185.614 168.753 185.891 168.278 186.419C167.803 186.947 167.565 187.497 167.442 187.462C167.319 187.427 167.389 186.74 167.957 186.142C168.525 185.543 169.224 185.381 169.246 185.495Z" fill="#263238"/>
<path d="M160.275 180.272L169.163 190.102C169.163 190.102 182.138 184.382 183.955 186.023L165.519 203.94L151.043 189.2L160.275 180.272Z" fill="#00ADB5"/>
<path d="M162.686 194.841C162.56 195.067 162.522 195.332 162.58 195.585C162.638 195.837 162.787 196.06 162.998 196.209C163.22 196.341 163.484 196.383 163.736 196.327C163.988 196.27 164.209 196.12 164.353 195.906C164.486 195.666 164.525 195.385 164.462 195.119C164.399 194.852 164.24 194.618 164.014 194.462C163.768 194.348 163.488 194.333 163.231 194.421C162.975 194.509 162.762 194.692 162.637 194.933" fill="#E0E0E0"/>
<path d="M165.519 203.94L164.12 202.4L182.319 185.794C182.319 185.794 183.489 185.354 183.955 186.023L165.519 203.94Z" fill="#263238"/>
<path d="M169.369 189.715C169.453 189.807 169.044 190.287 168.881 191.008C168.718 191.73 168.854 192.328 168.736 192.381C168.617 192.434 168.247 191.774 168.458 190.907C168.67 190.04 169.308 189.614 169.369 189.715Z" fill="#263238"/>
<path d="M172.079 188.637C172.185 188.703 171.947 189.235 172.009 189.913C172.071 190.59 172.379 191.079 172.282 191.162C172.185 191.246 171.639 190.793 171.573 189.948C171.507 189.103 171.996 188.553 172.079 188.637Z" fill="#263238"/>
<path d="M175.428 189.882C175.367 189.983 174.803 189.653 174.548 188.936C174.293 188.219 174.548 187.616 174.641 187.651C174.733 187.686 174.746 188.206 174.957 188.791C175.169 189.376 175.512 189.79 175.428 189.882Z" fill="#263238"/>
<path d="M167.095 187.7C167.139 187.818 166.606 188.096 166.131 188.628C165.656 189.16 165.414 189.702 165.291 189.671C165.168 189.64 165.238 188.945 165.806 188.329C166.373 187.713 167.073 187.585 167.095 187.7Z" fill="#263238"/>
<path d="M141.412 95.9991C141.248 95.801 141.062 95.6224 140.857 95.4667C140.268 94.8639 140.417 93.7947 139.819 93.1831C139.379 92.7431 138.701 92.6727 138.107 92.4879C137.513 92.3031 136.88 91.7971 137.021 91.1899C137.938 91.2478 138.856 91.0896 139.7 90.7279C140.51 90.2879 141.113 89.3243 140.805 88.4619C140.567 87.7843 139.881 87.3927 139.247 87.0583C138.543 86.6799 137.593 86.3323 137.021 86.8911C136.819 86.6916 136.578 86.5355 136.313 86.4326C136.049 86.3297 135.766 86.2821 135.482 86.2929C135.199 86.3036 134.92 86.3724 134.664 86.4949C134.408 86.6175 134.18 86.7913 133.993 87.0055L132.321 85.7779C133.131 85.5403 134.029 85.6283 134.803 85.2895C135.577 84.9507 136.123 83.8463 135.498 83.2743C135.269 83.0675 134.939 82.9839 134.75 82.7419C134.561 82.4999 134.561 82.3019 134.372 82.1963C134.227 82.1228 134.062 82.0967 133.901 82.1215L128.713 82.3635L131.111 80.6035C131.851 80.0623 132.678 79.2043 132.295 78.3771C131.912 77.5499 130.641 77.6599 130.064 78.3331C129.914 78.1928 129.736 78.0867 129.54 78.0225C129.345 77.9583 129.139 77.9374 128.935 77.9613C128.731 77.9851 128.534 78.0532 128.359 78.1608C128.184 78.2683 128.035 78.4127 127.921 78.5839C127.73 78.337 127.464 78.1592 127.163 78.0774C126.861 77.9956 126.542 78.0144 126.252 78.1309C125.962 78.2473 125.718 78.4551 125.558 78.7227C125.397 78.9903 125.328 79.3031 125.361 79.6135C124.722 79.2559 123.998 79.078 123.266 79.0987C123.755 78.3023 122.87 77.1011 121.946 77.3387C122.19 76.9791 122.32 76.5545 122.32 76.1199C122.263 75.6799 121.819 75.2883 121.414 75.4467C121.621 75.2231 121.753 74.9401 121.791 74.6375C121.829 74.335 121.77 74.0282 121.625 73.7604C121.479 73.4926 121.253 73.2773 120.978 73.1449C120.703 73.0125 120.394 72.9696 120.094 73.0223C120.032 72.6483 119.975 72.2787 119.913 71.9091C119.615 71.6921 119.26 71.5661 118.891 71.5466C118.523 71.5271 118.156 71.6148 117.837 71.7991C117.234 72.2391 117.181 73.3127 117.837 73.6295C117.397 73.3611 117.08 74.1267 117.128 74.6415C117.194 75.3587 117.26 76.0715 117.322 76.7887C117.222 76.4392 117.007 76.1336 116.711 75.9219C116.416 75.7102 116.057 75.6048 115.694 75.6227C115.654 75.4591 115.581 75.3053 115.48 75.1705C115.378 75.0358 115.251 74.9229 115.105 74.8386C114.959 74.7544 114.798 74.7005 114.631 74.6802C114.463 74.66 114.294 74.6738 114.132 74.7207C114.202 73.9023 112.909 73.4007 112.416 74.0651C112.473 73.7087 112.086 73.4579 111.756 73.3083C111.307 73.0457 110.784 72.9403 110.269 73.0091C109.767 73.1323 109.389 73.7835 109.714 74.1839C109.459 73.7439 108.724 73.8803 108.465 74.3115C108.357 74.54 108.299 74.7887 108.294 75.0413C108.29 75.2939 108.339 75.5445 108.438 75.7767C108.638 76.2424 108.753 76.7401 108.777 77.2463C108.545 76.7903 108.156 76.4338 107.681 76.2431C106.885 75.8031 106.049 75.3631 105.147 75.3631C105.195 74.9803 104.773 74.7163 104.408 74.5887C103.257 74.1959 102.014 74.1545 100.839 74.4699C100.285 74.6151 99.669 74.9627 99.6514 75.5303C99.665 75.7919 99.7469 76.0452 99.889 76.2651C100.396 77.2331 100.905 78.2011 101.416 79.1691C99.8595 78.8096 98.2295 78.9481 96.7562 79.5651C96.1094 79.5651 95.4846 79.2307 94.8422 79.3231C94.1998 79.4155 93.6982 80.3483 94.2526 80.6739C94.0011 80.7147 93.7693 80.835 93.5912 81.0171C93.413 81.1992 93.2979 81.4336 93.2626 81.6859C93.2402 81.9094 93.2846 82.1345 93.3902 82.3327C93.3989 82.4832 93.43 82.6315 93.4826 82.7727C93.5813 83.0395 93.7307 83.2845 93.9226 83.4943C93.951 83.7319 94.0372 83.9588 94.1738 84.1552C94.3103 84.3516 94.493 84.5115 94.7058 84.6207C94.0246 84.7347 93.3682 84.9654 92.7654 85.3027C92.3717 85.519 92.0437 85.8376 91.816 86.2248C91.5883 86.612 91.4694 87.0535 91.4718 87.5027C91.4718 87.5511 91.4718 87.5995 91.4938 87.6479C91.3928 87.9589 91.4181 88.2971 91.5642 88.5895C91.3606 88.7111 91.2052 88.8991 91.1242 89.1219C90.6365 89.0371 90.1349 89.0869 89.6733 89.2658C89.2117 89.4447 88.8076 89.7461 88.5045 90.1375C88.2013 90.5289 88.0106 90.9955 87.9527 91.4871C87.8949 91.9788 87.9722 92.4769 88.1762 92.9279C88.4974 93.6407 89.5666 94.1731 90.0154 93.5307C89.9889 93.877 90.0476 94.2245 90.1864 94.5428C90.3253 94.8612 90.54 95.1406 90.8118 95.3567C90.5728 95.5111 90.3685 95.7135 90.2118 95.9509C90.0551 96.1884 89.9494 96.4558 89.9014 96.7362C89.8534 97.0167 89.8642 97.304 89.933 97.5801C90.0019 97.8561 90.1273 98.1149 90.3014 98.3399C88.8362 98.5687 88.1014 100.672 89.0782 101.776C88.9059 101.918 88.7634 102.092 88.6592 102.289C88.555 102.486 88.491 102.701 88.4712 102.923C88.4513 103.145 88.4758 103.369 88.5434 103.581C88.611 103.794 88.7202 103.99 88.8646 104.16C89.0091 104.33 89.186 104.469 89.3848 104.569C89.5837 104.67 89.8006 104.729 90.0229 104.745C90.2452 104.761 90.4683 104.732 90.6793 104.66C90.8903 104.589 91.085 104.476 91.2518 104.328C91.1533 105.006 91.2526 105.699 91.5378 106.322C91.881 106.907 92.739 107.246 93.2626 106.81C93.2098 107.146 93.232 107.49 93.3277 107.816C93.4233 108.143 93.5901 108.444 93.8159 108.698C94.0418 108.953 94.3212 109.154 94.634 109.288C94.9469 109.422 95.2854 109.485 95.6254 109.472C95.4162 109.793 95.3392 110.183 95.4106 110.56C95.482 110.937 95.6963 111.272 96.0086 111.494C96.321 111.717 96.7073 111.81 97.0868 111.755C97.4664 111.699 97.8098 111.499 98.0454 111.197L101.376 113.115C102.1 113.564 102.865 113.942 103.66 114.246C104.691 114.608 105.794 114.716 106.876 114.563C107.218 114.484 107.573 114.484 107.915 114.563C108.28 114.731 108.597 114.99 108.834 115.315C109.568 116.084 110.487 116.653 111.503 116.966C112.519 117.28 113.598 117.328 114.638 117.106C114.959 117.009 115.293 116.962 115.628 116.965C116.006 117.038 116.366 117.188 116.684 117.405C117.507 117.871 118.385 118.232 119.297 118.479C120.081 118.69 120.969 118.8 121.651 118.364C122.333 117.929 122.531 116.75 121.823 116.349C121.917 116.102 122.066 115.879 122.259 115.699C122.452 115.518 122.683 115.384 122.936 115.306C123.191 115.24 123.462 115.271 123.694 115.395C123.926 115.519 124.104 115.726 124.19 115.975C124.313 116.486 123.75 117.062 123.266 116.855C123.706 117.814 125.303 117.77 125.858 116.855C126.412 115.94 125.955 114.655 125.048 114.127C125.614 113.579 126.036 112.901 126.28 112.152C126.354 112.58 126.588 112.965 126.936 113.226C127.283 113.488 127.718 113.607 128.15 113.56C128.157 113.968 128.249 114.371 128.419 114.743C128.59 115.115 128.835 115.448 129.14 115.72C129.446 115.986 129.834 116.138 130.239 116.15C130.643 116.163 131.04 116.036 131.362 115.79C131.965 115.254 131.89 114.092 131.151 113.766C132.097 113.274 132.066 111.641 131.103 111.188C131.426 110.776 131.604 110.269 131.609 109.745C131.614 109.221 131.445 108.711 131.129 108.293C131.223 108.447 131.348 108.579 131.498 108.681C131.647 108.782 131.817 108.849 131.995 108.878C132.173 108.908 132.356 108.898 132.53 108.85C132.704 108.802 132.865 108.717 133.003 108.601C133.034 109.516 134.156 109.956 135.071 109.956C135.789 109.956 136.563 109.811 136.875 108.922C137.016 108.501 137.003 108.045 136.84 107.633C136.466 106.656 135.569 106.084 134.715 105.552C134.807 104.207 135.119 102.887 135.639 101.644C136.036 101.887 136.494 102.012 136.959 102.005C137.044 102.029 137.131 102.047 137.219 102.058C138.279 102.164 139.097 100.967 139.014 99.9019C138.93 98.8371 138.248 97.9263 137.593 97.0859C138.2 97.4951 138.495 98.2299 138.983 98.7711C139.471 99.3123 140.448 99.6027 140.888 99.0175C141.012 98.8308 141.093 98.6189 141.126 98.3971C141.227 97.9571 141.328 97.5171 141.425 97.0771C141.561 96.7299 141.557 96.343 141.412 95.9991V95.9991Z" fill="#263238"/>
<path d="M109.604 86.7942L124.08 89.597C128.427 91.1062 128.788 97.517 127.094 101.776C125.22 106.533 122.738 112.261 120.573 115.451C116.208 121.88 110.484 120.252 110.484 120.252C110.484 120.252 110.009 121.259 108.799 123.772L107.976 125.14L93.4561 118.514L106.247 88.2506C106.52 87.6296 107.018 87.1346 107.64 86.8645C108.262 86.5945 108.964 86.5694 109.604 86.7942Z" fill="#AA7D6D"/>
<path d="M110.484 120.252C107.2 118.768 104.392 116.402 102.371 113.419C102.371 113.419 102.445 119.315 109.683 121.924L110.484 120.252Z" fill="#896255"/>
<path d="M103.242 95.48C103.041 95.6621 102.903 95.9036 102.848 96.1695C102.793 96.4353 102.825 96.7117 102.938 96.9584C103.004 97.0619 103.09 97.1507 103.191 97.2191C103.293 97.2875 103.407 97.3339 103.528 97.3554C103.648 97.377 103.772 97.3731 103.891 97.3442C104.01 97.3152 104.122 97.2617 104.219 97.1872C104.329 97.7372 105.217 97.6536 105.376 97.0816C105.649 97.4688 106.379 97.2004 106.485 96.6768C106.837 97.0508 107.431 96.4744 107.884 96.1136C108.137 95.933 108.4 95.767 108.671 95.6164C109.525 95.0622 110.206 94.2783 110.634 93.3548C111.514 92.9808 112.125 92.0612 112.675 91.1988C113.023 90.6576 113.371 90.1208 113.714 89.5796L114.229 89.3375C114.131 89.5302 114.097 89.7489 114.131 89.9622C114.165 90.1756 114.265 90.3727 114.418 90.5256C114.716 90.7792 115.078 90.9466 115.465 91.0096L116.587 91.3043L117.137 91.8016C116.741 92.3029 116.524 92.9225 116.521 93.5616C116.421 93.9702 116.471 94.401 116.662 94.7759C116.725 94.8496 116.806 94.9051 116.897 94.9366C116.989 94.9681 117.087 94.9746 117.182 94.9553C117.277 94.9359 117.365 94.8916 117.436 94.8268C117.508 94.7619 117.561 94.6791 117.59 94.5868C117.624 94.6682 117.675 94.7413 117.74 94.8006C117.805 94.8599 117.882 94.904 117.967 94.9297C118.051 94.9553 118.14 94.962 118.227 94.9491C118.314 94.9362 118.397 94.9041 118.47 94.8552C118.81 94.6242 119.07 94.2937 119.214 93.9091C119.621 93.0067 119.753 92.0041 119.592 91.0272C119.918 91.8676 120.239 92.7124 120.565 93.5572C120.617 93.7431 120.724 93.9087 120.873 94.0324C120.832 94.0975 120.806 94.1708 120.796 94.2471C120.787 94.3235 120.794 94.4009 120.818 94.474C120.842 94.5471 120.882 94.614 120.935 94.67C120.988 94.726 121.052 94.7697 121.123 94.798C121.423 94.8532 121.732 94.8084 122.003 94.6704C122.659 94.424 123.491 93.8696 123.354 93.17C123.574 93.2272 123.843 92.9367 123.794 92.6859C124.234 93.5263 124.648 94.3623 125.07 95.2027C124.925 94.9871 124.551 95.2028 124.472 95.4756C124.419 95.7511 124.466 96.0364 124.604 96.2808C124.287 96.4806 124.042 96.7766 123.904 97.1256C123.702 96.624 122.861 96.9628 122.725 97.5656C122.678 97.8321 122.716 98.1069 122.836 98.3498C122.955 98.5928 123.149 98.7913 123.389 98.9164C123.57 99.0454 123.793 99.1013 124.014 99.0727C124.234 99.0441 124.436 98.9333 124.577 98.7624C124.978 99.0704 125.699 98.6699 125.783 98.0891C125.999 98.4587 126.562 98.0188 126.791 97.592C127.208 96.8088 127.473 95.9531 127.569 95.0708C127.503 95.1764 127.569 95.3348 127.693 95.3084C127.72 95.2987 127.744 95.2833 127.764 95.2631C127.785 95.2429 127.8 95.2184 127.81 95.1915C127.82 95.1645 127.823 95.1358 127.82 95.1073C127.818 95.0788 127.809 95.0513 127.794 95.0268C127.723 96.1356 127.658 97.2487 127.592 98.3575C127.594 99.2606 127.427 100.156 127.099 100.998C126.945 101.332 126.76 101.803 127.024 101.97C127.1 102.008 127.185 102.025 127.27 102.018C128.336 101.947 129.343 101.508 130.122 100.778C130.414 100.539 130.667 100.256 130.869 99.9372C131.279 99.2552 131.309 98.4235 131.604 97.6843C131.759 97.37 131.892 97.0451 132 96.712C132.088 96.1823 132.041 95.6391 131.864 95.1324C131.38 93.3416 130.861 91.4804 129.664 90.2924C128.92 89.5488 127.961 89.1 127.213 88.3696C126.768 87.8874 126.351 87.3806 125.963 86.8516C124.252 84.7572 121.88 83.4504 119.421 82.5132C118.049 81.9388 116.586 81.6139 115.1 81.554C113.387 81.6193 111.697 81.9733 110.101 82.6012C107.557 83.4174 105.175 84.6711 103.061 86.3059C101.328 87.6389 100.019 89.4475 99.2951 91.5111C98.6483 93.6011 98.9783 96.0124 100.417 97.2004L101.416 96.7604" fill="#263238"/>
<path d="M104.104 97.5347C104.029 97.4467 100.848 94.4547 99.0397 98.3311C97.2313 102.208 101.491 103.22 101.552 103.114C101.614 103.008 104.104 97.5347 104.104 97.5347Z" fill="#AA7D6D"/>
<path d="M101.055 101.094C101.055 101.094 100.963 101.094 100.826 101.094C100.633 101.09 100.45 101.009 100.316 100.87C99.9772 100.531 99.9376 99.7172 100.246 99.0132C100.388 98.675 100.606 98.3739 100.884 98.1332C100.976 98.0288 101.092 97.9485 101.223 97.8994C101.353 97.8503 101.493 97.8339 101.632 97.8516C101.719 97.8662 101.798 97.9114 101.856 97.979C101.913 98.0467 101.944 98.1325 101.944 98.2212C101.944 98.3532 101.887 98.4192 101.904 98.4368C101.922 98.4544 102.014 98.4104 102.058 98.2344C102.084 98.1289 102.07 98.0177 102.019 97.922C101.95 97.7923 101.833 97.6945 101.693 97.6492C101.519 97.6066 101.337 97.6093 101.165 97.6571C100.992 97.7048 100.835 97.7961 100.708 97.922C100.387 98.1794 100.134 98.5119 99.9728 98.89C99.6296 99.682 99.6912 100.597 100.175 101.02C100.264 101.099 100.371 101.157 100.486 101.189C100.601 101.221 100.722 101.226 100.84 101.204C101.002 101.2 101.064 101.108 101.055 101.094Z" fill="#896255"/>
<path d="M126.892 101.64C126.892 101.64 126.922 101.706 127.015 101.798C127.149 101.929 127.308 102.032 127.481 102.102C127.767 102.21 128.074 102.253 128.378 102.227C128.683 102.202 128.978 102.108 129.241 101.952C129.772 101.638 130.203 101.18 130.486 100.632C130.616 100.419 130.714 100.188 130.777 99.946C130.638 100.148 130.51 100.359 130.394 100.575C130.096 101.082 129.673 101.505 129.166 101.803C128.918 101.951 128.64 102.043 128.353 102.075C128.065 102.107 127.774 102.077 127.499 101.988C127.283 101.897 127.079 101.78 126.892 101.64V101.64Z" fill="#455A64"/>
<path d="M135.89 100.06C135.93 99.9688 135.951 99.8699 135.951 99.7698C135.951 99.6698 135.93 99.5709 135.89 99.4794C135.799 99.2634 135.629 99.0903 135.415 98.9954C135.123 98.8783 134.813 98.8114 134.499 98.7974H134.385L134.451 98.7006C134.534 98.5278 134.554 98.3315 134.509 98.1453C134.463 97.9591 134.354 97.7946 134.2 97.6798C133.808 97.4231 133.349 97.2869 132.88 97.2882L132.242 97.231L132.867 97.1078C132.952 97.075 133.03 97.0253 133.096 96.9617C133.161 96.898 133.213 96.8218 133.248 96.7375C133.284 96.6533 133.302 96.5627 133.301 96.4714C133.301 96.38 133.282 96.2897 133.245 96.2058C133.148 96.0183 133.013 95.853 132.849 95.7204C132.685 95.5879 132.494 95.4909 132.291 95.4358H132.233L131.881 95.3038L132.255 95.251C132.364 95.2212 132.464 95.1668 132.548 95.0921C132.632 95.0174 132.698 94.9244 132.741 94.8203C132.783 94.7161 132.801 94.6036 132.793 94.4914C132.785 94.3792 132.752 94.2703 132.695 94.173C132.569 93.992 132.391 93.8533 132.184 93.7748C131.978 93.6963 131.753 93.6818 131.538 93.733L131.05 93.843L131.49 93.5702C131.735 93.4051 131.931 93.177 132.058 92.91C132.185 92.643 132.238 92.3467 132.211 92.0522C132.187 91.8212 132.11 91.5988 131.987 91.4015C131.865 91.2042 131.699 91.0371 131.503 90.9126C131.24 90.7417 130.936 90.643 130.623 90.6266C130.407 90.6266 130.293 90.6266 130.289 90.6266C130.284 90.6266 130.315 90.6266 130.372 90.5958C130.455 90.5779 130.539 90.5676 130.623 90.565C130.948 90.5616 131.268 90.6485 131.547 90.8158C131.765 90.9438 131.951 91.1203 132.09 91.3317C132.229 91.5431 132.317 91.7836 132.348 92.0346C132.382 92.3606 132.327 92.6897 132.188 92.9866C132.049 93.2835 131.832 93.537 131.56 93.7198L131.494 93.557C131.744 93.4931 132.008 93.5063 132.251 93.595C132.494 93.6838 132.704 93.8439 132.854 94.0542C132.926 94.1751 132.97 94.3108 132.982 94.451C132.994 94.5912 132.974 94.7323 132.924 94.8638C132.879 95.0046 132.797 95.1306 132.686 95.2283C132.576 95.326 132.44 95.3916 132.295 95.4182V95.2334H132.352C132.581 95.2971 132.795 95.4083 132.978 95.56C133.162 95.7116 133.311 95.9002 133.417 96.1134C133.501 96.3376 133.501 96.5845 133.417 96.8086C133.375 96.9177 133.307 97.0147 133.218 97.0914C133.13 97.1681 133.025 97.2221 132.911 97.2486V97.0682C133.413 97.072 133.904 97.2252 134.319 97.5082C134.499 97.6482 134.624 97.8466 134.673 98.0692C134.722 98.2918 134.692 98.5245 134.587 98.727L134.539 98.6214C134.868 98.6419 135.19 98.7224 135.489 98.859C135.716 98.984 135.885 99.1924 135.96 99.4398C136.015 99.5904 136.015 99.7557 135.96 99.9062C135.948 99.9621 135.924 100.015 135.89 100.06V100.06Z" fill="#455A64"/>
<path d="M135.252 88.8801C135.161 88.8918 135.069 88.8828 134.983 88.8537C134.742 88.7849 134.51 88.6874 134.292 88.5633C133.977 88.3747 133.621 88.266 133.254 88.2465C133.15 88.2452 133.047 88.268 132.953 88.3131C132.859 88.3581 132.777 88.4241 132.713 88.5061C132.638 88.5838 132.59 88.6843 132.578 88.7918C132.566 88.8993 132.59 89.0077 132.647 89.1001L132.484 89.1265C132.554 88.8889 132.348 88.6161 132.172 88.3477C131.995 88.0698 131.777 87.8206 131.525 87.6085C131.403 87.5072 131.263 87.4313 131.112 87.3853C130.961 87.3392 130.802 87.3238 130.645 87.3401C130.502 87.3494 130.364 87.3984 130.248 87.4816C130.131 87.5647 130.04 87.6788 129.985 87.8109L129.906 88.0397L129.813 87.8197C129.627 87.3924 129.308 87.0372 128.902 86.8077C128.585 86.6227 128.23 86.5128 127.864 86.4865C127.536 86.4735 127.207 86.5136 126.892 86.6053C126.965 86.552 127.047 86.5118 127.134 86.4865C127.371 86.4031 127.621 86.3643 127.873 86.3721C128.26 86.3841 128.638 86.4882 128.977 86.6757C129.421 86.913 129.774 87.2904 129.98 87.7493H129.8C129.866 87.5835 129.976 87.4392 130.119 87.3327C130.262 87.2263 130.432 87.1618 130.61 87.1465C130.793 87.1256 130.978 87.1417 131.155 87.1938C131.332 87.246 131.497 87.3331 131.639 87.4501C131.905 87.6766 132.135 87.9421 132.321 88.2377C132.418 88.3786 132.507 88.5255 132.585 88.6777C132.673 88.8343 132.698 89.0181 132.656 89.1925L132.598 89.3685L132.497 89.2189C132.42 89.0946 132.386 88.9484 132.4 88.8028C132.414 88.6572 132.476 88.5204 132.576 88.4137C132.657 88.316 132.759 88.2377 132.874 88.1844C132.989 88.1311 133.114 88.1042 133.241 88.1057C133.634 88.1322 134.013 88.2611 134.341 88.4797C134.549 88.6099 134.768 88.7204 134.996 88.8097C135.083 88.828 135.168 88.8515 135.252 88.8801V88.8801Z" fill="#455A64"/>
<path d="M128.234 81.4439C128.08 81.3718 127.917 81.32 127.75 81.2899C127.558 81.2662 127.363 81.2889 127.182 81.3559C126.951 81.4354 126.755 81.5904 126.623 81.7959L126.57 81.8839L126.5 81.8135C126.38 81.727 126.233 81.685 126.086 81.6946C125.938 81.7042 125.798 81.7649 125.69 81.8663C125.443 82.1283 125.274 82.4545 125.202 82.8079L125.092 83.1731L125.013 82.7947V82.7331C124.979 82.6136 124.918 82.5035 124.835 82.4113C124.752 82.319 124.648 82.2469 124.533 82.2007C124.313 82.1107 124.067 82.1107 123.847 82.2007C123.654 82.276 123.479 82.3914 123.334 82.5393C123.189 82.6872 123.078 82.8643 123.006 83.0587C122.908 83.3301 122.854 83.6151 122.844 83.9035C122.848 84.011 122.841 84.1187 122.822 84.2247C122.782 84.1223 122.764 84.013 122.769 83.9035C122.75 83.6058 122.788 83.3074 122.879 83.0235C122.949 82.8029 123.067 82.6006 123.224 82.431C123.382 82.2614 123.575 82.1286 123.79 82.0423C123.927 81.9892 124.073 81.9649 124.22 81.9708C124.367 81.9768 124.511 82.0128 124.644 82.0768C124.776 82.1407 124.894 82.2312 124.99 82.3426C125.086 82.4539 125.158 82.5839 125.202 82.7243V82.8035H125.017C125.1 82.4135 125.294 82.0559 125.576 81.7739C125.717 81.6479 125.899 81.5762 126.088 81.5713C126.277 81.5665 126.462 81.6289 126.61 81.7475H126.487C126.637 81.5095 126.868 81.3343 127.138 81.2547C127.34 81.1897 127.555 81.1776 127.763 81.2195C127.895 81.2439 128.021 81.2948 128.132 81.3691C128.207 81.3999 128.238 81.4395 128.234 81.4439Z" fill="#455A64"/>
<path d="M97.3943 87.8899C97.3764 87.8401 97.3646 87.7884 97.3591 87.7359C97.3372 87.5902 97.3254 87.4432 97.3239 87.2959C97.3163 87.0505 97.374 86.8076 97.4911 86.5919C97.5695 86.456 97.6797 86.3413 97.8123 86.2575C97.9657 86.1538 98.1537 86.1143 98.3359 86.1475L98.2523 86.2223C98.2106 86.038 98.2292 85.8452 98.3056 85.6723C98.3819 85.4995 98.5119 85.3558 98.6762 85.2626C98.8405 85.1693 99.0305 85.1314 99.218 85.1545C99.4056 85.1775 99.5807 85.2604 99.7175 85.3907L99.5767 85.4743C99.554 85.3218 99.58 85.1661 99.6511 85.0294C99.7223 84.8927 99.8348 84.782 99.9727 84.7131C100.115 84.6469 100.271 84.6126 100.428 84.6126C100.585 84.6126 100.741 84.6469 100.884 84.7131C101.009 84.7821 101.138 84.8438 101.271 84.8979C101.331 84.9122 101.394 84.9112 101.454 84.895C101.514 84.8789 101.569 84.8481 101.614 84.8055C101.733 84.6947 101.87 84.604 102.019 84.5371C102.183 84.4722 102.363 84.4614 102.534 84.5063C102.863 84.6179 103.178 84.7655 103.475 84.9463C103.601 85.0251 103.741 85.0781 103.888 85.1023C104.034 85.1264 104.184 85.1213 104.329 85.0871C104.456 85.0387 104.58 84.9419 104.725 84.8671C104.875 84.7926 105.041 84.7577 105.209 84.7659C105.366 84.7719 105.52 84.8149 105.657 84.8914C105.795 84.9678 105.912 85.0755 106.001 85.2059L105.847 85.2631C105.838 85.1027 105.879 84.9434 105.965 84.8077C106.051 84.672 106.177 84.5666 106.326 84.5063C106.585 84.4032 106.873 84.4032 107.132 84.5063C107.529 84.6642 107.892 84.8972 108.201 85.1927C108.406 85.3722 108.592 85.5727 108.755 85.7911C108.816 85.8649 108.868 85.9462 108.909 86.0331C108.665 85.7642 108.406 85.5086 108.135 85.2675C107.827 84.9951 107.472 84.7818 107.088 84.6383C106.865 84.5482 106.615 84.5482 106.392 84.6383C106.276 84.6862 106.177 84.769 106.109 84.8753C106.041 84.9817 106.008 85.1063 106.014 85.2323L106.067 85.5931L105.86 85.2895C105.784 85.1846 105.685 85.0987 105.571 85.0384C105.456 84.9781 105.329 84.9451 105.2 84.9419C105.064 84.9363 104.929 84.9666 104.808 85.0299C104.675 85.1137 104.537 85.1901 104.395 85.2587C104.226 85.315 104.045 85.3256 103.871 85.2895C103.705 85.2501 103.544 85.191 103.392 85.1135C103.112 84.9499 102.817 84.8143 102.512 84.7087C102.378 84.6737 102.236 84.6814 102.107 84.7307C101.973 84.7919 101.85 84.8736 101.742 84.9727C101.674 85.0327 101.594 85.0753 101.506 85.0968C101.419 85.1183 101.327 85.118 101.24 85.0959C101.098 85.0394 100.959 84.9733 100.826 84.8979C100.709 84.8423 100.58 84.8134 100.45 84.8134C100.32 84.8134 100.192 84.8423 100.074 84.8979C99.9687 84.946 99.8819 85.0269 99.8264 85.1284C99.7709 85.2299 99.7497 85.3465 99.7659 85.4611L99.8143 85.7031L99.6251 85.5447C99.5016 85.4463 99.3505 85.3888 99.1928 85.3802C99.0352 85.3715 98.8787 85.4121 98.7451 85.4963C98.6294 85.576 98.5376 85.6856 98.4795 85.8135C98.4213 85.9414 98.3991 86.0827 98.4151 86.2223V86.3191H98.3183C98.1748 86.3013 98.0294 86.3271 97.9007 86.393C97.772 86.4589 97.6661 86.5619 97.5967 86.6887C97.4814 86.8852 97.4178 87.1077 97.4119 87.3355C97.3855 87.6743 97.4163 87.8899 97.3943 87.8899Z" fill="#455A64"/>
<path d="M92.6245 98.6259C92.6245 98.6259 92.5629 98.5907 92.4793 98.4895C92.3623 98.3418 92.2783 98.1708 92.2329 97.9879C92.1557 97.6958 92.1774 97.3864 92.2945 97.1079C92.3693 96.9258 92.4804 96.7608 92.6212 96.6232C92.7619 96.4855 92.9292 96.3779 93.1129 96.3071L93.0645 96.3951C92.9752 96.0411 92.9617 95.6723 93.0249 95.3127C93.0719 95.1081 93.1774 94.9216 93.3285 94.7759C93.4086 94.694 93.5056 94.6307 93.6128 94.5904C93.72 94.5502 93.8347 94.5339 93.9489 94.5427L93.8565 94.6879C93.7601 94.5174 93.7094 94.3249 93.7094 94.1291C93.7094 93.9333 93.7601 93.7408 93.8565 93.5703C93.9602 93.3746 94.1115 93.2082 94.2965 93.0863C94.4833 92.9751 94.7004 92.9258 94.9169 92.9455C95.1193 92.9455 95.2337 92.9103 95.3173 92.7431C95.4096 92.5756 95.5319 92.4264 95.6781 92.3031C95.9638 92.0871 96.3031 91.9532 96.6593 91.9159L97.5393 91.7619C97.9746 91.6712 98.424 91.6712 98.8593 91.7619C98.9746 91.7936 99.0866 91.8363 99.1937 91.8895C99.2641 91.9291 99.2993 91.9555 99.2949 91.9599C99.2905 91.9643 99.1409 91.8895 98.8549 91.8367C98.4343 91.7763 98.0062 91.7942 97.5921 91.8895L96.7121 92.0655C96.3908 92.104 96.0863 92.2304 95.8321 92.4307C95.6999 92.5443 95.5922 92.6835 95.5153 92.8399C95.4638 92.9438 95.3806 93.0285 95.2777 93.0819C95.1744 93.1235 95.0634 93.143 94.9521 93.1391C94.7667 93.1266 94.5818 93.1698 94.4211 93.2631C94.2604 93.3564 94.1312 93.4955 94.0501 93.6627C93.9699 93.8043 93.9277 93.9642 93.9277 94.1269C93.9277 94.2896 93.9699 94.4495 94.0501 94.5911L94.1557 94.7539H93.9577C93.7827 94.7582 93.6145 94.8226 93.4814 94.9364C93.3484 95.0503 93.2586 95.2065 93.2273 95.3787C93.1698 95.7145 93.1788 96.0584 93.2537 96.3907V96.4567H93.1921C93.0251 96.5171 92.872 96.6106 92.7419 96.7316C92.6119 96.8525 92.5076 96.9985 92.4353 97.1607C92.3232 97.412 92.2925 97.6919 92.3473 97.9615C92.3949 98.1991 92.4891 98.4249 92.6245 98.6259V98.6259Z" fill="#455A64"/>
<path d="M100.237 96.7031C100.156 96.6616 100.083 96.6066 100.021 96.5403C99.5497 96.0735 99.2756 95.4434 99.2555 94.7803C99.2301 94.5215 99.3023 94.2626 99.4579 94.0543C99.509 93.997 99.5722 93.9518 99.643 93.9221C99.7138 93.8924 99.7904 93.879 99.8671 93.8827C99.9531 93.8824 100.037 93.909 100.107 93.9587C100.177 94.0084 100.23 94.0787 100.259 94.1599H100.091C100.086 93.9038 100.154 93.6515 100.289 93.4339C100.381 93.3176 100.51 93.2367 100.655 93.2051C100.734 93.1921 100.814 93.1976 100.891 93.2213C100.967 93.245 101.037 93.2861 101.095 93.3415C101.2 93.4207 101.301 93.5175 101.376 93.5263C101.451 93.5351 101.499 93.4603 101.557 93.3283C101.687 93.053 101.919 92.8387 102.203 92.7299C102.426 92.6369 102.67 92.609 102.908 92.6496C103.145 92.6901 103.366 92.7973 103.545 92.9587L103.387 93.0071C103.408 92.8176 103.477 92.6367 103.589 92.4824C103.701 92.328 103.851 92.2056 104.025 92.1271C104.116 92.1001 104.212 92.0928 104.306 92.1057C104.4 92.1186 104.49 92.1514 104.571 92.2019C104.653 92.2484 104.72 92.3174 104.765 92.4008C104.809 92.4842 104.829 92.5785 104.821 92.6727L104.659 92.6331C104.848 92.1794 105.162 91.7887 105.565 91.5067C105.87 91.2919 106.216 91.1422 106.581 91.0667C106.815 91.0161 107.056 91.0013 107.294 91.0227C107.379 91.0242 107.462 91.0406 107.541 91.0711C107.226 91.0627 106.911 91.0937 106.603 91.1635C106.256 91.2563 105.93 91.4162 105.644 91.6343C105.275 91.9108 104.989 92.2838 104.817 92.7123L104.557 93.3635L104.654 92.6727C104.689 92.4307 104.337 92.2327 104.082 92.3163C103.941 92.3859 103.821 92.4903 103.731 92.6197C103.642 92.749 103.587 92.899 103.572 93.0555L103.541 93.2271L103.413 93.1039C103.26 92.9687 103.072 92.8796 102.87 92.8469C102.669 92.8142 102.462 92.8392 102.274 92.9191C102.036 93.0088 101.842 93.187 101.733 93.4163C101.704 93.4872 101.665 93.5538 101.618 93.6143C101.586 93.6514 101.546 93.6807 101.501 93.6997C101.456 93.7188 101.408 93.7272 101.359 93.7243C101.214 93.6842 101.083 93.605 100.98 93.4955C100.945 93.4582 100.902 93.4299 100.854 93.413C100.805 93.3962 100.754 93.3912 100.703 93.3987C100.6 93.4189 100.508 93.4751 100.443 93.5571C100.33 93.7453 100.272 93.962 100.276 94.1819L100.232 94.6835L100.105 94.1995C100.056 94.0103 99.7131 93.9927 99.5899 94.1555C99.4559 94.3314 99.3931 94.5513 99.4139 94.7715C99.4139 95.1523 99.4996 95.5283 99.6647 95.8715C99.8159 96.1738 100.008 96.4537 100.237 96.7031V96.7031Z" fill="#455A64"/>
<path d="M114.092 90.1383C114.092 90.1383 113.899 89.9975 113.674 89.6983C113.541 89.5098 113.448 89.2955 113.402 89.0691C113.374 88.9233 113.377 88.7733 113.41 88.6286C113.444 88.484 113.506 88.3478 113.595 88.2287C113.64 88.1726 113.694 88.1236 113.754 88.0835V88.2199C113.672 88.1096 113.616 87.9825 113.589 87.8478C113.562 87.7132 113.566 87.5743 113.6 87.4411C113.655 87.2263 113.793 87.0416 113.982 86.9263C114.304 86.7415 114.546 86.8207 114.532 86.8383C114.363 86.8778 114.201 86.9446 114.053 87.0363C113.907 87.1431 113.805 87.2996 113.767 87.4763C113.745 87.5838 113.746 87.6948 113.77 87.8018C113.794 87.9088 113.841 88.0093 113.908 88.0967L113.965 88.1715L113.885 88.2375C113.841 88.2682 113.801 88.3053 113.767 88.3475C113.622 88.5469 113.562 88.795 113.6 89.0383C113.635 89.2436 113.708 89.4406 113.815 89.6191C113.926 89.7816 114.019 89.9557 114.092 90.1383Z" fill="#455A64"/>
<path d="M119.038 90.1999C119.245 90.0601 119.399 89.8559 119.478 89.6191C119.517 89.4932 119.523 89.3595 119.497 89.2304C119.471 89.1013 119.413 88.9807 119.328 88.8799C119.221 88.7583 119.081 88.6689 118.926 88.6215C118.771 88.5741 118.605 88.5707 118.448 88.6115L118.29 88.6599L118.334 88.5015C118.388 88.3023 118.404 88.095 118.382 87.8899C118.373 87.789 118.342 87.6912 118.293 87.6026C118.244 87.514 118.177 87.4365 118.096 87.3751C117.837 87.2035 117.401 87.3091 117.366 87.5775L117.185 87.5335C117.306 87.1739 117.284 86.7816 117.124 86.4379C116.995 86.1633 116.78 85.9379 116.512 85.7955C116.264 85.6742 115.995 85.5996 115.72 85.5755C115.793 85.5471 115.871 85.5365 115.949 85.5447C116.164 85.5468 116.376 85.5964 116.569 85.6899C116.87 85.8316 117.115 86.0702 117.265 86.3675C117.361 86.5555 117.419 86.7608 117.436 86.9716C117.453 87.1823 117.427 87.3942 117.361 87.5951L117.181 87.5467C117.2 87.441 117.249 87.343 117.322 87.2648C117.396 87.1867 117.49 87.1317 117.595 87.1067C117.696 87.0789 117.801 87.072 117.905 87.0864C118.008 87.1008 118.108 87.1361 118.197 87.1903C118.303 87.2676 118.391 87.3663 118.455 87.4801C118.52 87.5939 118.559 87.7201 118.571 87.8503C118.596 88.078 118.575 88.3084 118.51 88.5279L118.36 88.4399C118.552 88.3871 118.756 88.392 118.945 88.4538C119.134 88.5156 119.301 88.6316 119.425 88.7875C119.522 88.9096 119.586 89.0548 119.611 89.209C119.636 89.3631 119.62 89.5211 119.566 89.6675C119.501 89.8541 119.38 90.0157 119.218 90.1295C119.165 90.1673 119.103 90.1915 119.038 90.1999V90.1999Z" fill="#455A64"/>
<path d="M121.801 84.6164C121.801 84.6164 121.911 84.5636 122.131 84.4976C122.443 84.4075 122.773 84.3984 123.09 84.4712C123.33 84.521 123.557 84.6203 123.756 84.7627C123.955 84.9051 124.122 85.0876 124.247 85.2984C124.397 85.5665 124.478 85.8671 124.484 86.174C124.49 86.4809 124.421 86.7846 124.282 87.0584L124.212 87.1904L124.362 87.164C124.777 87.0955 125.204 87.1918 125.55 87.4324C125.736 87.5567 125.891 87.7214 126.005 87.9141C126.118 88.1068 126.187 88.3227 126.205 88.5456C126.227 88.7675 126.203 88.9915 126.134 89.2035C126.065 89.4156 125.953 89.611 125.805 89.7776L125.69 89.9008H125.84C126.066 89.9109 126.282 89.9973 126.453 90.1458C126.624 90.2944 126.74 90.4965 126.782 90.7192C126.81 90.9223 126.777 91.1293 126.686 91.3131C126.595 91.4968 126.45 91.6487 126.271 91.7488L126.073 91.8544H126.298C126.518 91.8746 126.732 91.9388 126.927 92.0431C127.122 92.1474 127.294 92.2897 127.433 92.4616C127.657 92.7246 127.809 93.0416 127.873 93.3812C127.919 93.6757 127.896 93.9768 127.807 94.2612C127.85 94.193 127.882 94.1189 127.904 94.0412C127.965 93.8194 127.98 93.5871 127.948 93.3592C127.892 93.0012 127.74 92.665 127.508 92.3868C127.362 92.1999 127.18 92.0444 126.973 91.9295C126.766 91.8145 126.538 91.7426 126.302 91.718V91.8412C126.523 91.7279 126.7 91.5439 126.805 91.3186C126.91 91.0932 126.937 90.8392 126.882 90.5969C126.826 90.3545 126.692 90.1376 126.499 89.9805C126.306 89.8233 126.067 89.7349 125.818 89.7292L125.871 89.8568C126.032 89.6736 126.155 89.4592 126.23 89.2269C126.306 88.9946 126.333 88.7493 126.311 88.506C126.289 88.2612 126.214 88.0242 126.089 87.8126C125.964 87.6009 125.793 87.4199 125.589 87.2828C125.399 87.1506 125.184 87.0572 124.958 87.0082C124.731 86.9591 124.497 86.9552 124.269 86.9968L124.344 87.1024C124.496 86.8041 124.57 86.4722 124.559 86.1375C124.549 85.8028 124.453 85.4763 124.282 85.1884C124.148 84.9664 123.967 84.7756 123.754 84.6284C123.54 84.4813 123.297 84.3812 123.042 84.3348C122.71 84.2721 122.367 84.2963 122.047 84.4052C121.956 84.4645 121.873 84.5355 121.801 84.6164V84.6164Z" fill="#455A64"/>
<path d="M130.518 100.619C131.943 97.5391 131.697 93.8299 130.179 90.7983C128.581 87.776 126.015 85.3775 122.892 83.9871C119.778 82.614 116.399 81.9498 112.997 82.0423C110.761 82.0423 108.465 82.3503 106.52 83.4503C104.575 84.5503 103.141 86.3807 101.838 88.2111C100.911 89.4134 100.169 90.7483 99.6383 92.1711C99.3782 92.889 99.2645 93.6516 99.3038 94.4141C99.3431 95.1765 99.5346 95.9235 99.8671 96.6107C98.8331 96.4391 98.3315 95.2599 98.1379 94.2303C97.4031 90.2703 99.5987 86.4379 102.349 83.4943C104.549 81.1139 107.563 79.9479 109.754 79.4463C112.926 78.7203 116.398 79.3803 119.465 80.4715C122.875 81.6859 126.122 83.0059 128.383 85.8307C130.645 88.6555 133.848 94.7715 130.526 100.602" fill="#00ADB5"/>
<path d="M113.868 103.532C113.484 103.871 112.997 104.071 112.486 104.1C111.985 104.203 111.464 104.133 111.008 103.902C111.008 103.836 111.668 103.981 112.46 103.871C113.252 103.761 113.833 103.47 113.868 103.532Z" fill="#896255"/>
<path d="M120.56 108.385C120.247 108.067 120.004 107.687 119.847 107.27C119.689 106.852 119.62 106.406 119.645 105.961C119.805 106.362 119.943 106.772 120.059 107.188C120.296 107.853 120.604 108.345 120.56 108.385Z" fill="#896255"/>
<path d="M108.891 102.656C108.727 102.724 108.578 102.822 108.451 102.947C108.341 103.083 108.283 103.255 108.288 103.431C108.291 103.541 108.324 103.648 108.384 103.74C108.444 103.833 108.528 103.907 108.627 103.954C108.988 104.174 109.344 103.91 109.679 103.576C110.023 103.195 110.246 102.72 110.321 102.212C109.825 102.286 109.342 102.435 108.891 102.656V102.656Z" fill="#F5F5F5"/>
<path d="M122.668 108.495C122.633 108.615 122.619 108.74 122.628 108.865C122.653 108.986 122.72 109.095 122.817 109.173C122.879 109.22 122.953 109.249 123.03 109.259C123.107 109.268 123.186 109.256 123.257 109.226C123.539 109.129 123.556 108.812 123.526 108.478C123.476 108.119 123.324 107.782 123.086 107.51C122.896 107.814 122.755 108.147 122.668 108.495V108.495Z" fill="#F5F5F5"/>
<path d="M110.123 101.248L109.191 101.31C109.132 101.305 109.073 101.314 109.018 101.335C108.963 101.357 108.914 101.39 108.874 101.433C108.844 101.488 108.837 101.553 108.853 101.613C108.87 101.674 108.908 101.726 108.962 101.759C109.016 101.79 109.076 101.81 109.138 101.817C109.2 101.825 109.262 101.82 109.323 101.803C109.627 101.713 109.902 101.546 110.123 101.319" fill="#F5F5F5"/>
<path d="M112.688 104.465C112.342 104.682 111.934 104.781 111.527 104.746C111.121 104.786 110.713 104.692 110.365 104.478C110.753 104.47 111.141 104.483 111.527 104.518C111.913 104.48 112.301 104.462 112.688 104.465V104.465Z" fill="#896255"/>
<path d="M120.287 109.252C119.755 108.672 119.433 107.929 119.372 107.144C119.578 107.468 119.742 107.817 119.86 108.183C120.047 108.52 120.191 108.879 120.287 109.252V109.252Z" fill="#896255"/>
<path d="M109.041 109.393C108.984 109.393 108.874 109.036 109.041 108.601C109.208 108.165 109.481 107.932 109.534 107.976C109.586 108.02 109.38 108.293 109.256 108.671C109.133 109.05 109.12 109.384 109.041 109.393Z" fill="#896255"/>
<path d="M123.011 106.119C122.903 106.351 122.71 106.533 122.471 106.625C122.232 106.717 121.966 106.712 121.731 106.612C121.613 106.568 121.506 106.5 121.415 106.414C121.325 106.328 121.252 106.224 121.202 106.109C121.152 105.994 121.125 105.871 121.124 105.745C121.123 105.62 121.146 105.496 121.194 105.38C121.301 105.148 121.494 104.967 121.732 104.874C121.97 104.782 122.235 104.787 122.47 104.887C122.587 104.931 122.694 104.999 122.785 105.085C122.876 105.171 122.949 105.275 122.999 105.389C123.05 105.504 123.077 105.628 123.079 105.753C123.081 105.878 123.058 106.003 123.011 106.119Z" fill="#263238"/>
<path d="M124.48 104.143C124.318 104.205 123.878 103.391 122.918 102.947C121.959 102.502 121.04 102.647 120.991 102.48C120.96 102.405 121.172 102.247 121.581 102.168C122.13 102.077 122.694 102.156 123.196 102.397C123.694 102.629 124.105 103.015 124.37 103.497C124.56 103.84 124.56 104.113 124.48 104.143Z" fill="#263238"/>
<path d="M114.044 102.08C113.936 102.312 113.742 102.494 113.503 102.586C113.265 102.678 112.999 102.673 112.763 102.573C112.647 102.528 112.54 102.46 112.449 102.374C112.359 102.288 112.287 102.184 112.237 102.069C112.187 101.955 112.16 101.831 112.158 101.706C112.157 101.581 112.18 101.457 112.227 101.341C112.333 101.108 112.525 100.926 112.764 100.834C113.003 100.742 113.268 100.747 113.503 100.848C113.62 100.892 113.727 100.959 113.818 101.046C113.909 101.132 113.982 101.235 114.032 101.35C114.083 101.465 114.11 101.589 114.112 101.714C114.114 101.839 114.091 101.964 114.044 102.08V102.08Z" fill="#263238"/>
<path d="M114.999 99.9064C114.836 99.968 114.396 99.154 113.437 98.7096C112.478 98.2652 111.558 98.4104 111.505 98.2476C111.479 98.1684 111.69 98.0144 112.099 97.9352C112.648 97.8418 113.213 97.9218 113.714 98.164C114.213 98.3937 114.625 98.7778 114.889 99.2596C115.078 99.6204 115.078 99.88 114.999 99.9064Z" fill="#263238"/>
<path d="M115.139 108.627C115.161 108.57 115.804 108.746 116.824 109.067C117.08 109.155 117.335 109.217 117.454 109.067C117.594 108.825 117.655 108.545 117.63 108.266C117.678 107.571 117.726 106.836 117.779 106.066C118.021 102.947 118.316 100.43 118.444 100.443C118.571 100.456 118.474 102.986 118.237 106.106C118.171 106.872 118.109 107.602 118.048 108.306C118.064 108.672 117.95 109.032 117.726 109.322C117.651 109.393 117.559 109.445 117.46 109.474C117.361 109.503 117.256 109.508 117.154 109.49C117.002 109.466 116.854 109.42 116.714 109.353C116.161 109.178 115.632 108.934 115.139 108.627V108.627Z" fill="#263238"/>
<path d="M112.825 108.526C112.559 108.396 112.263 108.34 111.968 108.366C111.673 108.392 111.391 108.499 111.153 108.674C110.914 108.849 110.728 109.086 110.615 109.359C110.502 109.633 110.466 109.932 110.51 110.224C110.571 110.552 110.729 110.854 110.965 111.09C111.201 111.325 111.503 111.484 111.83 111.544C112.308 111.696 112.822 111.696 113.3 111.544L113.366 111.478C113.573 111.27 113.728 111.016 113.817 110.736C113.906 110.456 113.926 110.159 113.877 109.869C113.827 109.58 113.709 109.306 113.532 109.072C113.355 108.837 113.125 108.649 112.86 108.522L112.825 108.526Z" fill="#896255"/>
<path d="M113.322 111.967C113.151 111.967 113.247 110.823 112.341 109.925C111.435 109.028 110.207 109.045 110.211 108.887C110.211 108.816 110.502 108.689 111.017 108.72C111.686 108.769 112.317 109.053 112.799 109.52C113.261 109.97 113.53 110.583 113.547 111.228C113.551 111.712 113.397 111.98 113.322 111.967Z" fill="#263238"/>
<path d="M111.76 96.1618C111.936 95.911 112.917 96.3246 114.149 96.5094C115.381 96.6942 116.442 96.637 116.53 96.9494C116.569 97.0858 116.327 97.3014 115.865 97.4598C115.255 97.6452 114.61 97.6888 113.98 97.5874C113.351 97.486 112.752 97.2422 112.231 96.8746C111.817 96.5578 111.659 96.2806 111.76 96.1618Z" fill="#263238"/>
<path d="M125.431 101.2C125.158 101.336 124.608 100.804 123.82 100.421C123.033 100.038 122.289 99.88 122.241 99.5808C122.241 99.44 122.434 99.2684 122.822 99.2024C123.332 99.1431 123.849 99.2369 124.307 99.4719C124.764 99.7069 125.142 100.073 125.391 100.522C125.567 100.87 125.554 101.138 125.431 101.2Z" fill="#263238"/>
<path d="M115.223 126.61C115.223 126.61 130.429 134.319 130.72 133.808C131.01 133.298 130.13 123.499 129.743 121.176C129.356 118.853 127.257 109.969 127.257 109.969L132.392 107.624C132.392 107.624 137.5 121.475 139.92 129.8C142.34 138.125 141.737 146.164 140.923 147.039C140.109 147.915 111.443 136.774 111.443 136.774L115.223 126.61Z" fill="#AA7D6D"/>
<path d="M132.44 139.616C132.14 139.479 131.878 139.273 131.675 139.014C131.167 138.403 130.832 137.668 130.707 136.884C130.568 136.115 130.535 135.33 130.61 134.552C130.616 134.227 130.673 133.905 130.777 133.597C130.806 133.918 130.806 134.24 130.777 134.561C130.751 135.324 130.804 136.088 130.935 136.84C131.06 137.591 131.362 138.301 131.815 138.912C132.145 139.37 132.44 139.581 132.44 139.616Z" fill="#896255"/>
<path d="M132.475 108.324L133.32 99.6291L129.536 89.0251C129.536 89.0251 128.656 89.1175 128.858 90.6883L127.248 89.5003C127.248 89.5003 126.808 90.5783 127.085 91.2075C127.609 92.028 128.197 92.8049 128.845 93.5307L126.333 92.7739C126.333 92.7739 125.721 93.7507 127.05 94.3051L128.81 95.8539L129.501 99.2639C129.501 99.2639 127.741 104.456 127.226 106.132C126.711 107.809 127.283 109.969 127.283 109.969L132.475 108.324Z" fill="#AA7D6D"/>
<path d="M131.186 98.4324C131.085 98.1483 131.02 97.8526 130.993 97.5524C130.882 96.8547 130.7 96.1704 130.447 95.5108C130.187 94.8611 129.773 94.2842 129.241 93.83C128.828 93.4868 128.502 93.39 128.52 93.3372C128.83 93.3833 129.121 93.516 129.36 93.72C129.952 94.1594 130.409 94.7552 130.68 95.4404C130.944 96.1162 131.111 96.8256 131.177 97.548C131.221 97.841 131.224 98.1386 131.186 98.4324Z" fill="#896255"/>
<path d="M131.037 93.7639C130.583 93.2381 130.166 92.6825 129.787 92.1007C129.349 91.5635 128.948 90.9976 128.586 90.4067C129.125 90.8534 129.593 91.3802 129.972 91.9687C130.415 92.5103 130.774 93.1155 131.037 93.7639V93.7639Z" fill="#896255"/>
<path d="M115.113 136.131C115.113 136.131 121.691 132.171 124.995 133.302C128.3 134.433 168.555 184.065 168.555 184.065L160.732 191.545L125.136 161.581L116.002 152.183L115.113 136.131Z" fill="#263238"/>
<path d="M52.105 182.424C52.105 182.424 53.865 189.464 57.6006 194.427C60.3374 198.092 64.447 201.291 70.4838 201.353C84.7266 201.502 92.9678 189.662 96.1182 185.763C99.2686 181.865 116.204 159.68 117.405 159.531C118.607 159.381 119.355 163.574 124.599 169.871C129.844 176.167 156.64 195.333 156.64 195.333L165.489 187.088L135.287 152.117C135.287 152.117 122.184 137.104 117.537 136.246C112.891 135.388 107.281 139.946 104.447 142.52C101.614 145.094 52.105 182.424 52.105 182.424Z" fill="#263238"/>
<path d="M162.906 189.508C162.906 189.508 162.818 189.429 162.655 189.257L161.92 188.505L159.157 185.592L149.037 174.852L142.041 167.429C139.48 164.789 136.677 162.07 133.738 159.179C130.799 156.288 127.688 153.283 124.419 150.212C122.782 148.676 121.11 147.132 119.359 145.614C118.919 145.24 118.479 144.866 118.039 144.505C117.81 144.329 117.599 144.144 117.344 143.981C117.225 143.898 117.106 143.814 116.983 143.744L116.798 143.638C116.741 143.611 116.682 143.587 116.622 143.568C116.055 143.499 115.479 143.557 114.937 143.739C114.371 143.898 113.817 144.097 113.278 144.333C112.231 144.784 111.214 145.301 110.233 145.882V145.882L91.4057 163.28L83.2305 170.83C80.9628 173.128 78.5369 175.264 75.9705 177.223C73.8412 178.829 71.463 180.074 68.9305 180.91C67.0147 181.526 65.0056 181.8 62.9949 181.72C61.7313 181.669 60.4818 181.435 59.2857 181.025C58.9738 180.921 58.6682 180.799 58.3705 180.66C58.1681 180.572 58.0669 180.519 58.0669 180.519L58.3793 180.638C58.5861 180.717 58.8853 180.858 59.2989 180.981C60.495 181.374 61.741 181.594 62.9993 181.636C64.996 181.696 66.9879 181.408 68.8865 180.787C71.4006 179.945 73.7596 178.697 75.8693 177.091C78.4213 175.127 80.8352 172.989 83.0941 170.694C85.6461 168.326 88.3741 165.792 91.2561 163.126C97.0157 157.788 103.369 151.91 110.07 145.71C111.063 145.123 112.092 144.6 113.15 144.144C113.699 143.904 114.264 143.702 114.84 143.541C115.418 143.348 116.031 143.288 116.635 143.365L116.868 143.453L117.062 143.572C117.192 143.645 117.317 143.728 117.436 143.818C117.682 143.985 117.911 144.166 118.145 144.346C118.585 144.712 119.051 145.086 119.491 145.464C121.251 146.982 122.918 148.544 124.555 150.071C127.824 153.151 130.926 156.16 133.87 159.051C136.814 161.942 139.59 164.688 142.16 167.319C144.729 169.95 147 172.484 149.134 174.764L159.223 185.552L161.955 188.496L162.664 189.266C162.831 189.416 162.906 189.508 162.906 189.508Z" fill="#455A64"/>
<path d="M75.3458 200.922C75.353 200.84 75.3663 200.759 75.3854 200.68C75.4294 200.504 75.4778 200.275 75.5438 199.993C75.6978 199.368 75.909 198.506 76.1686 197.437V197.512L71.2802 193.31L71.377 193.332C69.958 193.634 68.4964 193.682 67.0606 193.472C65.2443 193.222 63.4597 192.779 61.7366 192.152C60.3177 191.658 58.933 191.07 57.5918 190.392L57.715 190.322C57.715 191.642 57.6842 192.751 57.6754 193.538C57.6754 193.899 57.6754 194.19 57.6534 194.418C57.6628 194.519 57.6628 194.621 57.6534 194.722C57.6335 194.622 57.6246 194.52 57.627 194.418C57.627 194.194 57.627 193.904 57.605 193.538C57.605 192.751 57.605 191.66 57.5698 190.322V190.19L57.6886 190.247C59.0324 190.9 60.4151 191.468 61.829 191.95C63.5404 192.558 65.3097 192.989 67.109 193.235C68.5196 193.438 69.9548 193.395 71.3506 193.107H71.4034L71.4474 193.142C73.357 194.814 75.0422 196.28 76.3226 197.397L76.3578 197.428V197.476C76.0674 198.537 75.8342 199.395 75.667 200.015C75.5878 200.292 75.5218 200.517 75.4734 200.693C75.4425 200.775 75.3995 200.852 75.3458 200.922V200.922Z" fill="#455A64"/>
<path d="M165.506 187.088C165.458 187.127 159.417 180.211 152.016 171.639C144.615 163.068 138.649 156.081 138.697 156.041C138.745 156.002 144.782 162.914 152.187 171.49C159.593 180.065 165.55 187.048 165.506 187.088Z" fill="#455A64"/>
<path d="M120.314 128.92L110.797 123.085L109.301 122.17L108.927 122.461C105.543 123.015 101.777 120.894 94.7365 115.535C94.7365 115.535 86.0685 114.501 78.9933 123.085C74.0389 129.1 69.1153 142.846 64.1653 149.899C62.0753 152.878 50.7717 164.806 51.0181 178.829L51.6121 182.503L62.5065 178.411C64.9934 177.288 67.3017 175.806 69.3573 174.011L82.2053 162.751L105.085 142.005C105.525 142.252 109.098 137.451 110.414 132.55L112.79 133.843L120.314 128.92Z" fill="#00ADB5"/>
<path opacity="0.3" d="M89.2278 133.76L87.0278 133.558C88.9946 136.682 91.0318 139.889 94.0238 142.058C95.1942 142.903 96.5186 143.607 97.359 144.778C97.9442 145.6 98.4942 146.753 99.5018 146.705C99.9418 146.705 100.54 146.111 100.822 145.825C102.353 144.289 104.918 142.05 104.918 142.05C99.9503 138.816 94.6986 136.042 89.2278 133.76V133.76Z" fill="black"/>
<path d="M73.9202 170.337C73.874 170.39 73.8207 170.436 73.7618 170.473C73.6342 170.575 73.4758 170.693 73.2822 170.834C73.0886 170.975 72.8158 171.182 72.499 171.38C72.1822 171.578 71.839 171.82 71.4298 172.049C70.4864 172.605 69.5091 173.101 68.5038 173.536C66.027 174.608 63.4032 175.302 60.7202 175.595C59.632 175.717 58.5372 175.771 57.4422 175.758C56.9758 175.758 56.5622 175.727 56.1794 175.705C55.8629 175.693 55.5472 175.665 55.2334 175.621L54.635 175.547C54.566 175.543 54.4979 175.53 54.4326 175.507C54.5009 175.494 54.5711 175.494 54.6394 175.507L55.2422 175.538C55.5018 175.56 55.8186 175.577 56.1882 175.582C56.5578 175.586 56.9758 175.617 57.4422 175.582C58.5305 175.572 59.6174 175.503 60.6982 175.375C62.0194 175.206 63.3287 174.954 64.6186 174.623C65.9035 174.273 67.1645 173.841 68.3938 173.329C69.3971 172.907 70.3755 172.428 71.3242 171.895C71.7378 171.679 72.0898 171.455 72.4066 171.257C72.7234 171.059 72.9918 170.896 73.2074 170.751L73.709 170.425C73.8322 170.363 73.8938 170.328 73.9202 170.337Z" fill="#263238"/>
<path opacity="0.3" d="M63.2543 172.709C61.2039 172.762 58.8543 172.709 57.5343 174.293C57.4061 174.408 57.3157 174.559 57.2748 174.726C57.234 174.893 57.2447 175.069 57.3055 175.23C57.4727 175.503 57.8423 175.538 58.1855 175.542C63.609 175.561 68.9135 173.953 73.4139 170.927L73.7219 170.487C70.4007 171.87 66.8511 172.624 63.2543 172.709Z" fill="black"/>
<path d="M111.092 130.68C111.015 130.292 110.967 129.9 110.946 129.505C110.867 128.779 110.718 127.785 110.506 126.694C110.295 125.602 110.066 124.621 109.908 123.904C109.802 123.522 109.734 123.13 109.706 122.734C109.862 123.098 109.983 123.477 110.066 123.864C110.256 124.573 110.506 125.554 110.731 126.65C110.922 127.587 111.049 128.537 111.109 129.492C111.156 129.887 111.15 130.287 111.092 130.68Z" fill="#263238"/>
<path d="M95.8144 118.395C95.8144 118.395 87.3049 118.888 85.4085 124.441C84.6429 126.685 84.2204 129.32 85.646 131.758C86.8472 133.808 92.246 138.428 92.246 138.428L108.526 128.678C108.526 128.678 99.1892 118.747 95.8144 118.395Z" fill="#00ADB5"/>
<path d="M86.2402 132.761C86.2402 132.761 86.2842 132.788 86.3546 132.854L86.6802 133.135L87.8946 134.253C88.9594 135.238 90.473 136.642 92.3254 138.367H92.2198L105.323 130.473L107.083 129.408L107.963 128.885L108.381 128.625L108.588 128.493L108.689 128.427L108.737 128.396H108.759C108.75 128.414 108.745 128.434 108.745 128.454C108.745 128.474 108.75 128.493 108.759 128.511C108.771 128.525 108.785 128.536 108.8 128.545C108.816 128.553 108.834 128.558 108.852 128.559L108.773 128.524L103.387 122.967C102.564 122.131 101.812 121.304 101.073 120.6C100.37 119.958 99.5962 119.399 98.767 118.932C97.5761 118.26 96.3005 117.751 94.9742 117.418C94.5078 117.295 94.147 117.22 93.8962 117.176L93.619 117.119C93.5855 117.116 93.5527 117.107 93.5222 117.093C93.5544 117.089 93.5869 117.089 93.619 117.093L93.905 117.128C94.1558 117.163 94.5254 117.225 94.9918 117.335C96.3362 117.64 97.6308 118.133 98.8374 118.8C99.6818 119.263 100.47 119.821 101.187 120.463C101.953 121.18 102.705 121.994 103.532 122.826L108.931 128.361L108.856 128.326C108.875 128.327 108.892 128.333 108.908 128.342C108.924 128.351 108.938 128.364 108.949 128.379C108.96 128.396 108.965 128.416 108.965 128.436C108.965 128.456 108.96 128.476 108.949 128.493L108.922 128.515L108.869 128.55L108.764 128.616L108.553 128.748L108.113 129.012L107.255 129.536L105.495 130.605L98.3534 134.886L95.181 136.778L93.7246 137.658L93.0338 138.068L92.695 138.266L92.5278 138.367L92.4486 138.415L92.4046 138.437C92.4046 138.437 92.4046 138.468 92.4046 138.437H92.3122L87.9122 134.27L86.7286 133.122L86.4206 132.818C86.2402 132.801 86.2402 132.766 86.2402 132.761Z" fill="#263238"/>
<path d="M83.4726 130.011C83.3709 129.888 83.2879 129.75 83.2262 129.602C83.03 129.214 82.8681 128.809 82.7422 128.392C82.3139 127.005 82.2368 125.534 82.5179 124.11C82.799 122.686 83.4295 121.354 84.3526 120.234C84.6297 119.897 84.9343 119.584 85.2634 119.297C85.3784 119.186 85.507 119.09 85.6462 119.011C85.677 119.042 85.1446 119.451 84.4802 120.331C83.6127 121.451 83.0178 122.758 82.7429 124.148C82.468 125.538 82.5205 126.973 82.8962 128.339C83.1822 129.395 83.5122 129.994 83.4726 130.011Z" fill="#263238"/>
<path d="M93.4736 137.72C93.6848 137.931 124.436 154 131.96 156.235C139.484 158.47 144.28 151.945 144.28 151.945L142.08 145.97C142.08 145.97 140.215 145.297 136.224 144.109C132.233 142.921 129.941 143.669 129.941 143.669L108.099 128.959L93.4736 137.72Z" fill="#AA7D6D"/>
<path d="M135.96 152.68C135.939 152.896 135.863 153.104 135.74 153.283C135.48 153.735 135.131 154.13 134.715 154.444C134.301 154.761 133.826 154.988 133.32 155.113C133.114 155.185 132.893 155.203 132.678 155.166C133.366 154.999 134.013 154.692 134.578 154.264C135.142 153.837 135.613 153.297 135.96 152.68Z" fill="#896255"/>
<path d="M140.716 145.231C140.716 145.231 143.383 144.324 144.034 145.231C144.685 146.137 146.34 149.34 146.436 150.392C146.533 151.444 145.534 151.545 145.086 152.398C144.704 153.235 144.385 154.098 144.131 154.981L142.12 152.557L141.271 150.066L140.716 145.231Z" fill="#AA7D6D"/>
<path d="M108.104 128.951C108.203 129 108.298 129.056 108.39 129.118L109.182 129.628C109.89 130.09 110.876 130.741 112.081 131.538L121.598 137.909L126.821 141.429L129.1 142.978C129.452 143.224 129.804 143.449 130.134 143.673C130.454 143.892 130.761 144.129 131.054 144.381C131.943 145.135 132.714 146.018 133.342 146.999C133.558 147.347 133.712 147.629 133.808 147.822C133.865 147.918 133.911 148.02 133.945 148.126C133.879 148.036 133.821 147.942 133.769 147.844C133.659 147.659 133.496 147.404 133.267 147.048C132.617 146.096 131.836 145.24 130.948 144.505C130.658 144.259 130.354 144.03 130.038 143.818C129.708 143.598 129.351 143.378 128.995 143.136L126.707 141.605L121.471 138.085L111.993 131.652L109.133 129.681L108.363 129.135C108.269 129.085 108.182 129.023 108.104 128.951V128.951Z" fill="#896255"/>
<path d="M142.142 145.807C141.975 145.811 141.808 145.795 141.645 145.759C141.324 145.71 140.866 145.618 140.325 145.477C139.199 145.2 137.685 144.654 136.026 144.157C134.604 143.703 133.119 143.478 131.626 143.488C131.011 143.527 130.398 143.601 129.792 143.713C129.942 143.636 130.102 143.58 130.267 143.545C130.71 143.427 131.164 143.353 131.622 143.325C133.135 143.267 134.646 143.474 136.088 143.937C137.778 144.443 139.26 145.011 140.36 145.323C140.91 145.486 141.363 145.6 141.68 145.675C141.839 145.701 141.994 145.745 142.142 145.807V145.807Z" fill="#896255"/>
<path d="M144.668 151.303C144.694 151.303 144.668 151.496 144.531 151.774C144.352 152.123 144.119 152.442 143.841 152.72C143.47 153.138 143.021 153.48 142.521 153.727C142.863 153.306 143.241 152.916 143.651 152.561C144.016 152.163 144.355 151.743 144.668 151.303V151.303Z" fill="#896255"/>
<path d="M143.823 145.037C143.646 145.023 143.471 144.995 143.299 144.954C142.882 144.912 142.461 144.932 142.05 145.015C141.073 145.204 140.29 145.504 140.29 145.433C140.813 145.096 141.403 144.877 142.019 144.791C142.454 144.699 142.903 144.699 143.339 144.791C143.664 144.879 143.836 145.015 143.823 145.037Z" fill="#896255"/>
<path d="M204.182 202.101C204.182 202.162 162.012 202.215 110.022 202.215C58.0314 202.215 15.8398 202.162 15.8398 202.101C15.8398 202.039 58.0006 201.986 110.026 201.986C162.052 201.986 204.182 202.035 204.182 202.101Z" fill="#263238"/>
</svg>
