<svg width="220" height="220" viewBox="0 0 220 220" fill="none" xmlns="http://www.w3.org/2000/svg">
<path d="M91.9997 46.9524C92.4397 43.7756 87.9517 41.162 84.5769 40.8892C82.9709 40.7572 81.3033 41.0036 79.7809 40.4756C76.4809 39.3228 75.1609 35.0636 71.9445 33.704C69.5377 32.6876 66.7657 33.594 64.4337 34.7688C62.1017 35.9436 59.7917 37.4088 57.1869 37.5848C54.9165 37.73 52.4569 36.8896 50.4725 37.9984C48.9941 38.8212 48.2197 40.5284 46.8557 41.5184C45.4917 42.5084 43.7757 42.7108 42.1301 42.7988C40.4845 42.8868 38.7641 42.9044 37.2593 43.5952C35.7545 44.286 34.5049 45.8788 34.8173 47.5024L91.9997 46.9524Z" fill="#EBEBEB"/>
<path d="M49.4383 70.8664C49.3811 70.8928 48.1183 68.5696 46.5871 65.67C45.0559 62.7704 43.8855 60.39 43.9471 60.39C44.0087 60.39 45.2671 62.6868 46.7939 65.582C48.3207 68.4772 49.4955 70.84 49.4383 70.8664Z" fill="#EBEBEB"/>
<path d="M71.6146 78.6456C71.5574 78.672 70.2946 76.3488 68.7634 73.4492C67.2322 70.5496 66.0618 68.1692 66.1234 68.1692C66.185 68.1692 67.4434 70.466 68.9702 73.3612C70.497 76.2564 71.6718 78.6148 71.6146 78.6456Z" fill="#EBEBEB"/>
<path d="M93.7904 86.4248C93.7332 86.4512 92.4704 84.128 90.9392 81.2284C89.408 78.3288 88.2376 75.9484 88.2992 75.9484C88.3608 75.9484 89.6192 78.2452 91.146 81.1404C92.6728 84.0356 93.8476 86.394 93.7904 86.4248Z" fill="#EBEBEB"/>
<path d="M115.966 94.2039C115.909 94.2303 114.646 91.9071 113.115 89.0075C111.584 86.1079 110.413 83.7275 110.475 83.7275C110.537 83.7275 111.795 86.0243 113.326 88.9195C114.857 91.8147 116.023 94.1599 115.966 94.2039Z" fill="#EBEBEB"/>
<path d="M138.16 101.983C138.103 102.01 136.84 99.6863 135.309 96.7867C133.778 93.8871 132.607 91.5067 132.669 91.5067C132.73 91.5067 133.989 93.8035 135.52 96.6987C137.051 99.5939 138.2 101.952 138.16 101.983Z" fill="#EBEBEB"/>
<path d="M160.318 109.762C160.261 109.789 158.998 107.466 157.467 104.566C155.936 101.666 154.765 99.286 154.827 99.286C154.889 99.286 156.147 101.583 157.678 104.478C159.209 107.373 160.375 109.732 160.318 109.762Z" fill="#EBEBEB"/>
<path d="M143.405 85.6679C143.347 85.6987 142.085 83.3755 140.553 80.4759C139.022 77.5763 137.852 75.1959 137.913 75.1959C137.975 75.1959 139.233 77.4927 140.76 80.3879C142.287 83.2831 143.462 85.6415 143.405 85.6679Z" fill="#EBEBEB"/>
<path d="M97.8339 115.694C97.7767 115.72 96.5139 113.397 94.9827 110.502C93.4515 107.606 92.2811 105.222 92.3427 105.222C92.4043 105.222 93.6627 107.518 95.1939 110.414C96.7251 113.309 97.8911 115.663 97.8339 115.694Z" fill="#EBEBEB"/>
<path d="M68.8425 101.49C68.7897 101.521 67.5225 99.1979 65.9957 96.2983C64.4689 93.3987 63.2897 91.0183 63.3557 91.0183C63.4217 91.0183 64.6757 93.3151 66.2069 96.2103C67.7381 99.1055 68.8997 101.464 68.8425 101.49Z" fill="#EBEBEB"/>
<path d="M119.24 74.426C119.183 74.4568 117.92 72.1292 116.389 69.234C114.858 66.3388 113.687 63.954 113.749 63.954C113.811 63.954 115.069 66.2464 116.6 69.146C118.131 72.0456 119.311 74.3952 119.24 74.426Z" fill="#EBEBEB"/>
<path d="M146.15 65.12C146.097 65.1508 144.83 62.8231 143.303 59.9279C141.777 57.0327 140.602 54.6479 140.663 54.6479C140.725 54.6479 141.983 56.9404 143.515 59.84C145.046 62.7396 146.207 65.12 146.15 65.12Z" fill="#EBEBEB"/>
<path d="M168.635 63.3028C168.577 63.3336 167.315 61.006 165.783 58.1108C164.252 55.2156 163.082 52.8308 163.143 52.8308C163.205 52.8308 164.463 55.1232 165.99 58.0228C167.517 60.9224 168.687 63.272 168.635 63.3028Z" fill="#EBEBEB"/>
<path d="M147.281 42.2796C147.224 42.3104 145.961 39.9872 144.435 37.0876C142.908 34.188 141.729 31.8076 141.795 31.8076C141.861 31.8076 143.115 34.1044 144.646 36.9996C146.177 39.8948 147.339 42.24 147.281 42.2796Z" fill="#EBEBEB"/>
<path d="M95.1017 63.184C95.0445 63.2104 93.7817 60.8872 92.2549 57.992C90.7281 55.0968 89.5489 52.712 89.6149 52.69C89.6809 52.668 90.9349 54.9868 92.4661 57.882C93.9973 60.7772 95.1589 63.1532 95.1017 63.184Z" fill="#EBEBEB"/>
<path d="M108.781 45.6676C108.724 45.694 107.461 43.3708 105.93 40.4756C104.399 37.5804 103.228 35.1956 103.29 35.1956C103.352 35.1956 104.61 37.4924 106.137 40.392C107.664 43.2916 108.838 45.6368 108.781 45.6676Z" fill="#EBEBEB"/>
<path d="M71.6146 57.9348C71.5574 57.9656 70.2946 55.6424 68.7634 52.7428C67.2322 49.8432 66.0618 47.4628 66.1234 47.4628C66.185 47.4628 67.4434 49.7596 68.9702 52.6548C70.497 55.55 71.6718 57.9084 71.6146 57.9348Z" fill="#EBEBEB"/>
<path d="M162.879 32.6172C163.381 28.974 158.241 25.9776 154.378 25.6652C152.535 25.5156 150.621 25.7972 148.874 25.19C145.094 23.87 143.594 18.986 139.893 17.4284C137.135 16.2668 133.958 17.3008 131.283 18.6472C128.607 19.9936 125.963 21.6876 122.975 21.8768C120.375 22.044 117.555 21.0804 115.28 22.352C113.586 23.298 112.697 25.2516 111.135 26.4C109.573 27.5484 107.615 27.7684 105.719 27.8696C103.822 27.9708 101.86 27.9928 100.135 28.7848C98.4102 29.5768 96.9802 31.3984 97.3366 33.264L162.879 32.6172Z" fill="#F5F5F5"/>
<path d="M147.954 55.3167C148.258 53.1167 145.178 51.3567 142.868 51.1587C141.764 51.0663 140.62 51.2379 139.577 50.8727C137.311 50.0851 136.409 47.1591 134.2 46.2307C132.55 45.5311 130.649 46.1515 129.048 46.9567C127.446 47.7619 125.866 48.7783 124.08 48.8927C122.522 48.9895 120.833 48.4131 119.473 49.1743C118.461 49.7419 117.929 50.9079 116.992 51.5987C116.054 52.2895 114.888 52.4171 113.753 52.4787C112.618 52.5403 111.443 52.5491 110.409 53.0243C109.375 53.4995 108.522 54.5863 108.737 55.7039L147.954 55.3167Z" fill="#FAFAFA"/>
<path d="M49.5704 199.69C53.3896 205.533 61.4988 208.129 67.9976 205.594C71.0776 204.402 73.678 202.25 76.7096 200.961C80.8676 199.201 85.5844 199.166 90.0372 199.927C94.49 200.688 98.7712 202.198 103.114 203.447C112.837 206.239 122.888 207.726 133.003 207.869C139.3 207.953 145.724 207.491 151.558 205.137C157.392 202.783 162.615 198.295 164.635 192.333C164.635 192.333 46.0592 191.668 45.3948 192.333L44 193.745L49.5704 199.69Z" fill="#EBEBEB"/>
<path d="M50.6792 183.137C59.8312 178.812 63.4964 168.524 64.7944 158.937C65.01 157.34 65.472 155.69 64.9528 154.163C64.4336 152.636 62.832 151.36 61.292 151.8C60.016 152.152 59.2636 153.441 58.41 154.466C57.2679 155.83 55.7642 156.845 54.0716 157.392C52.9672 157.749 51.6604 157.832 50.754 157.133C49.5088 156.143 49.6716 154.22 49.9488 152.636C50.4709 149.688 50.9916 146.741 51.5108 143.796C51.7924 142.217 52.0696 140.598 51.8364 139.014C51.6032 137.43 50.7496 135.846 49.3152 135.168C47.8808 134.49 45.87 135.04 45.2892 136.536C45.119 137.181 44.9911 137.837 44.9064 138.499C44.7524 139.15 44.3212 139.819 43.6656 139.902C43.01 139.986 42.4468 139.423 42.0508 138.877C40.6912 137.003 39.9344 134.754 39.2436 132.532C38.5528 130.31 37.9236 128.04 36.7224 126.042C35.5212 124.045 33.7216 122.316 31.4776 121.801C29.2336 121.286 26.5804 122.276 25.63 124.406C24.6796 126.535 25.5904 129.026 26.6992 131.072C28.3443 134.108 30.419 136.891 32.8592 139.335C33.356 139.727 33.7138 140.268 33.88 140.879C34.0428 141.992 32.8636 142.868 31.7636 143.04C30.5184 143.229 29.2556 142.89 27.9972 142.824C26.7388 142.758 25.3088 143.075 24.6444 144.144C23.7204 145.649 24.7852 147.576 25.9292 148.914C28.2151 151.594 30.9465 153.859 34.0032 155.61C35.0944 156.235 36.256 156.816 37.0568 157.81C37.8576 158.805 38.1832 160.31 37.422 161.33C36.6608 162.351 35.1516 162.461 33.968 162.026C32.7844 161.59 31.8076 160.745 30.7208 160.107C28.6836 158.915 25.85 158.589 24.1208 160.23C22.9944 161.308 22.6204 163.016 22.8316 164.569C23.1151 166.11 23.7046 167.579 24.5652 168.89C27.3548 173.571 31.2576 177.628 36.0052 180.237C40.7528 182.846 45.3464 184.114 50.6748 183.137" fill="#F5F5F5"/>
<path d="M49.236 176.739C48.5369 171.275 47.5232 165.855 46.2 160.508C45.8568 159.085 45.5195 157.681 45.188 156.297C44.8492 154.915 44.5192 153.542 44.11 152.222C43.3311 149.686 42.413 147.195 41.36 144.76C40.3612 142.432 39.3272 140.259 38.346 138.235C37.3648 136.211 36.41 134.345 35.4684 132.678C33.9939 130.042 32.3122 127.527 30.4392 125.158C29.7792 124.318 29.2468 123.684 28.8772 123.257L28.4372 122.778C28.3919 122.721 28.3402 122.669 28.2832 122.624C28.3215 122.685 28.3642 122.744 28.4108 122.8L28.8112 123.297C29.1632 123.737 29.6912 124.379 30.3292 125.228C32.161 127.622 33.8098 130.15 35.2616 132.792C36.19 134.46 37.1316 136.312 38.104 138.354C39.0764 140.395 40.0972 142.556 41.0872 144.879C42.1393 147.304 43.0588 149.785 43.8416 152.31C44.2464 153.63 44.5764 154.981 44.9108 156.367C45.2452 157.753 45.5796 159.157 45.9228 160.578C47.2365 165.916 48.253 171.323 48.9676 176.774" fill="#E0E0E0"/>
<path d="M44.0396 152.196C44.15 151.99 44.2399 151.773 44.308 151.549C44.4664 151.109 44.6732 150.506 44.9196 149.736C45.408 148.201 46.0196 146.054 46.6796 143.682C47.3396 141.31 47.9732 139.181 48.488 137.654C48.7432 136.888 48.9588 136.272 49.1084 135.85C49.2001 135.633 49.2694 135.408 49.3152 135.177C49.1891 135.375 49.0844 135.586 49.0028 135.806C48.818 136.22 48.5628 136.827 48.2944 137.566C47.7268 139.08 47.0536 141.209 46.3936 143.585C45.7336 145.961 45.166 148.042 44.7172 149.657C44.5104 150.388 44.3388 151.004 44.198 151.496C44.116 151.722 44.0628 151.957 44.0396 152.196V152.196Z" fill="#E0E0E0"/>
<path d="M24.3364 144.927C24.5916 145.033 24.857 145.113 25.1284 145.165C25.6432 145.301 26.3912 145.49 27.302 145.759C29.1324 146.278 31.636 147.079 34.342 148.091C37.048 149.103 39.4988 150.128 41.2324 150.92C42.1124 151.312 42.7944 151.646 43.2784 151.87C43.5188 152.009 43.7742 152.12 44.0396 152.2C43.8159 152.032 43.5773 151.885 43.3268 151.76C42.8604 151.501 42.1784 151.136 41.3204 150.722C39.6044 149.877 37.1888 148.821 34.4608 147.805C32.1331 146.933 29.7629 146.18 27.3592 145.548C26.4352 145.31 25.6784 145.147 25.1592 145.046C24.8888 144.983 24.6136 144.943 24.3364 144.927V144.927Z" fill="#E0E0E0"/>
<path d="M49.0513 176.321C49.1215 176.255 49.1822 176.18 49.2317 176.097L49.7069 175.419C50.1161 174.83 50.6837 173.963 51.3701 172.88C52.7517 170.716 54.5601 167.666 56.5137 164.274C58.4673 160.882 60.2493 157.819 61.5781 155.628C62.2293 154.568 62.7661 153.692 63.1621 153.041L63.6021 152.332C63.6559 152.253 63.7002 152.167 63.7341 152.077C63.7341 152.077 63.6593 152.148 63.5493 152.302L63.0785 152.975C62.6693 153.564 62.1017 154.436 61.4109 155.518C60.0337 157.683 58.2209 160.732 56.2673 164.124C54.3137 167.517 52.5361 170.579 51.2029 172.766L49.6189 175.358L49.1789 176.066C49.1243 176.144 49.0813 176.23 49.0513 176.321V176.321Z" fill="#E0E0E0"/>
<path d="M23.4917 162.998C23.4917 162.998 23.5753 163.064 23.7425 163.156L24.4817 163.552L27.2185 165C29.5285 166.21 32.7009 167.913 36.2033 169.805C39.7057 171.697 42.8957 173.36 45.2321 174.526C46.3981 175.107 47.3485 175.569 48.0085 175.872L48.7741 176.22C48.8617 176.266 48.9549 176.3 49.0513 176.321C48.9739 176.259 48.8898 176.206 48.8005 176.163C48.6025 176.057 48.3605 175.93 48.0613 175.767L45.3201 174.337C43.0101 173.127 39.8377 171.42 36.3353 169.528C32.8329 167.636 29.6429 165.959 27.3109 164.798C26.1405 164.217 25.1901 163.755 24.5301 163.451L23.7601 163.104C23.6758 163.056 23.5855 163.021 23.4917 162.998V162.998Z" fill="#E0E0E0"/>
<path d="M204.455 191.616C204.455 191.677 161.375 191.73 108.245 191.73C55.1146 191.73 12.0254 191.677 12.0254 191.616C12.0254 191.554 55.097 191.501 108.245 191.501C161.392 191.501 204.455 191.55 204.455 191.616Z" fill="#263238"/>
<path d="M48.4442 163.306L39.5694 177.096C39.5694 177.096 22.5722 172.709 20.6802 175.12L46.803 193.288L61.5078 172.366L48.4442 163.306Z" fill="#00ADB5"/>
<path opacity="0.3" d="M48.4442 163.306L39.5694 177.096C39.5694 177.096 22.5722 172.709 20.6802 175.12L46.803 193.288L61.5078 172.366L48.4442 163.306Z" fill="black"/>
<path d="M48.4355 181.584C48.6288 181.837 48.7241 182.151 48.7039 182.469C48.6837 182.787 48.5493 183.086 48.3255 183.313C48.0815 183.519 47.7681 183.624 47.4492 183.607C47.1303 183.59 46.83 183.451 46.6095 183.22C46.4003 182.953 46.2973 182.618 46.32 182.279C46.3427 181.941 46.4897 181.623 46.7327 181.386C47.2519 181.012 48.2199 181.113 48.4927 181.68" fill="#E0E0E0"/>
<path d="M46.8074 193.266L48.2682 191.184L22.6338 174.491C22.6338 174.491 21.1202 174.187 20.6802 175.12L46.8074 193.266Z" fill="#E0E0E0"/>
<path d="M39.2394 176.669C39.1558 176.801 39.7498 177.302 40.093 178.147C40.4362 178.992 40.3966 179.762 40.533 179.793C40.6694 179.824 41.0082 178.957 40.577 177.936C40.1458 176.915 39.2922 176.532 39.2394 176.669Z" fill="#263238"/>
<path d="M35.7104 175.894C35.596 176 35.9964 176.603 36.0536 177.443C36.1108 178.284 35.8424 178.939 35.97 179.023C36.0976 179.106 36.6872 178.442 36.5948 177.395C36.5024 176.348 35.7984 175.776 35.7104 175.894Z" fill="#263238"/>
<path d="M31.8738 178.094C31.9706 178.2 32.591 177.69 32.7538 176.774C32.9166 175.859 32.5074 175.155 32.3798 175.226C32.2522 175.296 32.3798 175.921 32.2214 176.682C32.063 177.443 31.755 177.993 31.8738 178.094Z" fill="#263238"/>
<path d="M41.6108 173.752C41.58 173.906 42.2884 174.134 42.9748 174.684C43.6612 175.234 44.066 175.855 44.2112 175.789C44.3564 175.723 44.1276 174.909 43.3312 174.258C42.5348 173.606 41.6152 173.606 41.6108 173.752Z" fill="#263238"/>
<path d="M43.4502 171.002C43.415 171.054 43.8638 171.481 44.7702 171.903C45.2996 172.147 45.8566 172.326 46.429 172.436C46.7689 172.501 47.1129 172.542 47.4586 172.559C47.6616 172.579 47.8664 172.567 48.0658 172.524C48.2127 172.492 48.3448 172.412 48.4412 172.296C48.5376 172.181 48.5929 172.036 48.5982 171.886C48.5936 171.753 48.5592 171.624 48.4975 171.506C48.4358 171.389 48.3484 171.287 48.2418 171.208C48.0777 171.091 47.8967 170.999 47.705 170.935C47.3784 170.81 47.0411 170.714 46.6974 170.649C46.1172 170.538 45.5228 170.522 44.9374 170.601C43.943 170.742 43.4062 171.072 43.4326 171.129C43.459 171.186 44.031 171.015 44.9726 170.979C45.518 170.965 46.0633 171.016 46.5962 171.133C46.9066 171.207 47.211 171.305 47.507 171.424C47.8326 171.547 48.0702 171.706 48.057 171.864C48.057 171.926 48.057 171.948 47.925 171.987C47.7804 172.017 47.6321 172.026 47.485 172.013C47.161 172.001 46.8379 171.971 46.517 171.925C45.9714 171.846 45.435 171.714 44.9154 171.529C44.0002 171.239 43.4986 170.931 43.4502 171.002Z" fill="#263238"/>
<path d="M43.4897 171.301C43.5205 171.349 44.0925 171.068 44.7129 170.276C45.0736 169.808 45.3505 169.281 45.5313 168.718C45.6389 168.384 45.7126 168.041 45.7513 167.693C45.8009 167.471 45.7926 167.241 45.727 167.023C45.6615 166.806 45.5411 166.609 45.3773 166.452C45.2577 166.376 45.1188 166.335 44.9769 166.335C44.835 166.335 44.6961 166.376 44.5765 166.452C44.4022 166.557 44.2436 166.685 44.1057 166.835C43.8586 167.096 43.6524 167.392 43.4941 167.715C43.2231 168.261 43.0916 168.865 43.1113 169.475C43.1509 170.504 43.5777 171.028 43.6217 170.993C43.6657 170.958 43.4325 170.403 43.4941 169.479C43.5298 168.949 43.6799 168.432 43.9341 167.966C44.0806 167.686 44.2657 167.428 44.4841 167.2C44.7217 166.949 44.9813 166.8 45.0649 166.896C45.1442 167.002 45.1995 167.124 45.2268 167.253C45.2542 167.382 45.253 167.516 45.2233 167.644C45.1942 167.961 45.1382 168.274 45.0561 168.582C44.9079 169.103 44.6872 169.6 44.4005 170.06C43.9033 170.848 43.4325 171.23 43.4897 171.301Z" fill="#263238"/>
<path d="M51.1854 176.035L42.315 189.825C42.315 189.825 25.3134 185.425 23.4258 187.827L49.5486 205.995L64.2402 185.073L51.1854 176.035Z" fill="#00ADB5"/>
<path d="M51.1768 194.313C51.3706 194.565 51.4667 194.879 51.4473 195.197C51.4279 195.515 51.2943 195.815 51.0712 196.042C50.8273 196.25 50.5127 196.357 50.1925 196.34C49.8722 196.322 49.5709 196.183 49.3508 195.95C48.9372 195.466 48.9592 194.489 49.4784 194.119C49.9976 193.75 50.9612 193.842 51.2384 194.41" fill="#E0E0E0"/>
<path d="M49.5486 205.995L51.0094 203.914L25.3794 187.22C25.3794 187.22 23.8658 186.916 23.4258 187.827L49.5486 205.995Z" fill="#E0E0E0"/>
<path d="M41.9806 189.398C41.897 189.53 42.4954 190.032 42.8606 190.876C43.2258 191.721 43.1642 192.491 43.3006 192.522C43.437 192.553 43.7758 191.686 43.3446 190.67C42.9134 189.653 42.0378 189.262 41.9806 189.398Z" fill="#263238"/>
<path d="M38.4519 188.628C38.3375 188.729 38.7423 189.332 38.7995 190.172C38.8567 191.013 38.5839 191.668 38.7159 191.752C38.8479 191.835 39.4287 191.171 39.3363 190.128C39.2439 189.085 38.5399 188.505 38.4519 188.628Z" fill="#263238"/>
<path d="M34.6194 190.824C34.7162 190.934 35.3366 190.419 35.4994 189.504C35.6622 188.588 35.253 187.884 35.1254 187.955C34.9978 188.025 35.1254 188.654 34.967 189.411C34.8086 190.168 34.5006 190.722 34.6194 190.824Z" fill="#263238"/>
<path d="M44.3523 186.481C44.3259 186.635 45.0343 186.864 45.7207 187.414C46.4071 187.964 46.8119 188.584 46.9527 188.522C47.0935 188.461 46.8735 187.642 46.0727 186.991C45.2719 186.34 44.3611 186.336 44.3523 186.481Z" fill="#263238"/>
<path d="M46.2002 183.731C46.1606 183.784 46.6094 184.21 47.5202 184.633C48.0501 184.879 48.6089 185.058 49.1834 185.165C49.5218 185.23 49.8644 185.271 50.2086 185.288C50.4128 185.31 50.6191 185.299 50.8202 185.258C50.9667 185.225 51.0982 185.145 51.1939 185.029C51.2895 184.914 51.3438 184.77 51.3482 184.62C51.3474 184.486 51.3146 184.354 51.2526 184.235C51.1906 184.117 51.1012 184.015 50.9918 183.938C50.8282 183.819 50.6471 183.727 50.455 183.665C49.5762 183.324 48.6263 183.209 47.6918 183.33C46.6974 183.471 46.1562 183.801 46.1826 183.858C46.209 183.916 46.7854 183.744 47.7226 183.713C48.2682 183.694 48.814 183.745 49.3462 183.867C49.6591 183.937 49.9654 184.034 50.2614 184.158C50.587 184.276 50.8246 184.439 50.807 184.598C50.807 184.664 50.807 184.681 50.6794 184.725C50.5342 184.751 50.3864 184.758 50.2394 184.747C49.9166 184.739 49.5947 184.709 49.2758 184.659C48.7306 184.58 48.1943 184.449 47.6742 184.268C46.759 183.968 46.2398 183.66 46.2002 183.731Z" fill="#263238"/>
<path d="M46.2352 184.03C46.266 184.078 46.838 183.797 47.4584 183.005C47.8157 182.535 48.0923 182.008 48.2768 181.447C48.3828 181.114 48.4551 180.77 48.4924 180.422C48.542 180.2 48.5336 179.97 48.4681 179.753C48.4026 179.535 48.2821 179.338 48.1184 179.181C47.9988 179.105 47.8599 179.064 47.718 179.064C47.5761 179.064 47.4371 179.105 47.3176 179.181C47.1442 179.287 46.9871 179.417 46.8512 179.568C46.602 179.828 46.3943 180.125 46.2352 180.448C45.9679 180.988 45.8379 181.585 45.8568 182.186C45.8964 183.22 46.3232 183.74 46.3628 183.704C46.4024 183.669 46.178 183.115 46.2396 182.195C46.2747 181.663 46.4248 181.145 46.6796 180.677C46.8266 180.406 47.0119 180.157 47.2296 179.938C47.4628 179.687 47.7224 179.538 47.806 179.639C47.8851 179.744 47.9407 179.864 47.9688 179.993C47.9969 180.121 47.9969 180.254 47.9688 180.382C47.9382 180.699 47.8808 181.013 47.7972 181.32C47.6528 181.842 47.4319 182.34 47.1416 182.798C46.64 183.577 46.2 183.96 46.2352 184.03Z" fill="#263238"/>
<path d="M47.4409 178.829C47.4409 178.829 55.0793 164.494 54.0409 165.924C51.2205 169.818 67.7953 146.199 75.3149 134.103C76.5098 132.182 78.124 130.555 80.0366 129.346C81.9492 128.137 84.1106 127.376 86.3589 127.12V127.12C88.6322 126.862 90.9344 127.128 93.089 127.898C95.2436 128.668 97.1934 129.92 98.7889 131.56L141.548 175.428L161.432 187C161.432 187 156.539 197.437 140.752 199.628C124.965 201.819 115.276 189.046 107.312 180.91C97.9353 171.327 88.5457 158.448 88.5457 158.448L63.6285 191.334C63.6285 191.334 48.2373 179.766 47.4409 178.829Z" fill="#263238"/>
<path d="M78.1 129.721C72.2727 131.121 67.1409 134.565 63.6372 139.427L41.668 169.615L52.2588 176.88L78.1 129.721Z" fill="#263238"/>
<path d="M74.4303 133.144C74.4303 133.144 74.4303 133.188 74.3511 133.258L74.0915 133.562L73.6515 134.059C73.4843 134.253 73.3171 134.499 73.1147 134.768C72.2919 135.832 71.2359 137.465 69.9467 139.493C67.4079 143.572 64.0815 149.314 60.4867 155.703L51.2951 172.08C50.1159 174.161 49.1611 175.85 48.4879 177.034L47.7135 178.354C47.6255 178.495 47.5595 178.609 47.5067 178.697C47.4539 178.785 47.4319 178.816 47.4275 178.812C47.4231 178.807 47.4275 178.768 47.4847 178.688L47.6739 178.332L48.4087 176.972L51.1543 171.983C53.4775 167.776 56.6807 161.964 60.2843 155.575C63.8879 149.186 67.2363 143.449 69.8103 139.388C71.1303 137.372 72.1995 135.749 73.0399 134.697C73.2511 134.433 73.4227 134.191 73.5987 133.998L74.0387 133.514L74.3159 133.223L74.4303 133.144Z" fill="#455A64"/>
<path d="M87.9561 150.432C87.9945 150.834 88.0034 151.238 87.9825 151.642C87.9825 152.39 88.0265 153.402 88.1541 154.55C88.2649 155.515 88.4265 156.475 88.6381 157.423C88.7444 157.813 88.8252 158.21 88.8801 158.611C88.7026 158.245 88.5682 157.86 88.4797 157.463C87.962 155.568 87.7394 153.604 87.8197 151.642C87.814 151.234 87.8599 150.828 87.9561 150.432V150.432Z" fill="#455A64"/>
<path d="M90.8735 149.508C90.7771 149.943 90.6537 150.372 90.5039 150.792C90.2619 151.58 89.9539 152.676 89.6855 153.903C89.4171 155.131 89.2455 156.253 89.1311 157.071C89.0918 157.515 89.0256 157.956 88.9331 158.391C88.8974 157.944 88.9107 157.494 88.9727 157.049C89.1699 154.897 89.6324 152.778 90.3499 150.74C90.48 150.311 90.6556 149.898 90.8735 149.508V149.508Z" fill="#455A64"/>
<path d="M119.742 75.0156L131.182 101.746C131.643 102.823 131.88 103.984 131.88 105.156C131.879 106.328 131.64 107.488 131.178 108.565C130.715 109.642 130.039 110.614 129.189 111.422C128.34 112.23 127.335 112.857 126.236 113.265V113.265C124.153 114.032 121.854 113.971 119.815 113.092C117.776 112.213 116.153 110.585 115.28 108.544C114.422 106.533 113.701 104.856 113.599 104.654C113.599 104.654 106.52 106.929 103.145 100.404C101.513 97.2488 98.6833 90.4816 96.1929 84.326C94.9042 81.1383 94.8633 77.5821 96.0782 74.3656C97.293 71.149 99.6747 68.5079 102.749 66.968L103.383 66.6512C110.414 63.624 116.913 67.9052 119.742 75.0156Z" fill="#FFBE9D"/>
<path d="M113.52 104.566C116.58 103.102 119.135 100.76 120.859 97.8384C120.859 97.8384 121.207 103.558 114.36 106.273L113.52 104.566Z" fill="#EB996E"/>
<path d="M100.241 88.3652C100.298 88.4919 100.379 88.6059 100.481 88.7007C100.582 88.7954 100.702 88.8689 100.832 88.9169C100.962 88.9648 101.101 88.9863 101.24 88.9799C101.379 88.9736 101.515 88.9396 101.64 88.88C101.763 88.8299 101.875 88.7558 101.969 88.662C102.063 88.5682 102.137 88.4566 102.188 88.3336C102.238 88.2107 102.264 88.079 102.263 87.9461C102.261 87.8133 102.234 87.682 102.181 87.56C102.061 87.3144 101.85 87.1253 101.593 87.0333C101.336 86.9412 101.052 86.9534 100.804 87.0672C100.682 87.1152 100.57 87.187 100.475 87.2783C100.381 87.3696 100.305 87.4787 100.253 87.5992C100.201 87.7198 100.173 87.8496 100.171 87.981C100.168 88.1124 100.192 88.243 100.241 88.3652V88.3652Z" fill="#263238"/>
<path d="M98.9342 87.12C99.1102 87.1816 99.559 86.3016 100.571 85.8C101.583 85.2984 102.573 85.4304 102.617 85.2544C102.643 85.1708 102.415 85.0124 101.975 84.9376C101.387 84.8542 100.788 84.954 100.259 85.2236C99.7344 85.487 99.3065 85.9088 99.0354 86.4292C98.8418 86.812 98.8506 87.0848 98.9342 87.12Z" fill="#263238"/>
<path d="M110.119 83.5735C110.238 83.8199 110.449 84.0097 110.707 84.1019C110.964 84.194 111.248 84.1813 111.496 84.0663C111.619 84.0163 111.731 83.9422 111.825 83.8483C111.919 83.7545 111.994 83.6429 112.044 83.52C112.094 83.3971 112.12 83.2653 112.119 83.1325C112.117 82.9996 112.09 82.8683 112.037 82.7463C111.918 82.4999 111.707 82.3101 111.45 82.2179C111.192 82.1258 110.908 82.1385 110.66 82.2535C110.537 82.3036 110.425 82.3776 110.331 82.4715C110.237 82.5653 110.163 82.6769 110.112 82.7998C110.062 82.9227 110.036 83.0545 110.038 83.1873C110.039 83.3202 110.066 83.4515 110.119 83.5735V83.5735Z" fill="#263238"/>
<path d="M109.147 82.1436C109.314 82.2272 109.873 81.4132 110.942 81.0436C112.011 80.674 112.975 80.938 113.045 80.7664C113.08 80.6916 112.878 80.498 112.447 80.3704C111.875 80.2103 111.268 80.2318 110.709 80.432C110.153 80.6228 109.673 80.9848 109.336 81.466C109.12 81.84 109.067 82.104 109.147 82.1436Z" fill="#263238"/>
<path d="M109.323 91.3747C109.301 91.3131 108.619 91.5199 107.536 91.9027C107.263 92.0039 106.995 92.0743 106.863 91.9027C106.708 91.6476 106.635 91.3515 106.652 91.0535C106.581 90.3099 106.507 89.5267 106.432 88.7083C106.089 85.3863 105.701 82.7023 105.552 82.7199C105.402 82.7375 105.587 85.4391 105.93 88.7655C106.018 89.5795 106.106 90.3583 106.19 91.1019C106.183 91.4955 106.316 91.8788 106.564 92.1843C106.647 92.2559 106.745 92.3077 106.851 92.3359C106.957 92.3641 107.068 92.3679 107.175 92.3471C107.337 92.3139 107.494 92.2607 107.642 92.1887C108.711 91.7487 109.349 91.4319 109.323 91.3747Z" fill="#263238"/>
<path d="M113.028 78.2012C112.869 77.9152 111.782 78.2452 110.449 78.3024C109.116 78.3596 107.998 78.1748 107.871 78.474C107.814 78.6192 108.047 78.8744 108.522 79.0944C109.149 79.3619 109.83 79.4823 110.511 79.4465C111.192 79.4106 111.855 79.2195 112.451 78.8876C112.9 78.6148 113.102 78.32 113.028 78.2012Z" fill="#263238"/>
<path d="M100.426 83.4328C100.122 83.3272 99.6206 83.9784 98.8462 84.5064C98.0718 85.0344 97.3106 85.316 97.3062 85.6416C97.3062 85.7956 97.557 85.9408 97.9794 85.9496C98.5261 85.9386 99.0572 85.7655 99.5053 85.4521C99.9534 85.1388 100.298 84.6993 100.496 84.1896C100.624 83.7672 100.571 83.49 100.426 83.4328Z" fill="#263238"/>
<path d="M121.647 80.146C121.735 80.0404 125.488 76.5468 127.596 81.1096C129.703 85.6724 124.692 86.8296 124.626 86.7196C124.56 86.6096 121.647 80.146 121.647 80.146Z" fill="#FFBE9D"/>
<path d="M125.22 84.348C125.22 84.3216 125.325 84.348 125.488 84.348C125.714 84.3401 125.928 84.2456 126.087 84.084C126.487 83.6836 126.527 82.7332 126.179 81.884C126.011 81.4874 125.755 81.134 125.431 80.85C125.323 80.7262 125.186 80.6309 125.033 80.5726C124.879 80.5143 124.714 80.4947 124.551 80.5156C124.448 80.5334 124.354 80.5875 124.287 80.6681C124.22 80.7488 124.184 80.8507 124.186 80.9556C124.186 81.1096 124.252 81.1888 124.234 81.2064C124.217 81.224 124.098 81.1756 124.049 80.9688C124.022 80.8437 124.039 80.713 124.098 80.5992C124.18 80.448 124.317 80.3345 124.481 80.2824C124.685 80.2323 124.898 80.2355 125.101 80.2918C125.304 80.348 125.489 80.4554 125.638 80.6036C126.02 80.9071 126.322 81.2999 126.518 81.7476C126.914 82.6804 126.843 83.7584 126.271 84.2556C126.166 84.3482 126.04 84.4158 125.904 84.4531C125.769 84.4904 125.627 84.4966 125.488 84.4712C125.277 84.4536 125.207 84.3612 125.22 84.348Z" fill="#EB996E"/>
<path d="M124.08 78.7599C123.314 78.9359 122.448 80.1635 122.474 80.9599C122.5 81.7563 122.804 82.5043 122.835 83.2919C122.866 84.0795 122.5 84.9903 121.735 85.1707C121.465 85.2145 121.189 85.1862 120.934 85.0889C120.679 84.9915 120.455 84.8285 120.283 84.6163C119.946 84.1889 119.695 83.7003 119.544 83.1775C118.756 80.9467 118.153 78.6455 117.181 76.4939C116.208 74.3423 114.805 72.2963 112.781 71.0555C110.757 69.8147 108.068 69.5111 106.049 70.7387C104.729 71.5483 103.796 72.9167 102.507 73.8187C101.736 74.3414 100.857 74.6815 99.9349 74.8134C99.0131 74.9453 98.0735 74.8655 97.1872 74.5799C97.1256 74.5799 97.02 74.5403 96.888 74.5183C96.5959 74.472 96.3272 74.3312 96.1229 74.1173C95.9186 73.9035 95.7902 73.6286 95.7572 73.3347C95.7295 73.1458 95.746 72.953 95.8056 72.7715C97.2796 68.8511 101.878 65.6523 105.965 64.7459C110.053 63.8395 114.765 64.6931 118.017 67.3155C121.268 69.9379 123.2 74.8659 124.08 78.7599Z" fill="#263238"/>
<path d="M113.045 92.6244C113.045 92.6904 112.799 92.6904 112.455 92.7476C112.018 92.823 111.603 92.996 111.241 93.2536C110.874 93.5116 110.558 93.8371 110.313 94.2128C110.115 94.5032 110.022 94.7144 109.956 94.6968C109.89 94.6792 109.881 94.4372 110.022 94.0676C110.216 93.5847 110.548 93.1699 110.977 92.8752C111.403 92.5731 111.916 92.4186 112.438 92.4352C112.838 92.4484 113.054 92.5672 113.045 92.6244Z" fill="#263238"/>
<path d="M113.846 82.896C113.801 83.2934 113.614 83.661 113.318 83.9305C113.023 84.2 112.64 84.353 112.24 84.3612C112.561 84.182 112.87 83.9806 113.164 83.7584C113.613 83.358 113.78 82.874 113.846 82.896Z" fill="#EB996E"/>
<path d="M77.2598 91.0227L84.203 78.3199L89.923 73.7087L97.3062 74.7251C97.3062 74.7251 99.427 77.1407 98.6262 78.3375C97.8254 79.5343 97.0686 82.5395 96.237 81.4439C95.4054 80.3483 95.2338 78.0339 95.2338 78.0339L93.2846 77.9283V81.3691L97.2094 82.5615C97.2094 82.5615 101.09 79.3319 101.482 80.0403C101.873 80.7487 101.53 82.0599 99.3082 83.9387C97.0862 85.8175 94.4022 88.7171 94.4022 88.7171L90.9086 89.5443L87.7714 94.5515L77.2598 91.0227Z" fill="#FFBE9D"/>
<path d="M116.486 107.36L80.0275 118.444L88.5635 94.1072L77.0003 90.464L63.8223 117.48C59.8623 126.83 60.9271 130.962 64.6231 135.018C67.5931 138.279 75.3943 136.686 79.7283 135.898L111.624 130.926L116.486 107.36Z" fill="#00ADB5"/>
<path opacity="0.4" d="M116.486 107.36L80.0275 118.444L88.5635 94.1072L77.0003 90.464L63.8223 117.48C59.8623 126.83 60.9271 130.962 64.6231 135.018C67.5931 138.279 75.3943 136.686 79.7283 135.898L111.514 130.944L116.486 107.36Z" fill="black"/>
<path d="M73.3395 104.993C72.7936 105.047 72.2429 105.027 71.7027 104.931C71.1522 104.909 70.6074 104.811 70.0835 104.641C70.6302 104.593 71.1808 104.619 71.7203 104.72C72.2703 104.733 72.8155 104.825 73.3395 104.993Z" fill="#FAFAFA"/>
<path d="M73.9202 103.708C72.895 103.571 71.8956 103.284 70.9546 102.854C71.4721 102.884 71.9823 102.99 72.4682 103.171C72.9766 103.276 73.4662 103.457 73.9202 103.708V103.708Z" fill="#FAFAFA"/>
<path d="M109.653 127.842C109.653 127.842 124.358 151.558 124.261 155.096C124.164 158.633 131.059 166.351 134.104 169.396C137.148 172.44 154.735 186.996 161.432 186.996C161.432 186.996 170.069 174.552 169.458 167.248C168.846 159.944 155.285 121.44 155.285 121.44C155.285 121.44 144.756 99.352 135.045 97.1916C132.581 96.646 128.639 95.788 128.639 95.788C128.639 95.9816 129.206 100.8 124.318 103.778C117.467 107.95 109.323 110.972 109.323 110.972L109.653 127.842Z" fill="#00ADB5"/>
<path d="M126.751 104.21L104.751 110.559L85.5626 114.563L94.0986 90.2263L81.8754 86.4071L69.3574 113.639C65.3974 122.989 66.4622 127.12 70.1582 131.177C73.1282 134.438 80.925 132.845 85.2634 132.035L122.725 128.537L126.751 104.21Z" fill="#00ADB5"/>
<path d="M82.8169 86.6052L89.4609 74.4612L95.1809 69.85L102.564 70.8664C102.564 70.8664 104.685 73.282 103.884 74.4788C103.083 75.6756 102.326 78.6808 101.495 77.5852C100.663 76.4896 100.492 74.1752 100.492 74.1752L98.5425 74.0696V77.5104L102.467 78.7028C102.467 78.7028 106.348 75.4732 106.74 76.1816C107.131 76.89 106.788 78.2012 104.57 80.08C102.353 81.9588 99.6601 84.8584 99.6601 84.8584L96.1665 85.6856L93.4517 90.024L82.8169 86.6052Z" fill="#FFBE9D"/>
<path d="M93.4517 90.0239C93.4517 90.0239 93.4517 89.9975 93.4913 89.9491L93.6189 89.7291L94.1337 88.8799L96.1181 85.6547H96.1401L99.6293 84.8143L99.5941 84.8363C101.28 82.9993 103.069 81.2599 104.953 79.6267C105.487 79.1535 105.955 78.6104 106.344 78.0119C106.542 77.7086 106.68 77.3693 106.748 77.0131C106.783 76.8403 106.783 76.6623 106.748 76.4895C106.729 76.4078 106.698 76.3292 106.656 76.2563C106.656 76.2211 106.577 76.1991 106.493 76.2123C106.129 76.3003 105.783 76.4491 105.468 76.6523C105.138 76.8547 104.808 77.0923 104.482 77.3079C103.831 77.7699 103.184 78.2715 102.546 78.7995L102.502 78.8347H102.445L98.5205 77.6467L98.4413 77.6203V77.5411C98.4413 76.4499 98.4413 75.2839 98.4413 74.1047V73.9815H98.5645L100.514 74.0827H100.61V74.1839C100.681 75.1392 100.901 76.0775 101.262 76.9647C101.339 77.1393 101.433 77.3059 101.543 77.4619C101.644 77.6203 101.776 77.7435 101.9 77.7215C102.056 77.6616 102.186 77.5497 102.269 77.4047C102.379 77.2509 102.478 77.0891 102.564 76.9207C102.92 76.2343 103.193 75.5083 103.563 74.8219C103.607 74.7383 103.655 74.6503 103.708 74.5667C103.761 74.4913 103.808 74.4119 103.849 74.3291C103.849 74.2895 103.888 74.2543 103.906 74.2147L103.932 74.0915C103.955 74.0068 103.963 73.9193 103.959 73.8319C103.943 73.47 103.853 73.1152 103.695 72.7891C103.384 72.1268 102.983 71.5108 102.502 70.9587L102.573 70.9939L95.1677 69.9599H95.2469L89.5269 74.5579L89.5489 74.5315L84.6649 83.3843L83.3141 85.7999L82.9577 86.4291C82.9189 86.5003 82.8763 86.5693 82.8301 86.6359C82.8301 86.6359 82.8609 86.5611 82.9357 86.4159C83.0105 86.2707 83.1293 86.0507 83.2701 85.7735L84.5901 83.3359C85.7385 81.2195 87.3885 78.1791 89.4081 74.4479L95.1281 69.8279L95.1633 69.7971H95.2073L102.59 70.8047H102.63L102.656 70.8355C103.151 71.4055 103.566 72.0406 103.888 72.7231C104.058 73.0785 104.154 73.4647 104.17 73.8583C104.175 73.9605 104.165 74.0628 104.139 74.1619L104.104 74.3159C104.085 74.3641 104.063 74.4111 104.038 74.4567C103.995 74.5456 103.945 74.6309 103.888 74.7119C103.84 74.7911 103.792 74.8747 103.748 74.9583C103.391 75.6227 103.118 76.3487 102.753 77.0527C102.663 77.2321 102.558 77.4042 102.441 77.5675C102.326 77.7654 102.138 77.9107 101.917 77.9723C101.853 77.9804 101.788 77.9753 101.726 77.9571C101.664 77.9389 101.606 77.9082 101.556 77.8667C101.473 77.7957 101.4 77.7126 101.341 77.6203C101.224 77.4529 101.124 77.2746 101.042 77.0879C100.669 76.1755 100.442 75.2105 100.368 74.2279L100.478 74.3335L98.5293 74.2279L98.6481 74.1135C98.6481 75.2971 98.6481 76.4631 98.6481 77.5499L98.5689 77.4443L102.489 78.6411L102.392 78.6631C103.035 78.1351 103.686 77.6335 104.342 77.1671C104.672 76.9339 105.006 76.7271 105.345 76.5071C105.683 76.2829 106.059 76.1206 106.454 76.0275C106.52 76.0147 106.588 76.0206 106.651 76.0447C106.714 76.0689 106.769 76.1101 106.81 76.1639C106.864 76.2557 106.904 76.3551 106.929 76.4587C106.976 76.6563 106.983 76.8611 106.951 77.0615C106.875 77.4432 106.726 77.8065 106.511 78.1307C106.112 78.7436 105.631 79.2987 105.081 79.7807C103.199 81.3943 101.407 83.1099 99.7129 84.9199V84.9199L96.2149 85.7339L96.2545 85.7075L94.2173 88.9019C93.9885 89.2627 93.8081 89.5399 93.6805 89.7335L93.5397 89.9447L93.4517 90.0239Z" fill="#EB996E"/>
<path d="M124.731 134.063C124.545 133.957 124.367 133.836 124.199 133.703C124.036 133.575 123.834 133.43 123.587 133.263C123.341 133.095 123.077 132.906 122.756 132.722C122.023 132.274 121.262 131.876 120.477 131.529C119.511 131.114 118.515 130.773 117.498 130.508C115.64 130.051 113.735 129.812 111.822 129.795C111.087 129.795 110.502 129.795 110.062 129.795C109.848 129.812 109.633 129.812 109.419 129.795C109.628 129.744 109.842 129.714 110.057 129.707C110.467 129.663 111.065 129.633 111.817 129.619C113.745 129.588 115.668 129.808 117.537 130.275C118.567 130.542 119.574 130.892 120.547 131.322C121.336 131.683 122.098 132.101 122.826 132.572C123.143 132.765 123.407 132.972 123.645 133.144C123.851 133.288 124.049 133.444 124.239 133.61C124.418 133.744 124.583 133.896 124.731 134.063Z" fill="#263238"/>
<path d="M122.32 105.358C122.107 105.457 121.886 105.538 121.66 105.6L119.838 106.176C118.294 106.656 116.16 107.303 113.797 108.002C111.435 108.702 109.292 109.322 107.738 109.762L105.891 110.268C105.668 110.344 105.438 110.397 105.204 110.427C105.416 110.328 105.635 110.247 105.86 110.185L107.686 109.608C109.226 109.129 111.364 108.482 113.727 107.782C116.09 107.083 118.237 106.462 119.79 106.022L121.638 105.512C121.86 105.439 122.088 105.388 122.32 105.358Z" fill="#263238"/>
<path d="M157.01 168.52C156.942 168.618 156.864 168.708 156.776 168.788C156.693 168.872 156.596 168.982 156.468 169.096L156.028 169.484C155.024 170.255 153.868 170.807 152.636 171.103C150.808 171.54 148.903 171.553 147.07 171.138C144.841 170.586 142.736 169.621 140.862 168.296C138.993 166.979 137.209 165.546 135.52 164.006C133.945 162.615 132.519 161.366 131.256 160.424C130.263 159.663 129.221 158.967 128.137 158.343C127.754 158.127 127.45 157.964 127.257 157.859C127.148 157.809 127.043 157.75 126.944 157.683C127.059 157.717 127.169 157.763 127.274 157.819C127.49 157.907 127.798 158.061 128.194 158.259C129.301 158.854 130.362 159.532 131.366 160.288C132.647 161.229 134.09 162.457 135.674 163.834C137.354 165.356 139.127 166.774 140.98 168.08C142.832 169.388 144.908 170.346 147.105 170.905C148.911 171.317 150.786 171.317 152.592 170.905C153.807 170.626 154.953 170.105 155.962 169.374L156.424 169.008C156.556 168.898 156.653 168.793 156.741 168.718C156.827 168.647 156.916 168.581 157.01 168.52V168.52Z" fill="#263238"/>
<path d="M148.672 143.519C148.528 143.555 148.38 143.57 148.232 143.563C147.834 143.574 147.435 143.558 147.039 143.515C146.445 143.457 145.856 143.351 145.279 143.198C143.872 142.827 142.544 142.201 141.363 141.35C140.884 141.002 140.433 140.618 140.013 140.202C139.73 139.926 139.465 139.632 139.221 139.322C139.122 139.212 139.041 139.089 138.979 138.956C139.009 138.93 139.397 139.418 140.127 140.096C140.554 140.492 141.009 140.858 141.487 141.192C142.076 141.592 142.694 141.949 143.335 142.261C143.981 142.56 144.648 142.81 145.332 143.009C145.894 143.167 146.466 143.286 147.044 143.365C148.051 143.488 148.672 143.48 148.672 143.519Z" fill="#263238"/>
<g opacity="0.2">
<path d="M131.895 160.706C133.681 159.971 135.771 160.543 137.395 161.586C139.018 162.628 140.325 164.089 141.795 165.348C143.264 166.606 145.002 167.702 146.934 167.759C149.723 167.847 152.214 165.766 155.021 165.801C156.059 165.801 157.291 166.368 157.349 167.407C157.393 168.208 156.711 168.846 156.029 169.29C152.997 171.288 150.969 172.625 144.347 170.082C139.774 167.56 135.582 164.403 131.895 160.706V160.706Z" fill="black"/>
</g>
<path d="M124.626 155.047C124.569 155.078 121.436 149.424 117.63 142.428C113.824 135.432 110.775 129.725 110.832 129.694C110.889 129.664 114.022 135.313 117.828 142.318C121.634 149.323 124.683 155.016 124.626 155.047Z" fill="#263238"/>
<path d="M103.51 130.134C103.389 129.921 103.286 129.697 103.202 129.466C103.013 129.026 102.762 128.388 102.472 127.591C100.959 123.428 99.9252 119.106 99.392 114.708C99.2952 113.863 99.2292 113.181 99.2028 112.706C99.1735 112.462 99.1647 112.216 99.1764 111.971C99.2342 112.21 99.2724 112.452 99.2908 112.697C99.348 113.168 99.436 113.85 99.5548 114.686C99.788 116.362 100.184 118.672 100.778 121.185C101.372 123.697 102.067 125.932 102.608 127.538C102.881 128.339 103.11 128.986 103.268 129.43C103.368 129.658 103.449 129.894 103.51 130.134V130.134Z" fill="#FAFAFA"/>
<path d="M106.071 130.099C105.954 129.872 105.854 129.637 105.772 129.395C105.596 128.955 105.354 128.264 105.076 127.428C103.643 123.066 102.709 118.555 102.291 113.982C102.212 113.102 102.168 112.394 102.15 111.901C102.128 111.646 102.128 111.39 102.15 111.135C102.203 111.386 102.235 111.64 102.247 111.896C102.291 112.385 102.362 113.093 102.463 113.964C102.656 115.724 102.995 118.114 103.536 120.74C104.078 123.367 104.729 125.704 105.239 127.38C105.499 128.22 105.714 128.898 105.868 129.364C105.953 129.604 106.021 129.85 106.071 130.099V130.099Z" fill="#FAFAFA"/>
<path d="M139.062 139.432C138.994 139.461 138.923 139.483 138.851 139.498L138.235 139.652C137.698 139.779 136.915 139.946 135.951 140.131C130.906 141.085 125.772 141.488 120.639 141.332C119.654 141.297 118.857 141.258 118.307 141.209L117.678 141.156C117.604 141.151 117.53 141.139 117.458 141.121C117.532 141.11 117.608 141.11 117.682 141.121H118.316C118.862 141.121 119.658 141.156 120.639 141.17C122.606 141.192 125.321 141.17 128.313 140.919C131.305 140.668 133.989 140.303 135.925 139.973C136.893 139.81 137.685 139.669 138.217 139.564L138.842 139.454C138.914 139.435 138.988 139.428 139.062 139.432Z" fill="#FAFAFA"/>
<path d="M157.634 132.044C157.46 132.208 157.272 132.355 157.071 132.484C156.697 132.77 156.143 133.166 155.448 133.637C151.804 136.085 147.842 138.023 143.673 139.396C142.872 139.656 142.221 139.836 141.764 139.968C141.531 140.043 141.292 140.099 141.051 140.136C141.272 140.031 141.501 139.947 141.737 139.885C142.177 139.74 142.828 139.524 143.62 139.242C147.743 137.79 151.682 135.863 155.36 133.5C156.064 133.06 156.631 132.678 157.018 132.414C157.213 132.274 157.419 132.15 157.634 132.044V132.044Z" fill="#FAFAFA"/>
<path d="M157.27 128.163L157.182 128.234L156.918 128.432L155.888 129.175L155.135 129.708C154.858 129.897 154.546 130.086 154.216 130.297C153.552 130.711 152.812 131.212 151.941 131.683L150.59 132.44C150.12 132.7 149.609 132.937 149.094 133.201C148.065 133.742 146.921 134.226 145.728 134.754C143.109 135.834 140.419 136.732 137.676 137.443C134.927 138.123 132.133 138.611 129.316 138.904C127.996 139.009 126.777 139.128 125.616 139.137C125.035 139.137 124.476 139.185 123.94 139.181L122.386 139.15C121.401 139.15 120.512 139.062 119.746 139.014C119.355 138.987 118.99 138.965 118.655 138.934L117.744 138.82L116.486 138.657L116.156 138.609H116.046H116.16L116.49 138.635L117.753 138.754L118.664 138.846C118.998 138.873 119.364 138.886 119.755 138.908C120.534 138.943 121.423 139.022 122.395 139.014H123.94C124.476 139.014 125.035 138.974 125.616 138.956C126.773 138.956 128.005 138.811 129.299 138.701C134.924 138.129 140.436 136.735 145.658 134.565C146.85 134.046 147.994 133.571 149.024 133.038C149.539 132.779 150.049 132.55 150.52 132.29L151.875 131.547C152.755 131.107 153.49 130.596 154.163 130.192C154.493 129.989 154.81 129.804 155.092 129.62L155.848 129.105L156.904 128.401L157.182 128.22C157.23 128.176 157.265 128.159 157.27 128.163Z" fill="#FAFAFA"/>
<path d="M90.9173 99.2815C90.9173 99.3431 87.9429 98.5379 84.3173 97.4819C80.6917 96.4259 77.7481 95.5239 77.7657 95.4799C77.7833 95.4359 80.7401 96.2235 84.3657 97.2795C87.9913 98.3355 90.9349 99.2199 90.9173 99.2815Z" fill="#FAFAFA"/>
<path d="M90.3365 100.936C90.3365 100.998 87.3137 100.175 83.6265 99.1012C79.9393 98.0276 76.9605 97.1036 76.9781 97.0464C76.9957 96.9892 80.0009 97.8076 83.6925 98.8812C87.3841 99.9548 90.3541 100.879 90.3365 100.936Z" fill="#FAFAFA"/>
<g opacity="0.3">
<path d="M128.282 141.39C128.093 137.509 125.466 134.015 122.092 132.092C118.717 130.17 114.77 129.646 110.889 129.862L120.811 147.022C121.95 147.112 123.096 147.046 124.217 146.828C125.466 146.617 126.595 145.959 127.394 144.976C128.089 143.916 128.403 142.651 128.282 141.39V141.39Z" fill="black"/>
</g>
<path d="M181.1 176.189C181.13 176.1 181.167 176.013 181.21 175.93L181.562 175.182C181.99 174.212 182.334 173.208 182.592 172.181C183.278 169.514 183.516 165.44 182.504 160.6C181.958 157.963 181.241 155.364 180.356 152.821C179.45 150.062 178.394 147.132 177.532 143.968C176.669 140.804 176.005 137.368 176.132 133.786C176.26 130.205 177.329 126.588 178.504 123.011C179.679 119.434 180.884 115.922 181.245 112.398C181.647 109.008 180.966 105.579 179.3 102.599C177.747 99.7392 175.78 97.2928 174.333 94.7584C172.969 92.4086 171.963 89.8681 171.35 87.2212C170.468 83.3865 170.404 79.4092 171.16 75.548C171.429 74.1368 171.838 72.7557 172.379 71.4252C172.363 71.5182 172.338 71.6095 172.304 71.698C172.247 71.896 172.164 72.138 172.058 72.49C171.753 73.503 171.501 74.5311 171.301 75.57C170.605 79.4143 170.707 83.3607 171.6 87.164C172.229 89.7769 173.24 92.2826 174.601 94.6C176.058 97.1036 178.02 99.5368 179.604 102.432C181.311 105.469 182.013 108.968 181.61 112.429C181.245 116.015 180.026 119.539 178.856 123.121C177.686 126.702 176.63 130.253 176.498 133.795C176.366 137.337 177.021 140.73 177.862 143.871C178.702 147.013 179.754 149.952 180.651 152.724C181.528 155.282 182.233 157.896 182.763 160.547C183.744 165.422 183.467 169.536 182.732 172.212C182.457 173.242 182.088 174.245 181.628 175.208L181.241 175.943C181.201 176.029 181.154 176.111 181.1 176.189V176.189Z" fill="#263238"/>
<path d="M176.317 97.24C176.317 97.24 173.352 87.7492 178.676 82.192C178.718 82.148 178.771 82.1165 178.829 82.1008C178.888 82.0852 178.95 82.0861 179.008 82.1034C179.067 82.1207 179.119 82.1537 179.16 82.1988C179.2 82.244 179.228 82.2994 179.239 82.3592C179.52 83.9432 179.877 88.7172 176.317 97.24Z" fill="#00ADB5"/>
<path d="M178.099 85.36C178.09 85.9519 178.022 86.5415 177.897 87.12C177.703 88.3256 177.457 89.76 177.219 91.3044C176.981 92.8488 176.748 94.2832 176.555 95.4888C176.502 96.0748 176.398 96.655 176.242 97.2224C176.189 96.6357 176.206 96.0448 176.295 95.4624C176.392 94.38 176.585 92.8884 176.854 91.2516C177.122 89.6148 177.408 88.1364 177.637 87.076C177.725 86.4882 177.88 85.9124 178.099 85.36V85.36Z" fill="#263238"/>
<path d="M179.806 119.64C179.806 119.64 181.619 109.864 188.923 107.444C188.981 107.418 189.045 107.409 189.108 107.42C189.171 107.43 189.229 107.458 189.276 107.501C189.323 107.544 189.356 107.6 189.371 107.662C189.387 107.723 189.384 107.788 189.363 107.848C188.866 109.366 186.947 113.753 179.806 119.64Z" fill="#00ADB5"/>
<path d="M186.934 109.965C186.654 110.483 186.32 110.971 185.94 111.421C185.201 112.394 184.338 113.538 183.383 114.805L180.84 118.193C180.522 118.687 180.156 119.15 179.749 119.574C179.981 119.031 180.277 118.517 180.629 118.043C181.223 117.128 182.085 115.9 183.093 114.58C184.101 113.26 185.033 112.086 185.733 111.258C186.084 110.784 186.487 110.35 186.934 109.965V109.965Z" fill="#263238"/>
<path d="M177.831 144.162C177.831 144.162 176.731 134.284 183.014 129.844C183.063 129.808 183.122 129.787 183.182 129.782C183.243 129.778 183.304 129.79 183.358 129.818C183.412 129.845 183.458 129.888 183.49 129.94C183.521 129.992 183.538 130.051 183.538 130.112C183.516 131.705 182.957 136.457 177.831 144.162Z" fill="#00ADB5"/>
<path d="M181.843 132.836C181.725 133.413 181.548 133.976 181.315 134.517C180.875 135.665 180.396 137.012 179.85 138.477L178.398 142.459C178.239 143.024 178.026 143.572 177.76 144.096C177.822 143.509 177.954 142.931 178.152 142.375C178.451 141.332 178.926 139.902 179.503 138.345C180.079 136.787 180.638 135.397 181.069 134.385C181.27 133.842 181.53 133.323 181.843 132.836V132.836Z" fill="#263238"/>
<path d="M183.335 168.832C183.335 168.832 182.6 158.915 189.024 154.704C189.075 154.67 189.135 154.65 189.196 154.647C189.257 154.645 189.318 154.659 189.372 154.69C189.425 154.72 189.469 154.764 189.499 154.818C189.528 154.872 189.542 154.933 189.539 154.994C189.46 156.583 188.729 161.313 183.335 168.832Z" fill="#00ADB5"/>
<path d="M187.748 157.656C187.61 158.228 187.413 158.784 187.159 159.315C186.697 160.446 186.155 161.775 185.553 163.24C184.95 164.705 184.422 166.038 183.96 167.169C183.779 167.728 183.546 168.268 183.265 168.784C183.344 168.2 183.491 167.627 183.705 167.077C184.048 166.043 184.585 164.635 185.201 163.117C185.817 161.599 186.441 160.213 186.908 159.227C187.129 158.674 187.411 158.147 187.748 157.656V157.656Z" fill="#263238"/>
<path d="M172.04 88.9196C172.04 88.9196 163.24 84.3172 163.055 76.626C163.053 76.565 163.068 76.5046 163.098 76.4514C163.128 76.3982 163.172 76.3544 163.225 76.3247C163.278 76.2951 163.339 76.2808 163.4 76.2835C163.461 76.2862 163.52 76.3058 163.57 76.34C164.89 77.2464 168.52 80.366 172.04 88.9196Z" fill="#00ADB5"/>
<path d="M164.899 79.266C165.308 79.6883 165.675 80.1496 165.995 80.6432L168.481 84.0796C169.413 85.36 170.241 86.5216 170.975 87.5072C171.353 87.9583 171.689 88.4429 171.979 88.9548C171.526 88.5762 171.119 88.1449 170.769 87.67C170.069 86.834 169.149 85.646 168.181 84.2996C167.213 82.9532 166.369 81.708 165.779 80.7796C165.429 80.3098 165.134 79.8021 164.899 79.266V79.266Z" fill="#263238"/>
<path d="M181.518 109.3C181.518 109.3 172.44 105.239 171.802 97.5743C171.796 97.5135 171.807 97.4522 171.834 97.3972C171.86 97.3421 171.902 97.2956 171.953 97.2628C172.005 97.2299 172.065 97.212 172.126 97.2111C172.187 97.2102 172.247 97.2263 172.3 97.2575C173.659 98.0803 177.474 100.976 181.518 109.3Z" fill="#00ADB5"/>
<path d="M173.8 100.1C174.24 100.498 174.636 100.94 174.984 101.42C175.758 102.366 176.665 103.475 177.672 104.698L180.369 107.967C180.775 108.393 181.139 108.857 181.456 109.353C180.982 109.002 180.55 108.596 180.171 108.143C179.423 107.351 178.433 106.22 177.382 104.936C176.33 103.651 175.415 102.463 174.777 101.583C174.397 101.127 174.069 100.629 173.8 100.1Z" fill="#263238"/>
<path d="M176.295 132.031C176.295 132.031 170.065 124.287 172.986 117.168C173.009 117.111 173.047 117.062 173.096 117.026C173.144 116.99 173.202 116.968 173.263 116.962C173.323 116.957 173.384 116.968 173.439 116.995C173.493 117.022 173.539 117.063 173.571 117.115C174.407 118.466 176.484 122.782 176.295 132.031Z" fill="#00ADB5"/>
<path d="M173.607 120.322C173.809 120.874 173.957 121.444 174.047 122.025C174.306 123.218 174.61 124.621 174.927 126.166L175.842 130.306C176.007 130.869 176.12 131.447 176.181 132.031C175.918 131.503 175.719 130.946 175.587 130.372C175.283 129.325 174.914 127.868 174.566 126.245C174.218 124.621 173.941 123.165 173.77 122.074C173.649 121.498 173.594 120.91 173.607 120.322V120.322Z" fill="#263238"/>
<path d="M182.468 158.783C182.468 158.783 173.461 154.572 172.951 146.903C172.947 146.842 172.959 146.782 172.987 146.728C173.015 146.675 173.058 146.63 173.109 146.598C173.161 146.567 173.221 146.55 173.281 146.551C173.342 146.551 173.401 146.568 173.453 146.599C174.799 147.435 178.565 150.392 182.468 158.783Z" fill="#00ADB5"/>
<path d="M174.896 149.455C175.324 149.856 175.711 150.298 176.053 150.775L178.693 154.097L181.333 157.41C181.732 157.843 182.088 158.313 182.398 158.814C181.929 158.454 181.504 158.04 181.131 157.582C180.4 156.781 179.428 155.632 178.398 154.33C177.369 153.028 176.476 151.822 175.846 150.933C175.476 150.477 175.157 149.981 174.896 149.455V149.455Z" fill="#263238"/>
<path d="M200.412 119.68C200.418 119.753 200.418 119.827 200.412 119.9C200.412 120.072 200.412 120.278 200.412 120.534C200.385 121.132 200.346 121.937 200.302 122.945C200.187 125.066 200.024 128.018 199.831 131.556C199.184 135.155 197.354 139.141 194.894 142.996C193.086 145.847 191.194 148.443 189.561 150.854C188.079 152.96 186.745 155.165 185.566 157.454C184.794 159.006 184.168 160.626 183.696 162.294C183.537 162.888 183.419 163.35 183.348 163.667C183.32 163.83 183.277 163.99 183.221 164.146C183.221 163.98 183.24 163.815 183.278 163.654C183.322 163.332 183.419 162.862 183.555 162.259C183.972 160.56 184.562 158.909 185.315 157.331C186.469 155.008 187.792 152.774 189.275 150.647C190.894 148.218 192.795 145.622 194.555 142.784C197.006 138.934 198.828 135.005 199.492 131.468C199.738 127.948 199.932 124.986 200.095 122.866C200.178 121.862 200.24 121.057 200.288 120.463L200.354 119.83C200.368 119.778 200.387 119.727 200.412 119.68V119.68Z" fill="#263238"/>
<path d="M195.048 142.305C195.048 142.305 198.863 133.122 194.062 127.107C194.025 127.059 193.975 127.023 193.918 127.002C193.861 126.98 193.8 126.975 193.74 126.986C193.681 126.998 193.626 127.025 193.581 127.066C193.536 127.107 193.503 127.159 193.486 127.217C193.059 128.753 192.28 133.474 195.048 142.305Z" fill="#00ADB5"/>
<path d="M194.353 130.31C194.517 130.877 194.619 131.46 194.656 132.048C194.788 133.126 194.942 134.618 195.057 136.272C195.171 137.927 195.233 139.432 195.233 140.523C195.269 141.112 195.234 141.703 195.127 142.283C195.018 141.703 194.965 141.113 194.969 140.523C194.89 139.308 194.793 137.883 194.687 136.294C194.582 134.706 194.476 133.285 194.392 132.066C194.32 131.484 194.306 130.895 194.353 130.31Z" fill="#263238"/>
<g opacity="0.3">
<path d="M195.048 142.305C195.048 142.305 198.863 133.122 194.062 127.107C194.025 127.059 193.975 127.023 193.918 127.002C193.861 126.98 193.8 126.975 193.74 126.986C193.681 126.998 193.626 127.025 193.581 127.066C193.536 127.107 193.503 127.159 193.486 127.217C193.059 128.753 192.28 133.474 195.048 142.305Z" fill="black"/>
</g>
<path d="M183.229 164.432C183.229 164.432 186.287 154.972 181.029 149.362C180.988 149.317 180.935 149.284 180.876 149.268C180.818 149.251 180.756 149.25 180.697 149.267C180.638 149.283 180.585 149.316 180.543 149.361C180.502 149.405 180.473 149.461 180.462 149.521C180.154 151.087 179.753 155.857 183.229 164.432Z" fill="#00ADB5"/>
<path d="M181.566 152.53C181.774 153.082 181.922 153.654 182.006 154.238C182.226 155.302 182.499 156.781 182.75 158.418C183.001 160.054 183.19 161.555 183.269 162.637C183.351 163.22 183.362 163.811 183.304 164.397C183.153 163.83 183.053 163.249 183.005 162.664C182.829 161.454 182.618 160.024 182.38 158.47C182.143 156.917 181.94 155.487 181.747 154.282C181.628 153.705 181.568 153.119 181.566 152.53V152.53Z" fill="#263238"/>
<g opacity="0.3">
<path d="M183.229 164.432C183.229 164.432 186.287 154.972 181.029 149.362C180.988 149.317 180.935 149.284 180.876 149.268C180.818 149.251 180.756 149.25 180.697 149.267C180.638 149.283 180.585 149.316 180.543 149.361C180.502 149.405 180.473 149.461 180.462 149.521C180.154 151.087 179.753 155.857 183.229 164.432Z" fill="black"/>
</g>
<path d="M199.905 131.085C199.905 131.085 208.05 125.365 207.227 117.731C207.221 117.67 207.198 117.613 207.162 117.565C207.125 117.516 207.076 117.479 207.02 117.457C206.963 117.434 206.902 117.428 206.842 117.438C206.783 117.449 206.727 117.475 206.681 117.515C205.48 118.584 202.303 122.144 199.905 131.085Z" fill="#00ADB5"/>
<g opacity="0.3">
<path d="M199.905 131.085C199.905 131.085 208.05 125.365 207.227 117.731C207.221 117.67 207.198 117.613 207.162 117.565C207.125 117.516 207.076 117.479 207.02 117.457C206.963 117.434 206.902 117.428 206.842 117.438C206.783 117.449 206.727 117.475 206.681 117.515C205.48 118.584 202.303 122.144 199.905 131.085Z" fill="black"/>
</g>
<path d="M205.753 120.586C205.59 121.153 205.363 121.7 205.075 122.214C204.613 123.2 203.94 124.542 203.148 126.003C202.356 127.464 201.604 128.762 201.018 129.677C200.733 130.193 200.386 130.674 199.984 131.107C200.205 130.562 200.476 130.039 200.794 129.545L202.84 125.84C203.597 124.45 204.279 123.2 204.86 122.113C205.106 121.576 205.405 121.065 205.753 120.586Z" fill="#263238"/>
<path d="M186.516 155.052C186.516 155.052 196.341 153.52 198.973 146.291C198.995 146.234 199.002 146.171 198.991 146.111C198.98 146.05 198.953 145.994 198.911 145.948C198.87 145.902 198.817 145.869 198.758 145.852C198.699 145.835 198.636 145.834 198.577 145.851C197.045 146.291 192.606 148.082 186.516 155.052Z" fill="#00ADB5"/>
<g opacity="0.3">
<path d="M186.516 155.052C186.516 155.052 196.341 153.52 198.973 146.291C198.995 146.234 199.002 146.171 198.991 146.111C198.98 146.05 198.953 145.994 198.911 145.948C198.87 145.902 198.817 145.869 198.758 145.852C198.699 145.835 198.636 145.834 198.577 145.851C197.045 146.291 192.606 148.082 186.516 155.052Z" fill="black"/>
</g>
<path d="M196.39 148.205C195.994 148.641 195.551 149.032 195.07 149.371C194.22 150.049 193.024 150.955 191.673 151.919C190.322 152.882 189.068 153.714 188.153 154.282C187.669 154.619 187.146 154.896 186.595 155.109C187.033 154.717 187.506 154.366 188.008 154.062L191.47 151.615L194.92 149.16C195.377 148.793 195.869 148.473 196.39 148.205Z" fill="#263238"/>
<path d="M174.892 173.131L177.708 191.616L188.963 191.594L192.756 173.131H174.892Z" fill="#455A64"/>
<path d="M191.105 180.264C191.105 180.264 191.075 180.29 191.013 180.33C190.916 180.392 190.817 180.449 190.714 180.501C190.317 180.692 189.892 180.819 189.455 180.875C188.76 180.968 188.053 180.902 187.387 180.682C186.49 180.398 185.709 179.832 185.161 179.067C184.855 178.605 184.676 178.071 184.642 177.518C184.61 177.209 184.664 176.897 184.798 176.616C184.933 176.336 185.142 176.098 185.403 175.93C185.702 175.781 186.036 175.716 186.368 175.743C186.701 175.771 187.02 175.888 187.291 176.084C187.849 176.495 188.234 177.101 188.369 177.782C188.517 178.468 188.565 179.172 188.509 179.872C188.474 180.602 188.326 181.322 188.069 182.006C187.788 182.725 187.334 183.364 186.749 183.867C186.147 184.399 185.386 184.716 184.585 184.769C183.785 184.785 183 184.558 182.332 184.118C181.69 183.708 181.122 183.194 180.651 182.596C180.169 182.021 179.873 181.314 179.802 180.567C179.773 180.201 179.831 179.834 179.969 179.494C180.107 179.154 180.323 178.851 180.598 178.609C180.883 178.397 181.224 178.273 181.579 178.251C181.933 178.229 182.287 178.311 182.596 178.486C182.89 178.633 183.147 178.845 183.346 179.107C183.545 179.368 183.681 179.672 183.744 179.995C183.828 180.569 183.737 181.155 183.483 181.677C183.23 182.198 182.826 182.632 182.323 182.921C181.491 183.369 180.528 183.508 179.604 183.313C178.921 183.17 178.267 182.914 177.668 182.556C177.292 182.333 176.931 182.088 176.585 181.821C176.46 181.734 176.344 181.636 176.238 181.526C176.372 181.597 176.499 181.678 176.621 181.768C176.978 182.014 177.349 182.242 177.729 182.45C178.322 182.784 178.966 183.018 179.635 183.141C180.515 183.312 181.428 183.167 182.213 182.732C182.669 182.461 183.034 182.061 183.262 181.582C183.49 181.104 183.57 180.568 183.493 180.044C183.437 179.76 183.315 179.493 183.138 179.264C182.961 179.035 182.733 178.85 182.473 178.724C182.211 178.574 181.911 178.505 181.61 178.524C181.309 178.542 181.02 178.649 180.779 178.829C180.539 179.042 180.353 179.309 180.234 179.606C180.116 179.904 180.069 180.226 180.097 180.545C180.166 181.231 180.442 181.88 180.889 182.406C181.339 182.974 181.882 183.462 182.495 183.85C183.109 184.258 183.834 184.47 184.571 184.457C185.305 184.407 186.001 184.116 186.551 183.63C187.098 183.153 187.518 182.548 187.775 181.87C188.029 181.217 188.177 180.528 188.215 179.828C188.269 179.158 188.228 178.484 188.091 177.826C187.977 177.213 187.638 176.666 187.141 176.29C186.913 176.119 186.642 176.014 186.358 175.986C186.074 175.958 185.788 176.009 185.531 176.132C185.307 176.275 185.128 176.478 185.013 176.717C184.897 176.956 184.851 177.223 184.879 177.487C184.905 177.998 185.066 178.493 185.346 178.922C185.857 179.659 186.593 180.212 187.445 180.497C188.085 180.723 188.767 180.805 189.442 180.734C190.018 180.668 190.58 180.509 191.105 180.264Z" fill="#263238"/>
</svg>
