<svg id="Layer_1" data-name="Layer 1" xmlns="http://www.w3.org/2000/svg" viewBox="0 0 538.07 517.83"><defs><style>.cls-1{fill:#018fa1;}.cls-2{fill:#8ddcdf;}.cls-3{fill:#fefefe;}.cls-4{fill:#fcaf90;}.cls-5{fill:#663a30;}.cls-6{fill:#028fa1;}.cls-7{fill:#fe8282;}.cls-8{fill:#fe8182;}.cls-9{fill:#016a74;}.cls-10{fill:#8edcdf;}.cls-11{fill:#0290a1;}.cls-12{fill:#f96c6d;}.cls-13{fill:#8fdde0;}.cls-14{fill:#fe8283;}.cls-15{fill:#8edde0;}.cls-16{fill:#fead02;}.cls-17{fill:#65caca;}.cls-18{fill:#8edde1;}.cls-19{fill:#8fdde1;}.cls-20{fill:#fd8282;}.cls-21{fill:#92dee1;}.cls-22{fill:#fd8283;}.cls-23{fill:#93dee2;}.cls-24{fill:#65cacb;}.cls-25{fill:#c8f2f4;}.cls-26{fill:#90dde1;}.cls-27{fill:#73cfd1;}.cls-28{fill:#71cfd1;}.cls-29{fill:#91dee1;}.cls-30{fill:#90dee1;}.cls-31{fill:#78d1d5;}.cls-32{fill:#c7dfe3;}.cls-33{fill:#b3eef0;}.cls-34{fill:#dbf1f2;}.cls-35{fill:#fb8620;}.cls-36{fill:#95dee1;}.cls-37{fill:#74d0d1;}.cls-38{fill:#fb8c2a;}.cls-39{fill:#bcdbdd;}.cls-40{fill:#e7f7f8;}.cls-41{fill:#fb8e2c;}.cls-42{fill:#fb8922;}.cls-43{fill:#69cbcc;}.cls-44{fill:#bfeff0;}.cls-45{fill:#b8dedf;}.cls-46{fill:#71cfcf;}.cls-47{fill:#dbdfda;}.cls-48{fill:#bfe3df;}.cls-49{fill:#d3dedd;}.cls-50{fill:#fcc6c7;}.cls-51{fill:#bfebec;}.cls-52{fill:#caeef2;}.cls-53{fill:#d0f1f4;}.cls-54{fill:#e28154;}.cls-55{fill:#e38155;}.cls-56{fill:#fe9192;}.cls-57{fill:#6e4132;}.cls-58{fill:#714333;}.cls-59{fill:#e4855b;}.cls-60{fill:#e4875e;}.cls-61{fill:#e5875d;}.cls-62{fill:#e48459;}.cls-63{fill:#e5885e;}.cls-64{fill:#f66e6e;}.cls-65{fill:#d4e4e4;}.cls-66{fill:#fdfdfe;}.cls-67{fill:#74cfd1;}.cls-68{fill:#70cecf;}.cls-69{fill:#71cfd0;}</style></defs><path class="cls-1" d="M137.76,460.69c16.38-13.52,34.7-23.75,54.32-31.75a5.76,5.76,0,0,1,1.45-.19c7.09,7.32,16.68,10.25,25.64,14,11.81,5,24.24,8.34,37.12,9,16.59.84,33.1,1.29,49.51-3.12,13.93-3.74,27.19-8.63,39.52-16.07a10.16,10.16,0,0,1,2.35-.79l2.89,1c2.35.23,4.61.63,6.12,2.74A195.93,195.93,0,0,1,415,478.64c.76.8,1.7,1.63,1.56,3a734.18,734.18,0,0,1-140.87,15.44,733.58,733.58,0,0,1-159-15.44,2.58,2.58,0,0,1-.15-1.2c.15-1.08,1.09-1.82,1.82-2.58,5.12-5.34,10.42-10.49,15.87-15.51C135.28,461.36,136.65,461.37,137.76,460.69Z"/><path class="cls-2" d="M137.76,460.69c-7.16,6.84-14.82,13.16-21.06,20.92h-6c-7.68-1.18-15.42-1.95-23.16-2.58-2.69-.21-5.24-.55-7.59-2-7.89-5-7.68-12.38.52-17,1.83-.69,4,0,5.64-.95,1.78-1-.33-1.13-.81-1.6-9.87-4.49-20.59-4.83-31-6.49-7.58-1.21-11.16-5.06-10.87-11.67.18-4.19,2.42-6.71,6.07-8.26a23,23,0,0,1,2.85-.63c.55-.12,1.55,0,1.3-.92-.16-.61-1.09-.54-1.7-.74-9.3-3.74-18-8.73-27.36-12.41a6,6,0,0,1-2.81-2.66c-5.32-2.24-7.5-7.5-6-11,1.39-3.2,5.55-4,6-4,10.52-2.74,18.22-1,21.65.09a60.82,60.82,0,0,1,17.73,9.86c1,.82,2.14,1.57,3.14,2.44,3.74,3.22,6.24,8.46,12.26,1.29,4.15-4.94,14.89-1.48,20.36,4.64a51.53,51.53,0,0,1,11.49,20.17c1,3.45,1.77,4.66,5.5,2.27,5-3.2,10.35-2,14.95,1.29,4.18,3,4.33,7.48,3.34,12.11C131.12,457.65,132.26,459.24,137.76,460.69Z"/><path class="cls-3" d="M21.74,413.63l30.94,14.13c3.2,3.26-.82,2.8-2,3.81-5,2.11-7.2,5.91-6,11.11s5.59,6.39,10.23,7c10.76,1.47,21.78,1.81,31.73,7,1.68,1.05,1.58,2-.21,2.76-1.52.67-3.29.32-4.77,1.15-2.77,1.49-5.6,2.88-6,6.58-.62,5.4,4,10.05,10.45,10.38,8.35.43,16.61,1.36,24.58,4.06-28.56,0-57.13-.05-85.69.07-2.69,0-3.38-.44-3.36-3.28C21.81,456.81,21.74,435.22,21.74,413.63Z"/><path class="cls-4" d="M153,297.67c3.73.4,7.39.95,10.81,2.73,1,.51,2.34,1.82,3.52.55,1-1,.47-2.5,0-3.74a10.17,10.17,0,0,1-.54-5.29c3.2.86,2.66,3.78,3.11,6,.84,4.07,1.37,8.21,2.86,12.13a2.66,2.66,0,0,0,1.76,2c3-4.06,5-8.8,7.13-13.43A257.62,257.62,0,0,0,197.6,252c1.69-7,1.92-14.16,2.68-21.26.19-1.8-.2-4,1.56-5,2.15-1.26,3.72.68,5.27,1.81,15.49,11.26,33.06,17.88,51.43,22.37a325.12,325.12,0,0,0,82.1,9.48c8-.12,9,.56,9.82,8.5.84,8.27,1.73,16.49,3.25,24.7a169.24,169.24,0,0,0,6.8,25.52,26.42,26.42,0,0,1,.26,6.94c-.08,1.94-.66,4.38,2.12,4.82,2.29.35,3-1.68,3.55-3.47a18.47,18.47,0,0,1,1.1-2.78c2.89-5.76,6-7.5,12.38-7,2.5.19,6.07,1.66,6.54-2.15s-3.51-3.79-6.12-4.19a20.12,20.12,0,0,0-12.94,2.71c-2,1.11-4.16,2-4.91-1.48,0-4,.83-7.75,3.72-10.77,5.77-3.81,12-3.32,18.34-2,7.05,2,12.35,6.36,13.73,13.57,1.71,9-1.74,16.73-8.59,22.63-9.48,8.17-22.77,10.71-32.33,3.13-2.32-1.83-3,.36-3.51,1.72a91.1,91.1,0,0,1-41.35,48.94c-5.57,3.17-6.16,6.59-6.1,11.76.05,3.73,1.06,7.61-.72,11.25-2.68-3.77-1.18-8.07-1.4-12.12-.19-3.47-1.62-4.59-4.73-3.37-18.13,7.1-36.69,7-56.51,3,7.62,5.46,14.72,9.26,23,10.77,12,2.17,24,3.28,36.19,1.26a4.79,4.79,0,0,1,3.4.42c-.78,5.55,1.55,7.52,7.2,8.53a105.61,105.61,0,0,1,23.54,7c-.55,1.64-2.07,2.06-3.44,2.6A178.82,178.82,0,0,1,285.2,441.2c-22.45,2.31-44-1.31-65.23-8.11-6.22-2-12.67-3.79-18.06-7.85,7.52-1.89,15-3.87,22.58-5.64,2.09-.49,3.3-1.27,3.31-3.54,0-7.32.06-14.63.24-21.95.05-1.78-1.06-2.3-2.23-2.87C210,383.5,198.21,371.42,188.63,357a83.58,83.58,0,0,1-8.92-17.62c-.74-2-1.26-4.7-4.25-2-8.83,8-20.15,5.83-29.47.06-2.24-1.38-4.24-3.15-6.36-4.74-5.8-4.79-7.34-11.23-7.11-18.35a8.44,8.44,0,0,1,.28-1.5c.81-4.94,3.61-8.64,7.31-11.79a9.49,9.49,0,0,1,1.88-1.32C145.49,298.17,148.9,296.06,153,297.67Z"/><path class="cls-5" d="M359.52,318.9c-5.84-14.82-8.74-30.31-10-46.09-.93-11.76-.64-11.77-12.1-11.93-32.25-.44-64-4.22-94.81-14.21-14.41-4.68-28.16-10.84-40.32-21.49-.53,5-1.08,9.36-1.42,13.72-1.27,16.25-6.55,31.45-12.25,46.51a230.76,230.76,0,0,1-12.11,26.66c-.67,1.26-.7,3.47-2.43,3.43-2.24,0-1.56-2.56-2.2-3.93-3-6.21-2.3-13.38-5.09-19.66-.36-1.41-.73-2.82-1.09-4.23a8.49,8.49,0,0,1-1.5-4.75c-1.15-5.75-1.88-11.57-2.84-17.35-.06-1.19-.13-2.38-.12-3.58-.46-11,.23-21.95,0-32.92-.12-2.25-.17-4.48,1.38-6.36a14.62,14.62,0,0,0,.26-2c0-8.48,1.17-16.13,11.89-17.17,9.57-5.21,20.31-6.12,30.69-8.26,27.1-5.59,54.57-5.69,82.06-5a171.1,171.1,0,0,1,23.33,2.28c10.16,2.26,20.51,3.6,30.53,6.6,7.63,2.28,15.2,4.59,22.31,8.22,4.58,1.28,8,3.57,7.87,9a.44.44,0,0,0,.15.54c.59,4.57,1.33,9.12,1.8,13.7l.07.18a6.08,6.08,0,0,1,1.52,4.55c0,7.72.42,15.44-.26,23.15a25.48,25.48,0,0,0-1,6.66,9.68,9.68,0,0,1-.28,1.61c-.79,2-.5,4.18-.73,6.28-1.05,5-.71,10.17-2.22,15.09-.63,2-1.77,3.79-1.68,6-.41,2.63-.66,5.31-2.39,7.52a24.18,24.18,0,0,0-3.09,9.94C362.47,314.2,363.32,317.78,359.52,318.9Z"/><path class="cls-1" d="M330.8,123c-4.77.08-9.66,4-10.74,8a16.87,16.87,0,0,1-.74,2.9c-1.07,2.23.4,5.72-2.11,6.84-3.34,1.49-7.22.37-10.86.55-1.58.08-1.78-1.17-2.1-2.3-.7-2.56-2.07-5.12-2-7.67.09-6.79-5.91-6-9.51-8.2-.48-.29-1.59.18-2.28.54a53.75,53.75,0,0,0-5.13,3c-6.19,4.18-11.62,2.95-15.19-3.39-.84-1.5-.17-2.52.57-3.63,1.2-1.79,2.43-3.56,3.64-5.34,4.86-7.19,2.17-13.3-6.45-14.63-.66-.1-1.32-.17-2-.3-7.44-1.4-9.6-5-7.61-12.44.5-1.87,1.89-2.21,3.32-2.51A55.91,55.91,0,0,1,270,83c2.94-.15,4.16-1.61,5.47-4.08,2.07-3.87,2.42-7.07-1.09-10.16a7.87,7.87,0,0,1-1-1.7c-1.33-2-4.46-4.06-3.42-6.2,1.44-3,4.44-5.23,6.92-7.63.93-.9,2.12-.07,3.24.23,2.84.75,4.91,2.75,7.35,4.14,6.73,3.84,12.75,1.4,14.77-6.1a24.66,24.66,0,0,0,1.13-3.81c.4-4.6,2.43-6.17,7.33-6,5.18.13,8.36.58,8.67,6.87.26,5.25,2.33,9.91,8.82,10.83,1.77.25,3.15.43,4.65-.54s3.16-1.84,4.69-2.83c5.73-3.72,12.34-1.86,15.22,4.2.56,1.19,0,1.88-.53,2.68-1.34,1.9-2.45,4.06-4.11,5.63-3.32,3.15-4.09,6-1.29,10.17,1.6,2.38,2.77,4.36,5.91,4.31a15.25,15.25,0,0,1,2.93.6c8.58,1.55,9.9,3.53,8.37,12.19a2.75,2.75,0,0,1-2.47,2.62c-2.29.4-4.56,1-6.86,1.3-8.77,1.29-11.56,7.5-6.58,14.71.19.28.39.54.58.82,4.82,7,4,10.33-3.23,14.59-2.28,1.34-3.82-.22-5.46-1.16C336.66,126.71,333.47,124.65,330.8,123Z"/><path class="cls-6" d="M249.29,95.53c-1.46,2.19-3,4.54-4.57,6.89-2.05,3.12,0,8.47,3.67,9.38a21.26,21.26,0,0,0,3.92.78c3.26.19,5.54.7,5.7,5,.17,4.51-1.53,6.23-5.68,6.88-2.54.4-5.16,0-7.31,3-3.25,4.62-.25,7.22,1.89,10.27,1.39,2,3.09,3.62.44,5.91-2.39,2.07-4,5.32-8.23,2.85-3.06-1.77-5.63-5.47-10.26-3.21-2.61,1.27-4.2,2.56-4.63,5.7-.5,3.65-1,7.59-6.75,7.17-3.75-.28-5.57-.91-6.3-5-1.51-8.41-6-10.12-13.35-5.74-3.05,1.8-5.81,3.3-9.06-.28-2.47-2.72-3-4.53-.62-7.59,5.68-7.23,4-11.37-5-13-3.73-.69-7-1.26-6.42-6.67.38-3.66,1.64-4.86,5-5.23,2.68-.29,5.81.11,7.73-2.53,2.57-3.55,2.33-6.87-.75-10.18-1.85-2-4.24-4.33-1.08-7.17,2.6-2.34,4.8-5.42,9.12-2,1.94,1.55,4.17,4.34,7.36,3.25,3.37-1.15,6.6-2.08,7-7.07.43-6.12,3.48-7.57,9.48-6.33,2.48.51,2.12,2.58,2.95,4.08,1.42,2.58,0,6,3.71,8.1,5.33,3.12,8.37-.66,12.12-2.53C242.07,88.94,249.13,92.4,249.29,95.53Z"/><path class="cls-7" d="M183.6,191.7a23,23,0,0,1,25.55-23c3.67.37,5.53-.83,7.34-4,4.2-7.5,11.08-10.09,21.18-7.65,3.9.94,5.53-.18,6.75-3.35,3.11-8.08,9.33-11.52,17.59-10.84,4.82.4,9.53-.05,14.3-.12,2.61,0,5.38-.19,7.44,2-2,1.79-4.33.43-6.49.46s-4.19,0-6.13.94c1.31,6.43-1.06,13.24,2.64,19.48,2.42,4.09,2.46,8.94,2.12,13.64s-3.16,7-7.39,5c-4.62-2.18-8.8-1.68-13.5-.66-7.48,1.62-14.24-.09-19.2-6.53-.18-.18-.15-.05.14.38,1.32,2,4.91,3,3.81,5.81s-4.48,2.34-7,2.79c-8.07,1.43-16.09,1.75-23.81-1,.2.6,1.18.49,1.82.91,2.75,1.8,2.68,2.95-.38,4.39-2.27,1.07-4.74,2-7.24,1.45C196.57,190.19,190.11,189.61,183.6,191.7Z"/><path class="cls-8" d="M269.59,144.77c4.71-1.85,9.43-.87,14.16-.06,4.64,1.82,7.51,5.4,9.16,9.88.9,2.44,1.74,3.33,4.6,2.73,12.67-2.71,16.88-.95,24,9.88,1.09,1.66,2.32,1.7,3.75,1.51,6.53-.9,12.45,1,18.21,3.75,6.82,2.22,8.09,8.48,10.2,14.09.51,1.36.07,3,.95,4.32,1.37,1.43,3.14,2.46,4.25,4.11.83,1.23,2.47,2.62.13,4a28.47,28.47,0,0,0-9.33-.91c-11.12.91-21.57-2.61-32.19-4.95a31.8,31.8,0,0,1-8.1-2.37c-1.2-.5-2.82-1.12-2.59-2.61s2-1.4,3.32-1.42c5.95-.11,12,.51,16.92-1.37-7.57,2.3-16.07,1.39-24.55.49-2.11-.22-4.76-.25-5.71-2.39-1.16-2.62,1.87-3.47,3.12-5,.3-.39.65-.75.49-.53-5.11,4.68-11.23,8.35-19.37,6-3.64-1-5.7-3.1-5.4-7.17.34-4.71-.12-9.3-3.16-13.25a3.32,3.32,0,0,1-.86-2.3C272.32,155.56,270.92,150.18,269.59,144.77Z"/><path class="cls-9" d="M201.91,425.24c7,.94,13,4.74,19.58,6.9,35.24,11.58,70.24,10.76,105.14-1.3,3.29-1.14,6.53-2.4,9.8-3.61a44.42,44.42,0,0,1,11.24,4.55c-2.7,3.92-7.17,5.33-11.1,7.19a198.85,198.85,0,0,1-27.16,10.16c-16.41,5-33,4.89-49.69,4.32-12.36-.42-24.34-3.49-36.13-7.61-7.68-2.69-14.81-6.41-22.19-9.63-3.18-1.38-7.68-2.46-7.86-7.46Z"/><path class="cls-10" d="M51.62,202.81c-9.07-7.3-15.07-16-14-28.43.69-7.9,4.57-14,9.71-19.52A49.94,49.94,0,0,1,51.82,151c4.53,4.64,10,8.17,14.47,12.92,1.42,1.53,3.67,3,2.55,5.45-1,2.14-3.34,1.64-5.3,1.83-6.79.67-13.6.45-20.4.5,8.64,0,17.29.21,25.88-1.1a7.1,7.1,0,0,1,5.54,1.7c8.91,6.78,16.21,15.23,24,23.13,2.8,2.82,2,5.1-1.93,6A79.17,79.17,0,0,1,84.84,203,192,192,0,0,1,51.62,202.81Z"/><path class="cls-10" d="M397.58,209.7c10.8-6.14,22.15-8.17,34.12-4,6.43,2.22,11.1,6.95,14.83,12.39,1.42,2.08,3.69,3.87,3.91,6.72-6.2,4.2-13.17,7-19.65,10.69-1.27.72-2.94,1.51-4.12.12s-.73-3.2-.29-4.78c1.8-6.51,3.08-13.18,4.76-17-1.71,5.26-4.46,13-5.15,21.25-.19,2.22-1.88,3.5-3.7,4.38-10.14,4.92-20.06,10.3-30.63,14.28-4.32,1.63-5.54.92-5.26-3.57.51-8.47,2.92-16.58,5.17-24.7C393.07,220,395.66,215,397.58,209.7Z"/><path class="cls-11" d="M459.34,218.23c-3.59.27-7.16-.61-8.58-4.67a6.12,6.12,0,0,1,3.23-8c3.72-1.88,7.37-1.35,9.88,1.89,3,3.87,4.08,2.26,5.61-1.06,3.61-7.81,3.73-7.81,11.79-4.92,7.49,2.69,14.89,5.63,22.43,8.18,2.79,1,3.48,2.16,2.09,4.7-.47.86-.6,1.89-1,2.78-2.91,6.12-2.91,6.11-8.06,1.95a7,7,0,0,0-8.35-.56c-2.55,1.51-4.24,3.88-3.17,7.13a6.92,6.92,0,0,0,6.66,5.06c6.46.41,6.15.34,4.31,6.42-1.92,6.32-2.17,6.68-9.15,3.76-.92-.38-1.87-.7-2.77-1.12-2.94-1.38-4.12-1-3.78,2.73.53,5.61-3.2,9.65-7.89,9a7.27,7.27,0,0,1-6.49-5.41,6.27,6.27,0,0,1,2.89-7.35c3.8-2.29,3.18-3.44-.6-4.86-9-3.38-9-3.49-5.31-12.15C464.7,217.87,463,217.34,459.34,218.23Z"/><path class="cls-12" d="M269.59,144.77a22,22,0,0,1,3.07,13.77c-.11,1-.34,2.27.15,3,3.85,5.32,4,11.34,4,17.55,0,2.93,6.15,5.33,10.48,4.26,5.85-1.45,11.61-3.21,14.44-9.37.42-.93,1.16-1.32,2-.85,1,.59.46,1.43-.08,2.07-2.09,2.51-4.22,5-6.81,8,11.53,3,22.61,3.74,33.88.55-6.89,6.21-15.37,2.91-24.1,4.44,4.16,1.77,7.38,3.2,11,3.55.64,1.24.41,2.27-1.06,2.38-1.69.13-3.45.44-5.11-.34-13.9-1.15-27.77-2.38-41.75-2.4a357.61,357.61,0,0,0-60,4.71c-11.79,2-23.26,5.22-35,7.5a19.56,19.56,0,0,1,8.84-11.89c4.91-4.3,10.58-3.46,16-1.84,4.56,1.36,8.38.21,12.81-1.84l-7.35-4c6.19.31,12.11,2.24,18.26,1.69,4.1-.36,8.21-.83,12.26-1.55,1.16-.21,3,.2,3.48-1.32s-1.36-2-2.11-3c-1.45-1.89-4.25-3.09-3.54-7.3,4.79,7,10.45,10.85,18.46,10.28a27.37,27.37,0,0,0,6.28-1.38c3.14-1,5.94-1,9,.9,5.14,3.22,7.43,1.66,7.52-4.54.08-5.22-.39-10.24-3.72-14.61a4,4,0,0,1-1-3.71,14.41,14.41,0,0,0-1.64-12.82C267.41,145.29,268.53,145,269.59,144.77Z"/><path class="cls-13" d="M133.58,313.66c-.47,7.14,2.39,13.22,6,19-1,2.85-2.51,4.67-6,4.14-3-.46-5.72-.48-6.53-4.56-.49-2.46-2.34-4.59-2.43-7.42s-2.24-2.44-3.93-1.43c-8.67,5.18-18.21,5.75-27.9,5.25-9.35-.49-14.79-6.92-13.54-16,.33-2.41-.42-3-2.5-3-10.21,0-19.43-3.36-28.32-8.08-2.53-1.35-4.34-3-4.8-5.87.14-3.62,3.21-4.2,5.63-5.47a3.18,3.18,0,0,1,1.37.49,142.74,142.74,0,0,0,28.81,10.49c7.69,3.18,16,4,23.89,6.52,2,.63,6-.69,4.94,4-.09.37.49-.16.61-.28,2.82-2.71,6-2.32,9.28-1.13s6.78,1.45,10.23,1.84C130.21,312.5,132.12,312.21,133.58,313.66Z"/><path class="cls-14" d="M379,20.87c4-.78,6.86,3.58,10.58,3.63s6.49-4.1,11-3.76c5.75.44,12,4,13.6,9.15s.5,10.24-4,14c-5.85,4.88-11.8,9.66-17.64,14.56-2,1.65-3.6,1.89-5.68.12C381,53.62,375.09,48.87,369.21,44a12.08,12.08,0,0,1-4.09-13.89C366.87,24.65,372.7,20.88,379,20.87Z"/><path class="cls-2" d="M450.39,256.64c-11.67,21.55-23.4,22-45.94,19.15-5.65-3-12.05-3.77-18-5.85a78.31,78.31,0,0,1-13.19-5.46c-.4-2.19,1.27-2.87,2.73-3.62,10.16-5.22,20.84-9.29,31.24-14a4.9,4.9,0,0,1,3.42-.29c12.64,3.93,25.59,6.57,38.54,9.22A3,3,0,0,1,450.39,256.64Z"/><path class="cls-2" d="M85.69,142.78c17.33,1.4,30.22,12.46,31.12,31.87-1.49,8.89-.18,17.87-.79,26.78-.19,2.81,1.45,6.84-1.88,8-2.79,1-4.57-2.68-6.53-4.56-6.11-5.84-11.59-12.32-17.81-18a13.34,13.34,0,0,1-4.34-9.7c-.41-9.75.4-19.55-1-29.28C84.16,146.15,84.17,144.21,85.69,142.78Z"/><path class="cls-10" d="M134.64,260.73c-7.06-1.51-14.12-3-21.19-4.53-12.93-2.73-21.31-10.87-26.86-22.42l.71-.42c8.79-.17,17.55-.91,26.28-1.93,4-.47,7.59-2.28,11.58-2.73a8.83,8.83,0,0,1,8.33,3.11c6.29,6.85,12.58,13.69,18.48,20.89,2.94,3.6,2.44,5.24-2.05,6.76A34,34,0,0,1,134.64,260.73Z"/><path class="cls-2" d="M86.59,233.78c-.65-2.18-1.43-4.33-1.92-6.55C83,219.75,78.11,215.34,71.14,213c-5.62-1.92-11.08-4.07-15.55-8.16,1.36-1.61,3.29-1.54,5.07-1.45,13.33.7,26.54.11,39.53-3.28,1.88-.49,3.19.36,4.42,1.58,7.09,7,14.36,13.83,20.79,21.46,2.79,3.31,2.51,4.56-1.56,6-9.86,3.49-20.2,3.45-30.45,4-2.16.12-4.34-.14-6.46.47Z"/><path class="cls-15" d="M359.61,198.7c-.7-3.43-4-4.64-5.94-7l.3-.71c1.93-4,3.9-8,5.51-12.19,1.77-4.56,4.83-7.42,9.64-9.25,11.15-4.24,22.65-7.25,34.06-10.61a10.24,10.24,0,0,1,5.41-.17c2,6-1.14,10.67-9.07,13a54.72,54.72,0,0,0-27,17.64c-.7.83-2.16,1.59-1.23,2.84.42.56,1.79.51,2.73.55,1.49.08,3-.15,4.48,0,4,.46,8.12,1.08,9.1,6,.79,3.95-2,8-6.59,9.91a39,39,0,0,1-5.59,2c-3.11.76-4.3,2.62-3.89,5.68-.64-4.86-4.42-6.44-8.29-7.94A15.39,15.39,0,0,1,359.61,198.7Z"/><path class="cls-15" d="M427.69,120.58c4.39,4,4.16,9.86-.32,13.39-5.88,4.62-13.61,4.8-19.89,8.55a122.37,122.37,0,0,0-12,7.87c-.74.57-1.73,1.32-1.36,2.41s1.67.85,2.59.82c4.42-.12,8.57.44,11.58,4.19-1.86,2.22-4.66,1.4-7,2a290,290,0,0,0-30.62,9.53c-1.94.7-4.79,2.22-4.88-2.07a230.74,230.74,0,0,1,21-32.46c1.62-2.1,4-2.68,6.47-3.34,10.23-2.71,20.73-4.41,30.7-8.09a5.11,5.11,0,0,0,3.12-2.28Z"/><path class="cls-16" d="M144.67,92.84c1.65-4.4,3.29-3.55,5.32-.15,5.94,10,5.07,20.86-2.32,27.23-7.73,6.67-21.63,6.5-29.94-.58-2.83-2.41-6-4.69-7.11-8.6.5-2.62,2.57-1.15,3.92-1.46,3.16-.74,5.61-1.79,4.9-5.87a10.08,10.08,0,0,1,1.13-6.77,4.07,4.07,0,0,1,0-.49c.13-2.39-.91-5.7,1.27-6.85,2.55-1.36,4.61,1.3,6.45,3.15a10.42,10.42,0,0,0,2.54,1.42,8.64,8.64,0,0,0,1.91.29c2.83.57,4.36,4.54,6.84,3.93C141.45,97.62,142.05,93.84,144.67,92.84Z"/><path class="cls-16" d="M367.49,357.47c6.79-6.69,7-6.63,9.51,2.65.21.8.43,1.6.64,2.4.26.61-.06-.11.35.36,2.17,2.48-1,7.3,2.51,8.23,2.54.67,5.87-1.29,9-1.27,1.77-.94,3.43-1.47,2.78,1.58-2.7,12.88-11,22.72-26.32,20-11.91-2.15-19.85-15.9-16.55-28.46,1.2-4.6,2.81-.57,4.24-.23,3.64,3.41,6.68,3.49,8.91-1.53C363.48,359,366,358.94,367.49,357.47Z"/><path class="cls-2" d="M117.76,179.64c5.07,7.71,13.25,10.33,21.37,13,2.34.77,4.71,1.34,6.63,3,1.41,8.9-1,17.5-2.24,26.18-.52,3.6-.17,7.32-1.48,10.83-1.57,4.23-3.87,4.94-6.81,1.47-5.58-6.58-12-12.39-17.42-19.1-1.27-1.57-2.29-3.11-2.24-5.34.21-8.64,1-17.26.78-25.91C116.32,182.25,116.46,180.72,117.76,179.64Z"/><path class="cls-17" d="M117.76,179.64c-.45,7.61.55,15.26-1,22.87-1.31,6.45.88,11.85,5.66,16.5s9.8,9,13.65,14.52c.62.89,1.44,2,2.79,1.8,1.69-.31,1.73-1.82,1.87-3.13,1.1-10.35,3.75-20.5,3.94-31,0-1.9-.78-4.05,1.07-5.63v0a3.43,3.43,0,0,1,1.62,2.9c-.58,12-.23,24.19-3.72,35.92-1.06,3.54.25,6,2.6,8.45,5.95,6.2,12,12.34,16.44,19.81l0,3.05c-2,.54-3.22-.8-4.21-2-2.47-3-5.45-3-9-2.46-5,.78-10.06,2.78-14.9-.56h0c4.25-2.25,9.05-.53,13.52-2,5.76-1.89,5.91-1.67,2-6.06-6.23-7.08-12.52-14.1-18.63-21.28-1.92-2.26-4.19-2-6.32-1.32-9.8,3.18-20,3.43-30.12,4.52-2.69.29-5.66.89-8.2-1,.9-2.31,2.92-1.9,4.68-1.83a144,144,0,0,0,27.19-2.06c.5-.08,1,0,1.49-.12,6.83-1.67,7.07-2.45,2.33-7.48-5.32-5.65-11-11-15.85-17-3.65-4.62-8-4.6-12.24-2.9-5.58,2.23-11.34,1.93-17,2.41-7.27.61-14.62.22-21.94.25-1.44-.43-3-.73-4-2,3.36-2.25,7.25-1.48,10.59-.82,8.69,1.74,17.15-.72,25.72-.73,2.92,0,6.25,0,9.28-1.18,2.13-.82,2.91-1.51,1-3.32-8.24-8-15.66-16.81-24.86-23.7-4-3-9-1.31-13.5-.83a84.92,84.92,0,0,1-20.28-.07V170.7q10.05,0,20.09,0c1.66,0,3.32,0,5,0,1.36-.06,2.88-.33,3.47-1.57.74-1.55-.91-2.33-1.82-3.16-4-3.71-8-7.45-12.23-10.91-1.4-1.15-2.57-2-2.28-4l1.89-.4c6.86,4.42,12.26,10.52,18.19,16,3.88,3.58,7.82,7.06,12.12,11,1.1-8-.12-15.3-1.12-22.59a37.69,37.69,0,0,1-.33-9.42c.19-1.65.22-3.94,3.11-2.87h0c.75,11.24,1.29,22.49,1.12,33.77a13.67,13.67,0,0,0,4.6,10.52c7.54,7.22,14.73,14.81,23.32,21.88v-17c0-4.48,0-9,0-13.45,0-1.64-.32-3.48,2.07-3.83C118.09,176.13,117.56,178,117.76,179.64Z"/><path class="cls-15" d="M79.57,278.57c4.65-6.29,9.44-7,17.69.24,7.1,6.26,14,12.56,22.68,16.64,1.34.64,2.68,1.95,4,.74s-.37-2.36-.72-3.53c-1-3.42-3-6.84.35-10.1,5.3,2.95,8.06,8.37,12.11,12.54,1.82,1.86,4.68,3.33,4.15,6.74-5.4,4.09-11.13,6.9-18.2,4.91-2.85-.8-4.78.39-5.8,3.12-6.66,1.17-11-2.47-14.82-7.15a6.8,6.8,0,0,1-1-1c-5.59-8.51-13-15.42-20.15-22.5C79.78,279,79.68,278.78,79.57,278.57Z"/><path class="cls-15" d="M356.48,141.57c2.89-1.6,5.81-.88,8.58.19,3.23,1.25,3.57-.06,3.41-2.9a44.43,44.43,0,0,1,6.35-26.34c1.74-2.81,4.09-5.23,7.67-5.81a1.89,1.89,0,0,1,2.3-.06c.55,6.41-1,13,.34,19.21,1.82,8.66-1.9,14.86-6.62,21.15a159.36,159.36,0,0,0-11.77,18.92,6.6,6.6,0,0,0-1.29,2.08c-.83,2.14-1.55,5-4.28,4.64-2.43-.33-2.38-3.33-2.66-5.32-1.17-8.26-3.26-16.46-2.13-24.93C356.41,142.13,356.45,141.85,356.48,141.57Z"/><path class="cls-13" d="M162.69,262.71c-7.47-6.59-12.89-15.07-20.11-21.91-1.77-1.67-1.14-4.42-.45-6.65,4-12.59,3.67-25.56,3.62-38.52,9.47,4.32,13.63,11.77,13,22,1.8,6.48,1.22,13.12,1.44,19.64.91-2.74-1.41-6.43,2.3-8.48Z"/><path class="cls-18" d="M443.66,79.65c5.36,4.63,5.4,10.32-.59,14.89-7.91,6-15.18,12.81-22.85,19.11a32.8,32.8,0,0,0-2.44,2.57c3.5,1.56,7.43,1.52,9.91,4.36l-.19.32c-3.47,3.75-8.48,4.25-12.91,5.57a168.18,168.18,0,0,1-18.71,4.65c-1.46.26-3.13,1.06-4.12-.45s.46-2.84,1.37-3.89c8.3-9.46,16.52-19,25.88-27.46A281.68,281.68,0,0,1,443,80Z"/><path class="cls-18" d="M384.57,106.75l-2.08,0c4.44-3.39,8.42-2.79,15.85,2.62,4.58-10.13,12-17.91,21.19-23.66,7.15-4.51,14.92-8.75,24.13-6l-.23.25c-20.29,14.6-38.4,31.44-53.25,51.64-.86,1.16-1.82,2.66-3.55,2.22s-2.06-2.1-2.16-3.6c-.46-6.77-1-13.56.4-20.29C385.1,108.73,385.81,107.69,384.57,106.75Z"/><path class="cls-10" d="M85.68,142.77c-3.93,3.27-2,7.62-1.53,11.3a132.65,132.65,0,0,1,1.3,26.86c-10.86-10.63-22.16-19.53-31.74-30.3,6.07-6.48,14.27-7.71,22.41-8.65C79.2,141.62,82.64,140.85,85.68,142.77Z"/><path class="cls-10" d="M450.54,225.7c5,10,4.31,20-.06,30-6.86.42-13.25-2.15-19.8-3.44-4.93-1-9.9-2.32-14.81-3.67-1.68-.46-4-.66-4.29-2.66s1.92-2.43,3.35-3.17c11-5.68,22.37-10.71,33.2-16.77A3.15,3.15,0,0,1,450.54,225.7Z"/><path class="cls-13" d="M425.49,411.55c2.42-8.44,8.37-14.26,14.68-19.81,1.1-1,2.24-1.44,3.41-.1,2,8.71,3.5,17.4-1,25.85a4.62,4.62,0,0,1-1.69,1c-7.54,2.49-8.12,3.37-7.3,11,.13,1.05-1.22,2.1.69,3.15,2.91,1.6,4.5,4.69,6.41,7.32,1.09,1.52,2.19,3.38.43,5.29-7.55,2.41-13.85-1.28-20.31-4.17-1.31-2.06,0-3.61,1.32-4.75a6,6,0,0,0,1.82-7.58C421.38,422.7,422.51,417.06,425.49,411.55Z"/><path class="cls-19" d="M57.59,283.73c7.5.85,14,4.93,21.62,6.78-.26-4.29-1.48-8.19.36-11.94l.27.23a214.45,214.45,0,0,1,20.87,22.89v0a7.61,7.61,0,0,1,1.33,1.46c.65,1.18,2.64,2.16,1.31,3.73-1,1.22-2.68.63-4.18.28-6.4-1.5-12.7-3.38-19.06-5C70,298.48,59.49,295.77,49.85,290.8l-.11-.1C51.22,287.09,53.61,284.52,57.59,283.73Z"/><path class="cls-13" d="M443.58,452.6c.59.31,1.17.64,1.76.93,1.67.83,3.73,1.91,3.61,3.69s-2.23,2.56-3.92,3.42c-13,6.66-26.16,6.33-39.45,1-2.87-1.54-2.54-3.19-.58-5.46,3.94-4.59,9.5-6.5,14.83-7.35,7.17-1.14,14.9-2.31,21.47,2.88C442,452.2,442.91,452.08,443.58,452.6Z"/><path class="cls-15" d="M471.59,404.64c10.13-14.26,24.55-17.59,40.87-16,1.45.14,3.23.25,3.82,1.84.66,1.81-1.15,2.42-2.17,3.46-7.34,7.53-16.61,11.23-26.56,13.65-3.8,1.1-7.76.36-11.64,1.05C473.76,409.05,470.76,408.4,471.59,404.64Z"/><path class="cls-15" d="M404.59,424.63a51,51,0,0,1,10.79-15.24c1.38-1.32,3-3.45,4.32.13,5.09,11.19,3.37,21.85-2.42,32.23-.72,1.29-1.1,2.77-1.84,4.07a17,17,0,0,1-3.06,3.9c-3.12,2.83-4.17,2.47-6.26-1.31-1.91-3.44-4.36-6.47-4.74-10.72C401,432.85,401.33,428.45,404.59,424.63Z"/><path class="cls-13" d="M373.43,259.56q.07-14.37.14-28.74c4.74-1.74,6.67-6.54,10.18-9.66,3.8-3.38,7.44-6.85,11.81-9.5,1.38,1.66.22,3.21-.39,4.63-4.64,10.88-7.15,22.29-8.6,34-.68,5.5-6.7,10.91-12.23,10.67C373.56,260.9,373.27,260.33,373.43,259.56Z"/><path class="cls-13" d="M450.49,398.62c3.06-9,9.66-15.1,17.17-20.36,1.26-.88,3-1.9,4.59-1,1.95,1.09,1.33,3.25,1.09,5-1,7.52-2.46,14.95-6.79,21.43-1.63,3.5-3.66,6.65-7.13,8.64-7.41,3.33-11.36,1-10.88-6.47C449.3,403.43,449.06,400.8,450.49,398.62Z"/><path class="cls-20" d="M432.68,429.53c-2.28-7.84.16-11.18,9.09-12.48,3.18-.4,6.45,1.55,9.57-.42a11.52,11.52,0,0,1,7.28.71c4.41,2.15,5.53,6.18,3.13,11.2-.38.73-.76,1.46-1.13,2.19-2.43,5.11-7.75,6.92-11.77,10.2a3.24,3.24,0,0,1-4.18.08C440.72,437.13,435.14,435,432.68,429.53Z"/><path class="cls-21" d="M338.62,381.7c6.7,2.88,10.74,8.45,13.87,14.58,2.43,4.78,4.84,9.76,4.2,15.59,3.28-.68,2.6-3.2,3-5.14,1.76-.06,1.47.92,1,2-.63,3.34-1.26,6.68-2.16,11.49,7.83-8.41,15.82-14.35,26-16.73,1.36,1.61.21,2.78-.78,3.88a182.66,182.66,0,0,1-23.88,22.56c-1.2.93-2.59,2.62-4.32,1.29-1.31-1-.92-2.76-.47-4.21.88-2.81.11-6,2.22-8.54.31-.55.08.14-.38-.34-.25-.26.09.24.06.27-1.6,1.81-3,1.5-4.24-1.56-1.8-4.31-4.35-8.2-6.34-12.39-2.85-6-4.94-12.32-7.58-18.41A4.9,4.9,0,0,1,338.62,381.7Z"/><path class="cls-22" d="M57.59,283.73l-7.85,7-6.08,5.1c-5.45-2.61-9.64-6.87-13.74-11.08-2.18-2.25-2.16-5.59-.2-8.27,2.83-3.85,6.6-4.65,11-2.7,2.71,2.23,4.77-.58,7.15-.91C55.41,273.14,57.57,275.55,57.59,283.73Z"/><path class="cls-15" d="M353.67,191.66c-1.54-7.39-3.89-14.34-10.19-19.2-.31-9.16,1-18,6.17-25.76,1.6-2.43,3.45-4.9,6.83-5.13l.18.3c.49,10.58.15,21.27,3.81,31.46a5.16,5.16,0,0,1-.08,3.9c-2.12,4.85-4.13,9.75-6.69,14.39Z"/><path class="cls-23" d="M158.76,148.62c1.28-1,1-2.4.83-3.65a37.54,37.54,0,0,1,7.08-26.23,3.06,3.06,0,0,1,1.18,2.14c.27,11.79,1.16,23.59-.87,35.32-.42,2.43-1.85,3.43-4.31,2.55-1.14-1.61-2.3-3.2-3.4-4.84a4,4,0,0,0-4.24-2c-17.49,2.89-30.64-3.79-40.31-18.2l.62-.41c7.19,2.12,13.57,6,20.34,9.09,4.71,2.13,9.69,3.47,14.35,5.73A10.42,10.42,0,0,0,158.76,148.62Z"/><path class="cls-15" d="M371.86,272.48c-.14-2-.34-4.05.77-5.91,1.37-1,2.8-.73,4.25-.23,8.09,2.83,16.21,5.55,24.55,7.58a1.34,1.34,0,0,1,1.15,1.8c-5.82.07-9.58,3.66-13.19,7.61-3.87,4.24-7.85,8.38-10.81,13.35-4.07,2.52-5.88,2-10.61-3.05a6,6,0,0,1,1.4-5c1-.38.54,2.32,1.55.95,3.2-4.33,3.26-9.64,3.88-14.69C375,273.44,374.52,271.2,371.86,272.48Z"/><path class="cls-24" d="M373.43,259.56c5.88.12,11.1-3.47,11.89-8.66a208.43,208.43,0,0,1,6.53-29.64c1-3.3,3.43-6,3.71-9.6a3.4,3.4,0,0,1,2-2c1.24.87,1.08,2,.44,3.07-4.9,8.38-6.39,17.95-9,27.07a32.54,32.54,0,0,0-1.26,14c12.13-4.12,23.12-10.41,34.54-15.72,5-2.33,3.1-8,4.16-12.08a146.7,146.7,0,0,1,6.16-19c1.75,1,1.33,1.78,1.09,2.55q-3.39,10.83-6.78,21.68c-.4,1.28-.81,2.84.29,3.75s2.19-.27,3.18-.79c4.68-2.45,9.29-5,14-7.44,1.89-1,3.71-2.34,6.05-2.06a1.52,1.52,0,0,1,.1.94C438.11,233,424.81,238.6,411,245.89c13.76,4.48,26.77,6.63,39.5,9.84a1.25,1.25,0,0,1-.08.91c-7.34-.86-14.63-1.69-21.75-4.07-6-2-12.52-2.41-18.54-4.77-2.73-1.07-5.08,1-7.42,2-9.1,4.18-18.13,8.52-27.23,12.71-1,.47-1.74.86-1.76,2,.29.83,0,1.19-.87,1A9.81,9.81,0,0,1,373.43,259.56Z"/><path class="cls-13" d="M478.56,411.64c4.51.5,8.49,2.58,12.52,4.41,1.3.59,2.88,1.61,2.82,3.18,0,1.34-1.58,2-2.79,2.59-4.66,2.2-9.35,4.27-14.55,4.85-3.7.57-7.38,1.23-10.88-1s-4.17-6.36-5.86-9.72c-.69-1.36.56-2.83,2.13-3.38s3.31-1.45,5.05-2C470.92,410.21,474.89,409.19,478.56,411.64Z"/><path class="cls-13" d="M134.65,260.73c4.73,1.78,9.4.29,13.93-.64,4.71-1,8.59-.9,11.52,3.49a11.74,11.74,0,0,0,2.62,2.18l2.49,16.72c-1.76.92-2.9,3.41-5.51,2.2-6.86-4.83-11.59-11.73-16.92-18C140.36,263.89,136.77,263.46,134.65,260.73Z"/><path class="cls-25" d="M404.59,424.63c.2,3-1.94,5.36-2.21,8.45-.61,6.82,2.67,12,5.81,17.68,3.11-.2,4-3.66,6.37-5.16,2.05-1.63,1.9-5.94,6.07-5,1.48,0,3-.1,4.3.74,5.1,3.28,10.77,3.61,16.57,3.27a3.54,3.54,0,0,1,5.1.05,10.89,10.89,0,0,1-2,1.39c-6.17,2.43-6.17,2.41-1,6.57-6.16-1.49-12.09-3.69-18.73-3.13a35.69,35.69,0,0,0-18.94,7.27c-2.11,1.59-1.94,3.14-.33,4.88-4.56-1.09-5.12-2.13-2.18-5.19,3.71-3.85,3-7-.19-10.82-3.4-4.09-3.92-9.5-4.28-14.5C398.72,428.21,402.2,426.41,404.59,424.63Z"/><path class="cls-23" d="M114.72,133.73c-1.72-2.27-.51-2.85,1.65-2.78,11.47.38,22.62,1.94,32.2,9.07.7.53,1.56,1,2.26.4,1.12-.91.07-1.68-.41-2.51a45.51,45.51,0,0,1-4.14-8.61,72.3,72.3,0,0,1,11.37,17.44c-1.41,2.54-3.55,2.58-6,1.78a205.28,205.28,0,0,1-26-10.57c-3.46-1.7-6.74-3.86-10.69-4.36Z"/><path class="cls-26" d="M153,297.67l-11.18,3.14c-5.68-3.75-9.23-9.57-13.83-14.37-1.46-1.53-2.54-3.42-4.25-4.74,6.8-3.75,10.73-3.25,16.36,1.78,3.67,3.29,7.45,6.46,11.29,9.55C153,294.32,153.8,295.65,153,297.67Z"/><path class="cls-27" d="M338.62,381.7c4,12.23,9.9,23.62,15.26,35.25,1.4,3,2.52,2,3.82-.26-.69,4.68-1.37,9.35-2.17,14.81,9.84-6.91,17.79-14.77,25.39-23,1.34-1.44,3.93-2.3,3.58-5,1.63-1.27,2.81-1.4,2.95,1.15C380.63,416,370,423.7,360.16,432.08c-1,.88-2.6.59-3.48,1.72v1.73l-6.12-2.74c3.44-2.45,4.79-7.81,3.06-12.19C345.23,410,341.11,397.41,336.49,385c-.4-1.06-.74-2.23.15-3.28Z"/><path class="cls-28" d="M353.7,191.62c.15-4.65,2.76-8.37,4.87-12.21,1.25-2.28,1.64-4.74.72-6.65-2.9-6.07-3-12.47-2.56-18.82.3-4.07-2.72-8.07-.07-12.07,1.45,1.12,1,2.75.91,4.15-.8,8.88,2.36,17.22,3.09,26.13,3.67-1,2.68-5.64,5.92-6.46.29.23.39.47.3.7s-.17.37-.27.37c-.32,3.56,2,2.1,3.47,1.68,6.3-1.74,12.44-4.1,18.62-6.17,6.47-2.17,13.07-3,19.62-4.46a1.65,1.65,0,0,1,.27.92c-3.22,1-6.38,2.34-9.67,3-11.39,2.1-22,6.63-32.81,10.43-3.41,1.19-4.56,4.69-5.58,7.76-1.2,3.6-3.95,6.5-4.41,10.43C356,191.29,354.78,191.66,353.7,191.62Z"/><path class="cls-29" d="M336.64,381.75c1.74,7.25,5.08,13.89,8.16,20.61,2.82,6.13,5.87,12.17,8.82,18.24C338.19,412.74,332.79,397.29,336.64,381.75Z"/><path class="cls-29" d="M169.81,120.55c6.17,6.07,8.46,22,5,29.32-2,4.13-3.89,8.42-7.14,11.85a1,1,0,0,1-1.47-.57c2.25-11.59,2-23.34,2.06-35.07C168.23,124.12,168.06,122.05,169.81,120.55Z"/><path class="cls-30" d="M356.68,433.8c10.76-9.19,21.48-18.42,30.77-29.16-3.09,13.1-9.89,23.09-23,28.09C361.84,433.73,359.27,433.45,356.68,433.8Z"/><path class="cls-31" d="M169.81,120.55c-.21,11.09-.15,22.17-1,33.24-.21,3-2.61,5-2.11,8,.31,1.44,1.51,3.11-1,3.84-.44-2.56-3.29-4-3.09-6.87,1.5-.86,2.86-1.13,3.22-3.74,1.64-12.09.32-24.19.78-36.27.14-.85.38-1.85,1.45-1.51C169.64,117.72,169.62,119.25,169.81,120.55Z"/><path class="cls-32" d="M446.6,444.64l-5.09-.05c-1.29-4.47-4.51-7.67-7.55-10.88-1.3-1.39-2-2.43-1.28-4.18,3.78,3.22,7.62,6.37,11.31,9.69,2,1.81,3.63,1.72,5.66,0,3.57-2.95,7.3-5.7,11-8.53.3,3.27,3.93.85,4.95,2.89-2.55,1.76-5.59,2.57-8.23,4.17s-3.82,3.52-.72,5.89C453.43,445.6,449.92,444.21,446.6,444.64Z"/><path class="cls-33" d="M420.63,440.58c-2.84.69-3.55,3.95-6.07,5,.45-4.87,4-8.41,5.36-13.12,2.21-7.91,1.41-15.32-.22-23,1.88.84,2.18,6.17,5.79,2-.06,1.14.22,2.44-.23,3.4-2.06,4.49-1.89,8.78,0,13.35,1.36,3.35,2.21,7-2.53,9C421.73,437.76,421.31,439.47,420.63,440.58Z"/><path class="cls-34" d="M450.6,417.38c-3.08,3.67-5.92.51-8.83-.33,3.24-8.28,3.41-16.78,1.81-25.41,3.2,3,1.55,6.87,2,10.36.16,1.14-.73,3.06,1.37,3.06,1.38,0,1.59-1.51,1.58-2.71,0-1.61.41-3,1.95-3.73l-1,7c-1,6.65-1,6.69,5,8,1.52.34,3.29.69,2.91,2.54s-2.21.71-3.4.89S451.72,417,450.6,417.38Z"/><path class="cls-35" d="M389.48,369.84c-2.74,1-5.52,1.91-8.21,3.06s-3.76.51-3.68-2.39c.08-2.66,0-5.33.05-8l1.83-.71c8.14-3.25,8.5-3.07,7.38,5.36C386.49,369.81,387.71,369.84,389.48,369.84Z"/><path class="cls-36" d="M456.61,443.68c-1.32-.33-3.15.58-3.82-1.34s.48-3.28,1.83-4.19c3.33-2.21,6.52-4.9,10.94-4.53,5.05,3.87,5,4.91-.67,7.2C462.19,441.92,459.38,442.74,456.61,443.68Z"/><path class="cls-37" d="M115,133.59c3.36-1.46,5.9.74,8.49,2.1,8.83,4.66,18.17,8,27.51,11.46,2.69,1,4.48-.43,6.69-.41a2.14,2.14,0,0,1,1.11,1.88c-.73,3.33-3.43,2.38-5.17,1.85A146.17,146.17,0,0,1,127.64,140C123.46,137.72,118.6,136.85,115,133.59Z"/><path class="cls-38" d="M144.67,92.84c-.53,2.36-3.35,3.33-3.26,6.38.07,2.22-2.15,1.64-3.23.42-2.13-2.39-4.86-4-7.4-5.77,2.66-2.09,2.56-7.17,5.8-7.6s3.89,4.35,6.18,6.35C143.16,93,144,92.78,144.67,92.84Z"/><path class="cls-39" d="M450.6,417.38c1.81-1.46,4.16-.25,6.82-1.68-6.46-.78-11.41-2.55-7.92-10.06.22,7.13,3.69,8.86,10.15,5.07,2.19,1.17,4.9-1,7,1-1,.57-1.91,1.46-3,1.65-3.78.67-4.21,2.65-1.53,4.82,2.23,1.81.83,4.87,3.54,6.66,3.6,2.4,7.27,1.38,10.91,1.79a10.83,10.83,0,0,1-9.48.42c-2.67-1.09-3.81.05-5.33,1.45C463.25,420.45,460.63,417.83,450.6,417.38Z"/><path class="cls-40" d="M466.61,411.75c-2.25-.82-5.16,2.73-7-1,2.94-1.74,4.33-5,6.9-7.09.33,1.08-1.31,2.55.05,3.15,2.12.94,3.57-.8,5-2.13.39,2.92,2.75,2.86,4.78,2.93,3.73.14,7.46.05,11.18.05-1.62,1.76-3.74.95-5.63,1-2.18,0-3.58.53-3.36,3Z"/><path class="cls-41" d="M120.57,96.64c.47,3.9,1.25,8.42.26,11.61-1.08,3.51-7.08-.26-10.21,2.49-1.3-1.72.07-2.07,1.23-2,4.12.41,3.72-1.73,2.67-4.38a8.87,8.87,0,0,1-.54-1.89c-.52-3.38-1.32-7,4.4-5C118.94,97.7,119.84,97,120.57,96.64Z"/><path class="cls-42" d="M367.49,357.47c-2.47,3.34-6.13,5.74-7.52,10-.41,1.27-2.48,1.29-2.66.05-.35-2.49-3.45-2.49-3.68-4.81,3.33,0,3.27-3.24,4.78-5,1.87-2.14,3.48-5.62,6.35-.89C365.35,357.79,366.5,357.57,367.49,357.47Z"/><path class="cls-43" d="M372.83,265.63l.87-1c5.75,0,10.38,3.68,15.86,4.91,5.21,1.17,10.36,3.05,15.66,4.19.76.17,2,.06,1.76,1.13s-1.64.72-2.53,1l-1.87-.07-29.95-9.15C372.7,266.26,372.77,265.94,372.83,265.63Z"/><path class="cls-44" d="M162.48,228.83c-2,4.21.15,8.85-1.71,14.48-3.5-9.16-1.58-17.51-2-25.64,1.61,1.44.34,5.08,3.87,5.05C162.57,224.76,162.52,226.79,162.48,228.83Z"/><path class="cls-45" d="M165.76,165.62c1.37-1,.67-2.56,1-3.84a6.8,6.8,0,0,1,.9-.06c.63,5.69,3.35,10.62,6.08,15.46,1.74,3.1,2.27,6.34,2.71,9.74C171.79,180.33,169.05,172.84,165.76,165.62Z"/><path class="cls-46" d="M123.74,281.7c1,0,2.11-.16,2.7.79,4.28,6.82,10.45,12.05,15.38,18.32l-1.18.9c-.34.43-.65.38-.92-.08l-16.13-19.07A1.69,1.69,0,0,1,123.74,281.7Z"/><path class="cls-47" d="M368,293.63a8.75,8.75,0,0,1,4.7,2.66c1.89,1.95,3.87,1.47,5.91.39,1.54,2,4.47-.1,6,2a34.38,34.38,0,0,0-18.05,2.95C366.13,298.81,367.19,296.25,368,293.63Z"/><path class="cls-48" d="M360.7,408.73l-1-2c1.54-3.27.17-7.48,3.54-10.83A17.15,17.15,0,0,1,360.7,408.73Z"/><path class="cls-49" d="M159.7,284.68c2.42.74,2.65-4,5.51-2.2l.51,5.2Z"/><path class="cls-15" d="M373.5,230.64a47,47,0,0,1-1.8-13.7A33.26,33.26,0,0,1,373.5,230.64Z"/><path class="cls-50" d="M47.83,272.84c-2.32.79-4.18,5.17-7.15.91Z"/><path class="cls-51" d="M459.49,36.89c1.16-.16,2-.62,2-2,1.51.64,2.87,1.8,1.51,3.25S460.39,38.1,459.49,36.89Z"/><path class="cls-52" d="M81.7,460.59c.89-2.28,5.4,0,5-3.91,1.22,0,2.43.32,2.59,1.63s-1.3,1.8-2.29,2A42.16,42.16,0,0,1,81.7,460.59Z"/><path class="cls-53" d="M50.7,431.57c.63-1.28,3.67-1.32,2-3.81,1.51,0,3.68.54,3.36,1.84C55.41,432.11,52.76,431.54,50.7,431.57Z"/><path class="cls-54" d="M305.68,411.68c-11.29,3.29-22.68,2.18-34.08.77a57.38,57.38,0,0,1-27.46-10.54c-1.46-1.07-3.09-1.87-3.93-4.25L258,399.92a81.22,81.22,0,0,0,39.1-4.39c.46-.18.89-.47,1.36-.63,6.82-2.24,7.08-2,7.11,5.3,0,3.83.1,7.66.16,11.49Z"/><path class="cls-55" d="M359.52,318.9c2.26-1.93,1.66-5.38,3.89-7.32.74,2.83,2.17,1.06,3.22.38,5.66-3.64,11.67-4.1,18-2.33,2.62.73,4.28,2.12,3.75,4.89-.6,3.08-2.84,4.69-5.86,3.88-9-2.41-13,.9-15.06,9.85-.62,2.76-2.67,3.74-5.27,3.3s-3.63-2.4-3.11-4.75A32.78,32.78,0,0,0,359.52,318.9Z"/><path class="cls-55" d="M153.81,308.64c8.14-.32,18.1,5,19.6,15.56.42,3,.39,5.95-2.74,7.17-3.47,1.36-5-1.22-6.2-4-4.23-9.75-4.26-9.77-15.46-8.75-2.58.24-4.18-.79-4.88-3.17a4.32,4.32,0,0,1,2.71-5.62A13.74,13.74,0,0,1,153.81,308.64Z"/><path class="cls-56" d="M223.29,323.66a9.83,9.83,0,0,1,10.05,9.89c0,4.89-5.78,10.25-11,10.1-4.5-.13-10.56-5.91-10.7-10.2C211.53,328.47,217.26,323.63,223.29,323.66Z"/><path class="cls-56" d="M311.3,323.66c6.19,0,10.31,3.83,10.32,9.47,0,5.31-5.14,10.48-10.46,10.51-5.16,0-10.57-5.16-10.52-10.09C300.69,327.75,305.14,323.63,311.3,323.66Z"/><path class="cls-57" d="M332.38,284.51c-4.56.79-8.14-1.47-11.92-2.15-5.73-1-11.11-1.25-16.52,1-.76.31-1.6.43-2.37.74-2.21.9-4.07.54-4.78-1.87-.78-2.61,1.23-3.55,3.22-4.09,8.08-2.22,16.12-2.07,23.86,1.28C326.73,280.62,330.33,280.94,332.38,284.51Z"/><path class="cls-58" d="M201.79,284c5.07-4.59,11.32-6,17.51-7.05A32.3,32.3,0,0,1,234.05,278c2,.61,4,1.51,3.27,4.07-.67,2.27-2.55,2.94-4.78,2-9-3.82-18-3.41-27,.32A3.3,3.3,0,0,1,201.79,284Z"/><path class="cls-59" d="M267.35,352.6a34.75,34.75,0,0,1-20.29-4c-1.46-.75-3.61-1.41-2.68-3.35.64-1.36,2.71-.79,4.08-.09,12.28,6.24,24.8,5.77,37.44,1.29,1.4-.5,3.16-1.63,3.86.24s-1.64,2-2.79,2.66C281,352.74,274.37,353,267.35,352.6Z"/><path class="cls-28" d="M79.74,301.66c7.14-.31,13.14,4.34,20.14,4.62,1,0,1.91.24,3,.38.13-2.23-2.5-3-2.14-5,4,1.47,5.41,6.55,10.17,7.19,1.58.22,3.14.86,4.82.76a3.59,3.59,0,0,1,3-.93,21.39,21.39,0,0,0,6.43.61c3.09.51,7.11-1.34,8.56,3.36,0,.33-.09.66-.13,1-5.8.12-11.51-.3-17-2.46-2.18-.86-4.37-1-6.43,1a8,8,0,0,1-5.83,2.38c.5-2.31,3.35-2,3.56-4.18l-29.15-7.7C78.51,301.76,78.68,301.26,79.74,301.66Z"/><path class="cls-13" d="M118.7,309.67l-3-.05c-.55-3.51,2.22-5.87,5.81-4.4,4.92,2,9,1,13.2-1.81,1.43-1,3.33-1.21,5-1.78l.92.08c-3,3.22-5.8,6.56-6.93,11-2.52-2.87-5.92-1.73-9-2C122.89,309.15,120.77,309.6,118.7,309.67Z"/><path class="cls-60" d="M313.16,307c-5.33-.36-9.84-1.22-13.79-3.93-1-.66-2.21-1.31-1.25-2.68.7-1,1.72-.45,2.66,0,8.43,4,16.8,6.1,24.79-1,.8-.71,1.94-1,2.61.06.78,1.21-.13,2.06-1,2.92C323,306.34,317.88,307.07,313.16,307Z"/><path class="cls-61" d="M219.34,306.72c-5.13.19-9.77-.37-13.15-4.66-.71-.9-2-1.52-.91-2.79.81-.92,1.86-.43,2.62.28,7.62,7,15.74,4.89,23.9,1.29,1.07-.47,2.12-1.54,3-.2s-.56,2.18-1.41,2.71A23.93,23.93,0,0,1,219.34,306.72Z"/><path class="cls-62" d="M263.62,328.87c0,1.91-.66,3.3-2.31,2.44-2.73-1.41-4.28-3.94-3.27-7s3.41-4.47,6.68-3.38c1.44.48,2.49,2,.86,2.92C263.12,325.21,261.9,326.52,263.62,328.87Z"/><path class="cls-63" d="M267.4,363.64a7.09,7.09,0,0,1-2-.26c-2.28-1.29-7.11.19-6.77-3.21.3-3,4.14.48,6.37-.46a4.54,4.54,0,0,1,2.43,0c1.62.32,4.54-1.11,4.6,1.15C272.07,363.48,268.46,362.3,267.4,363.64Z"/><path class="cls-64" d="M359.61,198.7c2.1,2.93,2.9,6.34,3.66,9.77-15.67-7-32.17-11-49-13.79a18,18,0,0,1-2.78-.9c2-.8,5.09,1.6,6.17-2,12.26,3.15,24.53,6.41,37.37,4.65C357.35,196.07,357.9,198.3,359.61,198.7Z"/><path class="cls-65" d="M371.86,272.48l1.3-3.07c4.64,5.51,3.6,14.49-2.73,22.61-1.42-.82-.58-2.36-1.06-3.41Z"/><path class="cls-3" d="M311.12,109.79c-10.89-.09-19.58-8.27-19.54-18.39,0-10.34,8.88-18.24,20.22-18.06,10.67.16,19.05,8.19,19,18.24C330.81,101.45,321.69,109.88,311.12,109.79Z"/><path class="cls-66" d="M217.84,104.6c8,.05,14.59,6.33,14.56,13.9,0,7.27-7,13.95-14.65,14-8.16.05-15.12-6.47-15.05-14.09C202.78,110.56,209.37,104.54,217.84,104.6Z"/><path class="cls-67" d="M79.74,301.66l-1,1a227.14,227.14,0,0,1-24.94-8.82c-1.58-.69-3.73-.58-3.93-3,3.72-1.05,6.27,1.94,9.16,3.14C65.84,296.76,73.48,297.4,79.74,301.66Z"/><path class="cls-68" d="M366.61,166.76l0-1.07c3.44-10,10.34-17.86,16.13-26.39a8.31,8.31,0,0,0,1.54-6.37c-1.1-8.72-1.35-17.47.32-26.18,2,1.31,2,1.29,1.25,3.56-2.14,6.65-1.51,13.39-.43,20.12.15.95.23,2.19,1.31,2.53,1.63.5,1.69-1.2,2.33-2a264.37,264.37,0,0,1,50-49.22c1.36-1,2.5-2.22,4.38-1.81.13,1.35-.66,2.08-1.68,2.79a212.82,212.82,0,0,0-43.65,40.63c-1.89,2.34-4.41,4.17-6.05,7.34,12.62-1.6,24.07-5.56,35.45-9.76,1.72,2.27,0,2.67-1.69,3.24a307.19,307.19,0,0,1-33.34,8.62,8.75,8.75,0,0,0-5.19,3.4C379.45,145.74,374,156.92,366.61,166.76Z"/><path class="cls-69" d="M100.71,301.69A217.49,217.49,0,0,1,79.84,278.8c6,2.55,9.38,8.11,13.5,12.63C96.1,294.47,100.26,296.87,100.71,301.69Z"/><path class="cls-15" d="M118.7,309.67c2.23-1.08,4.52-2.48,6,1C122.64,310.7,120.56,310.87,118.7,309.67Z"/></svg>