<svg width="36" height="28" viewBox="0 0 36 28" fill="none" xmlns="http://www.w3.org/2000/svg">
<path d="M29.8174 2.45445C29.1526 1.67631 28.3634 1.05905 27.4946 0.637904C26.6259 0.216763 25.6948 0 24.7545 0C23.8142 0 22.883 0.216763 22.0143 0.637904C21.1456 1.05905 20.3563 1.67631 19.6916 2.45445L18.312 4.06859L16.9324 2.45445C15.5896 0.883412 13.7684 0.000814321 11.8695 0.000814338C9.97051 0.000814355 8.14933 0.883412 6.80656 2.45445C5.4638 4.02548 4.70944 6.15626 4.70944 8.37803C4.70944 10.5998 5.4638 12.7306 6.80656 14.3016L8.18617 15.9158L18.312 27.7629L28.4378 15.9158L29.8174 14.3016C30.4825 13.5239 31.01 12.6004 31.37 11.584C31.7299 10.5676 31.9152 9.47822 31.9152 8.37803C31.9152 7.27785 31.7299 6.18844 31.37 5.17206C31.01 4.15567 30.4825 3.23221 29.8174 2.45445Z" fill="url(#paint0_linear_16_703)"/>
<g filter="url(#filter0_b_16_703)">
<path d="M14.9116 20.2885C14.6532 20.2881 14.3994 20.2078 14.1756 20.0555C13.9519 19.9033 13.7661 19.6844 13.6369 19.4209L11.1243 14.1027L9.51805 16.9396C9.37982 17.1743 9.19451 17.3653 8.97857 17.4954C8.76263 17.6256 8.52274 17.6909 8.28019 17.6857H1.64879C1.25795 17.6857 0.883123 17.5029 0.606761 17.1775C0.330399 16.8521 0.17514 16.4108 0.17514 15.9506C0.17514 15.4904 0.330399 15.0491 0.606761 14.7237C0.883123 14.3983 1.25795 14.2154 1.64879 14.2154H7.49179L10.0044 9.78215C10.1447 9.53514 10.3366 9.33472 10.5617 9.20011C10.7867 9.0655 11.0374 9.00121 11.2896 9.0134C11.5418 9.0256 11.7871 9.11386 12.002 9.26974C12.2169 9.42562 12.3942 9.64388 12.5169 9.90361L14.9116 15.083L18.7652 7.27486C18.8969 7.00619 19.0873 6.784 19.3167 6.63142C19.546 6.47883 19.806 6.40144 20.0694 6.40729C20.3265 6.40912 20.5788 6.49016 20.8011 6.64236C21.0235 6.79456 21.2081 7.01262 21.3367 7.27486L24.8661 14.2154L26.3397 12.8447C26.6009 12.606 26.9227 12.4776 27.2534 12.4803H34.069C34.4598 12.4803 34.8347 12.6631 35.111 12.9885C35.3874 13.3139 35.5426 13.7553 35.5426 14.2154C35.5426 14.6756 35.3874 15.117 35.111 15.4424C34.8347 15.7678 34.4598 15.9506 34.069 15.9506H27.7692L25.3745 18.1803C25.2095 18.3401 25.017 18.4557 24.8102 18.5192C24.6035 18.5827 24.3875 18.5925 24.1772 18.5479C23.967 18.5034 23.7674 18.4055 23.5925 18.2611C23.4175 18.1167 23.2713 17.9293 23.164 17.7118L20.0694 11.5607L16.1863 19.4209C16.0571 19.6844 15.8713 19.9033 15.6476 20.0555C15.4238 20.2078 15.17 20.2881 14.9116 20.2885Z" fill="white" fill-opacity="0.2"/>
</g>
<defs>
<filter id="filter0_b_16_703" x="-9.63084" y="-3.39899" width="54.9794" height="33.4934" filterUnits="userSpaceOnUse" color-interpolation-filters="sRGB">
<feFlood flood-opacity="0" result="BackgroundImageFix"/>
<feGaussianBlur in="BackgroundImageFix" stdDeviation="4.90299"/>
<feComposite in2="SourceAlpha" operator="in" result="effect1_backgroundBlur_16_703"/>
<feBlend mode="normal" in="SourceGraphic" in2="effect1_backgroundBlur_16_703" result="shape"/>
</filter>
<linearGradient id="paint0_linear_16_703" x1="4.70944" y1="12.956" x2="31.2632" y2="13.0722" gradientUnits="userSpaceOnUse">
<stop stop-color="#FF7070"/>
<stop offset="1" stop-color="#FF7070" stop-opacity="0.65"/>
</linearGradient>
</defs>
</svg>
