<svg width="216" height="210" viewBox="0 0 216 210" fill="none" xmlns="http://www.w3.org/2000/svg">
<g clip-path="url(#clip0_324_188)">
<path d="M137.126 47.2283H78.9233C77.597 47.2299 76.3255 47.7554 75.3876 48.6895C74.4497 49.6236 73.9221 50.8901 73.9205 52.2111V181.05L73.2535 181.253L58.9755 185.608C58.2988 185.813 57.5679 185.743 56.9432 185.412C56.3186 185.081 55.8512 184.517 55.6437 183.844L13.1731 45.6704C12.9664 44.9964 13.0368 44.2682 13.3689 43.646C13.701 43.0237 14.2676 42.5582 14.9441 42.3518L36.9465 35.6416L100.732 16.1954L122.735 9.48521C123.069 9.38257 123.421 9.3467 123.77 9.37966C124.119 9.41262 124.458 9.51376 124.767 9.67729C125.077 9.84082 125.351 10.0635 125.574 10.3327C125.797 10.6018 125.964 10.9121 126.067 11.2458L136.923 46.5639L137.126 47.2283Z" fill="#D6F0F1"/>
<path d="M149.826 46.5642L136.742 3.99771C136.524 3.28847 136.169 2.62891 135.695 2.05671C135.221 1.48451 134.639 1.01089 133.981 0.662907C133.324 0.314927 132.604 0.0994057 131.863 0.0286669C131.121 -0.0420719 130.373 0.033358 129.662 0.250639L98.7275 9.68143L34.9451 29.131L4.01108 38.5651C2.57405 39.0046 1.3708 39.994 0.665454 41.3162C-0.0398959 42.6384 -0.189722 44.1853 0.248868 45.6174L44.9673 191.092C45.3236 192.248 46.0425 193.26 47.0186 193.979C47.9946 194.698 49.1764 195.087 50.3905 195.088C50.9524 195.089 51.5111 195.005 52.048 194.839L73.2532 188.375L73.9203 188.169V187.475L73.2532 187.677L51.8513 194.205C50.5828 194.59 49.2128 194.458 48.0417 193.839C46.8706 193.219 45.9941 192.162 45.6044 190.899L0.889365 45.4215C0.696286 44.7959 0.628993 44.1386 0.691337 43.4871C0.75368 42.8356 0.944431 42.2028 1.25268 41.6249C1.56092 41.0469 1.98061 40.5352 2.48769 40.119C2.99478 39.7029 3.5793 39.3904 4.2078 39.1996L35.1418 29.7655L98.9244 10.3192L129.858 0.885122C130.335 0.740222 130.831 0.66634 131.329 0.665878C132.399 0.66827 133.44 1.01174 134.299 1.64597C135.158 2.2802 135.791 3.17188 136.105 4.19038L149.129 46.5642L149.336 47.2286H150.03L149.826 46.5642Z" fill="#3F3D56"/>
<path d="M40.9167 42.4604C40.2739 42.46 39.6481 42.2544 39.1312 41.8737C38.6143 41.4931 38.2335 40.9575 38.0446 40.3455L33.7488 26.3698C33.6333 25.9944 33.5933 25.6 33.6309 25.2092C33.6685 24.8184 33.783 24.4387 33.968 24.092C34.1529 23.7453 34.4046 23.4382 34.7087 23.1884C35.0128 22.9386 35.3633 22.7508 35.7403 22.6359L94.4196 4.74309C95.1808 4.51174 96.0031 4.59064 96.7059 4.96249C97.4088 5.33434 97.9348 5.96875 98.1686 6.72649L102.464 20.7024C102.697 21.4605 102.617 22.2795 102.244 22.9795C101.871 23.6795 101.234 24.2034 100.473 24.4364L41.7936 42.3292C41.5095 42.4161 41.2139 42.4603 40.9167 42.4604V42.4604Z" fill="#00ADB5"/>
<path d="M63.4204 14.9334C67.1044 14.9334 70.0908 11.9589 70.0908 8.28962C70.0908 4.62038 67.1044 1.64587 63.4204 1.64587C59.7364 1.64587 56.75 4.62038 56.75 8.28962C56.75 11.9589 59.7364 14.9334 63.4204 14.9334Z" fill="#00ADB5"/>
<path d="M63.4202 12.4966C65.753 12.4966 67.6441 10.6131 67.6441 8.28961C67.6441 5.96613 65.753 4.08258 63.4202 4.08258C61.0874 4.08258 59.1963 5.96613 59.1963 8.28961C59.1963 10.6131 61.0874 12.4966 63.4202 12.4966Z" fill="white"/>
<path d="M200.992 193.391H88.2617C87.5101 193.39 86.7895 193.092 86.258 192.563C85.7266 192.033 85.4276 191.316 85.4268 190.567V56.0313C85.4276 55.2827 85.7265 54.565 86.258 54.0356C86.7895 53.5063 87.5101 53.2085 88.2617 53.2077H200.992C201.743 53.2086 202.464 53.5063 202.995 54.0357C203.527 54.565 203.826 55.2827 203.827 56.0313V190.567C203.826 191.316 203.527 192.033 202.995 192.563C202.464 193.092 201.743 193.39 200.992 193.391V193.391Z" fill="#D6F0F1"/>
<path d="M149.129 46.564H78.9228C77.4197 46.5661 75.9788 47.1617 74.9159 48.2203C73.8531 49.2789 73.2551 50.7141 73.2529 52.2111V187.677L73.92 187.474V52.2111C73.9216 50.8901 74.4492 49.6237 75.387 48.6895C76.3249 47.7554 77.5964 47.2299 78.9228 47.2283H149.336L149.129 46.564ZM210.33 46.564H78.9228C77.4197 46.5661 75.9788 47.1617 74.9159 48.2203C73.8531 49.2789 73.2551 50.7141 73.2529 52.2111V204.353C73.2551 205.85 73.8531 207.285 74.9159 208.344C75.9788 209.402 77.4197 209.998 78.9228 210H210.33C211.833 209.998 213.274 209.402 214.337 208.344C215.4 207.285 215.998 205.85 216 204.353V52.2111C215.998 50.7141 215.4 49.2789 214.337 48.2203C213.274 47.1617 211.833 46.5661 210.33 46.564V46.564ZM215.333 204.353C215.331 205.674 214.803 206.94 213.866 207.874C212.928 208.809 211.656 209.334 210.33 209.336H78.9228C77.5964 209.334 76.3249 208.809 75.387 207.874C74.4492 206.94 73.9216 205.674 73.92 204.353V52.2111C73.9216 50.8901 74.4492 49.6237 75.387 48.6895C76.3249 47.7554 77.5964 47.2299 78.9228 47.2283H210.33C211.656 47.2299 212.928 47.7554 213.866 48.6895C214.803 49.6237 215.331 50.8901 215.333 52.2111V204.353Z" fill="#3F3D56"/>
<path d="M175.311 61.1802H113.943C113.147 61.1793 112.384 60.864 111.822 60.3036C111.259 59.7431 110.942 58.9832 110.941 58.1905V43.5743C110.942 42.7816 111.259 42.0217 111.822 41.4612C112.384 40.9008 113.147 40.5855 113.943 40.5846H175.311C176.107 40.5855 176.87 40.9008 177.432 41.4612C177.995 42.0217 178.312 42.7816 178.313 43.5743V58.1905C178.312 58.9832 177.995 59.7431 177.432 60.3036C176.87 60.864 176.107 61.1793 175.311 61.1802V61.1802Z" fill="#00ADB5"/>
<path d="M144.626 41.5811C148.31 41.5811 151.297 38.6066 151.297 34.9374C151.297 31.2681 148.31 28.2936 144.626 28.2936C140.942 28.2936 137.956 31.2681 137.956 34.9374C137.956 38.6066 140.942 41.5811 144.626 41.5811Z" fill="#00ADB5"/>
<path d="M144.626 38.9841C146.87 38.9841 148.689 37.1723 148.689 34.9374C148.689 32.7025 146.87 30.8907 144.626 30.8907C142.383 30.8907 140.563 32.7025 140.563 34.9374C140.563 37.1723 142.383 38.9841 144.626 38.9841Z" fill="white"/>
<path d="M122.995 95.8846C123.003 94.7753 123.394 93.8394 124.168 93.0769C124.941 92.3144 125.882 91.9372 126.992 91.9451C128.101 91.953 129.037 92.3437 129.799 93.1172C130.562 93.8907 130.939 94.832 130.931 95.9413C130.924 97.008 130.533 97.9012 129.76 98.621C128.987 99.3835 128.045 99.7608 126.936 99.7529C125.827 99.745 124.891 99.3543 124.128 98.5808C123.365 97.85 122.988 96.9513 122.995 95.8846ZM150.387 96.0804C150.395 94.9711 150.785 94.0352 151.559 93.2727C152.332 92.5102 153.274 92.1329 154.383 92.1409C155.492 92.1488 156.428 92.5395 157.191 93.313C157.953 94.0864 158.33 95.0278 158.323 96.1371C158.315 97.2038 157.925 98.097 157.151 98.8168C156.378 99.5793 155.436 99.9566 154.327 99.9487C153.218 99.9407 152.282 99.55 151.519 98.7766C150.757 98.0458 150.379 97.1471 150.387 96.0804ZM111.163 139.609C115.202 135.541 120.324 132.378 126.527 130.118C132.73 127.901 139.415 126.818 146.583 126.87C153.921 126.922 160.76 128.166 167.1 130.6C173.483 133.078 178.727 136.572 182.834 141.081L182.79 147.161L182.214 147.157C177.769 142.346 172.397 138.702 166.1 136.225C159.845 133.791 153.326 132.55 146.542 132.501C139.929 132.454 133.607 133.54 127.575 135.758C121.542 138.019 116.249 141.33 111.695 145.693L111.119 145.689L111.163 139.609Z" fill="#3F3D56"/>
</g>
<defs>
<clipPath id="clip0_324_188">
<rect width="216" height="210" fill="white"/>
</clipPath>
</defs>
</svg>
