<svg width="288" height="288" viewBox="0 0 288 288" fill="none" xmlns="http://www.w3.org/2000/svg">
<path d="M20.3555 244.166V258.624H23.6905C23.5156 257.103 23.5156 255.566 23.6905 254.045C24.0073 252.346 27.6303 247.956 27.5209 244.189L20.3555 244.166Z" fill="#EBEBEB"/>
<path d="M47.0361 244.166V258.624H50.3712C50.1963 257.103 50.1963 255.566 50.3712 254.045C50.688 252.346 54.311 247.956 54.2016 244.189L47.0361 244.166Z" fill="#E0E0E0"/>
<path d="M73.1518 244.166V258.624H69.811C69.9827 257.102 69.9827 255.566 69.811 254.045C69.4884 252.346 65.8712 247.956 65.9748 244.189L73.1518 244.166Z" fill="#EBEBEB"/>
<path d="M96.2372 244.166V258.624H92.9022C93.0739 257.102 93.0739 255.566 92.9022 254.045C92.5854 252.346 88.9623 247.956 89.0718 244.189L96.2372 244.166Z" fill="#E0E0E0"/>
<path d="M97.9887 172.875H18.0859V244.627H97.9887V172.875Z" fill="#F5F5F5"/>
<path d="M76.4639 172.875L77.0571 244.627H97.989V172.875H76.4639Z" fill="#E0E0E0"/>
<path d="M72.9792 178.157H21.6807V196.416H72.9792V178.157Z" fill="#EBEBEB"/>
<path d="M72.9792 200.051H21.6807V218.31H72.9792V200.051Z" fill="#EBEBEB"/>
<path d="M72.9792 221.95H21.6807V240.209H72.9792V221.95Z" fill="#EBEBEB"/>
<path d="M41.3447 152.26L39.1328 172.794H67.4835L69.8336 152.26H41.3447Z" fill="#E0E0E0"/>
<path d="M42.5136 153.734L40.3594 171.7H65.9453L68.0131 153.734H42.5136Z" fill="white"/>
<path d="M46.817 156.758L45.4922 168.682H61.6375L62.4669 156.758H46.817Z" fill="#EBEBEB"/>
<path d="M68.8197 161.101L74.6776 172.875L67.4834 172.794L68.8197 161.101Z" fill="#EBEBEB"/>
<path d="M49.2077 188.237C49.2088 188.608 49.0996 188.972 48.894 189.282C48.6884 189.591 48.3955 189.833 48.0525 189.976C47.7095 190.119 47.3317 190.157 46.9671 190.085C46.6025 190.013 46.2674 189.835 46.0042 189.572C45.741 189.31 45.5616 188.975 45.4887 188.611C45.4157 188.247 45.4526 187.869 45.5945 187.525C45.7365 187.182 45.9772 186.888 46.2861 186.682C46.595 186.475 46.9583 186.365 47.3299 186.365C47.8269 186.365 48.3037 186.562 48.6556 186.913C49.0076 187.264 49.2061 187.74 49.2077 188.237Z" fill="#E0E0E0"/>
<path d="M49.2077 210.355C49.2077 210.727 49.0975 211.09 48.8912 211.398C48.6849 211.707 48.3916 211.948 48.0485 212.09C47.7054 212.232 47.3278 212.269 46.9636 212.197C46.5993 212.124 46.2647 211.946 46.0021 211.683C45.7395 211.42 45.5607 211.086 45.4882 210.722C45.4158 210.357 45.453 209.98 45.5951 209.637C45.7372 209.294 45.9779 209 46.2867 208.794C46.5955 208.588 46.9585 208.477 47.3299 208.477C47.5767 208.477 47.8212 208.525 48.0494 208.619C48.2776 208.713 48.4849 208.851 48.6594 209.026C48.8339 209.2 48.9722 209.408 49.0663 209.636C49.1604 209.864 49.2084 210.108 49.2077 210.355Z" fill="#E0E0E0"/>
<path d="M49.2077 232.468C49.2077 232.839 49.0975 233.202 48.8912 233.511C48.6849 233.82 48.3916 234.061 48.0485 234.203C47.7054 234.345 47.3278 234.382 46.9636 234.31C46.5993 234.237 46.2647 234.058 46.0021 233.796C45.7395 233.533 45.5607 233.198 45.4882 232.834C45.4158 232.47 45.453 232.092 45.5951 231.749C45.7372 231.406 45.9779 231.113 46.2867 230.907C46.5955 230.7 46.9585 230.59 47.3299 230.59C47.8279 230.59 48.3055 230.788 48.6577 231.14C49.0098 231.492 49.2077 231.97 49.2077 232.468Z" fill="#E0E0E0"/>
<path d="M72.8981 56.2349L27.5957 55.7971L28.8571 114.837L74.1595 115.004L72.8981 56.2349Z" fill="#E0E0E0"/>
<path d="M69.9779 58.8672L30.3203 57.8419L31.4666 111.387L71.1126 111.876L69.9779 58.8672Z" fill="#FAFAFA"/>
<path d="M63.21 66.8679L36.8926 66.4301L37.699 103.859L63.9876 103.294L63.21 66.8679Z" fill="#EBEBEB"/>
<path d="M37.699 103.859L63.5787 84.0672L36.8926 66.4301L37.699 103.859Z" fill="#F5F5F5"/>
<path d="M267.845 25.4592L228.096 25.0733L229.207 76.873L268.946 77.017L267.845 25.4592Z" fill="#E0E0E0"/>
<path d="M265.277 27.7747L230.486 26.8704L231.494 73.8432L266.273 74.2695L265.277 27.7747Z" fill="#FAFAFA"/>
<path d="M259.338 34.7904L236.258 34.4045L236.961 67.2365L260.024 66.7469L259.338 34.7904Z" fill="#EBEBEB"/>
<path d="M236.961 67.2365L259.666 49.8758L236.258 34.4045L236.961 67.2365Z" fill="#F5F5F5"/>
<path d="M223.321 220.205C223.154 220.712 229.081 243.245 229.081 243.245L233.147 242.398L227.554 220.205H223.321Z" fill="#EBEBEB"/>
<path d="M254.833 216.985L246.7 243.245H251.446L259.24 218.851L254.833 216.985Z" fill="#F5F5F5"/>
<path d="M262.286 212.918L252.967 243.245H257.713L266.693 214.785L262.286 212.918Z" fill="#EBEBEB"/>
<path d="M226.2 241.384L230.946 257.818H254.833L259.24 241.384H226.2Z" fill="#E0E0E0"/>
<path d="M238.521 241.384C238.501 241.328 238.483 241.27 238.47 241.212L238.343 240.71C238.233 240.25 238.084 239.599 237.888 238.769L236.246 231.592L230.884 207.66L231.028 207.78H226.846L226.99 207.596C229.115 217.014 231.022 225.452 232.387 231.546C233.055 234.582 233.597 237.03 233.977 238.746C234.15 239.581 234.294 240.232 234.392 240.699C234.432 240.912 234.466 241.079 234.489 241.206C234.499 241.265 234.499 241.325 234.489 241.384C234.469 241.328 234.451 241.27 234.438 241.212C234.403 241.085 234.363 240.918 234.311 240.71C234.196 240.25 234.04 239.599 233.839 238.769C233.441 237.041 232.871 234.616 232.162 231.592C230.763 225.498 228.833 217.071 226.679 207.66L226.633 207.481H231.126L231.154 207.596C233.222 217.014 235.083 225.452 236.425 231.546C237.076 234.582 237.606 237.03 237.974 238.746C238.147 239.581 238.28 240.232 238.377 240.699L238.475 241.206C238.5 241.262 238.516 241.323 238.521 241.384Z" fill="#E0E0E0"/>
<path d="M261.867 258.503C261.867 258.584 207.181 258.653 139.755 258.653C72.328 258.653 17.6426 258.584 17.6426 258.503C17.6426 258.422 72.3165 258.353 139.783 258.353C207.25 258.353 261.867 258.422 261.867 258.503Z" fill="#263238"/>
<path d="M246.142 101.29C246.01 101.234 245.873 101.192 245.733 101.163C245.321 101.07 244.894 101.07 244.483 101.163C243.816 101.334 243.196 101.653 242.668 102.096C241.951 102.717 241.33 103.441 240.825 104.244C239.644 106.053 238.717 108.553 237.634 111.468C236.381 114.796 235.297 118.185 234.386 121.622C234.216 121.939 233.99 122.223 233.717 122.458C233.577 122.585 233.411 122.682 233.23 122.739C233.049 122.797 232.858 122.815 232.669 122.792C232.299 122.698 231.965 122.497 231.707 122.216C231.436 121.968 231.183 121.703 230.93 121.432C230.429 120.882 229.897 120.363 229.334 119.877C228.79 119.354 228.067 119.059 227.312 119.053C226.935 119.118 226.575 119.261 226.257 119.473C225.938 119.685 225.668 119.962 225.463 120.286C225.054 120.986 224.834 121.78 224.824 122.59C224.726 124.237 225.204 125.902 225.492 127.624C225.78 129.347 226.143 131.115 226.477 132.918C226.65 133.822 226.817 134.732 226.99 135.654L227.249 137.048C227.328 137.291 227.354 137.549 227.325 137.803C227.296 138.057 227.213 138.303 227.082 138.522C226.995 138.638 226.876 138.724 226.739 138.771C226.602 138.817 226.455 138.821 226.316 138.781C226.067 138.709 225.834 138.59 225.63 138.43L224.478 137.555C223.694 136.962 222.879 136.412 222.036 135.907C221.192 135.382 220.271 134.993 219.306 134.755C218.829 134.643 218.332 134.643 217.854 134.755C217.379 134.875 216.96 135.156 216.668 135.55C216.114 136.405 215.842 137.412 215.89 138.43C215.892 139.478 215.994 140.524 216.196 141.552C216.611 143.666 217.199 145.743 217.952 147.761C218.172 148.277 218.339 148.814 218.453 149.363C218.481 149.518 218.476 149.678 218.44 149.831C218.403 149.985 218.335 150.129 218.24 150.255C218.189 150.315 218.133 150.371 218.073 150.422C218.008 150.481 217.932 150.526 217.849 150.555C217.673 150.581 217.494 150.54 217.348 150.44C216.869 150.133 216.423 149.778 216.017 149.38L214.784 148.228C213.977 147.446 213.1 146.741 212.164 146.12C211.697 145.813 211.186 145.58 210.649 145.428C210.393 145.349 210.124 145.325 209.859 145.358C209.594 145.391 209.339 145.48 209.111 145.619C208.666 145.942 208.356 146.417 208.241 146.955C208.102 147.505 208.033 148.07 208.034 148.637C208.039 149.802 208.184 150.962 208.466 152.093C209.035 154.391 209.876 156.612 210.971 158.711C212.062 160.863 213.307 162.932 214.698 164.903C215.394 165.903 216.144 166.864 216.944 167.783C217.716 168.739 218.5 169.69 219.283 170.663V170.698L219.145 170.64L222.808 170.11C224.022 169.965 225.227 169.758 226.42 169.488C228.77 168.959 231.08 168.264 233.332 167.409C235.553 166.587 237.67 165.506 239.639 164.189C240.605 163.549 241.489 162.792 242.271 161.937C242.656 161.517 242.987 161.051 243.256 160.548C243.531 160.073 243.621 159.513 243.509 158.976C243.435 158.719 243.307 158.48 243.133 158.277C242.959 158.073 242.744 157.909 242.501 157.795C242.001 157.551 241.467 157.38 240.917 157.288C239.806 157.12 238.682 157.053 237.559 157.087H235.877C235.299 157.109 234.72 157.073 234.149 156.977C233.972 156.955 233.811 156.864 233.7 156.724C233.658 156.645 233.632 156.559 233.625 156.47C233.617 156.392 233.617 156.313 233.625 156.234C233.643 156.078 233.691 155.927 233.767 155.79C233.843 155.652 233.946 155.531 234.069 155.434C234.522 155.105 235.006 154.822 235.515 154.587C237.432 153.601 239.264 152.459 240.992 151.171C241.829 150.547 242.601 149.841 243.296 149.063C244.015 148.344 244.491 147.417 244.656 146.413C244.704 145.925 244.582 145.434 244.31 145.025C244.035 144.619 243.668 144.284 243.239 144.046C242.37 143.568 241.431 143.232 240.457 143.05C239.494 142.856 238.521 142.715 237.542 142.629L236.091 142.491C235.832 142.476 235.578 142.407 235.348 142.289C235.219 142.223 235.113 142.119 235.044 141.992C234.975 141.864 234.947 141.719 234.962 141.575C235.015 141.326 235.119 141.09 235.269 140.884C235.419 140.677 235.611 140.505 235.831 140.377L236.983 139.524L239.201 137.837L243.486 134.582C244.863 133.505 246.332 132.595 247.369 131.305C247.899 130.702 248.264 129.972 248.428 129.185C248.495 128.807 248.482 128.42 248.389 128.047C248.295 127.675 248.124 127.327 247.887 127.025C247.636 126.747 247.31 126.548 246.948 126.449C246.587 126.342 246.213 126.28 245.836 126.265C245.094 126.245 244.352 126.272 243.613 126.346C243.244 126.346 242.876 126.397 242.513 126.403C242.135 126.432 241.757 126.349 241.424 126.167C241.265 126.06 241.132 125.919 241.032 125.755C240.933 125.591 240.87 125.407 240.848 125.217C240.806 124.859 240.827 124.496 240.912 124.145C242.56 121.022 244.05 117.817 245.376 114.543C246.528 111.663 247.524 109.187 247.881 107.055C248.056 106.125 248.095 105.174 247.996 104.233C247.922 103.549 247.691 102.89 247.323 102.309C247.099 101.953 246.796 101.655 246.436 101.439C246.313 101.364 246.184 101.301 246.05 101.249C246.189 101.287 246.323 101.343 246.447 101.416C246.818 101.628 247.133 101.924 247.369 102.28C247.745 102.866 247.983 103.53 248.066 104.221C248.178 105.171 248.149 106.132 247.979 107.073C247.634 109.21 246.654 111.681 245.508 114.561C244.211 117.872 242.746 121.115 241.119 124.278C241.039 124.602 241.02 124.937 241.061 125.268C241.077 125.431 241.127 125.589 241.209 125.731C241.29 125.873 241.401 125.996 241.534 126.092C241.834 126.251 242.174 126.321 242.513 126.294C242.87 126.294 243.233 126.259 243.602 126.23C244.35 126.155 245.102 126.126 245.854 126.144C246.244 126.159 246.631 126.223 247.006 126.334C247.402 126.44 247.761 126.653 248.043 126.95C248.294 127.273 248.475 127.645 248.574 128.042C248.673 128.438 248.688 128.851 248.619 129.254C248.451 130.08 248.07 130.846 247.513 131.478C246.447 132.803 244.967 133.724 243.602 134.807L239.322 138.067L237.11 139.749L235.987 140.607C235.797 140.734 235.625 140.885 235.474 141.057C235.336 141.221 235.244 141.42 235.209 141.633C235.199 141.728 235.219 141.825 235.265 141.909C235.311 141.994 235.382 142.062 235.468 142.105C235.672 142.204 235.893 142.26 236.119 142.272L237.571 142.41C238.557 142.494 239.538 142.635 240.508 142.831C241.516 143.016 242.488 143.361 243.388 143.85C243.848 144.114 244.241 144.479 244.54 144.916C244.841 145.374 244.979 145.92 244.932 146.465C244.761 147.527 244.264 148.509 243.509 149.276C242.794 150.067 242.003 150.787 241.148 151.425C239.408 152.725 237.564 153.881 235.636 154.881C235.145 155.103 234.679 155.373 234.242 155.687C234.146 155.76 234.066 155.852 234.007 155.957C233.947 156.062 233.91 156.178 233.896 156.298C233.89 156.355 233.89 156.413 233.896 156.47C233.896 156.516 233.896 156.626 233.936 156.62C234.01 156.686 234.103 156.729 234.201 156.741C234.742 156.828 235.29 156.863 235.837 156.845H237.519C238.659 156.803 239.801 156.871 240.929 157.046C241.51 157.137 242.074 157.318 242.599 157.582C242.877 157.715 243.124 157.905 243.322 158.141C243.521 158.376 243.667 158.651 243.751 158.947C243.882 159.552 243.784 160.185 243.475 160.721C243.197 161.245 242.852 161.731 242.45 162.167C241.653 163.042 240.751 163.816 239.765 164.471C237.78 165.807 235.641 166.899 233.395 167.725C231.125 168.591 228.796 169.292 226.425 169.822C225.229 170.093 224.02 170.301 222.802 170.444L219.133 170.98H219.047L218.995 170.911H218.966L216.628 168.031C215.827 167.11 215.076 166.149 214.375 165.151C212.974 163.165 211.719 161.08 210.62 158.913C209.519 156.791 208.674 154.546 208.103 152.225C207.811 151.079 207.662 149.901 207.659 148.717C207.66 148.123 207.733 147.531 207.878 146.955C208.014 146.351 208.366 145.818 208.869 145.457C209.131 145.295 209.425 145.191 209.731 145.151C210.037 145.111 210.348 145.137 210.643 145.227C211.207 145.387 211.743 145.631 212.233 145.953C213.185 146.582 214.076 147.3 214.894 148.095L216.126 149.247C216.518 149.628 216.947 149.969 217.405 150.267C217.487 150.326 217.586 150.358 217.687 150.359C217.687 150.359 217.774 150.307 217.814 150.278L217.941 150.152C218.011 150.054 218.06 149.944 218.086 149.827C218.111 149.71 218.113 149.59 218.091 149.472C217.981 148.944 217.819 148.429 217.607 147.934C216.849 145.901 216.26 143.808 215.844 141.679C215.64 140.633 215.537 139.57 215.539 138.505C215.493 137.428 215.787 136.364 216.38 135.464C216.708 135.026 217.175 134.714 217.705 134.577C218.222 134.456 218.76 134.456 219.277 134.577C220.267 134.811 221.214 135.2 222.082 135.729C222.936 136.235 223.759 136.791 224.548 137.393L225.7 138.269C225.871 138.408 226.066 138.515 226.276 138.586C226.368 138.613 226.467 138.611 226.559 138.58C226.651 138.549 226.731 138.491 226.788 138.413C226.902 138.241 226.967 138.042 226.978 137.837C226.984 137.608 226.959 137.379 226.903 137.157C226.817 136.691 226.736 136.23 226.65 135.769C226.477 134.847 226.31 133.932 226.143 133.033C225.815 131.224 225.486 129.462 225.17 127.74C224.853 126.017 224.409 124.347 224.507 122.648C224.524 121.806 224.758 120.982 225.187 120.257C225.409 119.907 225.703 119.607 226.049 119.379C226.396 119.15 226.787 118.998 227.197 118.932C227.605 118.899 228.014 118.981 228.378 119.169C228.731 119.34 229.062 119.555 229.363 119.808C229.933 120.3 230.471 120.827 230.976 121.386C231.221 121.655 231.475 121.914 231.736 122.164C231.97 122.412 232.27 122.59 232.6 122.676C232.763 122.695 232.928 122.678 233.084 122.627C233.24 122.577 233.383 122.493 233.504 122.383C233.757 122.165 233.967 121.904 234.126 121.611C235.049 118.168 236.149 114.774 237.421 111.444C238.516 108.536 239.46 106.03 240.664 104.221C241.179 103.414 241.812 102.687 242.542 102.067C243.079 101.622 243.712 101.307 244.391 101.146C244.807 101.047 245.241 101.047 245.658 101.146C245.826 101.166 245.99 101.214 246.142 101.29Z" fill="#263238"/>
<path d="M243.118 109.123C243.108 109.189 243.088 109.253 243.06 109.313L242.864 109.855C242.674 110.344 242.409 111.041 242.075 111.923C241.372 113.737 240.376 116.335 239.143 119.532L229.576 144.668C225.855 154.46 222.445 163.371 219.922 169.776C218.667 172.979 217.618 175.565 216.904 177.35C216.547 178.226 216.265 178.911 216.063 179.395C215.965 179.62 215.896 179.793 215.838 179.931L215.752 180.104C215.762 180.04 215.782 179.978 215.81 179.919C215.856 179.781 215.925 179.603 216.005 179.378C216.195 178.883 216.46 178.191 216.795 177.304C217.497 175.49 218.494 172.898 219.726 169.701L229.294 144.576C233.015 134.755 236.419 125.879 238.947 119.474C240.203 116.271 241.251 113.679 241.966 111.9C242.323 111.024 242.605 110.333 242.807 109.849C242.905 109.63 242.974 109.452 243.031 109.319L243.118 109.123Z" fill="#263238"/>
<path d="M243.429 129.024C242.974 129.35 242.492 129.637 241.989 129.882L238.464 131.841C237.081 132.607 235.826 133.292 234.898 133.759C234.411 134.035 233.895 134.259 233.36 134.427C233.819 134.107 234.3 133.82 234.8 133.569L238.314 131.581C239.696 130.815 240.958 130.147 241.891 129.692C242.381 129.421 242.896 129.197 243.429 129.024Z" fill="#263238"/>
<path d="M232.893 134.058C232.819 134.093 231.448 131.478 229.835 128.218C228.222 124.957 226.955 122.285 227.041 122.244C227.128 122.204 228.487 124.825 230.106 128.085C231.724 131.345 232.968 134.018 232.893 134.058Z" fill="#263238"/>
<path d="M227.859 149.397C227.399 149.057 226.975 148.671 226.592 148.245C225.843 147.496 224.864 146.431 223.799 145.198C222.733 143.965 221.869 142.802 221.258 141.938C220.899 141.492 220.589 141.009 220.331 140.498C220.727 140.909 221.092 141.348 221.425 141.811C222.082 142.641 222.986 143.775 224.029 145.002C225.072 146.229 226.039 147.306 226.742 148.095C227.147 148.501 227.52 148.936 227.859 149.397Z" fill="#263238"/>
<path d="M238.395 146.92C237.903 147.117 237.394 147.267 236.874 147.37C235.929 147.606 234.616 147.911 233.164 148.234C231.713 148.556 230.388 148.81 229.432 149.017C228.919 149.146 228.394 149.225 227.865 149.253C228.357 149.058 228.866 148.91 229.386 148.81C230.331 148.573 231.644 148.234 233.101 147.94C234.558 147.646 235.872 147.364 236.828 147.162C237.341 147.034 237.866 146.953 238.395 146.92Z" fill="#263238"/>
<path d="M235.67 161.032C235.031 161.254 234.376 161.429 233.712 161.557C232.491 161.839 230.832 162.213 228.942 162.605C227.053 162.996 225.377 163.342 224.15 163.573C223.493 163.729 222.825 163.835 222.151 163.889C222.79 163.666 223.445 163.491 224.11 163.365C225.325 163.083 226.99 162.708 228.879 162.317C230.768 161.925 232.439 161.58 233.666 161.349C234.325 161.192 234.995 161.086 235.67 161.032Z" fill="#263238"/>
<path d="M222.451 163.728C222.291 163.617 222.145 163.485 222.019 163.336C221.754 163.071 221.385 162.68 220.93 162.184C220.026 161.194 218.811 159.794 217.532 158.198C216.253 156.603 215.153 155.105 214.387 154.005C214.001 153.458 213.702 153.009 213.5 152.692C213.38 152.536 213.283 152.363 213.212 152.179C213.356 152.311 213.484 152.46 213.592 152.623L214.56 153.884C215.366 154.95 216.489 156.419 217.768 158.008C219.047 159.598 220.228 161.021 221.092 162.04C221.581 162.572 222.035 163.136 222.451 163.728Z" fill="#263238"/>
<path d="M216.691 202.314C206.692 194.25 205.24 180.467 206.496 168.25C206.709 166.211 206.628 164.039 207.723 162.311C208.817 160.583 211.179 159.517 212.947 160.502C214.416 161.32 214.952 163.135 215.7 164.65C216.702 166.675 218.256 168.376 220.182 169.557C221.437 170.323 223.021 170.847 224.352 170.225C226.184 169.373 226.558 166.954 226.685 164.92L227.393 153.55C227.52 151.511 227.658 149.437 228.424 147.554C229.19 145.67 230.728 143.971 232.681 143.556C234.633 143.142 236.966 144.432 237.237 146.436C237.256 147.283 237.217 148.13 237.122 148.971C237.122 149.818 237.45 150.78 238.233 151.068C239.017 151.356 239.881 150.843 240.537 150.29C242.778 148.383 244.379 145.837 245.894 143.297C247.409 140.757 248.878 138.154 250.94 136.045C253.002 133.937 255.75 132.342 258.676 132.376C261.602 132.411 264.574 134.421 265.115 137.33C265.657 140.239 263.785 143.044 261.803 145.238C258.862 148.501 255.462 151.32 251.712 153.608C250.98 153.938 250.374 154.495 249.984 155.197C249.448 156.522 250.64 157.957 251.948 158.498C253.428 159.103 255.087 159.074 256.66 159.356C258.232 159.638 259.903 160.468 260.398 162.006C261.089 164.143 259.2 166.199 257.391 167.512C253.786 170.132 249.76 172.116 245.485 173.376C243.947 173.82 242.34 174.188 241.062 175.156C239.783 176.124 238.93 177.903 239.564 179.384C240.198 180.864 242.035 181.457 243.596 181.273C245.157 181.089 246.643 180.334 248.175 179.873C251.055 179.009 254.638 179.453 256.239 181.987C257.305 183.658 257.259 185.875 256.533 187.747C255.723 189.565 254.558 191.202 253.106 192.563C248.313 197.579 242.274 201.233 235.607 203.149C228.971 204.952 222.935 205.148 216.645 202.349" fill="#00ADB5"/>
<g opacity="0.1">
<path d="M216.691 202.314C206.692 194.25 205.24 180.467 206.496 168.25C206.709 166.211 206.628 164.039 207.723 162.311C208.817 160.583 211.179 159.517 212.947 160.502C214.416 161.32 214.952 163.135 215.7 164.65C216.702 166.675 218.256 168.376 220.182 169.557C221.437 170.323 223.021 170.847 224.352 170.225C226.184 169.373 226.558 166.954 226.685 164.92L227.393 153.55C227.52 151.511 227.658 149.437 228.424 147.554C229.19 145.67 230.728 143.971 232.681 143.556C234.633 143.142 236.966 144.432 237.237 146.436C237.256 147.283 237.217 148.13 237.122 148.971C237.122 149.818 237.45 150.78 238.233 151.068C239.017 151.356 239.881 150.843 240.537 150.29C242.778 148.383 244.379 145.837 245.894 143.297C247.409 140.757 248.878 138.154 250.94 136.045C253.002 133.937 255.75 132.342 258.676 132.376C261.602 132.411 264.574 134.421 265.115 137.33C265.657 140.239 263.785 143.044 261.803 145.238C258.862 148.501 255.462 151.32 251.712 153.608C250.98 153.938 250.374 154.495 249.984 155.197C249.448 156.522 250.64 157.957 251.948 158.498C253.428 159.103 255.087 159.074 256.66 159.356C258.232 159.638 259.903 160.468 260.398 162.006C261.089 164.143 259.2 166.199 257.391 167.512C253.786 170.132 249.76 172.116 245.485 173.376C243.947 173.82 242.34 174.188 241.062 175.156C239.783 176.124 238.93 177.903 239.564 179.384C240.198 180.864 242.035 181.457 243.596 181.273C245.157 181.089 246.643 180.334 248.175 179.873C251.055 179.009 254.638 179.453 256.239 181.987C257.305 183.658 257.259 185.875 256.533 187.747C255.723 189.565 254.558 191.202 253.106 192.563C248.313 197.579 242.274 201.233 235.607 203.149C228.971 204.952 222.935 205.148 216.645 202.349" fill="black"/>
</g>
<path d="M215.907 211.392C216.867 205.754 218.364 200.22 220.377 194.867C222.869 188.336 225.732 181.953 228.954 175.749L231.459 170.853C232.289 169.246 233.107 167.656 234.005 166.147C235.735 163.259 237.621 160.466 239.656 157.784C241.585 155.209 243.503 152.836 245.318 150.63C247.132 148.424 248.872 146.408 250.531 144.634C253.136 141.821 255.959 139.219 258.975 136.852C260.04 136.017 260.887 135.395 261.469 134.98L262.131 134.513C262.204 134.458 262.281 134.408 262.362 134.364C262.301 134.432 262.231 134.493 262.154 134.542L261.515 135.043C260.939 135.475 260.115 136.115 259.067 136.973C256.094 139.375 253.306 141.998 250.726 144.818C249.085 146.598 247.363 148.625 245.542 150.831C243.722 153.037 241.827 155.439 239.915 157.997C237.891 160.671 236.018 163.455 234.305 166.337C233.412 167.841 232.577 169.419 231.776 171.026L229.27 175.922C226.057 182.113 223.19 188.478 220.682 194.988C218.663 200.318 217.145 205.825 216.149 211.438" fill="#263238"/>
<path d="M234.115 166.13C234.033 165.843 233.985 165.547 233.971 165.249C233.907 164.673 233.832 163.855 233.757 162.829C233.613 160.79 233.504 157.956 233.395 154.84C233.285 151.724 233.135 148.896 232.957 146.857C232.87 145.843 232.796 145.02 232.732 144.449C232.68 144.155 232.663 143.855 232.68 143.556C232.774 143.839 232.84 144.131 232.876 144.426C232.98 145.002 233.101 145.814 233.222 146.834C233.469 148.867 233.66 151.695 233.798 154.823C233.936 157.951 233.988 160.687 234.051 162.818C234.092 163.78 234.12 164.586 234.149 165.237C234.166 165.535 234.155 165.834 234.115 166.13Z" fill="#263238"/>
<path d="M260.588 163.037C260.239 163.091 259.886 163.111 259.534 163.094C258.86 163.094 257.886 163.094 256.654 163.175C254.246 163.273 250.894 163.515 247.259 163.953C243.625 164.39 240.307 164.926 237.934 165.387C236.747 165.606 235.791 165.813 235.129 165.963C234.789 166.053 234.442 166.112 234.092 166.141C234.416 166.005 234.751 165.897 235.094 165.819C235.745 165.635 236.695 165.393 237.882 165.133C240.243 164.609 243.544 164.028 247.213 163.584C250.345 163.202 253.494 162.981 256.648 162.922C257.858 162.922 258.837 162.922 259.528 162.956C259.883 162.952 260.238 162.979 260.588 163.037Z" fill="#263238"/>
<path d="M220.734 194.394C220.666 194.293 220.614 194.183 220.579 194.066L220.193 193.087C219.865 192.24 219.421 190.996 218.897 189.458C217.843 186.376 216.518 182.074 215.118 177.31C213.719 172.547 212.44 168.232 211.449 165.133C210.965 163.624 210.562 162.386 210.268 161.464L209.952 160.468C209.907 160.353 209.878 160.233 209.865 160.111C209.931 160.213 209.983 160.323 210.021 160.439C210.124 160.704 210.251 161.015 210.401 161.418C210.729 162.265 211.173 163.509 211.703 165.047C212.757 168.129 214.082 172.431 215.475 177.201C216.869 181.97 218.16 186.273 219.15 189.372C219.634 190.881 220.032 192.119 220.302 193.041L220.619 194.037C220.674 194.15 220.713 194.27 220.734 194.394Z" fill="#263238"/>
<path d="M256.239 185.581C256.127 185.641 256.007 185.682 255.882 185.702L254.851 185.973L251.049 186.924C247.835 187.724 243.417 188.882 238.533 190.172C233.648 191.462 229.213 192.58 225.982 193.317C224.369 193.686 223.061 193.974 222.151 194.152L221.103 194.354C220.983 194.384 220.859 194.398 220.734 194.394C220.846 194.341 220.964 194.302 221.086 194.279L222.123 194.008L225.924 193.058C229.132 192.257 233.556 191.094 238.441 189.804C243.325 188.513 247.76 187.396 250.986 186.659C252.599 186.29 253.912 186.008 254.816 185.829L255.865 185.628C255.987 185.598 256.113 185.582 256.239 185.581Z" fill="#263238"/>
<path d="M219.018 43.3094H79.332V234.714H219.018V43.3094Z" fill="#455A64"/>
<path d="M213.494 223.332H187.625H90.9668V51.0451H213.494V201.899V223.332Z" fill="#E0E0E0"/>
<path d="M211.558 220.136H185.921H90.1318V48.7699H211.558V198.818V220.136Z" fill="#EBEBEB"/>
<path d="M198.512 206.801L184.527 218.189H87.8682V49.2019H210.395V197.165L198.512 206.801Z" fill="#FAFAFA"/>
<path d="M198.512 206.784C198.512 206.784 198.76 206.571 199.261 206.162L201.502 204.33L210.366 197.113V197.147C210.366 172.84 210.32 118.812 210.28 49.1846L210.413 49.3229H88.9514H87.8858L88.0356 49.1731C88.0356 112.706 88.0356 171.314 88.001 218.16L87.8858 218.039L184.544 218.108H184.51L195.016 209.589L197.648 207.464C198.224 206.991 198.53 206.761 198.53 206.761L197.666 207.481L195.033 209.664L184.562 218.223L87.8685 218.304H87.7476V218.183C87.7476 171.337 87.7476 112.729 87.7188 49.1961V49.0464H88.9341H210.395H210.533V49.1789C210.493 118.829 210.459 172.835 210.447 197.142L201.548 204.324L199.296 206.208L198.512 206.784Z" fill="#263238"/>
<path d="M132.6 37.3939H166.095C168.256 37.3939 170.33 38.2526 171.858 39.7811C173.386 41.3096 174.245 43.3827 174.245 45.5443V54.5818H124.099V45.8899C124.1 43.6361 124.997 41.4751 126.591 39.882C128.185 38.2889 130.347 37.3939 132.6 37.3939Z" fill="#00ADB5"/>
<path d="M136.384 37.3939L134.553 28.1203H163.428L161.821 37.3939H136.384Z" fill="#00ADB5"/>
<path d="M121.323 96.768H100.685V76.1241H121.323V96.768ZM101.261 96.192H120.747V76.7001H101.261V96.192Z" fill="#00ADB5"/>
<path d="M194.273 81.1123C194.273 81.1929 179.901 81.262 162.184 81.262C144.466 81.262 130.089 81.1929 130.089 81.1123C130.089 81.0317 144.454 80.9625 162.184 80.9625C179.913 80.9625 194.273 81.0259 194.273 81.1123Z" fill="#263238"/>
<path d="M194.273 85.3977C194.273 85.4841 179.901 85.5475 162.184 85.5475C144.466 85.5475 130.089 85.4841 130.089 85.3977C130.089 85.3113 144.454 85.248 162.184 85.248C179.913 85.248 194.273 85.3171 194.273 85.3977Z" fill="#263238"/>
<path d="M194.273 89.689C194.273 89.7696 179.901 89.8387 162.184 89.8387C144.466 89.8387 130.089 89.7696 130.089 89.689C130.089 89.6083 144.454 89.5392 162.184 89.5392C179.913 89.5392 194.273 89.6083 194.273 89.689Z" fill="#263238"/>
<path d="M194.273 93.9801C194.273 94.0608 179.901 94.1299 162.184 94.1299C144.466 94.1299 130.089 94.0608 130.089 93.9801C130.089 93.8995 144.454 93.8304 162.184 93.8304C179.913 93.8304 194.273 93.888 194.273 93.9801Z" fill="#263238"/>
<path d="M121.323 128.58H100.685V107.937H121.323V128.58ZM101.261 128.004H120.747V108.513H101.261V128.004Z" fill="#00ADB5"/>
<path d="M104.785 118.685L107.527 115.741L112.095 119.393L122.549 109.244L125.055 112.199L111.893 125.182L104.785 118.685Z" fill="#00ADB5"/>
<path d="M194.273 112.925C194.273 113.005 179.901 113.075 162.184 113.075C144.466 113.075 130.089 113.005 130.089 112.925C130.089 112.844 144.454 112.775 162.184 112.775C179.913 112.775 194.273 112.844 194.273 112.925Z" fill="#263238"/>
<path d="M194.273 117.216C194.273 117.297 179.901 117.366 162.184 117.366C144.466 117.366 130.089 117.297 130.089 117.216C130.089 117.135 144.454 117.066 162.184 117.066C179.913 117.066 194.273 117.13 194.273 117.216Z" fill="#263238"/>
<path d="M194.273 121.501C194.273 121.588 179.901 121.651 162.184 121.651C144.466 121.651 130.089 121.588 130.089 121.501C130.089 121.415 144.454 121.352 162.184 121.352C179.913 121.352 194.273 121.421 194.273 121.501Z" fill="#263238"/>
<path d="M194.273 125.793C194.273 125.873 179.901 125.942 162.184 125.942C144.466 125.942 130.089 125.873 130.089 125.793C130.089 125.712 144.454 125.643 162.184 125.643C179.913 125.643 194.273 125.712 194.273 125.793Z" fill="#263238"/>
<path d="M121.323 159.368H100.685V138.724H121.323V159.368ZM101.261 158.792H120.747V139.3H101.261V158.792Z" fill="#00ADB5"/>
<path d="M104.785 149.472L107.527 146.529L112.095 150.18L122.549 140.031L125.055 142.986L111.893 155.969L104.785 149.472Z" fill="#00ADB5"/>
<path d="M194.273 143.712C194.273 143.793 179.901 143.862 162.184 143.862C144.466 143.862 130.089 143.793 130.089 143.712C130.089 143.631 144.454 143.562 162.184 143.562C179.913 143.562 194.273 143.626 194.273 143.712Z" fill="#263238"/>
<path d="M194.273 147.997C194.273 148.084 179.901 148.147 162.184 148.147C144.466 148.147 130.089 148.084 130.089 147.997C130.089 147.911 144.454 147.848 162.184 147.848C179.913 147.848 194.273 147.917 194.273 147.997Z" fill="#263238"/>
<path d="M194.273 152.289C194.273 152.375 179.901 152.438 162.184 152.438C144.466 152.438 130.089 152.375 130.089 152.289C130.089 152.202 144.454 152.139 162.184 152.139C179.913 152.139 194.273 152.208 194.273 152.289Z" fill="#263238"/>
<path d="M194.273 156.58C194.273 156.66 179.901 156.73 162.184 156.73C144.466 156.73 130.089 156.66 130.089 156.58C130.089 156.499 144.454 156.43 162.184 156.43C179.913 156.43 194.273 156.499 194.273 156.58Z" fill="#263238"/>
<path d="M121.323 189.095H100.685V168.451H121.323V189.095ZM101.261 188.519H120.747V169.027H101.261V188.519Z" fill="#00ADB5"/>
<path d="M104.785 179.199L107.527 176.256L112.095 179.908L122.549 169.759L125.055 172.708L111.893 185.691L104.785 179.199Z" fill="#00ADB5"/>
<path d="M194.273 173.434C194.273 173.52 179.901 173.583 162.184 173.583C144.466 173.583 130.089 173.52 130.089 173.434C130.089 173.347 144.454 173.284 162.184 173.284C179.913 173.284 194.273 173.376 194.273 173.434Z" fill="#263238"/>
<path d="M194.273 177.725C194.273 177.805 179.901 177.875 162.184 177.875C144.466 177.875 130.089 177.805 130.089 177.725C130.089 177.644 144.454 177.575 162.184 177.575C179.913 177.575 194.273 177.644 194.273 177.725Z" fill="#263238"/>
<path d="M194.273 182.016C194.273 182.097 179.901 182.166 162.184 182.166C144.466 182.166 130.089 182.097 130.089 182.016C130.089 181.935 144.454 181.866 162.184 181.866C179.913 181.866 194.273 181.93 194.273 182.016Z" fill="#263238"/>
<path d="M194.273 186.301C194.273 186.388 179.901 186.451 162.184 186.451C144.466 186.451 130.089 186.388 130.089 186.301C130.089 186.215 144.454 186.152 162.184 186.152C179.913 186.152 194.273 186.221 194.273 186.301Z" fill="#263238"/>
<path d="M188.369 190.212L174.937 218.033H184.527L188.369 190.212Z" fill="#E0E0E0"/>
<path d="M184.527 218.189L188.369 190.368L210.396 197.165L184.527 218.189Z" fill="#FAFAFA"/>
<path d="M184.527 218.189L191.935 212.089L210.303 197.05L210.355 197.303L201.848 194.688L188.352 190.5L188.531 190.385C187.379 198.449 186.394 205.39 185.697 210.309C185 215.096 184.643 217.567 184.545 218.189C184.542 218.147 184.542 218.104 184.545 218.062L184.596 217.682C184.643 217.319 184.706 216.812 184.792 216.167C184.971 214.813 185.224 212.872 185.547 210.407C186.215 205.448 187.148 198.472 188.237 190.322V190.161L188.392 190.207L201.923 194.377L210.424 197.004L210.689 197.084L210.476 197.257C203.04 203.253 196.537 208.495 191.883 212.233L186.451 216.593L185 217.745L184.631 218.039L184.527 218.189Z" fill="#263238"/>
<g opacity="0.3">
<path d="M161.43 28.1203L159.84 37.3939H161.821L163.428 28.1203H160.9" fill="black"/>
</g>
<path d="M76.8557 125.925C77.5502 125.978 78.2481 125.889 78.9078 125.666C79.5674 125.443 80.1753 125.089 80.6952 124.626C81.2151 124.162 81.6362 123.599 81.9335 122.969C82.2309 122.339 82.3982 121.656 82.4257 120.96C82.5351 118.138 82.633 115.286 82.633 115.286C82.633 115.286 86.9069 114.889 87.241 110.678C87.5751 106.468 87.4081 96.6874 87.4081 96.6874C85.0652 95.5053 82.4491 94.9707 79.8303 95.1388C77.2115 95.3069 74.6852 96.1716 72.5127 97.6435L72.7719 112.527V120.54C72.7777 123.201 74.1773 125.724 76.8557 125.925Z" fill="#FFBE9D"/>
<path d="M83.0012 105.494C82.689 105.046 82.2191 104.731 81.6852 104.614C81.1514 104.496 80.5928 104.585 80.1212 104.861C79.6424 105.193 79.2974 105.685 79.1476 106.249C78.9978 106.812 79.053 107.41 79.3032 107.937C79.5213 108.327 79.8183 108.668 80.1753 108.938C80.5323 109.208 80.9415 109.4 81.3768 109.503C81.7629 109.587 82.1051 109.809 82.3394 110.127C82.5737 110.445 82.6841 110.838 82.6498 111.231C82.4725 112.343 81.953 113.372 81.1637 114.175C79.859 115.502 78.1224 116.32 76.2677 116.479C74.4648 116.692 72.4028 116.317 71.3544 114.837C70.5884 113.76 70.5365 112.349 70.5077 111.03C70.4424 107.912 70.3772 104.794 70.3119 101.676C70.2441 100.552 70.3156 99.4237 70.525 98.3174C70.7456 97.2016 71.3792 96.2101 72.2991 95.5411C73.3301 94.8614 74.6319 94.8038 75.8012 94.4294C77.27 93.9513 78.5141 92.9837 79.885 92.2809C81.2559 91.5782 82.932 91.1577 84.3087 91.8489C85.2994 92.3443 85.9618 93.3293 86.918 93.8765C88.2888 94.6541 90.1493 94.4525 90.8117 96.4915C91.0449 97.1887 91.0449 97.9428 90.8117 98.64C89.8844 101.376 86.4975 102.482 84.0552 101.301C84.0092 101.762 84.4642 102.793 83.9746 104.256C83.8191 104.728 83.7672 105.437 83.0357 105.454" fill="#263238"/>
<path d="M71.3265 96.768C71.9978 95.4303 72.4564 93.9961 72.6859 92.5171C72.7945 91.7763 72.731 91.0205 72.5002 90.3083C72.2695 89.596 71.8777 88.9466 71.3553 88.4102C70.5843 87.7407 69.588 87.3887 68.5675 87.4253C67.5981 87.4805 66.6694 87.8338 65.9085 88.437C65.1476 89.0401 64.5916 89.8636 64.3166 90.7949C64.0793 91.7337 64.116 92.7209 64.4222 93.6396C64.7285 94.5584 65.2915 95.3701 66.0446 95.9789C66.8147 96.5703 67.7274 96.9479 68.6903 97.0733C69.6532 97.1987 70.6322 97.0676 71.5281 96.6931" fill="#263238"/>
<path d="M72.1558 95.2416C72.1247 95.7587 71.9022 96.2457 71.5317 96.6077C71.1611 96.9698 70.6691 97.1809 70.1514 97.2C70.1514 97.1136 70.7734 96.9465 71.3034 96.3936C71.8333 95.8406 72.0752 95.2185 72.1558 95.2416Z" fill="#00ADB5"/>
<path d="M70.7675 96.2784C70.4373 96.6244 70.047 96.9074 69.6155 97.1136C69.1543 97.3765 68.6367 97.5246 68.1064 97.5456C67.7696 97.5638 67.4333 97.5011 67.1257 97.3628C66.8181 97.2246 66.548 97.0147 66.338 96.7507C66.1522 96.4729 66.0283 96.1583 65.9746 95.8284C65.9209 95.4984 65.9388 95.1608 66.027 94.8384C66.1607 94.3267 66.4022 93.8494 66.7355 93.4387C67.0113 93.0494 67.35 92.7088 67.7377 92.4307C67.4814 92.8288 67.2045 93.2134 66.9083 93.5827C66.6192 93.9839 66.4117 94.4379 66.2977 94.919C66.2258 95.2027 66.2138 95.4983 66.2624 95.7868C66.311 96.0754 66.4191 96.3507 66.5799 96.5952C66.7641 96.8201 66.9976 96.9994 67.2623 97.1193C67.5271 97.2392 67.8159 97.2963 68.1064 97.2864C68.5986 97.2785 69.0827 97.1604 69.5233 96.9408C70.2721 96.5549 70.7387 96.2323 70.7675 96.2784Z" fill="#263238"/>
<path d="M63.5789 101.053C63.6657 101.2 63.7335 101.357 63.7805 101.52C63.9298 101.952 64.1413 102.359 64.4083 102.73C64.5859 102.998 64.8347 103.211 65.1267 103.345C65.4187 103.479 65.7425 103.529 66.0615 103.49C66.4433 103.382 66.7908 103.177 67.0703 102.896C67.3498 102.614 67.5519 102.265 67.657 101.883C67.8639 101.077 68.0083 100.257 68.089 99.4291C68.1703 98.7192 68.4498 98.0465 68.8954 97.488C69.2145 97.1206 69.6493 96.8727 70.128 96.7853C70.3012 96.7429 70.4835 96.7591 70.6464 96.8314C70.6464 96.8314 70.4563 96.8314 70.1511 96.9005C69.7185 97.0201 69.3352 97.2743 69.0567 97.6262C68.6642 98.1675 68.4235 98.8039 68.3597 99.4694C68.2932 100.317 68.1525 101.158 67.9392 101.981C67.8204 102.413 67.5886 102.806 67.2677 103.118C66.9467 103.431 66.5483 103.653 66.1133 103.761C65.7155 103.824 65.308 103.747 64.9613 103.542C64.6736 103.367 64.4263 103.134 64.2355 102.856C63.9714 102.46 63.7767 102.022 63.6595 101.56C63.6004 101.398 63.5731 101.226 63.5789 101.053Z" fill="#263238"/>
<path d="M61.4991 136.587C61.4991 136.587 59.3391 152.381 61.4991 154.385C63.6591 156.39 65.7269 155.722 65.7269 155.722L69.8338 152.266L70.6402 136.564L61.4991 136.587Z" fill="#FFBE9D"/>
<path d="M106.11 92.2522L108.852 89.3088L113.42 92.9606L123.874 82.8115L126.38 85.7664L113.218 98.7494L106.11 92.2522Z" fill="#00ADB5"/>
<path d="M118.99 93.0528L115.016 95.6045C114.837 94.032 113.639 92.4768 113.697 93.2659C113.754 94.055 113.697 98.1504 113.697 98.1504L106.618 113.063C105.656 115.425 103.703 116.911 102.246 117.262L95.6162 119.232L98.2025 127.981L107.418 124.929C108.595 124.539 109.663 123.879 110.539 123.002C111.414 122.124 112.071 121.054 112.458 119.877L118.794 100.57C119.215 99.3259 119.554 98.056 119.808 96.768C120.085 95.1494 118.99 93.0528 118.99 93.0528Z" fill="#FFBE9D"/>
<path d="M86.4286 256.159L86.3249 251.741L78.042 251.873L78.1169 258.342L78.6353 258.371C80.9393 258.457 90.2762 258.664 91.7969 258.18C93.4903 257.633 86.4286 256.159 86.4286 256.159Z" fill="#00ADB5"/>
<g opacity="0.5">
<path d="M81.1234 258.232C80.9838 257.543 80.5966 256.928 80.0348 256.504C79.4815 256.074 78.7862 255.868 78.0879 255.928L78.1224 258.232H81.1234Z" fill="white"/>
</g>
<g opacity="0.4">
<path d="M89.8557 257.005C89.8557 257.005 92.3325 257.674 92.0329 258.088C91.7334 258.503 82.2755 258.664 78.0938 258.342V258.157L89.1299 258.083C89.1299 258.083 89.4006 257.034 89.8557 257.005Z" fill="white"/>
</g>
<path d="M77.9958 258.152H78.1398H78.5488L80.0579 258.192C81.3308 258.221 83.0876 258.232 85.0288 258.192C86.9699 258.152 88.7324 258.1 89.9996 258.037L91.5088 257.95L91.9177 257.921H92.056H91.912H91.503L89.9996 257.979C88.7267 258.019 86.9699 258.077 85.0288 258.106C83.0876 258.134 81.3308 258.106 80.0579 258.106H78.5545H77.9785L77.9958 258.152Z" fill="#263238"/>
<path d="M89.165 258.209C89.2249 257.959 89.3158 257.717 89.4357 257.489C89.5807 257.279 89.7488 257.086 89.9368 256.913C89.6917 257.028 89.4869 257.215 89.3492 257.448C89.2116 257.681 89.1474 257.951 89.165 258.221V258.209Z" fill="#263238"/>
<path d="M86.6993 257.005C86.6993 257.005 86.8375 256.879 86.9585 256.689C87.0794 256.499 87.1485 256.326 87.1255 256.314C87.1024 256.303 86.9873 256.441 86.8721 256.631C86.7569 256.821 86.6762 256.994 86.6993 257.005Z" fill="#263238"/>
<path d="M86.0257 256.666C86.0257 256.666 86.1697 256.596 86.3137 256.464C86.4577 256.332 86.5498 256.211 86.5325 256.193C86.5153 256.176 86.3828 256.262 86.2445 256.389C86.1063 256.516 86.0026 256.643 86.0257 256.666Z" fill="#263238"/>
<path d="M85.5879 255.888C85.726 255.938 85.8743 255.954 86.0199 255.934C86.166 255.951 86.314 255.933 86.4519 255.882C86.3124 255.838 86.1655 255.822 86.0199 255.836C85.8738 255.82 85.7259 255.838 85.5879 255.888Z" fill="#263238"/>
<path d="M85.4326 255.341C85.578 255.43 85.7459 255.476 85.9165 255.473C86.0872 255.498 86.2615 255.472 86.4176 255.398C86.2528 255.382 86.0869 255.382 85.9222 255.398C85.7611 255.364 85.5972 255.345 85.4326 255.341Z" fill="#263238"/>
<path d="M86.9756 256.28C87.1508 256.312 87.3303 256.312 87.5055 256.28C87.7012 256.254 87.8941 256.209 88.0815 256.147C88.1934 256.112 88.3015 256.066 88.4041 256.009C88.4365 255.992 88.465 255.968 88.4878 255.939C88.5107 255.911 88.5272 255.877 88.5365 255.842C88.5433 255.802 88.5388 255.761 88.5236 255.723C88.5083 255.685 88.4829 255.653 88.4501 255.629C88.2449 255.534 88.0133 255.512 87.794 255.568C87.5748 255.623 87.3814 255.753 87.2463 255.934C87.1688 256.042 87.1121 256.163 87.0793 256.291C87.0692 256.339 87.0692 256.388 87.0793 256.435C87.1343 256.272 87.214 256.119 87.3154 255.98C87.4342 255.839 87.5897 255.733 87.7647 255.675C87.9741 255.602 88.2037 255.615 88.4041 255.709C88.4847 255.773 88.4559 255.871 88.3637 255.928C88.2683 255.982 88.168 256.026 88.0642 256.061C87.8764 256.126 87.6839 256.176 87.4882 256.211C87.1714 256.262 86.9756 256.262 86.9756 256.28Z" fill="#263238"/>
<path d="M87.1089 256.32C87.1737 256.209 87.1943 256.077 87.1665 255.951C87.1448 255.813 87.0916 255.681 87.011 255.565C86.9654 255.487 86.9008 255.422 86.8233 255.376C86.7457 255.33 86.6577 255.304 86.5675 255.3C86.5405 255.306 86.5149 255.317 86.4922 255.332C86.4694 255.348 86.45 255.367 86.435 255.391C86.42 255.414 86.4097 255.439 86.4047 255.466C86.3998 255.494 86.4003 255.521 86.4062 255.548C86.419 255.633 86.4505 255.713 86.4984 255.784C86.5683 255.902 86.6557 256.009 86.7575 256.101C86.8397 256.197 86.9447 256.27 87.0628 256.314C87.0628 256.314 86.9592 256.222 86.8094 256.055C86.7231 255.957 86.646 255.851 86.579 255.738C86.5041 255.629 86.4523 255.427 86.579 255.398C86.7057 255.37 86.8497 255.514 86.9304 255.617C87.0075 255.72 87.0624 255.838 87.0916 255.963C87.1075 256.081 87.1133 256.201 87.1089 256.32Z" fill="#263238"/>
<path d="M78.1348 255.882C78.1348 255.882 78.3709 255.882 78.7453 255.882C79.2337 255.928 79.699 256.112 80.0874 256.412C80.4757 256.711 80.7713 257.115 80.9399 257.576C81.0724 257.927 81.0896 258.152 81.1069 258.152C81.1183 258.097 81.1183 258.04 81.1069 257.985C81.0881 257.834 81.0554 257.686 81.009 257.541C80.8493 257.06 80.5486 256.638 80.1459 256.33C79.7433 256.022 79.2573 255.842 78.7511 255.813C78.5999 255.796 78.4473 255.796 78.296 255.813C78.2382 255.825 78.1834 255.849 78.1348 255.882Z" fill="#263238"/>
<path d="M78.9408 252.426C78.8893 252.991 78.8739 253.559 78.8947 254.125C78.8763 254.702 78.8937 255.279 78.9466 255.853C78.999 255.279 79.0144 254.702 78.9926 254.125C79.0065 253.558 78.9892 252.991 78.9408 252.426Z" fill="#263238"/>
<path d="M82.1494 257.409C82.549 257.491 82.9572 257.524 83.3648 257.507C83.7714 257.524 84.1784 257.485 84.5744 257.391C84.5744 257.363 83.9984 257.391 83.3648 257.391C82.7312 257.391 82.1552 257.38 82.1494 257.409Z" fill="#263238"/>
<path d="M80.5303 257.426C80.5303 257.426 80.5764 257.541 80.6282 257.668C80.68 257.795 80.7204 257.898 80.7492 257.898C80.778 257.898 80.7895 257.766 80.7204 257.622C80.6512 257.478 80.5476 257.409 80.5303 257.426Z" fill="#263238"/>
<path d="M79.9023 256.677C79.9023 256.677 79.9369 256.781 80.0291 256.867C80.1212 256.954 80.2019 257.005 80.2191 256.988C80.2364 256.971 80.1846 256.879 80.0982 256.798C80.0118 256.717 79.9254 256.654 79.9023 256.677Z" fill="#263238"/>
<path d="M79.0217 256.32C79.0217 256.32 79.1426 256.32 79.2636 256.383C79.3846 256.447 79.471 256.487 79.494 256.47C79.517 256.453 79.4479 256.337 79.2924 256.291C79.1369 256.245 79.0159 256.32 79.0217 256.32Z" fill="#263238"/>
<path d="M78.3994 256.187C78.3994 256.187 78.4338 256.256 78.5027 256.279C78.5716 256.302 78.6347 256.308 78.6462 256.279C78.6577 256.251 78.6061 256.21 78.5372 256.187C78.4683 256.165 78.4052 256.159 78.3994 256.187Z" fill="#263238"/>
<path d="M57.1911 254.747L60.0019 251.332L53.6314 246.027L49.4727 250.98L49.8413 251.338C51.5175 252.899 58.4813 259.154 59.9443 259.776C61.5859 260.473 57.1911 254.747 57.1911 254.747Z" fill="#00ADB5"/>
<g opacity="0.5">
<path d="M51.8401 252.864C52.1925 252.248 52.3053 251.524 52.1569 250.831C52.0157 250.145 51.6207 249.538 51.051 249.132L49.5361 250.9L51.8401 252.864Z" fill="white"/>
</g>
<g opacity="0.4">
<path d="M59.2589 257.639C59.2589 257.639 60.6989 259.764 60.2035 259.88C59.7082 259.995 52.416 253.935 49.4727 250.98L49.5994 250.848L58.0147 257.99C58.0147 257.99 58.873 257.345 59.2589 257.639Z" fill="white"/>
</g>
<path d="M49.501 250.762L49.5989 250.865L49.8984 251.148L51.0159 252.161C51.9605 253.008 53.2853 254.166 54.7771 255.41C56.269 256.654 57.6571 257.754 58.6479 258.538L59.8459 259.453L60.1743 259.695L60.2952 259.776L60.1858 259.678L59.869 259.419L58.717 258.48C57.7205 257.685 56.3554 256.579 54.8635 255.335C53.3717 254.091 52.0411 252.945 51.085 252.109L49.933 251.119L49.6219 250.848L49.501 250.762Z" fill="#263238"/>
<path d="M57.9287 258.088C58.1386 257.935 58.367 257.81 58.6084 257.714C58.8575 257.651 59.1121 257.612 59.3687 257.599C59.1121 257.504 58.8304 257.504 58.5738 257.599C58.3066 257.678 58.0774 257.852 57.9287 258.088Z" fill="#263238"/>
<path d="M56.8457 255.565C56.8457 255.594 57.0358 255.565 57.2489 255.491C57.462 255.416 57.6348 255.347 57.6233 255.318C57.6118 255.289 57.4332 255.318 57.2201 255.393C57.0843 255.423 56.9566 255.482 56.8457 255.565Z" fill="#263238"/>
<path d="M56.5576 254.863C56.5576 254.863 56.7131 254.909 56.909 254.903C57.1048 254.897 57.2546 254.868 57.2546 254.84C57.2546 254.811 57.0933 254.794 56.9032 254.799C56.7847 254.794 56.6664 254.815 56.5576 254.863Z" fill="#263238"/>
<path d="M56.7305 254.016C56.7305 254.016 56.8457 254.177 57.03 254.333C57.1339 254.438 57.2571 254.522 57.3929 254.58C57.3929 254.58 57.2777 254.413 57.0934 254.258C56.909 254.102 56.7535 253.97 56.7305 254.016Z" fill="#263238"/>
<path d="M56.9727 253.475C57.0354 253.633 57.131 253.775 57.2531 253.894C57.3753 254.012 57.5212 254.103 57.6811 254.16C57.5696 254.039 57.4503 253.926 57.324 253.82C57.1339 253.636 57.0245 253.44 56.9727 253.475Z" fill="#263238"/>
<path d="M57.5248 255.168C57.639 255.306 57.7777 255.421 57.9338 255.508C58.0972 255.613 58.2709 255.702 58.4522 255.773C58.5592 255.821 58.6712 255.858 58.7862 255.882C58.8587 255.894 58.9331 255.878 58.9936 255.836C59.0253 255.812 59.0493 255.779 59.0626 255.741C59.0759 255.703 59.0779 255.662 59.0685 255.623C58.9796 255.412 58.8198 255.239 58.6167 255.134C58.4137 255.029 58.1802 254.998 57.9568 255.047C57.8253 255.073 57.7012 255.128 57.5939 255.208C57.5536 255.234 57.5184 255.267 57.4902 255.306C57.6378 255.216 57.7994 255.152 57.9683 255.116C58.1511 255.085 58.3392 255.107 58.5098 255.18C58.715 255.259 58.8806 255.416 58.9706 255.617C58.9706 255.721 58.9072 255.779 58.7978 255.761C58.6915 255.737 58.5875 255.705 58.4867 255.663C58.3092 255.598 58.1377 255.517 57.9741 255.421C57.6918 255.312 57.5363 255.168 57.5248 255.168Z" fill="#263238"/>
<path d="M57.5996 255.301C57.5996 255.301 57.7493 255.254 57.8876 255.059C57.9618 254.94 58.009 254.806 58.0258 254.667C58.039 254.577 58.0308 254.485 58.0017 254.399C57.9727 254.313 57.9237 254.235 57.8588 254.172C57.8091 254.145 57.7509 254.139 57.697 254.155C57.643 254.171 57.5976 254.208 57.5708 254.258C57.527 254.33 57.4994 254.41 57.4901 254.494C57.4733 254.63 57.4733 254.767 57.4901 254.903C57.4901 255.03 57.5218 255.155 57.5823 255.266C57.5823 255.266 57.5823 255.122 57.5823 254.903C57.5807 254.772 57.5923 254.64 57.6169 254.511C57.6169 254.379 57.7205 254.195 57.8415 254.258C57.9625 254.321 57.9682 254.523 57.9682 254.655C57.958 254.783 57.9207 254.906 57.8588 255.018C57.7831 255.122 57.6962 255.216 57.5996 255.301Z" fill="#263238"/>
<path d="M51.0859 249.132C51.0859 249.132 51.2818 249.264 51.541 249.535C51.8783 249.891 52.1114 250.334 52.2149 250.813C52.3103 251.295 52.2704 251.793 52.0997 252.253C51.9672 252.611 51.8232 252.801 51.8405 252.829C51.8838 252.791 51.9207 252.747 51.9499 252.697C52.0358 252.573 52.1073 252.44 52.1631 252.3C52.3622 251.831 52.4144 251.313 52.3128 250.813C52.2088 250.315 51.9581 249.86 51.5928 249.506C51.484 249.4 51.3643 249.305 51.2357 249.224C51.1922 249.184 51.1413 249.152 51.0859 249.132Z" fill="#263238"/>
<path d="M53.9538 247.029C53.5447 247.426 53.16 247.847 52.8018 248.291C52.4216 248.713 52.064 249.155 51.7305 249.615C52.1422 249.223 52.5271 248.804 52.8825 248.36C53.262 247.935 53.6196 247.491 53.9538 247.029Z" fill="#263238"/>
<path d="M53.1357 252.904C53.3819 253.227 53.6684 253.518 53.9882 253.768C54.2873 254.046 54.6224 254.283 54.9847 254.471C54.9847 254.471 54.5642 254.125 54.0573 253.693C53.5505 253.261 53.1588 252.864 53.1357 252.904Z" fill="#263238"/>
<path d="M51.892 251.862C51.892 251.862 51.8517 251.977 51.8171 252.109C51.7826 252.242 51.7307 252.34 51.7538 252.357C51.7768 252.374 51.869 252.288 51.915 252.132C51.9611 251.977 51.9208 251.856 51.892 251.862Z" fill="#263238"/>
<path d="M51.9092 250.883C51.8804 250.883 51.8689 250.986 51.8804 251.107C51.8919 251.228 51.9207 251.326 51.9495 251.326C51.9783 251.326 51.9898 251.222 51.9495 251.101C51.9092 250.98 51.938 250.883 51.9092 250.883Z" fill="#263238"/>
<path d="M51.46 250.053C51.46 250.082 51.5348 250.151 51.5982 250.26C51.6616 250.37 51.6904 250.479 51.7192 250.479C51.748 250.479 51.7652 250.347 51.6846 250.209C51.604 250.07 51.4715 250.03 51.46 250.053Z" fill="#263238"/>
<path d="M51.0859 249.529C51.0859 249.529 51.0859 249.609 51.0859 249.672C51.0859 249.736 51.172 249.776 51.195 249.764C51.218 249.753 51.195 249.684 51.195 249.621C51.195 249.558 51.1089 249.517 51.0859 249.529Z" fill="#263238"/>
<path d="M74.431 162.196C74.431 162.196 71.672 173.866 72.4554 176.175C73.2387 178.485 78.2902 179.816 78.2902 179.816L78.1174 211.778L50.1699 246.338L60.4803 254.771C60.4803 254.771 90.7434 220.159 93.4102 213.875C96.0771 207.59 91.6822 161.66 91.6822 161.66L74.431 162.196Z" fill="#263238"/>
<path d="M88.7042 157.438L90.0693 254.506L75.8594 254.592L68.7228 175.519C67.2136 174.079 65.0882 171.613 65.382 166.113L65.7276 159.725L88.7042 157.438Z" fill="#263238"/>
<path d="M73.7275 217.181C73.7483 217.13 73.7754 217.081 73.8082 217.037C73.8831 216.933 73.9695 216.801 74.0789 216.639L75.133 215.148L78.9922 209.802V209.877C78.6811 206.508 78.3067 202.424 77.9035 198.017C77.3851 192.257 76.9704 187.016 76.7227 183.22C76.596 181.325 76.5154 179.793 76.4693 178.733C76.4693 178.226 76.4347 177.817 76.429 177.506C76.4114 177.364 76.4114 177.221 76.429 177.08C76.4568 177.22 76.4742 177.363 76.4808 177.506C76.4808 177.811 76.5384 178.22 76.5787 178.727C76.6651 179.816 76.7803 181.336 76.9301 183.208C77.2296 186.993 77.6789 192.217 78.1973 197.988C78.5832 202.412 78.9749 206.49 79.2341 209.877V209.917V209.952L75.2885 215.228L74.1768 216.685L73.8773 217.06C73.7563 217.152 73.7275 217.187 73.7275 217.181Z" fill="#455A64"/>
<path d="M78.0825 177.08C76.811 177.012 75.5492 176.819 74.3155 176.504C73.0605 176.291 71.8296 175.956 70.6406 175.501C71.8997 175.663 73.148 175.899 74.3789 176.21C75.629 176.429 76.8656 176.719 78.0825 177.08Z" fill="#455A64"/>
<path d="M87.8168 210.24C86.5903 209.731 85.2994 209.394 83.9807 209.238C82.6521 209.184 81.3225 209.314 80.0293 209.624C80.367 209.41 80.7424 209.264 81.1352 209.192C82.0743 208.947 83.0478 208.861 84.0152 208.938C84.9765 209.016 85.9185 209.251 86.8031 209.635C87.1745 209.774 87.5178 209.979 87.8168 210.24Z" fill="#455A64"/>
<path d="M92.8339 214.721C92.8973 214.773 88.8998 220.141 83.9002 226.708C78.9005 233.274 74.7936 238.568 74.7302 238.522C74.6669 238.476 78.6643 233.101 83.664 226.529C88.6637 219.957 92.7706 214.669 92.8339 214.721Z" fill="#455A64"/>
<path d="M90.9105 164.644C90.7466 165.064 90.4695 165.431 90.1098 165.704C89.6982 166.064 89.2165 166.336 88.6949 166.501C88.1734 166.667 87.6232 166.722 87.0791 166.665C86.5349 166.608 86.0085 166.439 85.5329 166.168C85.0572 165.897 84.6427 165.532 84.3153 165.093C84.0104 164.756 83.8103 164.338 83.7393 163.889C83.961 164.258 84.2033 164.614 84.465 164.955C85.1234 165.753 86.0687 166.26 87.0976 166.368C88.1264 166.476 89.1565 166.175 89.9658 165.531C90.296 165.252 90.6113 164.956 90.9105 164.644Z" fill="#455A64"/>
<path d="M71.4815 114.699C69.14 112.474 67.7593 109.423 67.6334 106.196C67.5076 102.968 68.6464 99.8193 70.8076 97.4189" fill="#263238"/>
<path d="M63.4923 123.754C63.4923 123.754 60.405 127.244 59.7656 140.59C59.7656 140.59 68.5611 142.26 68.7224 141.782C68.8837 141.304 63.4923 123.754 63.4923 123.754Z" fill="#00ADB5"/>
<g opacity="0.3">
<path d="M63.4923 123.754C63.4923 123.754 60.405 127.244 59.7656 140.59C59.7656 140.59 68.5611 142.26 68.7224 141.782C68.8837 141.304 63.4923 123.754 63.4923 123.754Z" fill="black"/>
</g>
<path d="M64.9209 162.628H91.9295L91.4918 158.406C91.4918 158.406 88.4044 142.358 88.4274 142.145L88.9113 141.126C89.5424 139.802 89.8799 138.357 89.9008 136.891C89.9216 135.425 89.6254 133.971 89.0322 132.63L102.28 128.108L99.0431 117.199C93.0412 118.207 83.9692 119.341 83.9692 119.341L82.6214 119.451C82.6214 119.451 73.2556 119.94 73.054 119.964C69.1372 120.442 64.581 120.741 62.9164 124.934C62.0236 127.175 62.8703 130.539 64.3276 134.006L67.7836 144.662C69.166 150.52 66.9599 150.238 65.7446 156.136C65.5487 157.023 64.9036 161.81 64.9209 162.628Z" fill="#00ADB5"/>
<g opacity="0.3">
<path d="M64.9209 162.628H91.9295L91.4918 158.406C91.4918 158.406 88.4044 142.358 88.4274 142.145L88.9113 141.126C89.5424 139.802 89.8799 138.357 89.9008 136.891C89.9216 135.425 89.6254 133.971 89.0322 132.63L102.28 128.108L99.0431 117.199C93.0412 118.207 83.9692 119.341 83.9692 119.341L82.6214 119.451C82.6214 119.451 73.2556 119.94 73.054 119.964C69.1372 120.442 64.581 120.741 62.9164 124.934C62.0236 127.175 62.8703 130.539 64.3276 134.006L67.7836 144.662C69.166 150.52 66.9599 150.238 65.7446 156.136C65.5487 157.023 64.9036 161.81 64.9209 162.628Z" fill="black"/>
</g>
<path d="M102.13 128.287C101.947 128.39 101.754 128.473 101.554 128.534C101.174 128.673 100.615 128.863 99.9241 129.11C98.5417 129.577 96.6178 130.193 94.4981 130.873C92.3785 131.553 90.4661 132.227 89.1413 132.78C88.4617 133.056 87.926 133.298 87.5516 133.459C87.37 133.56 87.1765 133.637 86.9756 133.69C87.1429 133.557 87.3245 133.443 87.517 133.35C87.8799 133.16 88.4041 132.883 89.0722 132.584C90.8184 131.823 92.6047 131.157 94.4233 130.591C96.5487 129.911 98.4553 129.324 99.878 128.909C100.575 128.701 101.145 128.54 101.537 128.431C101.728 128.358 101.927 128.31 102.13 128.287Z" fill="#263238"/>
<path d="M100.564 122.475C100.564 122.556 92.5744 122.625 82.7076 122.625C72.8407 122.625 64.8516 122.556 64.8516 122.475C64.8516 122.394 72.8349 122.325 82.7076 122.325C92.5802 122.325 100.564 122.394 100.564 122.475Z" fill="#FAFAFA"/>
<path d="M101.376 127.78C101.376 127.86 92.4881 127.93 81.5268 127.93C70.5655 127.93 61.6836 127.86 61.6836 127.78C61.6836 127.699 70.5655 127.63 81.5268 127.63C92.4881 127.63 101.376 127.699 101.376 127.78Z" fill="#FAFAFA"/>
<path d="M63.936 133.816C63.3961 133.963 62.8346 134.014 62.2771 133.966C61.7216 134.013 61.1621 133.963 60.624 133.816C61.1621 133.67 61.7216 133.619 62.2771 133.667C62.8346 133.619 63.3961 133.67 63.936 133.816Z" fill="#FAFAFA"/>
<path d="M89.8559 134.001C89.8559 134.081 84.0441 134.15 76.8786 134.15C69.7132 134.15 63.9014 134.081 63.9014 134.001C63.9014 133.92 69.7074 133.851 76.8786 133.851C84.0498 133.851 89.8559 133.914 89.8559 134.001Z" fill="#FAFAFA"/>
<path d="M89.2797 140.216C89.2797 140.302 84.0611 140.365 77.6329 140.365C71.2048 140.365 65.9805 140.302 65.9805 140.216C65.9805 140.129 71.1933 140.066 77.6329 140.066C84.0726 140.066 89.2797 140.135 89.2797 140.216Z" fill="#FAFAFA"/>
<path d="M89.1191 145.981C89.1191 146.062 84.3959 146.131 78.5668 146.131C72.7376 146.131 68.0029 146.062 68.0029 145.981C68.0029 145.901 72.7319 145.832 78.5668 145.832C84.4016 145.832 89.1191 145.895 89.1191 145.981Z" fill="#FAFAFA"/>
<path d="M90.0458 150.641C90.0458 150.728 84.9885 150.791 78.7504 150.791C72.5124 150.791 67.4551 150.728 67.4551 150.641C67.4551 150.555 72.5124 150.492 78.7504 150.492C84.9885 150.492 90.0458 150.561 90.0458 150.641Z" fill="#FAFAFA"/>
<path d="M91.5087 156.586C91.5087 156.672 85.7487 156.735 78.6582 156.735C71.5676 156.735 65.8076 156.672 65.8076 156.586C65.8076 156.499 71.5676 156.436 78.6582 156.436C85.7487 156.436 91.5087 156.505 91.5087 156.586Z" fill="#FAFAFA"/>
<path d="M67.6049 144.161C67.4962 143.999 67.4145 143.82 67.363 143.631L66.787 142.157C66.3089 140.913 65.635 139.196 64.9438 137.278C64.2526 135.36 63.6708 133.609 63.308 132.324C63.1294 131.679 62.9912 131.172 62.9163 130.792C62.8609 130.605 62.828 130.412 62.8184 130.216C63.0849 130.885 63.3156 131.568 63.5096 132.261C63.9243 133.528 64.5291 135.268 65.2376 137.18C65.946 139.092 66.5681 140.82 66.9656 142.088C67.1787 142.721 67.34 143.24 67.4436 143.597C67.5212 143.777 67.5755 143.967 67.6049 144.161Z" fill="#263238"/>
</svg>
