<svg width="748" height="320" viewBox="0 0 748 320" fill="none" xmlns="http://www.w3.org/2000/svg">
<path d="M45.9188 213.3V174.8L160.369 11H217.419V170.6H248.219V213.3H217.419V263H168.419V213.3H45.9188ZM171.569 63.5L99.8188 170.6H171.569V63.5ZM279.415 132.1C279.415 91.7333 286.649 60.1167 301.115 37.25C315.815 14.3833 340.082 2.94999 373.915 2.94999C407.749 2.94999 431.899 14.3833 446.365 37.25C461.065 60.1167 468.415 91.7333 468.415 132.1C468.415 172.7 461.065 204.55 446.365 227.65C431.899 250.75 407.749 262.3 373.915 262.3C340.082 262.3 315.815 250.75 301.115 227.65C286.649 204.55 279.415 172.7 279.415 132.1ZM420.115 132.1C420.115 114.833 418.949 100.367 416.615 88.7C414.515 76.8 410.082 67.1167 403.315 59.65C396.782 52.1833 386.982 48.45 373.915 48.45C360.849 48.45 350.932 52.1833 344.165 59.65C337.632 67.1167 333.199 76.8 330.865 88.7C328.765 100.367 327.715 114.833 327.715 132.1C327.715 149.833 328.765 164.767 330.865 176.9C332.965 188.8 337.399 198.483 344.165 205.95C350.932 213.183 360.849 216.8 373.915 216.8C386.982 216.8 396.899 213.183 403.665 205.95C410.432 198.483 414.865 188.8 416.965 176.9C419.065 164.767 420.115 149.833 420.115 132.1ZM503.585 213.3V174.8L618.035 11H675.085V170.6H705.885V213.3H675.085V263H626.085V213.3H503.585ZM629.235 63.5L557.485 170.6H629.235V63.5Z" fill="#DFDFDF"/>
<path d="M376.987 46.2785L377.947 36.1473L372.654 36.2625L369.857 27.6801L370.459 38.6433L375.829 38.5089L376.987 46.2785Z" fill="#A2A2A2"/>
<path d="M374.549 47.7377L370.83 41.9457L368.059 44.2177L362.99 40.8129L367.886 46.3937L370.689 44.0833L374.549 47.7377Z" fill="#A2A2A2"/>
<path d="M380.424 47.0144L384.584 42.8672L382.19 40.9664L384.117 36.1152L380.341 41.2096L382.773 43.1296L380.424 47.0144Z" fill="#A2A2A2"/>
<path d="M342.901 92.9536L336.981 84.6848L333.064 88.2432L325.32 83.5968L332.968 91.4752L336.93 87.8464L342.901 92.9536Z" fill="#A2A2A2"/>
<path d="M342.017 95.6544L335.412 93.728L334.811 97.2544L328.75 98.016L336.11 99.0144L336.705 95.4304L342.017 95.6544Z" fill="#A2A2A2"/>
<path d="M404.687 91.7632L410.607 83.488L414.523 87.0464L422.267 82.4L414.619 90.2784L410.658 86.656L404.687 91.7632Z" fill="#A2A2A2"/>
<path d="M405.569 94.4576L412.174 92.5312L412.776 96.0576L418.837 96.8192L411.477 97.8176L410.881 94.2337L405.569 94.4576Z" fill="#A2A2A2"/>
<path d="M299.419 241.536C302.446 239.975 306.005 239.77 309.358 240.327C311.163 240.627 313.045 241.165 314.274 242.522C315.502 243.879 315.733 246.259 314.325 247.418C313.417 248.036 312.32 248.314 311.227 248.205C308.597 248.173 305.685 247.712 303.586 249.293C302.389 250.195 301.589 251.693 300.155 252.141C299.439 252.307 298.687 252.235 298.015 251.936C297.343 251.637 296.787 251.127 296.43 250.483C295.748 249.167 295.597 247.639 296.008 246.215C296.177 245.225 296.574 244.287 297.165 243.476C297.757 242.664 298.528 242 299.419 241.536Z" fill="#459397"/>
<path d="M292.52 228.16C294.369 230.803 297.96 229.926 299.63 228.32C301.301 226.714 301.998 224.371 302.638 222.144C304.104 217.024 305.582 211.712 304.488 206.528C304.228 204.957 303.539 203.489 302.497 202.285C301.97 201.691 301.295 201.247 300.541 200.997C299.787 200.746 298.981 200.698 298.203 200.858C296.392 201.338 295.265 203.11 294.453 204.8C292.04 209.79 290.774 215.257 290.747 220.8C290.747 223.36 291.041 226.067 292.494 228.192" fill="#459397"/>
<path d="M287.4 231.949C289.403 229.568 289.787 226.093 288.891 223.11C287.995 220.128 285.979 217.587 283.656 215.514C280.919 213.078 277.735 211.198 274.28 209.978C272.946 209.449 271.515 209.212 270.082 209.28C269.362 209.322 268.663 209.54 268.046 209.913C267.43 210.287 266.913 210.806 266.543 211.424C265.557 213.306 266.498 215.59 267.522 217.453C269.326 220.736 271.387 223.871 273.685 226.829C275.528 229.21 277.647 231.558 280.456 232.634C283.266 233.709 286.216 233.581 287.688 231.635" fill="#459397"/>
<path d="M292.367 267.994C292.47 267.603 292.526 267.201 292.533 266.797C292.623 265.92 292.725 264.826 292.853 263.52C292.981 262.215 293.212 260.499 293.589 258.72C294.019 256.786 294.604 254.89 295.336 253.05C296.057 251.216 297.031 249.493 298.229 247.93C299.21 246.659 300.46 245.621 301.89 244.89C302.861 244.407 303.902 244.083 304.975 243.93C305.377 243.914 305.776 243.856 306.165 243.757C305.763 243.715 305.358 243.715 304.956 243.757C303.848 243.843 302.764 244.127 301.756 244.595C300.257 245.308 298.942 246.357 297.916 247.661C296.665 249.25 295.653 251.014 294.914 252.896C294.172 254.762 293.594 256.69 293.186 258.656C292.874 260.263 292.661 261.887 292.546 263.52C292.444 264.909 292.399 266.035 292.38 266.816C292.338 267.207 292.334 267.602 292.367 267.994Z" fill="#BBCDCE"/>
<path d="M292.597 265.472C292.615 265.287 292.615 265.1 292.597 264.915C292.597 264.499 292.597 263.974 292.597 263.328C292.597 261.946 292.597 259.942 292.667 257.478C292.789 252.538 293.218 247.238 294.037 239.731C294.811 232.691 295.861 224.486 296.962 219.155C297.199 217.946 297.435 216.851 297.659 215.898C297.883 214.944 298.056 214.112 298.229 213.446C298.402 212.781 298.504 212.307 298.6 211.898C298.658 211.72 298.69 211.534 298.696 211.347C298.617 211.516 298.553 211.692 298.504 211.872C298.383 212.269 298.229 212.774 298.043 213.395C297.858 214.016 297.627 214.88 297.403 215.834C297.179 216.787 296.891 217.869 296.629 219.085C295.267 225.39 294.241 231.762 293.557 238.176C292.731 245.683 292.36 252.518 292.328 257.472C292.328 259.942 292.328 261.952 292.418 263.328C292.456 263.972 292.488 264.504 292.514 264.922C292.515 265.108 292.543 265.294 292.597 265.472Z" fill="#BBCDCE"/>
<path d="M292.629 252.288C292.67 251.734 292.67 251.178 292.629 250.624C292.565 249.555 292.418 248.013 292.117 246.144C291.758 243.931 291.268 241.74 290.652 239.584C289.941 236.927 289.023 234.329 287.906 231.814C286.003 227.176 283.272 222.921 279.849 219.258C279.246 218.632 278.605 218.044 277.928 217.498C277.641 217.248 277.385 217.005 277.122 216.813L276.386 216.301C275.942 215.968 275.473 215.669 274.985 215.405C274.908 215.514 276.968 216.73 279.573 219.501C282.889 223.192 285.547 227.424 287.433 232.013C288.523 234.509 289.447 237.074 290.197 239.693C290.824 241.833 291.343 244.003 291.753 246.195C292.098 248.064 292.297 249.594 292.393 250.675C292.426 251.219 292.505 251.758 292.629 252.288Z" fill="#BBCDCE"/>
<path d="M279.88 275.546L281.205 293.651H304.456L305.781 275.546H279.88Z" fill="#BBCDCE"/>
<path d="M308.558 268.416H277.64V275.552H308.558V268.416Z" fill="#BBCDCE"/>
<path d="M277.64 292.96V294.931H279.092H308.04V292.96H277.64Z" fill="#459397"/>
<path d="M280.514 298.413L279.093 294.931H306.933L305.275 298.413H280.514Z" fill="#BBCDCE"/>
<path d="M305.32 281.466C305.289 281.525 305.253 281.581 305.211 281.632L304.865 282.093C304.533 282.515 304.085 283.098 303.509 283.827L303.451 283.904L303.394 283.821L300.065 279.219H300.257L297 283.859L296.897 284.006L296.782 283.866L292.897 279.245H293.16L292.942 279.514L289.467 283.872L289.352 284.019L289.249 283.866L285.966 279.226H286.158L282.12 283.821L282.049 283.904L281.998 283.814L280.718 281.69C280.584 281.459 280.481 281.274 280.392 281.126C280.351 281.063 280.319 280.994 280.296 280.922C280.296 280.922 280.347 280.979 280.43 281.101L280.789 281.645C281.115 282.15 281.557 282.854 282.113 283.731H281.992L285.96 279.078L286.062 278.957L286.152 279.085L289.461 283.706H289.237L292.705 279.341L292.917 279.072L293.032 278.931L293.141 279.072L297.019 283.706H296.801L300.11 279.091L300.206 278.95L300.302 279.091L303.56 283.744H303.4L304.808 282.054L305.185 281.619C305.32 281.51 305.32 281.459 305.32 281.466Z" fill="#F5F5F5"/>
<path d="M306.101 275.43C306.101 275.507 300.277 275.571 293.089 275.571C285.902 275.571 280.078 275.507 280.078 275.43C280.078 275.354 285.902 275.283 293.089 275.283C300.277 275.283 306.101 275.347 306.101 275.43Z" fill="#F5F5F5"/>
<path d="M307.278 295.13C307.278 295.206 300.942 295.277 293.134 295.277C285.326 295.277 278.99 295.206 278.99 295.13C278.99 295.053 285.32 294.982 293.134 294.982C300.949 294.982 307.278 295.04 307.278 295.13Z" fill="#F5F5F5"/>
<path d="M267.701 295.981V41.6193H264.552V296.032L238.517 297.99H264.552H267.701H293.729L267.701 295.981Z" fill="#459397"/>
<path d="M248.149 19.4561L236.456 71.7057H295.797L282.446 19.6161L248.149 19.4561Z" fill="#BBCDCE"/>
<path d="M259.022 92.8832C258.888 92.8832 258.792 86.4832 258.811 78.56C258.83 70.6368 258.952 64.2368 259.086 64.2368C259.221 64.2368 259.317 70.6368 259.297 78.56C259.278 86.4832 259.157 92.8832 259.022 92.8832Z" fill="#BBCDCE"/>
<path d="M258.997 92.8001C258.997 92.7361 259.42 92.8001 259.637 93.3313C259.689 93.491 259.703 93.6608 259.676 93.8267C259.649 93.9926 259.583 94.1496 259.484 94.2849C259.338 94.442 259.15 94.5526 258.942 94.6026C258.734 94.6526 258.516 94.6398 258.315 94.5658C258.114 94.4918 257.94 94.36 257.814 94.1869C257.689 94.0139 257.617 93.8075 257.608 93.5937C257.619 93.4261 257.67 93.2635 257.757 93.1197C257.844 92.976 257.964 92.8554 258.108 92.7681C258.607 92.4737 258.965 92.7169 258.92 92.7681C258.876 92.8193 258.607 92.7681 258.312 93.0561C258.235 93.1259 258.172 93.2106 258.128 93.3052C258.084 93.3998 258.06 93.5022 258.056 93.6065C258.068 93.7262 258.114 93.84 258.187 93.9351C258.261 94.0301 258.36 94.1025 258.473 94.1439C258.586 94.1853 258.708 94.1941 258.826 94.1692C258.943 94.1444 259.052 94.0869 259.138 94.0033C259.203 93.9208 259.25 93.8261 259.277 93.725C259.305 93.6239 259.312 93.5184 259.298 93.4145C259.24 92.9985 258.965 92.8513 258.997 92.8001Z" fill="#BBCDCE"/>
<path d="M483.067 200.205C483.483 198.17 483.202 196.058 483.662 192.224C484.123 188.391 485.947 186.861 486.958 184.141C487.97 181.421 489.346 175.072 489.346 175.072H488.232C488.232 175.072 484.616 186.88 483.579 189.555C482.542 192.231 482.574 194.675 482.389 197.082C482.135 199.264 481.75 201.429 481.237 203.565C481.237 203.565 479.906 189.882 479.355 185.075C478.805 180.269 479.054 170.919 479.054 170.919L477.774 170.375V177.466C477.774 177.466 478.299 184.231 478.722 188.109C479.144 191.987 480.142 204.57 479.886 213.811C479.789 219.616 480.546 225.404 482.133 230.989C482.171 231.29 482.51 240.416 482.331 244.941C482.152 249.466 482.037 267.341 482.235 268.16L486.261 269.127C486.261 269.127 483.918 253.344 484.341 241.933C484.763 230.522 483.816 231.149 482.318 225.69C480.821 220.231 481.32 205.44 481.32 205.44C482.032 203.741 482.616 201.991 483.067 200.205Z" fill="#BBCDCE"/>
<path d="M487.72 176.55C487.72 176.55 493.48 174.861 497.148 170.214C500.815 165.568 503.202 161.773 506.997 159.974C499.682 156.736 495.176 163.213 491.522 165.184C487.868 167.155 484.2 168.557 484.764 172.358C485.327 176.16 487.72 176.55 487.72 176.55Z" fill="#459397"/>
<path d="M511.247 118.88C510.904 120.279 510.477 121.655 509.967 123.002C509.317 124.727 508.563 126.411 507.708 128.045C506.852 129.707 505.85 131.29 504.712 132.774C503.746 134.103 502.523 135.224 501.116 136.07C500.841 136.218 500.554 136.342 500.258 136.442C497.03 137.465 493.905 138.785 490.92 140.384C488.872 136.346 488.527 132.954 488.93 130.176C489.112 128.962 489.443 127.776 489.916 126.643C490.358 125.579 490.889 124.553 491.503 123.578C491.81 123.072 492.098 122.618 492.328 122.234C492.559 121.85 492.828 121.402 493.103 120.954C494.537 118.629 496.293 116.52 498.319 114.688C498.78 114.278 499.266 113.875 499.784 113.478C500.403 113.014 501.075 112.627 501.788 112.326C505.442 110.752 510.056 110.944 510.056 110.944C510.056 110.944 510.901 111.936 511.605 115.309C511.605 115.386 511.605 115.456 511.637 115.533C511.685 116.662 511.553 117.792 511.247 118.88Z" fill="#459397"/>
<path d="M495.727 152.064C495.727 152.064 505.858 145.165 518.664 146.432C511.771 139.68 506.14 139.962 501.384 142.355C496.629 144.749 493.615 146.56 495.727 152.064Z" fill="#459397"/>
<path d="M484.047 141.088C484.047 141.088 479.125 134.752 472.367 133.069C465.608 131.386 457.877 131.661 457.877 131.661C457.877 131.661 461.672 126.17 469.979 126.592C478.287 127.014 480.815 129.152 482.223 131.942C483.631 134.733 485.16 137.85 484.047 141.088Z" fill="#459397"/>
<path d="M483.067 161.632C483.067 162.496 483.01 163.322 482.959 164.102C482.658 168.275 481.679 171.142 478.139 171.622C478.139 171.622 473.071 170.342 471.099 165.427C469.128 160.512 470.255 159.667 467.304 156.422C464.354 153.178 462.824 145.165 462.824 145.165C466.302 144.384 469.938 144.731 473.205 146.157L473.435 146.266C478.562 148.768 483.202 156.224 483.067 161.632Z" fill="#459397"/>
<path d="M469.697 176.403C469.697 176.403 468.853 177.536 463.643 177.952C458.433 178.368 457.173 182.599 451.259 183.584C445.345 184.57 444.507 184.429 441.973 182.88C443.118 179.328 445.979 178.259 448.584 176.218C449.441 175.561 450.21 174.795 450.869 173.939C450.958 173.824 451.041 173.715 451.118 173.594C452.337 172.022 454.04 170.898 455.963 170.394C457.467 169.947 459.027 169.716 460.597 169.709C462.406 169.64 464.209 169.951 465.889 170.624C469.557 172.327 469.557 174.439 469.697 176.403Z" fill="#459397"/>
<path d="M502.14 275.559C501.42 282.516 499.207 289.235 495.65 295.258C494.69 296.883 492.533 297.933 490.14 297.933H479.26C476.872 297.933 474.716 296.883 473.749 295.258C470.183 289.238 467.963 282.518 467.24 275.559C466.94 272.837 466.825 270.098 466.895 267.36H502.453C502.534 270.097 502.429 272.836 502.14 275.559Z" fill="#BBCDCE"/>
<path d="M502.562 275.558C501.824 282.682 499.558 289.563 495.919 295.731C494.933 297.395 492.719 298.47 490.274 298.47H479.132C476.681 298.47 474.473 297.395 473.487 295.731C469.843 289.565 467.576 282.683 466.844 275.558H502.562Z" fill="#459397"/>
<path d="M499.727 235.558C498.298 234.032 496.564 232.824 494.638 232.011C492.712 231.199 490.636 230.8 488.546 230.842L488.431 230.95C487.586 235.194 489.531 239.718 492.808 242.554C496.085 245.389 500.488 246.669 504.827 246.752C504.356 242.575 502.57 238.655 499.727 235.558Z" fill="#459397"/>
<path d="M474.613 239.962C472.894 239.733 471.145 239.953 469.537 240.602C465.655 241.917 462.112 244.077 459.163 246.925C462.651 248.128 466.299 249.242 469.96 248.845C473.621 248.448 477.32 246.131 478.241 242.56C477.909 240.838 476.309 240.294 474.613 239.962Z" fill="#459397"/>
<path d="M450.024 218.01C450.896 219.312 452.154 220.308 453.621 220.858C455.042 221.498 456.552 221.92 457.909 222.688C460.341 224.058 462.095 226.374 464.367 228C465.986 229.146 467.833 229.929 469.783 230.297C471.732 230.664 473.737 230.608 475.663 230.131C475.949 228.174 475.792 226.177 475.205 224.287C474.618 222.398 473.616 220.664 472.271 219.213C469.521 216.318 465.752 214.608 461.762 214.445C457.782 214.306 453.864 215.465 450.6 217.747" fill="#459397"/>
<path d="M485.96 222.483C484.539 219.002 485.96 214.362 488.68 211.789C490.472 210.106 492.827 209.197 495.131 208.358C497.056 207.654 498.988 206.972 500.93 206.31C501.371 206.097 501.877 206.06 502.344 206.208C502.984 206.515 503.087 207.405 503.048 208.128C502.938 211.078 502.126 213.958 500.68 216.531C499.22 219.109 496.897 221.09 494.12 222.125C491.336 223.085 488.36 224.147 485.973 222.483" fill="#459397"/>
<path d="M474.92 209.466C474.789 208.599 474.462 207.774 473.964 207.054C473.466 206.333 472.81 205.735 472.046 205.306C470.512 204.455 468.801 203.971 467.048 203.891C462.919 203.567 458.78 204.379 455.08 206.24C458.404 208.505 462.047 210.26 465.89 211.45C467.467 212.019 469.144 212.258 470.818 212.154C471.654 212.089 472.462 211.822 473.172 211.376C473.882 210.93 474.473 210.319 474.894 209.594" fill="#459397"/>
<path d="M474.92 191.066C471.957 189.318 468.52 188.506 465.115 188.109C465.576 191.712 466.338 195.533 468.891 198.112C470.431 199.662 472.474 200.611 474.651 200.787C476.955 200.976 479.255 200.375 481.173 199.085V198.906C480.354 195.571 477.883 192.806 474.92 191.066Z" fill="#459397"/>
<path d="M493.308 183.68C491.445 184.909 491.298 187.738 492.373 189.683C493.448 191.629 495.413 192.883 497.289 194.093C499.7 195.729 502.238 197.169 504.879 198.4C508.296 199.878 512.066 200.685 515.119 202.848C515.534 198.761 514.895 194.637 513.263 190.867C511.599 187.085 508.548 184.084 504.738 182.483C500.93 181.005 496.341 181.395 493.096 183.878" fill="#459397"/>
<path d="M493.48 184.493C493.48 184.557 492.571 184.954 491.208 185.843C490.411 186.37 489.654 186.954 488.942 187.59C488.084 188.377 487.292 189.233 486.574 190.15C485.874 191.082 485.253 192.071 484.718 193.107C484.286 193.957 483.918 194.839 483.618 195.744C483.112 197.293 482.978 198.304 482.907 198.304C482.896 198.064 482.916 197.823 482.965 197.587C482.965 197.357 483.042 197.082 483.118 196.762C483.19 196.397 483.28 196.036 483.387 195.68C483.661 194.753 484.009 193.849 484.43 192.979C484.962 191.915 485.589 190.902 486.306 189.952C487.033 189.025 487.845 188.168 488.731 187.392C489.463 186.756 490.247 186.182 491.074 185.677C491.419 185.453 491.758 185.293 492.046 185.139C492.292 185.002 492.546 184.882 492.808 184.781C493.02 184.658 493.245 184.562 493.48 184.493Z" fill="#BBCDCE"/>
<path d="M510.99 195.763C510.78 195.538 510.587 195.296 510.414 195.04C510.056 194.566 509.538 193.888 508.853 193.082C507.071 190.981 505.043 189.103 502.811 187.488C501.602 186.581 500.3 185.804 498.926 185.171C497.811 184.659 496.602 184.382 495.374 184.358C494.545 184.344 493.721 184.483 492.942 184.768C492.398 184.979 492.117 185.152 492.098 185.126C492.155 185.069 492.22 185.02 492.29 184.979C492.48 184.851 492.681 184.739 492.891 184.646C493.674 184.302 494.519 184.121 495.374 184.115C496.641 184.106 497.895 184.366 499.054 184.877C500.455 185.505 501.781 186.286 503.01 187.206C505.266 188.836 507.294 190.76 509.038 192.928C509.678 193.76 510.203 194.464 510.53 194.963C510.712 195.213 510.866 195.481 510.99 195.763Z" fill="#BBCDCE"/>
<path d="M500.77 161.722C500.802 161.773 499.816 162.362 498.344 163.456C494.493 166.321 491.292 169.968 488.949 174.157C488.053 175.757 487.599 176.806 487.541 176.781C487.606 176.521 487.696 176.268 487.81 176.026C488.083 175.346 488.393 174.682 488.738 174.035C490.986 169.738 494.232 166.042 498.203 163.258C498.965 162.733 499.599 162.33 500.053 162.08C500.276 161.931 500.517 161.811 500.77 161.722Z" fill="#BBCDCE"/>
<path d="M469.538 148.595C469.538 148.595 469.628 148.595 469.775 148.723C469.922 148.851 470.146 148.947 470.415 149.146C471.185 149.688 471.911 150.292 472.584 150.95C474.845 153.118 476.584 155.769 477.672 158.706C478.759 161.642 479.167 164.787 478.863 167.904C478.78 168.845 478.621 169.778 478.389 170.694C478.319 171.014 478.229 171.264 478.184 171.43C478.164 171.518 478.129 171.603 478.082 171.68C478.117 171.337 478.177 170.997 478.261 170.662C478.437 169.745 478.557 168.817 478.62 167.885C478.85 164.809 478.416 161.721 477.346 158.828C476.276 155.936 474.595 153.308 472.418 151.123C471.762 150.457 471.065 149.833 470.332 149.254C470.053 149.052 469.788 148.832 469.538 148.595Z" fill="#BBCDCE"/>
<path d="M453.659 174.355C453.791 174.151 453.953 173.967 454.139 173.811C454.625 173.357 455.16 172.958 455.733 172.621C457.644 171.481 459.89 171.036 462.091 171.36C464.292 171.684 466.315 172.758 467.816 174.4C468.269 174.885 468.666 175.42 469 175.994C469.127 176.194 469.23 176.409 469.307 176.634C468.802 175.898 468.244 175.201 467.637 174.547C466.138 173 464.17 171.992 462.039 171.68C459.908 171.367 457.734 171.768 455.854 172.819C455.085 173.275 454.351 173.789 453.659 174.355Z" fill="#BBCDCE"/>
<path d="M480.93 198.605C479.098 197.871 477.311 197.029 475.579 196.083C473.793 195.248 472.056 194.312 470.376 193.28C472.209 194.015 473.998 194.857 475.733 195.802C477.517 196.636 479.252 197.572 480.93 198.605Z" fill="#BBCDCE"/>
<path d="M460.622 205.44C460.816 205.388 461.017 205.367 461.217 205.376C461.601 205.376 462.158 205.376 462.843 205.376C466.427 205.585 469.923 206.577 473.083 208.282C473.684 208.614 474.158 208.922 474.478 209.12C474.652 209.22 474.811 209.342 474.952 209.485C474.952 209.53 474.196 209.101 472.968 208.499C471.376 207.714 469.719 207.072 468.014 206.579C466.307 206.103 464.562 205.775 462.798 205.6C461.48 205.536 460.622 205.523 460.622 205.44Z" fill="#BBCDCE"/>
<path d="M500.801 207.706C500.591 207.891 500.359 208.05 500.11 208.179C499.656 208.461 499.003 208.883 498.19 209.459C494.053 212.266 490.447 215.785 487.54 219.853C486.984 220.627 486.542 221.274 486.26 221.722C486.125 221.967 485.959 222.195 485.768 222.4C485.868 222.138 485.994 221.887 486.145 221.651C486.401 221.178 486.785 220.512 487.348 219.731C490.17 215.552 493.816 211.993 498.062 209.274C498.875 208.755 499.553 208.365 500.027 208.115C500.27 207.952 500.529 207.814 500.801 207.706Z" fill="#BBCDCE"/>
<path d="M454.837 217.773C455.173 217.736 455.511 217.723 455.848 217.734C456.488 217.734 457.442 217.734 458.607 217.811C459.977 217.882 461.34 218.057 462.683 218.336C464.341 218.673 465.929 219.287 467.381 220.154C468.82 221.049 470.115 222.158 471.221 223.443C472.116 224.48 472.94 225.577 473.685 226.726C474.325 227.699 474.811 228.512 475.138 229.075C475.326 229.357 475.485 229.657 475.611 229.971C475.397 229.709 475.2 229.433 475.023 229.146C474.664 228.602 474.146 227.814 473.487 226.861C472.716 225.746 471.88 224.677 470.984 223.661C469.895 222.416 468.629 221.338 467.227 220.461C465.805 219.616 464.255 219.007 462.639 218.656C461.314 218.368 459.971 218.171 458.619 218.067C457.461 217.971 456.52 217.92 455.867 217.882C455.521 217.879 455.176 217.842 454.837 217.773Z" fill="#BBCDCE"/>
<path d="M478.274 242.317C478.274 242.368 477.499 242.368 476.271 242.458C474.666 242.574 473.073 242.822 471.509 243.2C469.947 243.59 468.418 244.106 466.939 244.742C466.342 245.042 465.729 245.309 465.103 245.542C465.103 245.542 465.243 245.414 465.544 245.229C465.959 244.973 466.386 244.738 466.824 244.525C468.287 243.808 469.824 243.252 471.407 242.867C472.99 242.483 474.61 242.268 476.239 242.227C476.879 242.227 477.365 242.227 477.717 242.227C477.906 242.223 478.095 242.254 478.274 242.317Z" fill="#BBCDCE"/>
<path d="M501.928 244.954C501.864 245.024 498.728 242.003 494.888 238.208C491.048 234.413 488.053 231.29 488.117 231.219C488.181 231.149 491.317 234.17 495.157 237.965C498.997 241.76 501.999 244.89 501.928 244.954Z" fill="#BBCDCE"/>
<path d="M489.051 231.251C488.115 231.296 487.185 231.429 486.274 231.648C485.385 231.969 484.528 232.372 483.714 232.851C484.371 232.127 485.212 231.596 486.148 231.314C487.084 231.032 488.079 231.011 489.026 231.251H489.051Z" fill="#BBCDCE"/>
<path d="M484.143 239.078C484.091 239.078 483.765 238.438 483.112 237.517C482.247 236.294 481.252 235.17 480.143 234.163C478.863 232.973 477.583 231.994 476.68 231.283C476.167 230.923 475.686 230.521 475.24 230.08C475.801 230.361 476.333 230.698 476.827 231.085C478.073 231.948 479.259 232.893 480.379 233.914C481.508 234.934 482.496 236.101 483.317 237.382C483.561 237.771 483.775 238.177 483.957 238.598C484.047 238.746 484.11 238.909 484.143 239.078Z" fill="#BBCDCE"/>
<path d="M482.831 242.138C482.058 242.441 481.231 242.581 480.401 242.548C479.572 242.515 478.758 242.31 478.012 241.946C478.044 241.843 479.087 242.157 480.412 242.202C481.737 242.247 482.805 242.035 482.831 242.138Z" fill="#BBCDCE"/>
<path d="M487.809 219.718C487.854 219.75 487.406 220.403 486.792 221.517C485.991 222.961 485.329 224.479 484.814 226.048C484.308 227.621 483.955 229.239 483.758 230.88C483.611 232.16 483.585 232.934 483.528 232.934C483.481 232.753 483.464 232.565 483.477 232.378C483.46 231.872 483.473 231.365 483.515 230.861C483.775 227.508 484.826 224.264 486.581 221.395C486.84 220.951 487.126 220.524 487.438 220.115C487.656 219.853 487.784 219.706 487.809 219.718Z" fill="#BBCDCE"/>
<path d="M480.763 215.942C480.712 215.942 480.565 215.45 480.155 214.714C479.611 213.751 478.91 212.886 478.082 212.154C477.246 211.429 476.361 210.764 475.432 210.163C475.032 209.929 474.658 209.653 474.318 209.338C474.76 209.496 475.18 209.711 475.566 209.978C476.543 210.525 477.463 211.168 478.312 211.898C479.168 212.644 479.866 213.553 480.366 214.573C480.604 214.992 480.74 215.461 480.763 215.942Z" fill="#BBCDCE"/>
<path d="M479.688 186.976C479.637 186.976 479.221 186.208 478.408 184.992C476.364 181.81 473.733 179.045 470.657 176.845C469.486 176 468.737 175.565 468.737 175.488C468.941 175.551 469.135 175.641 469.313 175.757C469.833 176.023 470.337 176.318 470.824 176.64C474.014 178.756 476.685 181.565 478.638 184.858C479.009 185.498 479.278 186.01 479.457 186.381C479.562 186.567 479.64 186.768 479.688 186.976Z" fill="#BBCDCE"/>
<path d="M504.578 147.885C504.453 147.963 504.32 148.028 504.181 148.077L503.029 148.576C502.024 149.005 500.559 149.606 498.818 150.496C496.765 151.485 494.856 152.747 493.141 154.246C491.099 156.148 489.344 158.336 487.931 160.742C486.523 163.153 485.241 165.635 484.091 168.179L481.148 174.381L479.119 178.56C478.888 179.021 478.696 179.392 478.555 179.686C478.498 179.82 478.425 179.947 478.338 180.064C478.377 179.923 478.428 179.786 478.491 179.654C478.619 179.36 478.786 178.976 478.997 178.502L480.917 174.285L483.791 168.051C484.932 165.489 486.214 162.991 487.631 160.57C489.058 158.133 490.842 155.924 492.923 154.016C494.663 152.512 496.601 151.255 498.683 150.278C500.45 149.434 501.928 148.864 502.952 148.467L504.13 148.032C504.273 147.965 504.423 147.915 504.578 147.885Z" fill="#BBCDCE"/>
<path d="M481.281 135.04C481.484 135.311 481.657 135.603 481.8 135.91C482.113 136.48 482.536 137.325 483.022 138.387C485.559 143.929 487.196 149.84 487.873 155.898C488.001 157.056 488.072 158.003 488.097 158.65C488.128 158.988 488.128 159.329 488.097 159.667C488.021 159.337 487.974 159.001 487.956 158.662C487.892 158.022 487.777 157.082 487.624 155.93C487.214 152.925 486.604 149.951 485.8 147.027C484.983 144.112 483.976 141.254 482.785 138.47C482.331 137.408 481.94 136.55 481.665 135.955C481.513 135.661 481.385 135.355 481.281 135.04Z" fill="#BBCDCE"/>
<path d="M503.452 117.35C503.398 117.477 503.334 117.599 503.26 117.715L502.652 118.726C502.121 119.603 501.327 120.858 500.405 122.438C498.53 125.581 496.021 129.984 493.641 135.034C492.463 137.594 491.426 140.019 490.588 142.285C489.749 144.55 489.116 146.637 488.668 148.403C488.22 150.17 487.925 151.603 487.733 152.634C487.657 153.114 487.586 153.498 487.535 153.798C487.521 153.936 487.491 154.071 487.445 154.202C487.428 154.064 487.428 153.924 487.445 153.786C487.477 153.523 487.509 153.146 487.586 152.614C487.733 151.597 487.977 150.131 488.412 148.346C488.933 146.259 489.559 144.2 490.287 142.176C491.113 139.891 492.143 137.427 493.327 134.886C495.379 130.569 497.671 126.371 500.194 122.31C501.148 120.742 501.973 119.507 502.537 118.656L503.177 117.677C503.253 117.556 503.345 117.446 503.452 117.35Z" fill="#BBCDCE"/>
<path d="M309.614 50.8224L301.838 39.7312L314.478 45.28L313.774 28.3712L323.649 39.4496L331.803 26.2208L335.739 41.248L348.097 39.808L339.899 52.8128L353.32 61.3312L336.494 58.5088L335.937 72.2304L324.385 62.9696L312.257 73.152L313.723 59.776L298.472 58.5472L309.614 50.8224Z" fill="white"/>
<path d="M309.614 50.8224C309.614 50.8224 309.377 51.0016 308.904 51.3344L306.766 52.8384L298.51 58.5984L298.472 58.4576L313.729 59.6544H313.844V59.7696C313.409 63.776 312.923 68.2944 312.398 73.152L312.187 73.0368L324.308 62.8352L324.398 62.7648L324.488 62.8352L336.04 72.1088L335.79 72.224C335.963 67.872 336.148 63.264 336.34 58.496V58.3168H336.52L353.32 61.1712L353.204 61.472L340.52 53.4016L339.809 52.9536L339.668 52.864L339.758 52.7232L347.963 39.7248L348.116 39.9744L335.758 41.408H335.624L335.585 41.2736L331.656 26.24L331.931 26.2848C329.089 30.8842 326.369 35.2896 323.771 39.5008L323.668 39.6672L323.54 39.5264L313.678 28.4544L313.902 28.3648C314.158 34.6112 314.382 40.2624 314.587 45.2736V45.44L314.433 45.3696L301.8 39.7952L301.889 39.68L307.649 48L309.16 50.112C309.486 50.5856 309.64 50.8224 309.64 50.8224C309.64 50.8224 309.454 50.5792 309.115 50.1056L307.585 48L301.774 39.7888L301.614 39.5648L301.864 39.6736L314.523 45.1968L314.376 45.2992C314.158 40.288 313.915 34.6368 313.646 28.384V28.0256L313.883 28.2944L323.771 39.3664H323.54C326.126 35.1552 328.84 30.7456 331.681 26.1376L331.873 25.824L331.963 26.176L335.912 41.1968L335.739 41.0816L348.078 39.68L348.424 39.6416L348.238 39.9296C345.558 44.1962 342.826 48.5312 340.04 52.9344L339.988 52.704L340.699 53.152L353.409 61.2288L354.1 61.664L353.32 61.4976L336.494 58.6624L336.68 58.5152C336.488 63.2576 336.296 67.8848 336.116 72.2368V72.544L335.88 72.352L324.36 63.0784H324.539C320.212 66.7008 316.116 70.1184 312.379 73.2544L312.136 73.4528V73.1392C312.673 68.288 313.179 63.7696 313.62 59.7632L313.723 59.8848L298.472 58.6048H298.254L298.433 58.4832L306.702 52.8L308.865 51.3216L309.614 50.8224Z" fill="#263238"/>
<path d="M343.867 66.3936C343.867 66.3936 343.591 66.432 343.137 66.6176C342.496 66.891 341.955 67.3559 341.588 67.9488C341.332 68.3493 341.168 68.8018 341.108 69.2736C341.049 69.8125 341.147 70.3569 341.39 70.8416C341.638 71.4221 342.059 71.9119 342.596 72.244C343.133 72.5762 343.759 72.7345 344.389 72.6974C345.019 72.6603 345.623 72.4295 346.117 72.0367C346.611 71.6438 346.972 71.108 347.15 70.5024C347.334 69.9913 347.365 69.4374 347.239 68.9088C347.125 68.4393 346.907 68.0017 346.599 67.6288C346.165 67.0835 345.572 66.6856 344.903 66.4896C344.654 66.4299 344.402 66.3829 344.148 66.3488H344.347C344.43 66.343 344.513 66.343 344.596 66.3488C344.708 66.3613 344.819 66.3805 344.929 66.4064C345.634 66.5747 346.265 66.9678 346.727 67.5264C347.056 67.907 347.292 68.3581 347.419 68.8448C347.565 69.4092 347.538 70.0046 347.342 70.5536C347.138 71.1655 346.771 71.71 346.279 72.128C345.752 72.5792 345.096 72.8524 344.404 72.9088C343.711 72.9354 343.027 72.7404 342.452 72.352C341.912 72.0064 341.48 71.5164 341.204 70.9376C340.948 70.4137 340.85 69.8266 340.923 69.248C341.017 68.6511 341.266 68.0892 341.644 67.6178C342.022 67.1464 342.517 66.7818 343.079 66.56C343.186 66.5197 343.295 66.4876 343.406 66.464C343.485 66.4407 343.567 66.4278 343.649 66.4256C343.796 66.3872 343.867 66.3808 343.867 66.3936Z" fill="#263238"/>
<path d="M351.982 74.4576C351.982 74.4576 351.809 74.496 351.527 74.6176C351.134 74.7967 350.802 75.0884 350.574 75.456C350.402 75.7184 350.301 76.0207 350.281 76.3336C350.261 76.6465 350.322 76.9593 350.459 77.2416C350.625 77.5824 350.888 77.8664 351.216 78.0577C351.543 78.249 351.92 78.339 352.299 78.3164C352.677 78.2939 353.041 78.1597 353.343 77.9308C353.645 77.7019 353.873 77.3886 353.998 77.0304C354.1 76.7338 354.123 76.4158 354.066 76.1074C354.009 75.799 353.873 75.5106 353.671 75.2704C353.404 74.9316 353.04 74.6817 352.628 74.5536C352.334 74.464 352.155 74.4704 352.155 74.4512C352.316 74.4067 352.486 74.4067 352.647 74.4512C353.098 74.5535 353.504 74.7981 353.806 75.1488C354.015 75.3945 354.168 75.6828 354.254 75.9936C354.344 76.3573 354.328 76.7391 354.209 77.0944C354.085 77.5078 353.836 77.873 353.498 78.1406C353.159 78.4082 352.746 78.5651 352.315 78.5903C351.884 78.6154 351.456 78.5075 351.088 78.2812C350.721 78.0548 350.432 77.7209 350.26 77.3248C350.098 76.9868 350.037 76.6085 350.087 76.2368C350.134 75.9198 350.252 75.6177 350.433 75.3536C350.684 74.9652 351.058 74.6722 351.495 74.5216C351.65 74.4621 351.817 74.4402 351.982 74.4576Z" fill="#263238"/>
<path d="M321.806 43.6863L321.87 50.7263C321.874 51.0046 321.978 51.2719 322.164 51.4789C322.35 51.686 322.605 51.8188 322.881 51.8527C323.176 51.8899 323.474 51.8113 323.713 51.6336C323.951 51.4558 324.112 51.1926 324.161 50.8991L325.326 43.8591C325.336 43.737 325.322 43.614 325.283 43.4976C325.244 43.3813 325.182 43.274 325.101 43.1824C325.02 43.0907 324.92 43.0167 324.809 42.9647C324.698 42.9127 324.578 42.8838 324.455 42.8799L322.74 42.8095C322.621 42.8044 322.502 42.8231 322.39 42.8647C322.278 42.9062 322.175 42.9696 322.088 43.0513C322.001 43.133 321.931 43.2313 321.883 43.3403C321.834 43.4494 321.808 43.567 321.806 43.6863Z" fill="#263238"/>
<path d="M324.52 55.936C324.395 56.2527 324.179 56.5253 323.899 56.7194C323.62 56.9135 323.289 57.0203 322.948 57.0263C322.608 57.0323 322.274 56.9373 321.987 56.7533C321.701 56.5693 321.475 56.3045 321.339 55.9924C321.204 55.6803 321.163 55.3349 321.224 54.9999C321.284 54.6649 321.442 54.3553 321.678 54.1102C321.915 53.8651 322.218 53.6956 322.551 53.623C322.883 53.5504 323.23 53.578 323.547 53.7024C323.757 53.7851 323.95 53.9084 324.113 54.0655C324.276 54.2225 324.406 54.4101 324.496 54.6175C324.587 54.825 324.635 55.0482 324.639 55.2744C324.643 55.5007 324.603 55.7255 324.52 55.936Z" fill="#263238"/>
<path d="M327.169 43.9744L327.233 51.0144C327.236 51.2939 327.341 51.5628 327.528 51.7703C327.716 51.9778 327.973 52.1095 328.25 52.1408C328.545 52.1813 328.844 52.1049 329.083 51.9279C329.323 51.7509 329.483 51.4873 329.53 51.1936L330.695 44.1536C330.717 44.0282 330.712 43.8997 330.68 43.7765C330.648 43.6533 330.591 43.5384 330.51 43.4395C330.43 43.3407 330.33 43.2601 330.216 43.2033C330.102 43.1465 329.978 43.1148 329.85 43.1104L328.129 43.04C328.003 43.0308 327.876 43.0485 327.757 43.0918C327.638 43.1352 327.53 43.2032 327.439 43.2915C327.348 43.3798 327.277 43.4863 327.231 43.604C327.184 43.7217 327.163 43.8479 327.169 43.9744Z" fill="#263238"/>
<path d="M329.902 56.2304C329.777 56.5471 329.561 56.8198 329.281 57.0138C329.002 57.2079 328.671 57.3147 328.33 57.3207C327.99 57.3268 327.655 57.2318 327.369 57.0478C327.083 56.8637 326.857 56.5989 326.721 56.2868C326.585 55.9748 326.545 55.6294 326.605 55.2943C326.666 54.9593 326.824 54.6497 327.06 54.4046C327.296 54.1595 327.6 53.99 327.933 53.9174C328.265 53.8448 328.612 53.8725 328.929 53.9968C329.139 54.0795 329.332 54.2029 329.495 54.3599C329.657 54.5169 329.788 54.7045 329.878 54.912C329.968 55.1194 330.017 55.3426 330.021 55.5689C330.025 55.7951 329.984 56.0199 329.902 56.2304Z" fill="#263238"/>
<path d="M433.972 56.1856L439.815 47.8592L430.324 52.0192L430.849 39.328L423.438 47.6416L417.319 37.7152L414.356 48.992L405.082 47.9168L411.239 57.6768L401.159 64.0768L413.793 61.952L414.209 72.256L422.881 65.2992L431.988 72.9536L430.887 62.9056L442.343 61.984L433.972 56.1856Z" fill="white"/>
<path d="M433.96 56.1856L434.536 56.5632L436.168 57.6704L442.376 61.92L442.555 62.0416H442.337L430.888 62.9952L430.984 62.8736C431.323 65.8816 431.701 69.2736 432.104 72.9216L432.142 73.2352L431.899 73.0304L422.779 65.3952H422.958L414.293 72.3584L414.056 72.5504V72.2432C413.921 68.9792 413.781 65.504 413.633 61.9392L413.819 62.0928L401.185 64.2176L400.379 64.3584L401.07 63.9168L410.619 57.856L411.15 57.5168L411.099 57.7472C409 54.4576 406.952 51.2 404.942 48L404.757 47.7056L405.102 47.744L414.376 48.832L414.203 48.9536L417.166 37.6768L417.256 37.3248L417.448 37.632L423.56 47.5712H423.329L430.753 39.2512L430.997 38.9824V39.3408C430.798 44.032 430.613 48.3008 430.446 52.0384L430.299 51.936L439.803 47.8016L440.053 47.6928L439.899 47.9168L435.528 54.0672L434.395 55.6544L433.992 56.1984L434.35 55.6608L435.451 54.0672L439.771 47.8272L439.867 47.9424L430.382 52.1344L430.229 52.1984V52.032C430.376 48.2688 430.549 44.0256 430.734 39.3344L430.958 39.424L423.56 47.744L423.432 47.8912L423.329 47.7248L417.198 37.8048L417.48 37.76C416.526 41.3952 415.56 45.1648 414.529 49.0432L414.491 49.1776H414.35L405.077 48.1024L405.23 47.8464L411.381 57.6L411.464 57.7408L411.329 57.8304L410.792 58.1696L401.249 64.2304L401.134 63.9232L413.768 61.8048H413.947V61.984C414.088 65.5488 414.229 69.024 414.357 72.288L414.107 72.1792L422.785 65.2288L422.881 65.1584L422.971 65.2288L432.065 72.9088L431.861 73.024C431.464 69.376 431.099 65.984 430.779 62.976V62.8608H430.888L442.344 61.9712L442.28 62.08L436.085 57.7344L434.485 56.6016C434.145 56.32 433.96 56.1856 433.96 56.1856Z" fill="#263238"/>
<path d="M408.257 67.872C408.257 67.872 408.462 67.872 408.807 68.0448C409.288 68.2524 409.694 68.6005 409.972 69.0432C410.163 69.3434 410.286 69.6821 410.331 70.0352C410.373 70.4398 410.299 70.848 410.119 71.2128C409.93 71.6437 409.613 72.0062 409.212 72.2517C408.81 72.4972 408.343 72.6139 407.874 72.586C407.404 72.5581 406.954 72.387 406.584 72.0958C406.214 71.8045 405.943 71.407 405.806 70.9568C405.669 70.5748 405.645 70.1618 405.735 69.7664C405.848 69.3419 406.068 68.9536 406.374 68.6386C406.68 68.3237 407.062 68.0927 407.483 67.968C407.841 67.8656 408.052 67.8784 408.052 67.8592C408.001 67.8536 407.95 67.8536 407.899 67.8592C407.837 67.8536 407.775 67.8536 407.713 67.8592C407.631 67.8641 407.549 67.877 407.47 67.8976C407.021 68.0054 406.61 68.2325 406.28 68.5547C405.95 68.8769 405.713 69.2822 405.595 69.728C405.491 70.1514 405.511 70.5956 405.652 71.008C405.808 71.4633 406.087 71.8665 406.459 72.1728C406.853 72.515 407.346 72.7215 407.867 72.7616C408.386 72.7778 408.898 72.6324 409.332 72.3456C409.736 72.0822 410.06 71.7123 410.267 71.2768C410.462 70.8804 410.536 70.4349 410.478 69.9968C410.422 69.6236 410.284 69.2673 410.075 68.9536C409.78 68.4965 409.344 68.1481 408.833 67.9616C408.755 67.9289 408.673 67.9053 408.59 67.8912C408.53 67.8841 408.47 67.8841 408.411 67.8912L408.257 67.872Z" fill="#263238"/>
<path d="M402.164 73.9328C402.164 73.9328 402.292 73.9328 402.503 74.0544C402.804 74.186 403.055 74.4102 403.22 74.6944C403.35 74.8905 403.426 75.1169 403.442 75.3514C403.457 75.5859 403.412 75.8204 403.31 76.032C403.183 76.2813 402.99 76.4909 402.751 76.6377C402.513 76.7844 402.239 76.8627 401.959 76.864C401.673 76.8382 401.399 76.7304 401.172 76.5533C400.945 76.3762 400.774 76.1375 400.679 75.8656C400.601 75.6427 400.582 75.4033 400.625 75.1709C400.668 74.9385 400.77 74.7214 400.923 74.5408C401.122 74.2863 401.394 74.0987 401.703 74.0032C401.927 73.9392 402.062 73.9392 402.062 73.92C401.94 73.8921 401.813 73.8921 401.691 73.92C401.352 73.9983 401.047 74.182 400.82 74.4448C400.662 74.6304 400.549 74.8492 400.487 75.0848C400.408 75.3543 400.408 75.641 400.487 75.9104C400.591 76.2146 400.78 76.4825 401.032 76.6822C401.284 76.8819 401.588 77.005 401.908 77.0368C402.23 77.0457 402.548 76.9601 402.822 76.7907C403.096 76.6213 403.315 76.3753 403.451 76.0832C403.573 75.8311 403.618 75.548 403.579 75.2704C403.543 75.0405 403.455 74.8217 403.323 74.6304C403.133 74.3358 402.852 74.1111 402.523 73.9904C402.409 73.944 402.286 73.9243 402.164 73.9328Z" fill="#263238"/>
<path d="M424.82 50.8224L424.776 56.128C424.771 56.3353 424.691 56.5339 424.551 56.6868C424.411 56.8398 424.22 56.9368 424.014 56.96C423.799 56.9814 423.584 56.9217 423.411 56.7926C423.238 56.6635 423.12 56.4744 423.08 56.2624L422.209 50.9824C422.193 50.8877 422.197 50.7905 422.221 50.6974C422.245 50.6043 422.289 50.5175 422.35 50.4429C422.41 50.3683 422.486 50.3076 422.573 50.2648C422.659 50.2221 422.753 50.1983 422.849 50.1952L424.129 50.144C424.221 50.1365 424.313 50.1487 424.399 50.18C424.486 50.2112 424.564 50.2607 424.63 50.3251C424.696 50.3895 424.747 50.4672 424.779 50.553C424.812 50.6388 424.826 50.7307 424.82 50.8224Z" fill="#263238"/>
<path d="M422.773 60.0255C422.867 60.2591 423.029 60.4595 423.237 60.6016C423.445 60.7437 423.691 60.8213 423.943 60.8244C424.195 60.8276 424.442 60.7563 424.654 60.6195C424.865 60.4826 425.032 60.2863 425.132 60.0552C425.233 59.8241 425.263 59.5685 425.219 59.3203C425.175 59.0722 425.058 58.8426 424.884 58.6603C424.71 58.4781 424.486 58.3513 424.24 58.2959C423.994 58.2404 423.738 58.2588 423.502 58.3487C423.343 58.4095 423.198 58.5014 423.075 58.619C422.951 58.7366 422.853 58.8777 422.785 59.0338C422.717 59.19 422.681 59.3581 422.679 59.5284C422.677 59.6987 422.709 59.8677 422.773 60.0255Z" fill="#263238"/>
<path d="M420.795 51.0464L420.743 56.32C420.744 56.5303 420.667 56.7335 420.526 56.8897C420.385 57.046 420.191 57.144 419.982 57.1648C419.763 57.1923 419.543 57.1335 419.367 57.0008C419.191 56.8681 419.074 56.672 419.041 56.4544L418.164 51.2C418.149 51.1054 418.153 51.0086 418.178 50.9159C418.203 50.8233 418.247 50.7369 418.307 50.6626C418.368 50.5882 418.443 50.5275 418.529 50.4844C418.615 50.4414 418.708 50.4169 418.804 50.4128L420.084 50.3616C420.176 50.3581 420.268 50.3733 420.354 50.4062C420.44 50.439 420.519 50.4889 420.585 50.5529C420.651 50.6168 420.704 50.6934 420.74 50.7782C420.776 50.863 420.795 50.9542 420.795 51.0464Z" fill="#263238"/>
<path d="M418.747 60.2432C418.842 60.4768 419.003 60.6772 419.212 60.8193C419.42 60.9614 419.665 61.0389 419.917 61.0421C420.169 61.0452 420.417 60.9739 420.628 60.8371C420.84 60.7003 421.006 60.504 421.107 60.2729C421.208 60.0418 421.238 59.7861 421.194 59.538C421.149 59.2898 421.033 59.0602 420.859 58.878C420.685 58.6957 420.461 58.5689 420.215 58.5135C419.969 58.4581 419.712 58.4765 419.477 58.5664C419.318 58.6271 419.172 58.719 419.049 58.8367C418.926 58.9543 418.828 59.0953 418.76 59.2515C418.692 59.4076 418.656 59.5758 418.653 59.7461C418.651 59.9164 418.683 60.0854 418.747 60.2432Z" fill="#263238"/>
<path d="M512.507 298.24C512.507 298.336 451.829 298.406 376.994 298.406C302.159 298.406 241.461 298.323 241.461 298.24C241.461 298.157 302.133 298.074 376.994 298.074C451.855 298.074 512.507 298.138 512.507 298.24Z" fill="#263238"/>
<path d="M429.179 230.234H322.401V298.074H429.179V230.234Z" fill="#455A64"/>
<path d="M426.849 228.301H319.701C313.282 228.301 308.078 233.504 308.078 239.923V240.486C308.078 246.905 313.282 252.109 319.701 252.109H426.849C433.268 252.109 438.472 246.905 438.472 240.486V239.923C438.472 233.504 433.268 228.301 426.849 228.301Z" fill="#455A64"/>
<path d="M429.32 251.789C429.32 251.878 404.36 251.955 373.64 251.955C342.92 251.955 317.928 251.878 317.928 251.789C317.928 251.699 342.888 251.616 373.64 251.616C404.392 251.616 429.32 251.693 429.32 251.789Z" fill="#263238"/>
<path d="M336.68 298.624C336.59 298.624 336.514 288.282 336.514 275.526C336.514 262.771 336.59 252.429 336.68 252.429C336.77 252.429 336.846 262.765 336.846 275.526C336.846 288.288 336.757 298.624 336.68 298.624Z" fill="#263238"/>
<path d="M404.155 242.502C403.985 241.926 403.846 241.34 403.739 240.749C403.402 239.343 402.939 237.97 402.356 236.646C401.769 235.328 401.062 234.066 400.244 232.877C399.879 232.398 399.539 231.9 399.227 231.386C399.689 231.779 400.096 232.233 400.436 232.736C401.321 233.905 402.069 235.172 402.663 236.512C403.245 237.855 403.675 239.259 403.943 240.698C404.091 241.288 404.162 241.894 404.155 242.502Z" fill="#263238"/>
<path d="M409.89 238.944C409.832 238.944 409.595 238.259 409.026 237.229C408.279 235.89 407.307 234.691 406.152 233.683C404.991 232.684 403.669 231.89 402.242 231.334C401.141 230.918 400.411 230.784 400.424 230.694C400.598 230.682 400.773 230.697 400.942 230.739C401.409 230.818 401.869 230.934 402.318 231.085C405.325 232.101 407.81 234.26 409.237 237.094C409.451 237.518 409.629 237.959 409.768 238.413C409.839 238.581 409.881 238.761 409.89 238.944Z" fill="#263238"/>
<path d="M359.771 107.104L343.842 109.696L342.677 141.818V205.261H414.293V130.88L404.994 109.696L359.771 107.104Z" fill="#00ADB5"/>
<path d="M343.841 109.696C343.841 109.696 330.945 115.91 328.756 129.811C326.568 143.712 320.795 159.174 319.7 162.298C318.606 165.421 315.016 178.381 320.481 183.693C325.947 189.005 328.289 188.531 331.726 188.064C335.163 187.597 341.358 182.362 344.052 179.635C347.297 176.346 345.563 170.675 345.563 170.675L343.841 109.696Z" fill="#00ADB5"/>
<path d="M404.993 109.696C404.993 109.696 414.292 111.763 418.657 118.438C422.44 124.198 427.764 142.202 427.764 142.202C427.764 142.202 436.18 165.242 435.15 171.866C434.12 178.49 425.019 187.098 419.483 183.315C414.529 179.923 410.568 176.915 408.404 174.317C407.628 173.089 407.228 171.661 407.252 170.208L409.505 137.67L404.993 109.696Z" fill="#00ADB5"/>
<path d="M324.155 166.669C323.729 166.173 323.458 165.563 323.374 164.915C323.053 163.37 323.217 161.763 323.841 160.314C324.179 159.511 324.681 158.787 325.313 158.189C325.86 157.709 326.557 157.436 327.285 157.414C327.761 157.401 328.237 157.465 328.693 157.606C328.862 157.645 329.024 157.71 329.173 157.798C328.553 157.698 327.925 157.648 327.297 157.651C326.632 157.697 326.002 157.968 325.512 158.419C324.928 159.003 324.463 159.694 324.142 160.454C323.551 161.849 323.367 163.382 323.611 164.877C323.724 165.493 323.906 166.094 324.155 166.669Z" fill="#263238"/>
<path d="M345.128 140.762C345.013 138.788 345.013 136.809 345.128 134.835C345.136 132.857 345.258 130.88 345.493 128.915C345.591 130.89 345.581 132.868 345.461 134.842C345.457 136.82 345.346 138.796 345.128 140.762Z" fill="#263238"/>
<path d="M325.102 158.496C325.102 158.592 324.462 158.496 323.719 158.643C322.977 158.79 322.439 159.11 322.394 159.034C322.35 158.957 322.83 158.477 323.674 158.31C323.912 158.237 324.162 158.216 324.408 158.248C324.655 158.28 324.891 158.364 325.102 158.496Z" fill="#263238"/>
<path d="M407.624 134.848C407.477 134.255 407.376 133.652 407.323 133.043C407.163 131.93 406.926 130.394 406.6 128.71C406.274 127.027 405.909 125.51 405.634 124.422C405.453 123.839 405.318 123.242 405.23 122.637C405.507 123.185 405.722 123.763 405.87 124.358C406.297 125.769 406.651 127.2 406.933 128.646C407.223 130.091 407.437 131.55 407.573 133.018C407.652 133.624 407.669 134.238 407.624 134.848Z" fill="#263238"/>
<path d="M394.74 175.558C394.662 175.667 394.577 175.77 394.484 175.866L393.703 176.704C393.371 177.069 392.948 177.504 392.423 177.984C391.899 178.464 391.342 179.04 390.663 179.616C389.985 180.192 389.268 180.851 388.443 181.491C387.617 182.131 386.734 182.816 385.787 183.514C383.703 184.974 381.536 186.312 379.297 187.52C377.036 188.705 374.707 189.755 372.321 190.662C371.214 191.053 370.164 191.443 369.159 191.731C368.155 192.019 367.239 192.307 366.363 192.525C365.486 192.742 364.711 192.915 364.027 193.062C363.342 193.21 362.747 193.325 362.247 193.402L361.115 193.574C360.984 193.6 360.851 193.613 360.718 193.613C360.843 193.561 360.974 193.524 361.108 193.504L362.222 193.274C362.708 193.178 363.303 193.056 363.988 192.883C364.673 192.71 365.454 192.55 366.299 192.294C367.143 192.038 368.091 191.802 369.076 191.469C370.062 191.136 371.111 190.771 372.212 190.374C376.97 188.564 381.485 186.169 385.652 183.245C386.599 182.56 387.508 181.92 388.315 181.261C389.121 180.602 389.883 179.981 390.555 179.43C391.227 178.88 391.835 178.304 392.334 177.837C392.833 177.37 393.294 176.941 393.614 176.595L394.433 175.795C394.625 175.635 394.727 175.546 394.74 175.558Z" fill="#263238"/>
<g opacity="0.3">
<path d="M424.609 165.242C424.609 166.029 424.769 166.31 425.249 166.47C425.457 166.491 425.666 166.467 425.863 166.401C426.061 166.335 426.242 166.227 426.395 166.086C427.368 165.059 427.942 163.717 428.014 162.304C428.335 159.478 427.77 156.622 426.395 154.131C426.822 155.737 426.822 157.427 426.395 159.034L424.609 165.242Z" fill="black"/>
</g>
<g opacity="0.3">
<path d="M327.246 171.123C326.548 169.203 324.744 167.923 323.809 166.087C322.702 163.936 323.56 160.326 325.089 158.496C322.9 159.885 322.529 163.066 322.446 165.447C322.335 167.855 323.114 170.219 324.635 172.09C324.941 172.482 325.342 172.79 325.8 172.986C326.031 173.072 326.282 173.089 326.522 173.035C326.763 172.982 326.983 172.86 327.156 172.685C327.302 172.453 327.387 172.189 327.402 171.916C327.418 171.643 327.364 171.37 327.246 171.123Z" fill="black"/>
</g>
<path d="M337.768 134.746C336.831 133.71 335.975 132.604 335.208 131.437C334.352 130.331 333.585 129.158 332.917 127.93C333.854 128.965 334.71 130.072 335.477 131.238C336.335 132.343 337.101 133.516 337.768 134.746Z" fill="white"/>
<path d="M333.121 148.339C332.245 149.081 331.3 149.737 330.298 150.298C329.356 150.952 328.35 151.512 327.297 151.968C328.176 151.227 329.123 150.572 330.126 150.01C331.069 149.36 332.072 148.801 333.121 148.339Z" fill="white"/>
<path d="M346.331 153.12C345.317 152.369 344.371 151.532 343.502 150.618C342.559 149.783 341.69 148.869 340.903 147.885C341.916 148.637 342.859 149.478 343.719 150.4C344.667 151.229 345.54 152.14 346.331 153.12Z" fill="white"/>
<path d="M326.439 168.774C326.557 167.324 326.893 165.9 327.438 164.55C327.437 165.28 327.323 166.006 327.099 166.701C326.987 167.422 326.764 168.121 326.439 168.774Z" fill="white"/>
<path d="M324.834 180.243C324.757 180.307 323.458 178.778 321.678 177.043C319.899 175.309 318.337 174.074 318.395 173.99C318.795 174.183 319.167 174.429 319.502 174.72C321.19 176.014 322.724 177.498 324.072 179.142C324.375 179.473 324.631 179.843 324.834 180.243Z" fill="white"/>
<path d="M332.839 177.606C332.279 178.919 331.62 180.188 330.868 181.402C330.207 182.669 329.45 183.885 328.603 185.037C329.162 183.723 329.821 182.454 330.574 181.242C331.232 179.972 331.99 178.757 332.839 177.606Z" fill="white"/>
<path d="M340.52 177.83C340.449 177.894 339.476 176.832 338.145 175.674C336.814 174.515 335.643 173.69 335.694 173.606C336.682 174.057 337.587 174.671 338.369 175.424C339.22 176.096 339.947 176.91 340.52 177.83Z" fill="white"/>
<path d="M344.487 118.458C343.86 119.585 343.136 120.655 342.324 121.658C341.603 122.734 340.791 123.746 339.898 124.685C340.524 123.558 341.246 122.488 342.055 121.485C342.778 120.408 343.592 119.396 344.487 118.458Z" fill="white"/>
<path d="M354.203 118.093C353.173 117.101 352.22 116.031 351.355 114.893C350.415 113.819 349.559 112.674 348.795 111.469C349.823 112.462 350.775 113.532 351.643 114.669C352.581 115.744 353.437 116.889 354.203 118.093Z" fill="white"/>
<path d="M355.483 138.88C354.615 137.848 353.883 136.708 353.307 135.488C352.632 134.321 352.108 133.074 351.745 131.776C351.835 131.776 352.571 133.382 353.601 135.334C354.632 137.286 355.56 138.842 355.483 138.88Z" fill="white"/>
<path d="M368.078 132.166C366.622 131.819 365.195 131.359 363.809 130.79C362.384 130.331 360.994 129.768 359.649 129.107C361.105 129.454 362.532 129.912 363.918 130.477C365.343 130.94 366.734 131.505 368.078 132.166Z" fill="white"/>
<path d="M370.299 115.904C370.344 115.987 369.263 116.672 368.034 117.651C366.805 118.63 365.89 119.533 365.819 119.462C366.354 118.654 367.036 117.953 367.829 117.395C368.551 116.747 369.389 116.241 370.299 115.904Z" fill="white"/>
<path d="M363.188 154.31C362.786 152.732 362.491 151.128 362.305 149.51C362.011 147.908 361.825 146.287 361.748 144.659C362.154 146.237 362.451 147.841 362.638 149.459C362.935 151.061 363.119 152.682 363.188 154.31Z" fill="white"/>
<path d="M361.051 164.333C359.626 163.679 358.251 162.922 356.936 162.067C355.566 161.307 354.251 160.451 353 159.507C354.423 160.162 355.796 160.919 357.109 161.773C358.481 162.533 359.798 163.389 361.051 164.333Z" fill="white"/>
<path d="M352.149 177.645C351.619 176.567 351.19 175.442 350.869 174.285C350.443 173.16 350.119 171.999 349.902 170.816C350.432 171.894 350.861 173.019 351.182 174.176C351.608 175.301 351.932 176.462 352.149 177.645Z" fill="white"/>
<path d="M356.814 190.906C355.471 190.369 354.171 189.727 352.929 188.986C351.636 188.349 350.393 187.615 349.211 186.79C350.552 187.328 351.849 187.97 353.089 188.71C354.385 189.347 355.63 190.081 356.814 190.906Z" fill="white"/>
<path d="M370.19 174.573C369.641 176.439 368.988 178.272 368.232 180.064C367.579 181.896 366.82 183.689 365.96 185.434C366.511 183.569 367.165 181.735 367.918 179.942C368.573 178.111 369.332 176.318 370.19 174.573Z" fill="white"/>
<path d="M380.142 166.976C380.065 167.053 378.427 165.382 376.027 163.834C373.627 162.285 371.457 161.434 371.496 161.338C372 161.429 372.489 161.591 372.948 161.818C375.227 162.778 377.314 164.139 379.112 165.837C379.505 166.168 379.852 166.551 380.142 166.976Z" fill="white"/>
<path d="M389.211 151.296C388.428 152.374 387.559 153.387 386.612 154.323C385.743 155.331 384.792 156.267 383.771 157.12C384.55 156.04 385.419 155.027 386.369 154.093C387.234 153.081 388.185 152.145 389.211 151.296Z" fill="white"/>
<path d="M380.143 149.274C380.04 149.274 379.746 147.603 378.959 145.664C378.171 143.725 377.243 142.291 377.327 142.234C378.17 143.203 378.822 144.323 379.247 145.536C379.784 146.712 380.088 147.982 380.143 149.274Z" fill="white"/>
<path d="M384.187 127.168C384.257 127.232 382.983 128.787 381.569 130.822C380.155 132.858 379.124 134.586 379.041 134.534C379.172 134.111 379.362 133.708 379.604 133.338C380.638 131.475 381.861 129.723 383.252 128.109C383.516 127.752 383.831 127.435 384.187 127.168Z" fill="white"/>
<path d="M381.409 121.287C380.727 120.258 380.14 119.17 379.655 118.035C379.071 116.951 378.587 115.816 378.209 114.643C378.887 115.673 379.472 116.761 379.956 117.895C380.541 118.98 381.027 120.115 381.409 121.287Z" fill="white"/>
<path d="M400.52 160.41C399.616 161.391 398.634 162.297 397.582 163.117C396.602 164.022 395.547 164.843 394.427 165.568C395.334 164.59 396.316 163.685 397.364 162.861C398.346 161.957 399.401 161.137 400.52 160.41Z" fill="white"/>
<path d="M397.038 143.642C395.751 143.404 394.487 143.053 393.262 142.592C392.003 142.243 390.776 141.787 389.595 141.229C390.879 141.472 392.14 141.823 393.364 142.278C394.624 142.631 395.853 143.087 397.038 143.642Z" fill="white"/>
<path d="M399.399 133.574C399.957 132.226 400.613 130.921 401.364 129.67C402.022 128.367 402.777 127.116 403.623 125.926C403.069 127.276 402.412 128.581 401.659 129.83C401.004 131.135 400.248 132.387 399.399 133.574Z" fill="white"/>
<path d="M407.918 115.776C406.075 115.566 404.245 115.245 402.44 114.816C400.611 114.499 398.803 114.071 397.025 113.536C398.869 113.742 400.699 114.061 402.504 114.49C404.332 114.811 406.14 115.24 407.918 115.776Z" fill="white"/>
<path d="M411.918 124.333C412.348 123.034 412.885 121.773 413.524 120.563C414.063 119.305 414.705 118.093 415.444 116.941C415.008 118.236 414.469 119.495 413.832 120.704C413.291 121.962 412.651 123.176 411.918 124.333Z" fill="white"/>
<path d="M420.705 139.283C419.391 138.265 418.144 137.162 416.974 135.981C415.732 134.878 414.564 133.693 413.479 132.435C414.793 133.452 416.038 134.555 417.204 135.738C418.449 136.84 419.619 138.024 420.705 139.283Z" fill="white"/>
<path d="M419.15 152.48C419.822 151.408 420.587 150.398 421.435 149.459C422.202 148.447 423.059 147.507 423.995 146.65C423.321 147.72 422.557 148.731 421.71 149.67C420.942 150.681 420.085 151.621 419.15 152.48Z" fill="white"/>
<path d="M406.933 180.48C407.517 178.838 408.205 177.235 408.993 175.68C409.682 174.079 410.471 172.523 411.355 171.021C410.771 172.663 410.083 174.266 409.294 175.821C408.606 177.422 407.817 178.978 406.933 180.48Z" fill="white"/>
<path d="M402.023 188.915C400.88 187.578 399.826 186.167 398.868 184.691C397.818 183.278 396.856 181.801 395.988 180.269C397.126 181.613 398.18 183.025 399.143 184.499C400.192 185.912 401.154 187.386 402.023 188.915Z" fill="white"/>
<path d="M389.57 194.714C389.12 195.957 388.566 197.161 387.912 198.31C387.357 199.512 386.704 200.666 385.96 201.76C386.409 200.514 386.963 199.308 387.618 198.157C388.176 196.959 388.829 195.808 389.57 194.714Z" fill="white"/>
<path d="M378.504 203.398C376.58 201.192 374.832 198.838 373.275 196.358C374.272 197.432 375.19 198.576 376.021 199.782C376.939 200.923 377.77 202.132 378.504 203.398Z" fill="white"/>
<path d="M355.182 202.182C354.349 201.315 353.595 200.375 352.929 199.373C352.175 198.432 351.511 197.423 350.945 196.358C351.778 197.229 352.531 198.171 353.198 199.174C353.951 200.113 354.616 201.12 355.182 202.182Z" fill="white"/>
<path d="M384.993 182.861C384.897 182.861 384.82 181.581 384.475 180.122C384.129 178.662 383.662 177.478 383.751 177.434C384.279 178.224 384.637 179.115 384.801 180.051C385.063 180.964 385.128 181.921 384.993 182.861Z" fill="white"/>
<path d="M383.765 191.712C383.543 190.786 383.543 189.822 383.765 188.896C383.987 189.822 383.987 190.786 383.765 191.712Z" fill="white"/>
<path d="M427.406 175.418C427.355 175.501 426.03 174.778 424.308 174.061C422.587 173.344 421.147 172.896 421.172 172.781C422.305 172.917 423.407 173.237 424.436 173.728C425.511 174.127 426.514 174.697 427.406 175.418Z" fill="white"/>
<path d="M433.639 162.343C432.714 162.564 431.749 162.564 430.823 162.343C431.749 162.121 432.714 162.121 433.639 162.343Z" fill="white"/>
<g opacity="0.3">
<path d="M389.07 114.022C386.721 117.862 386.241 122.56 386.843 126.995C387.444 131.43 389.044 135.654 390.638 139.834C394.307 149.476 397.976 159.119 401.646 168.762C402.708 171.571 403.815 174.438 405.774 176.717C406.845 177.868 408.18 178.742 409.664 179.261C411.148 179.781 412.737 179.931 414.292 179.699C411.668 177.178 407.892 173.638 407.732 173.229C406.99 170.893 407.572 166.829 407.246 164.416C406.747 160.691 404.347 156.864 402.734 153.472C398.894 145.365 395.039 137.272 391.169 129.19C389.831 126.374 388.468 123.136 389.646 120.23C390.151 118.995 391.105 117.92 391.31 116.602C391.515 115.283 390.324 113.651 389.095 114.176" fill="black"/>
</g>
<g opacity="0.3">
<path d="M342.677 186.304C347.336 184.698 349.166 179.232 351.118 174.707C356.358 162.564 361.602 150.426 366.85 138.291C367.938 135.731 369.045 133.171 369.23 130.432C369.416 127.693 368.501 124.71 366.261 123.117C359.138 132.122 352.034 141.261 346.997 151.578C343.451 158.835 344.136 165.133 346.197 172.23C347.406 176.397 342.677 180.435 342.677 181.024C342.677 183.584 342.677 184.966 342.677 186.304Z" fill="black"/>
</g>
<path d="M359.541 92.736C358.229 88.4864 356.936 84.2048 356.379 79.7888C355.823 75.3728 356.027 70.7904 357.659 66.6432C357.903 66.0032 359.97 61.8112 360.642 61.888C361.122 61.9392 359.823 65.8752 360.059 66.2976C362.312 70.304 362.869 75.0912 362.427 79.6736C361.959 84.1207 360.998 88.5018 359.56 92.736" fill="#263238"/>
<path d="M384.103 117.76C384.187 114.618 384.257 112.141 384.283 112.141C384.308 112.141 395.073 111.219 395.943 100.55C396.366 95.3985 396.366 84.7105 396.257 75.0465C396.198 70.0372 394.256 65.2334 390.817 61.5906C387.379 57.9477 382.695 55.7326 377.697 55.3857L376.667 55.3153C365.511 55.1937 359.182 64.6017 359.387 75.7569L358.811 114.797L376.251 129.69L384.103 117.76Z" fill="#C78976"/>
<path d="M384.359 112.147C379.428 111.793 374.701 110.032 370.74 107.072C370.74 107.072 373.595 115.072 384.315 114.848L384.359 112.147Z" fill="#A3615C"/>
<path d="M391.54 83.0272C391.517 83.4245 391.339 83.7969 391.045 84.0648C390.751 84.3327 390.364 84.4749 389.966 84.4608C389.771 84.4634 389.578 84.4269 389.397 84.3536C389.216 84.2802 389.052 84.1714 388.915 84.0336C388.777 83.8958 388.668 83.7318 388.595 83.5512C388.521 83.3707 388.485 83.1773 388.487 82.9824C388.512 82.5852 388.69 82.2131 388.984 81.9444C389.277 81.6758 389.664 81.5317 390.062 81.5424C390.257 81.5398 390.451 81.5765 390.632 81.6503C390.813 81.7241 390.977 81.8334 391.115 81.9719C391.253 82.1104 391.362 82.2752 391.435 82.4565C391.508 82.6377 391.544 82.8318 391.54 83.0272Z" fill="#263238"/>
<path d="M393.64 79.36C393.441 79.5456 392.36 78.6112 390.702 78.5024C389.044 78.3936 387.803 79.1424 387.636 78.912C387.553 78.8224 387.771 78.4768 388.321 78.1312C389.066 77.6888 389.928 77.4855 390.792 77.5488C391.646 77.604 392.46 77.9315 393.115 78.4832C393.64 78.8736 393.768 79.2448 393.64 79.36Z" fill="#263238"/>
<path d="M376.226 82.7008C376.204 83.0992 376.027 83.4733 375.733 83.7425C375.438 84.0118 375.05 84.1548 374.651 84.1408C374.456 84.1425 374.263 84.1053 374.082 84.0312C373.902 83.9571 373.738 83.8477 373.6 83.7094C373.462 83.5711 373.353 83.4066 373.28 83.2258C373.207 83.0449 373.17 82.8512 373.173 82.656C373.198 82.2593 373.376 81.8879 373.67 81.6203C373.964 81.3527 374.35 81.21 374.747 81.2224C374.942 81.2198 375.136 81.2563 375.316 81.3297C375.497 81.4031 375.661 81.5119 375.799 81.6497C375.936 81.7875 376.045 81.9515 376.118 82.132C376.192 82.3126 376.228 82.506 376.226 82.7008Z" fill="#263238"/>
<path d="M377.55 78.8801C377.345 79.0657 376.27 78.1313 374.606 78.0225C372.942 77.9137 371.706 78.6625 371.546 78.4385C371.463 78.3425 371.681 77.9969 372.231 77.6513C372.975 77.2076 373.838 77.0063 374.702 77.0753C375.555 77.1313 376.368 77.4562 377.025 78.0033C377.498 78.4257 377.639 78.7969 377.55 78.8801Z" fill="#263238"/>
<path d="M382.562 91.8912C382.562 91.8016 383.598 91.6928 385.262 91.5968C385.685 91.5968 386.088 91.5264 386.178 91.2448C386.247 90.8086 386.18 90.3614 385.986 89.9648C385.659 88.9216 385.346 87.8336 384.968 86.688C383.56 82.0288 382.568 78.208 382.76 78.1504C382.952 78.0928 384.238 81.8304 385.646 86.4704L386.613 89.7664C386.838 90.2903 386.874 90.8764 386.715 91.424C386.645 91.5678 386.543 91.6935 386.416 91.7912C386.29 91.8889 386.142 91.956 385.986 91.9872C385.75 92.0338 385.509 92.051 385.269 92.0384C383.598 92.0512 382.562 91.9872 382.562 91.8912Z" fill="#263238"/>
<path d="M381.319 98.4449C381.057 98.4833 380.89 96.7105 379.252 95.5841C377.614 94.4577 375.738 94.8289 375.706 94.5857C375.668 94.4769 376.097 94.2017 376.89 94.1057C377.932 93.998 378.978 94.2584 379.847 94.8417C380.69 95.4094 381.276 96.2849 381.479 97.2801C381.601 97.9841 381.441 98.4449 381.319 98.4449Z" fill="#263238"/>
<path d="M370.376 74.8352C370.376 74.3616 371.989 73.9904 373.717 73.1072C375.445 72.224 376.731 71.1872 377.109 71.4688C377.282 71.6096 377.173 72.1088 376.731 72.7488C376.128 73.5361 375.354 74.1758 374.466 74.6193C373.579 75.0629 372.603 75.2987 371.611 75.3088C370.843 75.264 370.382 75.0592 370.376 74.8352Z" fill="#263238"/>
<path d="M387.118 71.6801C387.553 71.3985 388.814 72.1025 390.433 72.5057C392.052 72.9089 393.499 72.9793 393.723 73.4337C393.819 73.6513 393.512 73.9649 392.827 74.1633C391.891 74.3923 390.912 74.3747 389.985 74.1121C389.055 73.8841 388.201 73.4162 387.508 72.7553C387.022 72.2241 386.926 71.8017 387.118 71.6801Z" fill="#263238"/>
<path d="M359.72 83.7248C359.547 83.6352 352.533 81.0496 352.264 88.3648C351.995 95.68 359.394 94.4448 359.413 94.2336C359.432 94.0224 359.72 83.7248 359.72 83.7248Z" fill="#C78976"/>
<path d="M357.249 91.3792C357.249 91.3792 357.121 91.4688 356.897 91.5584C356.591 91.6812 356.249 91.6812 355.943 91.5584C355.182 91.2448 354.58 89.9968 354.593 88.6784C354.596 88.0507 354.741 87.4317 355.015 86.8672C355.092 86.6399 355.223 86.4348 355.397 86.2698C355.571 86.1047 355.783 85.9846 356.014 85.92C356.161 85.8857 356.316 85.9048 356.451 85.9739C356.586 86.0431 356.692 86.1578 356.75 86.2976C356.839 86.5088 356.788 86.6496 356.827 86.6688C356.865 86.688 356.987 86.5472 356.942 86.2464C356.91 86.0641 356.814 85.8988 356.673 85.7792C356.576 85.6984 356.464 85.6375 356.343 85.6002C356.222 85.5628 356.095 85.5497 355.969 85.5616C355.667 85.6108 355.382 85.7367 355.142 85.9272C354.903 86.1176 354.716 86.3664 354.599 86.6496C354.263 87.271 354.085 87.9656 354.081 88.672C354.081 90.1504 354.779 91.552 355.822 91.872C356.016 91.9359 356.221 91.9559 356.424 91.9304C356.627 91.9049 356.821 91.8347 356.993 91.7248C357.23 91.5584 357.275 91.3984 357.249 91.3792Z" fill="#A3615C"/>
<path d="M391.86 62.7968C393.063 62.1568 389.62 58.24 386.74 56.8384C382.401 54.72 375.713 53.2992 371.63 54.336C366.708 55.584 362.58 57.8944 360.001 62.272C357.422 66.6496 356.359 71.8016 356.359 76.8768C356.359 78.4256 356.475 80.0448 357.262 81.3568C358.241 83.0016 360.174 84.0768 360.02 86.304C359.946 87.1196 360.197 87.9314 360.718 88.5632C361.998 90.0224 363.694 88.7296 364.487 87.4112C366.177 84.5888 366.452 81.1776 366.683 77.8944C366.849 75.5648 367.015 73.184 366.42 70.9248C366.094 69.6896 365.55 68.5248 365.294 67.2768C365.131 66.6607 365.105 66.0166 365.215 65.3891C365.326 64.7615 365.571 64.1653 365.934 63.6416C366.128 63.4253 366.342 63.2281 366.574 63.0528C367.62 62.1931 368.876 61.6268 370.213 61.412C371.55 61.1972 372.92 61.3416 374.183 61.8304C378.267 63.3984 385.243 65.7792 387.118 64.4288C389.819 62.5088 390.491 61.2288 390.491 61.2288L391.86 62.7968Z" fill="#263238"/>
<path d="M382.76 55.072C383.232 55.3574 383.65 55.7235 383.995 56.1536C384.935 57.1107 385.698 58.2266 386.248 59.4496C386.804 60.6987 386.958 62.0898 386.69 63.4304C386.619 63.994 386.368 64.5196 385.973 64.928C385.896 64.8896 386.203 64.3392 386.338 63.3664C386.482 62.0996 386.29 60.8171 385.781 59.648C385.24 58.4797 384.549 57.3868 383.726 56.3968C383.086 55.6096 382.69 55.1232 382.76 55.072Z" fill="#455A64"/>
<path d="M387.726 58.7201C387.783 58.7201 388.001 59.0465 388.148 59.6865C388.328 60.5271 388.311 61.3981 388.098 62.2309C387.885 63.0637 387.481 63.8358 386.919 64.4865C386.478 64.9793 386.119 65.1777 386.081 65.1265C386.043 65.0753 387.15 63.9297 387.598 62.0993C388.046 60.2689 387.579 58.7585 387.726 58.7201Z" fill="#455A64"/>
<path d="M377.716 84.8641C377.444 85.1038 377.123 85.2827 376.776 85.3889C375.124 86.0227 373.294 86.0044 371.656 85.3377C371.309 85.2281 370.992 85.0422 370.728 84.7937C371.846 85.2065 373.019 85.4503 374.209 85.5169C375.404 85.471 376.585 85.2511 377.716 84.8641Z" fill="#A3615C"/>
<path d="M375.63 86.8224C375.63 86.8608 375.393 87.0208 374.932 87.1552C374.32 87.3259 373.677 87.3587 373.05 87.2512C372.425 87.148 371.83 86.9124 371.303 86.56C370.906 86.2848 370.721 86.048 370.746 86.016C371.487 86.4279 372.282 86.7318 373.108 86.9184C373.949 87.0048 374.798 86.9725 375.63 86.8224Z" fill="#A3615C"/>
<path d="M394.587 83.9104C394.587 83.9104 394.402 84.3264 393.858 84.8064C393.135 85.4309 392.242 85.8254 391.293 85.9394C390.344 86.0535 389.383 85.8818 388.533 85.4464C388.171 85.2972 387.853 85.0569 387.611 84.7488C387.643 84.704 387.995 84.9664 388.635 85.2352C389.463 85.5829 390.368 85.7068 391.259 85.5944C392.149 85.4821 392.995 85.1375 393.711 84.5952C394.28 84.2176 394.543 83.872 394.587 83.9104Z" fill="#A3615C"/>
<path d="M392.404 136.128C392.635 136.474 405.025 167.366 411.156 172.448C416.948 167.11 427.022 158.477 417.639 149.888L400.116 124.589L392.404 136.128Z" fill="#C78976"/>
<path d="M392.462 136.397C392.738 136.723 389.966 129.997 389.262 127.174C388.846 125.504 387.298 122.285 388.226 119.974C388.9 118.351 389.672 116.769 390.536 115.238L386.696 112.006C386.696 112.006 378.606 110.157 378.03 108.806C377.454 107.456 378.03 106.726 378.03 106.726L384.731 107.648C384.731 107.648 375.374 102.221 378.261 98.6368C378.261 98.6368 382.741 102.125 386.011 102.771L391.08 105.536C391.08 105.536 392.002 105.114 391.771 102.093C391.541 99.072 391.08 98.144 391.08 98.144C391.08 98.144 386.6 92.256 387.381 89.5936L388.309 87.7504L393.621 93.6384L395.01 96.4096C395.01 96.4096 394.427 87.3984 397.781 86.9376L398.933 97.3376L397.781 104.672C398.286 106.16 398.671 107.686 398.933 109.235C399.163 111.085 400.091 124.365 400.091 124.365L402.28 127.565" fill="#C78976"/>
<path d="M402.293 127.533C402.238 127.469 402.187 127.403 402.139 127.334L401.71 126.739C401.333 126.195 400.776 125.414 400.059 124.397C399.899 122.419 399.681 119.725 399.419 116.39C399.291 114.726 399.144 112.896 398.99 110.925C398.873 108.81 398.442 106.724 397.71 104.736V104.678C398.069 102.394 398.453 99.9297 398.856 97.3441V97.3761C398.491 94.1761 398.094 90.6561 397.685 86.9825L397.851 87.1105C397.461 87.2047 397.101 87.3953 396.803 87.6648C396.506 87.9342 396.281 88.2739 396.149 88.6529C395.806 89.4367 395.571 90.2635 395.451 91.1105C395.195 92.8709 395.115 94.6526 395.214 96.4289L395.253 97.1713L394.92 96.5313C394.485 95.6737 394.011 94.7201 393.531 93.7601V93.7985L388.219 87.9105L388.488 87.8721C388.193 88.4481 387.88 89.0817 387.56 89.7217C387.412 90.4498 387.477 91.205 387.745 91.8977C387.985 92.6396 388.289 93.3592 388.654 94.0481C389.399 95.4704 390.255 96.8315 391.214 98.1185C391.525 99.0098 391.722 99.9365 391.803 100.877C391.912 101.696 391.963 102.521 391.957 103.347C391.95 103.765 391.899 104.182 391.803 104.589C391.754 104.798 391.683 105.002 391.592 105.197C391.497 105.419 391.339 105.608 391.137 105.741L391.067 105.779L390.984 105.734L385.96 102.886H386.005C384.54 102.518 383.14 101.931 381.851 101.146C380.58 100.414 379.357 99.6018 378.19 98.7137H378.414C378.095 99.0956 377.913 99.5731 377.896 100.07C377.905 100.571 378.025 101.063 378.248 101.51C378.723 102.406 379.344 103.217 380.085 103.91C381.53 105.277 383.123 106.479 384.833 107.494L385.473 107.872L384.744 107.776L378.043 106.842L378.177 106.79C378.062 106.994 377.988 107.217 377.959 107.449C377.931 107.681 377.948 107.916 378.011 108.141C378.058 108.364 378.136 108.579 378.241 108.781C378.384 108.962 378.56 109.114 378.76 109.229C379.604 109.699 380.494 110.08 381.416 110.368C383.233 111.008 385.025 111.456 386.753 111.872H386.785L390.587 115.11L390.664 115.174L390.613 115.264C389.8 116.699 389.067 118.178 388.417 119.693C387.777 121.114 388.04 122.65 388.366 123.962C388.693 125.274 389.198 126.49 389.467 127.642C389.736 128.794 390.152 129.792 390.472 130.707C391.112 132.525 391.649 133.939 392.008 134.912C392.181 135.392 392.315 135.757 392.392 136.006C392.427 136.098 392.454 136.192 392.475 136.288C392.481 136.315 392.481 136.344 392.475 136.371C392.343 135.882 392.17 135.404 391.957 134.944C391.585 133.99 391.035 132.589 390.363 130.765C390.03 129.856 389.665 128.845 389.326 127.699C388.987 126.554 388.558 125.363 388.2 124.019C388.004 123.326 387.882 122.614 387.835 121.894C387.785 121.116 387.923 120.337 388.238 119.622C388.881 118.088 389.612 116.593 390.427 115.142V115.29L386.587 112.09H386.645C384.897 111.68 383.105 111.213 381.269 110.605C380.325 110.31 379.413 109.92 378.549 109.44C378.313 109.307 378.108 109.126 377.947 108.909C377.818 108.672 377.725 108.418 377.672 108.154C377.598 107.887 377.58 107.608 377.618 107.334C377.657 107.06 377.751 106.796 377.896 106.56L377.934 106.496H378.024L384.725 107.418L384.629 107.699C382.895 106.674 381.281 105.459 379.816 104.077C379.039 103.362 378.39 102.52 377.896 101.587C377.645 101.098 377.514 100.556 377.512 100.006C377.529 99.437 377.737 98.8897 378.101 98.4513L378.197 98.3361L378.325 98.4257C379.479 99.3046 380.689 100.108 381.947 100.832C383.208 101.596 384.575 102.167 386.005 102.528L391.073 105.318H390.926C391.055 105.218 391.157 105.086 391.221 104.934C391.304 104.763 391.369 104.583 391.413 104.397C391.499 104.01 391.546 103.616 391.553 103.219C391.559 102.41 391.508 101.602 391.4 100.8C391.319 99.9006 391.135 99.0136 390.849 98.1569C389.872 96.8547 389.001 95.4765 388.245 94.0353C387.871 93.3292 387.559 92.5927 387.31 91.8337C387.024 91.0758 386.962 90.2515 387.131 89.4593L388.059 87.6097L388.168 87.3985L388.328 87.5777L393.633 93.4657L395.016 96.2369L394.721 96.3201C394.62 94.52 394.704 92.7143 394.971 90.9313C395.096 90.0493 395.339 89.1882 395.694 88.3713C395.874 87.9615 396.128 87.5884 396.443 87.2705C396.763 86.9431 397.181 86.7296 397.633 86.6625H397.781V86.8161C398.184 90.4897 398.568 93.9905 398.92 97.2097V97.2481C398.504 99.8081 398.113 102.298 397.749 104.582V104.525C398.107 105.604 398.406 106.671 398.645 107.725C398.764 108.238 398.854 108.757 398.913 109.28C398.952 109.792 398.984 110.298 399.022 110.79C399.169 112.768 399.304 114.598 399.425 116.269C399.662 119.603 399.861 122.304 400.001 124.282L401.614 126.65L402.024 127.29C402.12 127.363 402.21 127.445 402.293 127.533Z" fill="#A3615C"/>
<path d="M394.28 118.438C393.47 118.182 392.719 117.766 392.072 117.216C391.348 116.745 390.797 116.051 390.504 115.238C391.058 115.847 391.65 116.42 392.277 116.954C392.978 117.402 393.647 117.898 394.28 118.438Z" fill="#A3615C"/>
<path d="M391.457 126.586C391.278 126.15 391.163 125.691 391.118 125.222C390.753 122.973 391.003 120.666 391.841 118.547C391.986 118.089 392.202 117.657 392.481 117.267C392.597 117.306 391.669 119.258 391.381 121.85C391.093 124.442 391.579 126.573 391.457 126.586Z" fill="#A3615C"/>
<path d="M395.63 111.763C395.099 111.542 394.587 111.276 394.101 110.97C392.89 110.308 391.642 109.719 390.363 109.203C389.085 108.687 387.766 108.278 386.421 107.981C385.854 107.888 385.292 107.766 384.737 107.616C385.316 107.579 385.898 107.622 386.465 107.744C387.842 107.98 389.19 108.364 390.485 108.89C391.778 109.411 393.026 110.038 394.216 110.765C394.723 111.044 395.197 111.379 395.63 111.763Z" fill="#A3615C"/>
<path d="M397.678 108.41C397.309 108.401 396.944 108.334 396.596 108.211C395.739 107.989 394.899 107.706 394.081 107.366C392.906 106.926 391.822 106.276 390.881 105.446C390.938 105.357 392.334 106.291 394.209 107.085C396.084 107.878 397.71 108.301 397.678 108.41Z" fill="#A3615C"/>
<path d="M397.793 104.672C397.511 104.333 397.294 103.945 397.153 103.526C396.749 102.552 396.399 101.557 396.104 100.544C395.752 99.3665 395.464 98.2913 395.252 97.5105C395.107 97.0954 395.004 96.6665 394.945 96.2305C395.186 96.598 395.366 97.0022 395.477 97.4273C395.745 98.1889 396.072 99.2577 396.424 100.435C396.776 101.613 397.102 102.675 397.377 103.43C397.542 103.835 397.681 104.25 397.793 104.672Z" fill="#A3615C"/>
<path d="M363.029 133.875C364.103 133.321 365.026 132.514 365.72 131.524C366.413 130.534 366.856 129.391 367.01 128.192C367.483 124.122 367.861 119.194 367.861 119.194C368.345 118.377 368.758 117.521 369.096 116.634C369.281 115.872 379.752 110.003 379.752 110.003C379.752 110.003 380.123 108.41 377.051 108.582C373.979 108.755 368.238 111.52 368.238 111.52L369.947 106.4C371.746 104.65 373.339 102.7 374.696 100.589C375.067 99.942 375.196 99.184 375.058 98.4509C374.921 97.7178 374.527 97.0576 373.947 96.5888L373.665 96.3649C373.665 96.3649 373.666 94.5601 372.693 94.1825C372.693 94.1825 364.642 98.7329 364.373 99.3025C364.104 99.8721 368.162 93.1457 363.042 91.7249L360.014 99.8721L358.798 102.803C358.798 102.803 358.286 107.994 358.094 109.696C357.902 111.398 357.077 123.744 355.938 125.542" fill="#C78976"/>
<path d="M355.925 125.542L356.078 125.158C356.212 124.783 356.316 124.398 356.392 124.006C356.616 122.976 356.846 121.446 357.07 119.456C357.294 117.466 357.525 115.059 357.755 112.256C357.986 109.453 358.325 106.278 358.658 102.79V102.752L359.707 100.192C360.066 99.3152 360.347 98.4 360.731 97.472L362.882 91.6608L362.933 91.5328L363.067 91.5712C363.809 91.7512 364.479 92.153 364.987 92.7232C365.486 93.3436 365.757 94.1161 365.755 94.912C365.76 95.6985 365.639 96.4807 365.397 97.2288C365.282 97.6077 365.145 97.9796 364.987 98.3424C364.91 98.528 364.827 98.7072 364.738 98.8864L364.603 99.1552L364.526 99.2896L364.488 99.36V99.3984C364.283 99.5264 364.136 99.0528 364.219 99.2384V99.2064C364.355 99.0232 364.522 98.8651 364.712 98.7392L365.211 98.4C365.544 98.1739 365.883 97.9606 366.229 97.76C366.914 97.3376 367.611 96.9152 368.315 96.48C369.723 95.6267 371.161 94.7947 372.629 93.984L372.699 93.9392L372.776 93.9712C372.98 94.0736 373.16 94.2176 373.304 94.394C373.449 94.5705 373.554 94.7753 373.614 94.9952C373.758 95.4073 373.838 95.839 373.851 96.2752L373.794 96.1472C374.206 96.4432 374.556 96.8172 374.824 97.248C375.097 97.705 375.258 98.2206 375.291 98.752C375.317 99.1707 375.261 99.5904 375.125 99.9872C374.983 100.371 374.796 100.736 374.568 101.075C374.14 101.738 373.679 102.379 373.186 102.995C372.218 104.202 371.182 105.352 370.082 106.438L370.12 106.368C369.544 108.105 368.974 109.811 368.411 111.488L368.187 111.29C370.182 110.335 372.244 109.529 374.357 108.877C375.377 108.554 376.436 108.371 377.506 108.333C378.043 108.317 378.578 108.408 379.08 108.602C379.337 108.712 379.559 108.892 379.72 109.12C379.804 109.24 379.864 109.375 379.896 109.518C379.927 109.66 379.931 109.808 379.906 109.952V110.01L379.842 110.048C377.314 111.469 374.926 112.845 372.725 114.176C371.63 114.854 370.555 115.501 369.614 116.211C369.501 116.297 369.394 116.391 369.294 116.493C369.243 116.563 369.243 116.538 369.211 116.64C369.179 116.742 369.166 116.787 369.141 116.858C369.036 117.133 368.916 117.402 368.782 117.664C368.526 118.189 368.258 118.682 367.982 119.162V119.117C367.733 121.632 367.509 123.904 367.342 125.894C367.291 126.394 367.246 126.874 367.195 127.334C367.165 127.781 367.107 128.226 367.022 128.666C366.871 129.437 366.594 130.179 366.203 130.861C365.655 131.794 364.916 132.601 364.034 133.229C363.806 133.39 363.569 133.537 363.323 133.67C363.24 133.718 363.152 133.757 363.061 133.786C363.061 133.786 363.144 133.741 363.304 133.638C363.543 133.496 363.774 133.34 363.995 133.171C364.852 132.534 365.567 131.726 366.094 130.797C366.468 130.122 366.732 129.392 366.875 128.634C366.95 128.197 367.004 127.757 367.035 127.315C367.074 126.854 367.118 126.374 367.163 125.875C367.342 123.885 367.547 121.613 367.803 119.098C368.072 118.624 368.341 118.125 368.59 117.613C368.712 117.357 368.834 117.094 368.93 116.826C368.93 116.755 368.981 116.691 369 116.621C369.022 116.532 369.066 116.451 369.128 116.384C369.237 116.271 369.355 116.166 369.48 116.07C370.446 115.328 371.509 114.688 372.603 114.003C374.805 112.653 377.192 111.277 379.72 109.843L379.65 109.939C379.669 109.719 379.613 109.498 379.491 109.313C379.369 109.128 379.188 108.99 378.978 108.922C378.513 108.752 378.019 108.674 377.525 108.691C376.485 108.73 375.456 108.911 374.466 109.229C372.37 109.877 370.325 110.679 368.347 111.629L368.008 111.789L368.123 111.437L369.826 106.317V106.278H369.858C370.947 105.202 371.973 104.063 372.93 102.867C373.42 102.253 373.875 101.612 374.293 100.947C374.508 100.632 374.684 100.293 374.818 99.936C374.934 99.5768 374.983 99.1995 374.965 98.8224C374.935 98.3428 374.79 97.8774 374.542 97.4656C374.292 97.073 373.968 96.7319 373.589 96.4608L373.531 96.416V96.3328C373.518 95.9233 373.444 95.518 373.314 95.1296C373.269 94.9557 373.189 94.7927 373.079 94.6507C372.969 94.5088 372.831 94.3908 372.674 94.304H372.821C371.357 95.1275 369.919 95.9574 368.507 96.7936C367.803 97.2096 367.106 97.6256 366.421 98.0736C366.082 98.2848 365.742 98.5024 365.416 98.7136L364.923 99.0464C364.784 99.1436 364.655 99.2551 364.539 99.3792C364.539 99.3792 364.501 99.3472 364.443 99.3344C364.433 99.3387 364.422 99.3408 364.411 99.3408C364.4 99.3408 364.389 99.3387 364.379 99.3344L364.315 99.2768C364.251 99.2256 364.264 99.2768 364.264 99.2768L364.302 99.2128L364.373 99.0912L364.501 98.8288C364.59 98.656 364.667 98.4768 364.744 98.304C364.897 97.9487 365.032 97.5855 365.147 97.216C365.381 96.5013 365.498 95.7536 365.493 95.0016C365.495 94.277 365.251 93.573 364.802 93.0048C364.327 92.4794 363.704 92.1092 363.016 91.9424L363.202 91.8528C362.446 93.8539 361.723 95.7888 361.032 97.6576C360.674 98.5792 360.354 99.5008 359.995 100.371L358.933 102.931V102.893C358.581 106.387 358.203 109.555 357.979 112.352C357.755 115.149 357.486 117.574 357.23 119.552C357.059 121.079 356.809 122.595 356.482 124.096C356.396 124.491 356.278 124.878 356.13 125.254C355.995 125.44 355.925 125.542 355.925 125.542Z" fill="#A3615C"/>
<path d="M368.731 111.296C368.3 111.673 367.8 111.962 367.259 112.147C366.763 112.429 366.218 112.614 365.652 112.691C366.083 112.315 366.583 112.025 367.124 111.84C367.62 111.558 368.166 111.373 368.731 111.296Z" fill="#A3615C"/>
<path d="M373.652 96.2432C373.597 96.4533 373.511 96.654 373.396 96.8384C373.117 97.3584 372.796 97.8549 372.436 98.3232C371.216 99.8363 369.867 101.241 368.404 102.522C366.982 103.812 365.842 105.383 365.057 107.136C364.455 108.486 364.231 109.382 364.174 109.363C364.181 109.145 364.22 108.93 364.289 108.723C364.43 108.149 364.614 107.587 364.839 107.04C365.576 105.219 366.716 103.589 368.174 102.272C369.623 100.999 370.985 99.6308 372.251 98.176C373.159 97.0368 373.601 96.2112 373.652 96.2432Z" fill="#A3615C"/>
<path d="M364.488 99.1616C364.295 99.6219 364.039 100.053 363.726 100.442C363.432 100.865 363.162 101.305 362.92 101.76C362.638 102.333 362.423 102.936 362.28 103.558C361.813 104.838 361.601 106.074 361.358 106.957C361.268 107.441 361.097 107.906 360.853 108.333C360.917 107.85 361.009 107.372 361.128 106.899C361.321 105.735 361.599 104.586 361.96 103.462C362.106 102.819 362.337 102.197 362.645 101.613C362.901 101.145 363.196 100.699 363.528 100.282C363.816 99.8823 364.137 99.5077 364.488 99.1616Z" fill="#A3615C"/>
<path d="M328.404 158.618C328.718 158.144 337.454 149.658 339.969 146.867C342.484 144.077 355.144 127.974 355.924 125.542C356.705 123.11 363.899 132.48 363.899 132.48C363.899 132.48 355.163 153.376 351.739 159.328C348.315 165.28 342.702 176.352 342.702 176.352C342.702 176.352 333.441 177.133 329.838 169.613C326.235 162.093 328.404 158.618 328.404 158.618Z" fill="#C78976"/>
<path d="M362.996 267.226L374.766 296.026L339.035 310.854C337.832 307.354 353.473 292.832 353.473 292.832L345.153 274.701L362.996 267.226Z" fill="#00ADB5"/>
<g opacity="0.6">
<path d="M363.874 286.675C364.261 286.635 364.65 286.741 364.965 286.972C365.279 287.202 365.497 287.541 365.576 287.923C365.627 288.308 365.529 288.697 365.301 289.011C365.074 289.326 364.735 289.541 364.354 289.613C363.944 289.654 363.533 289.541 363.202 289.297C362.87 289.052 362.642 288.692 362.562 288.288C362.517 287.514 363.253 286.586 364.027 286.662" fill="white"/>
</g>
<g opacity="0.6">
<path d="M374.767 296L373.487 293.146L339.714 308.429C339.714 308.429 338.434 309.779 339.074 310.829L374.767 296Z" fill="white"/>
</g>
<path d="M352.814 292.864C352.897 293.037 353.8 292.755 354.888 292.96C355.976 293.165 356.744 293.709 356.878 293.568C357.012 293.427 356.328 292.538 355.003 292.288C353.678 292.038 352.712 292.723 352.814 292.864Z" fill="#263238"/>
<path d="M349.71 295.968C349.71 296.154 350.619 296.141 351.521 296.608C352.424 297.075 352.91 297.811 353.083 297.734C353.256 297.658 352.955 296.621 351.803 296.032C350.651 295.443 349.646 295.802 349.71 295.968Z" fill="#263238"/>
<path d="M349.441 301.338C349.62 301.338 349.499 300.339 348.654 299.565C347.809 298.79 346.836 298.758 346.823 298.925C346.811 299.091 347.527 299.405 348.212 300.045C348.897 300.685 349.262 301.395 349.441 301.338Z" fill="#263238"/>
<path d="M351.4 288.525C351.541 288.653 352.245 288.077 353.256 287.738C354.267 287.399 355.176 287.386 355.176 287.2C355.176 287.015 354.209 286.695 353.019 287.117C351.829 287.539 351.24 288.423 351.4 288.525Z" fill="#263238"/>
<path d="M350.478 283.93C350.478 284.006 351.239 283.827 352.263 283.181C352.858 282.794 353.406 282.338 353.895 281.824C354.183 281.52 354.45 281.197 354.695 280.858C354.847 280.663 354.97 280.447 355.06 280.218C355.126 280.047 355.131 279.858 355.075 279.684C355.019 279.509 354.906 279.359 354.753 279.258C354.616 279.172 354.46 279.12 354.299 279.105C354.138 279.091 353.975 279.114 353.825 279.174C353.595 279.268 353.38 279.393 353.185 279.546C352.843 279.799 352.524 280.081 352.231 280.39C351.743 280.913 351.339 281.509 351.035 282.157C350.523 283.27 350.51 284.038 350.58 284.045C350.651 284.051 350.862 283.36 351.444 282.374C351.782 281.803 352.193 281.278 352.667 280.813C352.944 280.541 353.244 280.292 353.563 280.07C353.902 279.814 354.203 279.674 354.388 279.802C354.446 279.853 354.465 279.878 354.433 280.019C354.364 280.188 354.273 280.347 354.164 280.493C353.562 281.37 352.828 282.15 351.988 282.803C351.086 283.52 350.433 283.84 350.478 283.93Z" fill="#263238"/>
<path d="M350.804 284.09C350.881 284.09 350.964 283.322 350.561 282.17C350.309 281.496 349.943 280.87 349.479 280.32C349.206 279.991 348.902 279.689 348.571 279.418C348.375 279.223 348.133 279.081 347.868 279.006C347.602 278.931 347.322 278.925 347.054 278.989C346.896 279.059 346.761 279.172 346.666 279.316C346.571 279.461 346.519 279.629 346.516 279.802C346.511 280.048 346.541 280.294 346.606 280.531C346.705 280.957 346.874 281.364 347.105 281.734C347.478 282.367 348.004 282.895 348.635 283.27C349.716 283.91 350.555 283.814 350.523 283.744C349.96 283.493 349.415 283.204 348.891 282.88C348.361 282.5 347.924 282.005 347.611 281.434C347.429 281.107 347.296 280.755 347.214 280.39C347.111 279.987 347.124 279.622 347.284 279.597C347.444 279.571 347.879 279.686 348.155 279.923C348.978 280.571 349.635 281.404 350.075 282.355C350.612 283.366 350.702 284.102 350.804 284.09Z" fill="#263238"/>
<path d="M421.371 268.755L420.392 299.827L459.048 301.248C458.958 297.542 439.208 289.395 439.208 289.395L440.654 269.51L421.371 268.755Z" fill="#00ADB5"/>
<g opacity="0.6">
<path d="M427.336 287.283C426.96 287.384 426.634 287.62 426.42 287.946C426.206 288.272 426.12 288.664 426.177 289.05C426.264 289.428 426.491 289.759 426.814 289.974C427.137 290.19 427.529 290.273 427.912 290.208C428.311 290.104 428.656 289.854 428.881 289.509C429.106 289.163 429.194 288.746 429.128 288.339C428.897 287.597 427.886 286.989 427.208 287.328" fill="white"/>
</g>
<g opacity="0.6">
<path d="M420.392 299.827L420.609 296.704L457.588 299.232C457.588 299.232 459.284 300.039 459.048 301.248L420.392 299.827Z" fill="white"/>
</g>
<path d="M439.861 289.222C439.861 289.414 438.901 289.466 437.941 290.035C436.981 290.605 436.462 291.386 436.289 291.315C436.117 291.245 436.443 290.157 437.608 289.485C438.773 288.813 439.912 289.056 439.861 289.222Z" fill="#263238"/>
<path d="M443.854 291.053C443.893 291.232 443.061 291.526 442.395 292.333C441.73 293.139 441.506 293.946 441.32 293.933C441.134 293.92 441.051 292.845 441.902 291.898C442.754 290.95 443.861 290.867 443.854 291.053Z" fill="#263238"/>
<path d="M445.979 295.987C445.806 295.987 445.576 295.066 446.1 294.067C446.625 293.069 447.521 292.672 447.598 292.832C447.675 292.992 447.105 293.523 446.689 294.362C446.273 295.2 446.171 295.974 445.979 295.987Z" fill="#263238"/>
<path d="M439.72 284.659C439.637 284.826 438.779 284.531 437.711 284.57C436.642 284.608 435.791 284.909 435.701 284.742C435.611 284.576 436.437 283.93 437.698 283.91C438.959 283.891 439.784 284.512 439.72 284.659Z" fill="#263238"/>
<path d="M438.933 280.038C438.933 280.115 438.184 280.205 437.013 279.955C435.908 279.712 434.86 279.262 433.922 278.63C433.709 278.5 433.517 278.338 433.352 278.15C433.23 278.008 433.16 277.828 433.154 277.641C433.148 277.453 433.207 277.27 433.32 277.12C433.419 276.991 433.547 276.886 433.694 276.816C433.841 276.746 434.002 276.712 434.165 276.717C434.411 276.725 434.654 276.768 434.888 276.845C435.297 276.961 435.696 277.113 436.079 277.299C436.719 277.621 437.307 278.04 437.819 278.541C438.683 279.398 438.965 280.115 438.901 280.154C438.837 280.192 438.395 279.603 437.506 278.874C436.99 278.456 436.422 278.107 435.816 277.837C435.461 277.678 435.092 277.55 434.715 277.453C434.312 277.331 433.967 277.312 433.851 277.491C433.813 277.562 433.807 277.587 433.89 277.709C434.01 277.846 434.151 277.965 434.306 278.061C434.626 278.294 434.959 278.507 435.304 278.701C435.896 279.018 436.515 279.282 437.154 279.488C438.216 279.853 438.946 279.936 438.933 280.038Z" fill="#263238"/>
<path d="M438.676 280.32C438.612 280.352 438.26 279.68 438.234 278.432C438.23 277.716 438.347 277.004 438.58 276.326C438.719 275.923 438.899 275.535 439.118 275.168C439.231 274.914 439.409 274.694 439.633 274.53C439.858 274.367 440.121 274.264 440.398 274.234C440.57 274.244 440.735 274.303 440.875 274.403C441.014 274.504 441.122 274.643 441.185 274.803C441.28 275.032 441.338 275.274 441.358 275.52C441.408 275.947 441.393 276.378 441.313 276.8C441.18 277.522 440.869 278.199 440.41 278.771C439.623 279.744 438.823 279.942 438.81 279.878C438.798 279.814 439.45 279.437 440.039 278.496C440.393 277.953 440.624 277.339 440.718 276.698C440.769 276.326 440.769 275.949 440.718 275.578C440.666 275.168 440.526 274.829 440.372 274.867C440.218 274.906 439.841 275.155 439.674 275.475C439.471 275.803 439.298 276.147 439.156 276.506C438.915 277.121 438.764 277.767 438.708 278.426C438.606 279.558 438.785 280.275 438.676 280.32Z" fill="#263238"/>
<path d="M345.563 170.694C345.563 170.694 345.62 170.752 345.697 170.886C345.821 171.078 345.928 171.279 346.017 171.488C346.356 172.262 346.516 173.102 346.484 173.946C346.411 175.195 346.056 176.411 345.448 177.504C344.717 178.834 343.818 180.065 342.772 181.165C340.923 183.199 338.763 184.927 336.372 186.285C335.647 186.688 334.902 187.053 334.139 187.379C333.864 187.511 333.577 187.613 333.281 187.686C333.535 187.521 333.803 187.377 334.081 187.258C334.606 187.002 335.361 186.618 336.251 186.08C338.579 184.674 340.688 182.934 342.51 180.915C343.539 179.839 344.432 178.64 345.166 177.344C345.768 176.292 346.133 175.121 346.235 173.914C346.282 173.1 346.162 172.286 345.883 171.52C345.691 170.995 345.537 170.707 345.563 170.694Z" fill="#263238"/>
<path d="M345 175.61C344.918 175.672 344.828 175.722 344.731 175.757C344.475 175.889 344.21 176.002 343.938 176.096C342.93 176.454 341.871 176.644 340.802 176.659C339.031 176.687 337.275 176.327 335.658 175.605C334.041 174.883 332.601 173.816 331.438 172.48C330.794 171.71 330.206 170.895 329.678 170.042C329.2 169.238 328.787 168.396 328.443 167.526C327.863 166.049 327.546 164.48 327.509 162.893C327.494 161.826 327.637 160.763 327.931 159.738C328.009 159.459 328.103 159.186 328.213 158.918C328.283 158.733 328.328 158.637 328.341 158.643C328.354 158.65 328.232 159.046 328.059 159.77C327.815 160.79 327.709 161.838 327.746 162.886C327.815 164.442 328.148 165.974 328.731 167.418C329.075 168.266 329.486 169.086 329.96 169.869C330.48 170.707 331.06 171.507 331.694 172.262C332.931 173.705 334.499 174.827 336.264 175.533C337.703 176.119 339.242 176.422 340.795 176.422C341.844 176.427 342.888 176.276 343.893 175.974C344.622 175.75 345 175.584 345 175.61Z" fill="#263238"/>
<path d="M415.912 180.992C415.71 180.892 415.523 180.765 415.355 180.614C415.009 180.352 414.517 179.974 413.909 179.475C412.705 178.49 411.003 177.19 409.288 175.533C408.873 175.131 408.484 174.704 408.123 174.253C407.781 173.813 407.532 173.308 407.393 172.768C407.173 171.872 407.072 170.951 407.093 170.029C407.095 169.412 407.14 168.796 407.227 168.186C407.249 167.966 407.3 167.751 407.381 167.546C407.432 167.546 407.285 168.506 407.329 170.048C407.339 170.945 407.459 171.837 407.688 172.704C407.918 173.683 408.705 174.502 409.525 175.341C411.214 176.973 412.904 178.31 414.056 179.334C414.645 179.846 415.112 180.262 415.438 180.557C415.614 180.681 415.774 180.827 415.912 180.992Z" fill="#263238"/>
<path d="M421.493 153.395C421.573 153.69 421.62 153.993 421.634 154.298C421.701 155.128 421.701 155.963 421.634 156.794C421.449 159.56 420.496 162.22 418.882 164.474C416.898 166.989 415.042 169.267 413.474 170.656C412.863 171.212 412.222 171.733 411.554 172.218C411.315 172.41 411.056 172.573 410.779 172.704C410.994 172.488 411.227 172.291 411.477 172.115C411.931 171.744 412.584 171.2 413.339 170.483C415.251 168.54 417.022 166.463 418.638 164.269C420.212 162.07 421.171 159.492 421.416 156.8C421.502 155.667 421.528 154.531 421.493 153.395Z" fill="#263238"/>
<path d="M426.408 159.034C426.583 158.278 426.666 157.505 426.657 156.73C426.611 155.895 426.427 155.073 426.113 154.298C425.729 153.349 425.149 152.492 424.411 151.782C423.009 150.542 421.285 149.723 419.438 149.421C418.663 149.348 417.883 149.348 417.108 149.421C417.312 149.332 417.528 149.273 417.748 149.248C418.323 149.146 418.909 149.124 419.489 149.184C421.413 149.428 423.218 150.249 424.667 151.539C426.074 152.901 426.884 154.765 426.92 156.723C426.923 157.305 426.843 157.885 426.683 158.445C426.625 158.655 426.532 158.854 426.408 159.034Z" fill="#263238"/>
<path d="M354.555 198.88C354.555 198.88 340.194 186.144 333.896 186.253C327.598 186.362 306.92 184.973 315.592 213.626C324.334 242.502 339.976 286.656 340.405 285.075L367.336 273.235L356.392 232.16C356.392 232.16 393.102 232.576 400.187 231.642C407.272 230.707 420.539 221.402 420.539 221.402L418.434 273.28L446.594 271.712C446.594 271.712 450.542 209.37 451.714 196.557C452.706 185.395 440.194 172.877 427.394 175.706C419.074 177.549 389.192 198.618 389.192 198.618L354.555 198.88Z" fill="#263238"/>
<path d="M421.506 193.779C421.536 194.234 421.525 194.69 421.474 195.142C421.422 196.102 421.358 197.344 421.282 198.835C421.141 201.952 421.038 206.266 420.962 211.04C420.885 215.814 420.795 220.128 420.629 223.251C420.558 224.819 420.462 226.08 420.379 226.95C420.361 227.405 420.301 227.857 420.2 228.301C420.16 227.847 420.16 227.391 420.2 226.938C420.2 225.978 420.264 224.736 420.302 223.238C420.354 220.038 420.424 215.757 420.494 211.027C420.565 206.298 420.725 201.939 420.955 198.816C421.07 197.254 421.186 195.994 421.294 195.123C421.324 194.67 421.395 194.22 421.506 193.779Z" fill="#455A64"/>
<path d="M420.366 218.08C419.866 217.659 419.445 217.152 419.124 216.582C418.253 215.272 417.574 213.843 417.108 212.339C416.641 210.835 416.387 209.274 416.353 207.699C416.3 207.054 416.358 206.405 416.526 205.779C416.68 205.779 416.462 208.762 417.563 212.218C418.664 215.674 420.52 217.997 420.366 218.08Z" fill="#455A64"/>
<path d="M382.069 228.595C382.024 228.595 381.96 227.891 381.742 226.618C381.44 224.829 380.946 223.078 380.27 221.395C379.268 218.9 377.896 216.57 376.2 214.483C374.116 211.937 371.563 209.815 368.68 208.23C362.574 204.698 357.205 201.229 353.454 198.515C351.579 197.165 350.107 196.006 349.128 195.155C348.635 194.739 348.27 194.387 348.027 194.157C347.784 193.926 347.656 193.792 347.669 193.779C347.682 193.766 348.232 194.214 349.25 195.014C350.267 195.814 351.752 196.934 353.646 198.246C357.435 200.877 362.824 204.294 368.917 207.846C371.859 209.456 374.453 211.631 376.552 214.246C378.256 216.369 379.618 218.744 380.59 221.286C381.249 223 381.702 224.785 381.941 226.605C382.011 227.097 382.056 227.593 382.075 228.09C382.091 228.258 382.088 228.427 382.069 228.595Z" fill="#455A64"/>
<path d="M392.001 198.189C391.883 198.603 391.726 199.006 391.534 199.392C391.195 200.147 390.741 201.261 390.254 202.643C387.518 209.866 386.241 217.56 386.497 225.28C386.542 226.758 386.619 227.955 386.696 228.781C386.758 229.205 386.775 229.634 386.747 230.061C386.627 229.643 386.547 229.214 386.51 228.781C386.376 227.962 386.254 226.765 386.158 225.28C385.711 217.51 386.992 209.737 389.909 202.522C390.472 201.146 390.977 200.051 391.368 199.322C391.541 198.924 391.753 198.545 392.001 198.189Z" fill="#455A64"/>
<path d="M338.005 194.458C338.144 194.528 338.275 194.614 338.395 194.714L339.477 195.494C339.707 195.674 339.97 195.866 340.251 196.07C340.533 196.275 340.802 196.563 341.109 196.838C341.819 197.444 342.486 198.099 343.106 198.797L344.2 200.006C344.546 200.454 344.891 200.928 345.262 201.414L345.819 202.163C345.998 202.426 346.165 202.701 346.338 202.976C346.677 203.526 347.048 204.083 347.394 204.678C348.827 207.288 350.035 210.016 351.003 212.832C352.066 215.814 352.872 218.72 353.563 221.357L355.438 228.397C355.982 230.394 356.424 232.006 356.757 233.114C356.91 233.645 357.026 234.074 357.122 234.394C357.171 234.541 357.205 234.694 357.224 234.848C357.154 234.709 357.098 234.563 357.058 234.413L356.635 233.133C356.264 232.038 355.784 230.432 355.208 228.442C354.632 226.451 353.998 224.064 353.288 221.44C352.578 218.816 351.746 215.91 350.683 212.941C349.724 210.143 348.531 207.431 347.118 204.832C346.786 204.237 346.421 203.686 346.082 203.13C345.915 202.861 345.755 202.586 345.576 202.323L345.032 201.581C344.674 201.094 344.334 200.614 343.989 200.173L342.926 198.957C342.32 198.254 341.668 197.591 340.974 196.973C340.674 196.698 340.411 196.416 340.142 196.192L339.387 195.597L338.35 194.765C338.227 194.672 338.111 194.57 338.005 194.458Z" fill="#455A64"/>
<path d="M354.261 198.618C359.381 202.003 365.026 202.797 371.054 203.949C374.536 204.589 378.178 205.229 381.57 204.218C388.853 202.067 395.893 193.779 400.571 190.822L386.069 186.304L354.261 198.618Z" fill="#00ADB5"/>
<path d="M364.59 201.984C364.888 200.805 365.295 199.657 365.806 198.554C366.214 197.406 366.726 196.299 367.335 195.245C367.033 196.423 366.624 197.571 366.113 198.675C365.706 199.822 365.196 200.929 364.59 201.984Z" fill="white"/>
<path d="M383.816 200.736C382.877 200.527 381.966 200.209 381.102 199.789C380.2 199.466 379.341 199.037 378.542 198.509C380.384 199.043 382.159 199.784 383.835 200.717L383.816 200.736Z" fill="white"/>
<path d="M388.776 191.834C387.717 191.988 386.644 192.028 385.576 191.955C384.505 191.994 383.433 191.923 382.376 191.744C383.435 191.59 384.508 191.549 385.576 191.622C386.647 191.584 387.719 191.655 388.776 191.834Z" fill="white"/>
</svg>
