<svg width="426" height="426" viewBox="0 0 426 426" fill="none" xmlns="http://www.w3.org/2000/svg">
<g clip-path="url(#clip0_342_727)">
<path d="M426 325.805H0V326.018H426V325.805Z" fill="#EBEBEB"/>
<path d="M383.315 333.916H305.868V334.129H383.315V333.916Z" fill="#EBEBEB"/>
<path d="M282.199 331.607H260.993V331.82H282.199V331.607Z" fill="#EBEBEB"/>
<path d="M330.67 341.831H297.791V342.044H330.67V341.831Z" fill="#EBEBEB"/>
<path d="M63.9856 340.4H44.6963V340.613H63.9856V340.4Z" fill="#EBEBEB"/>
<path d="M94.4786 340.4H71.5684V340.613H94.4786V340.4Z" fill="#EBEBEB"/>
<path d="M191.828 336.804H151.92V337.017H191.828V336.804Z" fill="#EBEBEB"/>
<path d="M201.924 287.806H37.4111C36.1223 287.803 34.8871 287.29 33.9766 286.378C33.0661 285.466 32.5547 284.229 32.5547 282.941V51.6823C32.5659 50.4009 33.0822 49.1757 33.9915 48.2728C34.9008 47.3699 36.1297 46.8622 37.4111 46.86H201.924C203.214 46.86 204.451 47.3725 205.364 48.2849C206.276 49.1972 206.789 50.4346 206.789 51.7249V282.941C206.789 284.231 206.276 285.468 205.364 286.381C204.451 287.293 203.214 287.806 201.924 287.806ZM37.4111 47.0304C36.1788 47.0326 34.9978 47.5237 34.1272 48.3959C33.2566 49.2681 32.7677 50.45 32.7677 51.6823V282.941C32.7677 284.173 33.2566 285.355 34.1272 286.227C34.9978 287.099 36.1788 287.59 37.4111 287.593H201.924C203.157 287.59 204.339 287.099 205.211 286.228C206.083 285.356 206.573 284.174 206.576 282.941V51.6823C206.573 50.4492 206.083 49.2673 205.211 48.3954C204.339 47.5235 203.157 47.0326 201.924 47.0304H37.4111Z" fill="#EBEBEB"/>
<path d="M386.22 287.806H221.699C220.409 287.803 219.173 287.29 218.261 286.378C217.35 285.466 216.836 284.23 216.834 282.941V51.6823C216.847 50.4001 217.366 49.1749 218.276 48.2723C219.187 47.3696 220.417 46.8622 221.699 46.86H386.22C387.5 46.8644 388.727 47.3731 389.634 48.2758C390.542 49.1785 391.057 50.4024 391.068 51.6823V282.941C391.068 284.228 390.558 285.463 389.649 286.375C388.74 287.287 387.507 287.801 386.22 287.806ZM221.699 47.0304C220.466 47.0326 219.284 47.5235 218.412 48.3954C217.54 49.2673 217.049 50.4492 217.047 51.6823V282.941C217.049 284.174 217.54 285.356 218.412 286.228C219.284 287.099 220.466 287.59 221.699 287.593H386.22C387.453 287.59 388.635 287.099 389.507 286.228C390.379 285.356 390.87 284.174 390.872 282.941V51.6823C390.87 50.4492 390.379 49.2673 389.507 48.3954C388.635 47.5235 387.453 47.0326 386.22 47.0304H221.699Z" fill="#EBEBEB"/>
<path d="M44.6876 325.796H146.553L146.553 100.519H44.6876L44.6876 325.796Z" fill="#F0F0F0"/>
<path d="M44.6962 325.796H141.73L141.73 100.519H44.6962L44.6962 325.796Z" fill="#F5F5F5"/>
<path d="M136.618 320.693V105.639H49.8079L49.8079 320.693H136.618Z" fill="#F0F0F0"/>
<path d="M77.8566 207.036H60.1606C59.5579 207.034 58.9806 206.793 58.5545 206.367C58.1284 205.941 57.888 205.364 57.8857 204.761C57.888 204.159 58.1284 203.581 58.5545 203.155C58.9806 202.729 59.5579 202.489 60.1606 202.486H77.8566C78.4593 202.489 79.0366 202.729 79.4627 203.155C79.8888 203.581 80.1292 204.159 80.1315 204.761C80.1292 205.364 79.8888 205.941 79.4627 206.367C79.0366 206.793 78.4593 207.034 77.8566 207.036Z" fill="white"/>
<path d="M51.1367 320.693L51.1367 105.639H49.8076L49.8076 320.693H51.1367Z" fill="#F0F0F0"/>
<path d="M194.281 321.528H209.446V255.753H194.281V321.528Z" fill="#F0F0F0"/>
<path d="M131.745 325.703H206.533V321.536H131.745V325.703Z" fill="#F0F0F0"/>
<path d="M194.282 255.762H128.831V321.536H194.282V255.762Z" fill="#F5F5F5"/>
<path d="M188.309 263.856H134.786V285.428H188.309V263.856Z" fill="#F0F0F0"/>
<path d="M188.309 291.861H134.786V313.434H188.309V291.861Z" fill="#F0F0F0"/>
<path d="M155.54 265.671H167.562C167.952 265.668 168.326 265.512 168.602 265.236C168.878 264.96 169.034 264.587 169.036 264.197C169.036 263.805 168.881 263.429 168.605 263.151C168.329 262.874 167.954 262.716 167.562 262.714H155.54C155.149 262.716 154.774 262.874 154.498 263.151C154.221 263.429 154.066 263.805 154.066 264.197C154.069 264.587 154.225 264.96 154.501 265.236C154.777 265.512 155.15 265.668 155.54 265.671Z" fill="#F5F5F5"/>
<path d="M155.54 293.684H167.562C167.948 293.682 168.318 293.53 168.593 293.259C168.868 292.989 169.027 292.622 169.036 292.236C169.034 291.846 168.878 291.472 168.602 291.196C168.326 290.92 167.952 290.764 167.562 290.762H155.54C155.15 290.764 154.777 290.92 154.501 291.196C154.225 291.472 154.069 291.846 154.066 292.236C154.075 292.622 154.234 292.989 154.509 293.259C154.785 293.53 155.154 293.682 155.54 293.684Z" fill="#F5F5F5"/>
<path d="M166.54 254.467C166.242 254.465 165.957 254.345 165.747 254.135C165.536 253.925 165.417 253.64 165.415 253.342V219.168C165.415 218.87 165.534 218.584 165.744 218.373C165.955 218.162 166.241 218.044 166.54 218.044C166.837 218.046 167.122 218.165 167.332 218.376C167.543 218.586 167.662 218.871 167.664 219.168V253.342C167.662 253.64 167.543 253.925 167.332 254.135C167.122 254.345 166.837 254.465 166.54 254.467Z" fill="#F5F5F5"/>
<path d="M177.063 253.138H156.019V255.787H177.063V253.138Z" fill="#F0F0F0"/>
<path d="M172.369 234.019C172.221 234.019 172.08 233.961 171.974 233.857C171.869 233.754 171.809 233.613 171.807 233.465V216.408C171.809 216.26 171.869 216.118 171.974 216.013C172.079 215.908 172.221 215.848 172.369 215.846C172.517 215.848 172.659 215.908 172.764 216.013C172.869 216.118 172.929 216.26 172.931 216.408V233.448C172.932 233.523 172.919 233.597 172.891 233.666C172.863 233.735 172.822 233.798 172.77 233.851C172.717 233.904 172.655 233.946 172.586 233.975C172.517 234.004 172.444 234.019 172.369 234.019Z" fill="#F0F0F0"/>
<path d="M150.174 222.287C150.174 222.287 150.591 206.184 166.541 206.184C182.49 206.184 182.899 222.27 182.899 222.27L150.174 222.287Z" fill="#F0F0F0"/>
<path d="M288.24 245.035C288.692 245.035 289.152 245.035 289.612 245.078C294.324 245.418 298.755 247.45 302.088 250.799C305.421 254.148 307.432 258.588 307.751 263.302C307.885 265.444 307.673 267.593 307.12 269.666C304.985 277.984 303.953 286.546 304.053 295.133V320.13C304.054 320.563 303.97 320.992 303.804 321.392C303.639 321.792 303.396 322.156 303.089 322.461C302.783 322.767 302.419 323.009 302.018 323.174C301.618 323.338 301.189 323.421 300.756 323.419H221.409V245.035H288.24Z" fill="#F0F0F0"/>
<path d="M201.855 264.589C201.864 261.809 202.465 259.064 203.619 256.535C204.772 254.006 206.452 251.753 208.546 249.925C210.639 248.097 213.099 246.736 215.76 245.934C218.421 245.132 221.223 244.907 223.978 245.273C226.733 245.64 229.378 246.59 231.737 248.06C234.096 249.53 236.114 251.486 237.657 253.798C239.2 256.109 240.232 258.724 240.684 261.466C241.137 264.208 240.999 267.016 240.281 269.701C238.152 278.019 237.123 286.581 237.222 295.167V320.164C237.222 320.596 237.137 321.023 236.971 321.422C236.806 321.82 236.564 322.182 236.258 322.487C235.953 322.792 235.59 323.033 235.191 323.197C234.792 323.362 234.365 323.446 233.933 323.445H208.876C208.445 323.445 208.019 323.36 207.621 323.195C207.223 323.03 206.861 322.789 206.556 322.484C206.252 322.179 206.01 321.818 205.845 321.42C205.681 321.022 205.596 320.595 205.596 320.164V293.667C205.668 285.615 204.648 277.59 202.563 269.811C202.093 268.11 201.855 266.353 201.855 264.589Z" fill="#F5F5F5"/>
<path d="M248.349 323.419H319.585V275.826H248.349V323.419Z" fill="#F0F0F0"/>
<path d="M378.458 286.596H283.111V213.605C283.111 209.682 284.669 205.92 287.443 203.146C290.217 200.372 293.979 198.814 297.901 198.814H363.667C367.59 198.814 371.352 200.372 374.126 203.146C376.9 205.92 378.458 209.682 378.458 213.605V286.596Z" fill="#E0E0E0"/>
<path d="M359.825 286.596H264.478V212.889C264.478 209.154 265.962 205.572 268.603 202.931C271.244 200.289 274.826 198.806 278.561 198.806H345.708C349.443 198.806 353.025 200.289 355.666 202.931C358.307 205.572 359.791 209.154 359.791 212.889V286.596H359.825Z" fill="#F5F5F5"/>
<path d="M314.933 290.864H249.27C248.14 290.864 247.056 290.415 246.257 289.617C245.458 288.818 245.01 287.734 245.01 286.604V275.809C245.01 274.68 245.458 273.596 246.257 272.797C247.056 271.998 248.14 271.549 249.27 271.549H314.933C315.274 271.549 315.602 271.685 315.843 271.926C316.084 272.168 316.22 272.495 316.22 272.836V289.586C316.217 289.926 316.081 290.251 315.84 290.49C315.599 290.73 315.273 290.864 314.933 290.864Z" fill="#E0E0E0"/>
<path d="M385.488 245.035C385.939 245.035 386.391 245.035 386.86 245.078C391.571 245.42 395.999 247.453 399.331 250.801C402.662 254.15 404.672 258.589 404.99 263.302C405.133 265.444 404.92 267.594 404.36 269.666C402.223 277.987 401.192 286.552 401.292 295.141V320.139C401.292 320.57 401.207 320.998 401.042 321.396C400.877 321.795 400.634 322.157 400.329 322.461C400.023 322.766 399.661 323.008 399.262 323.172C398.863 323.336 398.435 323.42 398.004 323.419H318.648V245.035H385.488Z" fill="#F0F0F0"/>
<path d="M299.103 264.589C299.069 259.493 301.026 254.585 304.557 250.912C308.089 247.238 312.915 245.089 318.008 244.922C323.101 244.756 328.058 246.585 331.822 250.02C335.586 253.454 337.86 258.224 338.159 263.311C338.293 265.452 338.08 267.601 337.528 269.675C335.392 277.992 334.361 286.555 334.461 295.141V320.139C334.461 321.009 334.115 321.843 333.5 322.458C332.885 323.074 332.051 323.419 331.181 323.419H306.115C305.684 323.419 305.258 323.334 304.86 323.17C304.462 323.005 304.1 322.763 303.795 322.458C303.491 322.154 303.249 321.792 303.084 321.394C302.92 320.996 302.835 320.57 302.835 320.139V293.667C302.906 285.615 301.888 277.591 299.81 269.811C299.34 268.11 299.102 266.353 299.103 264.589Z" fill="#F5F5F5"/>
<path d="M222.798 325.805H384.09C384.403 325.805 384.713 325.743 385.002 325.623C385.291 325.503 385.553 325.327 385.774 325.106C385.995 324.884 386.17 324.621 386.289 324.331C386.408 324.042 386.468 323.732 386.467 323.419H220.421C220.42 323.732 220.48 324.042 220.599 324.331C220.718 324.621 220.893 324.884 221.114 325.106C221.335 325.327 221.597 325.503 221.886 325.623C222.175 325.743 222.485 325.805 222.798 325.805Z" fill="#E0E0E0"/>
<path d="M318.324 143.025H370.202V86.444H318.324V143.025Z" fill="#E0E0E0"/>
<path d="M315.232 143.025H368.456V86.444H315.232V143.025Z" fill="#F5F5F5"/>
<path d="M363.992 138.569V90.8998H319.68V138.569H363.992Z" fill="white"/>
<path d="M341.839 102.683L353.955 123.676H329.724L341.839 102.683Z" fill="#F5F5F5"/>
<path d="M245.546 176.057H297.424V119.476H245.546V176.057Z" fill="#E0E0E0"/>
<path d="M242.453 176.057H295.678V119.476H242.453V176.057Z" fill="#F5F5F5"/>
<path d="M291.214 171.601V123.932H246.901V171.601H291.214Z" fill="white"/>
<path d="M263.643 156.265L258.386 147.157C257.839 146.207 257.552 145.129 257.553 144.032C257.554 142.935 257.844 141.858 258.393 140.909C258.941 139.959 259.731 139.171 260.68 138.623C261.63 138.075 262.708 137.786 263.804 137.785H274.344C275.44 137.787 276.517 138.076 277.467 138.624C278.416 139.173 279.205 139.961 279.755 140.909C280.304 141.858 280.595 142.935 280.598 144.031C280.6 145.128 280.315 146.206 279.771 147.157L274.514 156.265C273.966 157.223 273.175 158.019 272.22 158.573C271.266 159.127 270.182 159.418 269.078 159.418C267.975 159.418 266.891 159.127 265.936 158.573C264.982 158.019 264.19 157.223 263.643 156.265Z" fill="#F5F5F5"/>
<path d="M213 364.281C304.234 364.281 378.194 359.963 378.194 354.636C378.194 349.31 304.234 344.992 213 344.992C121.766 344.992 47.8057 349.31 47.8057 354.636C47.8057 359.963 121.766 364.281 213 364.281Z" fill="#F5F5F5"/>
<path d="M269.658 84.6036H73.2549L86.1797 352.081H282.583L269.658 84.6036Z" fill="#00ADB5"/>
<path opacity="0.2" d="M269.658 84.6036H73.2549L86.1797 352.081H282.583L269.658 84.6036Z" fill="black"/>
<path d="M271.472 84.6036H75.0693L88.0027 352.081H284.406L271.472 84.6036Z" fill="#00ADB5"/>
<path opacity="0.2" d="M261.104 93.6008H84.0498L96.4208 339.991L250.377 339.786L275.963 317.106L261.104 93.6008Z" fill="black"/>
<path d="M262.459 93.5923C264.347 167.381 270.305 241.009 280.308 314.141C266.278 323.797 252.32 333.453 238.432 343.109H106.014C93.5159 260.474 86.1801 177.14 84.0498 93.5923H262.459Z" fill="white"/>
<path d="M280.307 314.141C266.278 323.797 252.319 333.453 238.432 343.109C241.465 330.329 244.626 317.549 247.914 304.769L280.307 314.141Z" fill="#EBEBEB"/>
<path d="M132.061 116.136C132.396 125.156 132.788 134.181 133.236 143.213H106.168C105.714 134.181 105.322 125.156 104.993 116.136H132.061ZM134.821 113.282H102.036C102.417 124.204 102.891 135.133 103.459 146.067H136.252C135.684 135.138 135.21 124.21 134.83 113.282H134.821Z" fill="#00ADB5"/>
<path d="M242.667 126.3H149.952C149.867 124.264 149.791 122.219 149.714 120.183H242.42C242.497 122.219 242.582 124.264 242.667 126.3Z" fill="#E0E0E0"/>
<path d="M223.08 139.166H150.523C150.43 137.121 150.327 135.085 150.242 133.048H222.79C222.887 135.087 222.983 137.127 223.08 139.166Z" fill="#E0E0E0"/>
<path d="M134.718 169.165C135.286 178.196 135.919 187.227 136.618 196.258H109.541C108.843 187.227 108.21 178.196 107.642 169.165H134.718ZM137.393 166.31H104.608C105.279 177.244 106.043 188.178 106.9 199.112H139.728C138.876 188.184 138.109 177.25 137.427 166.31H137.393Z" fill="#00ADB5"/>
<path d="M186.929 179.338H152.849C152.713 177.293 152.568 175.256 152.44 173.212H186.52C186.648 175.256 186.785 177.293 186.929 179.338Z" fill="#E0E0E0"/>
<path d="M219.194 179.338H194.136C194 177.293 193.855 175.256 193.728 173.212H218.785C218.913 175.256 219.049 177.293 219.194 179.338Z" fill="#E0E0E0"/>
<path d="M234.922 192.211H153.786C153.632 190.166 153.487 188.13 153.334 186.085H234.47C234.623 188.13 234.768 190.166 234.922 192.211Z" fill="#E0E0E0"/>
<path d="M138.782 222.219C139.594 231.25 140.469 240.281 141.406 249.312H114.33C113.392 240.281 112.518 231.25 111.706 222.219H138.782ZM141.389 219.365H108.596C109.561 230.304 110.618 241.241 111.765 252.175H144.559C143.423 241.235 142.366 230.299 141.389 219.365Z" fill="#00ADB5"/>
<path d="M250.574 239.148H157.851L158.464 245.265H251.187L250.574 239.148Z" fill="#E0E0E0"/>
<path d="M229.188 226.274H156.632C156.819 228.31 157.007 230.355 157.203 232.392H229.75C229.563 230.355 229.367 228.336 229.188 226.274Z" fill="#E0E0E0"/>
<path d="M144.261 275.273C145.318 284.304 146.434 293.332 147.609 302.358H120.533C119.357 293.338 118.241 284.31 117.185 275.273H144.261ZM146.817 272.418H113.998C115.248 283.358 116.597 294.289 118.045 305.212H150.804C149.367 294.289 148.018 283.358 146.757 272.418H146.817Z" fill="#00ADB5"/>
<path d="M255.677 285.42H162.953C162.706 283.375 162.459 281.339 162.221 279.294H254.935C255.182 281.365 255.421 283.401 255.677 285.42Z" fill="#E0E0E0"/>
<path d="M206.772 298.311H164.564C164.3 296.274 164.045 294.23 163.789 292.193H205.997C206.253 294.23 206.508 296.274 206.772 298.311Z" fill="#E0E0E0"/>
<path d="M231.973 298.311H213.749C213.485 296.274 213.229 294.23 212.974 292.193H231.198C231.453 294.23 231.743 296.274 231.973 298.311Z" fill="#E0E0E0"/>
<path d="M120.132 139.345L118.931 137.436C116.307 133.261 110.956 129.538 109.107 128.448L110.488 126.002C114.115 128.205 117.356 130.988 120.081 134.241C124.205 128.627 130.305 122.824 138.655 116.588L140.418 118.888C131.507 125.559 125.27 131.668 121.334 137.547L120.132 139.345Z" fill="#00ADB5"/>
<path d="M123.37 192.39L122.117 190.482C119.391 186.307 113.938 182.575 112.063 181.485L113.367 179.039C117.063 181.243 120.38 184.028 123.191 187.287C127.161 181.663 133.099 175.861 141.287 169.616C141.892 170.383 142.505 171.15 143.11 171.925C134.377 178.605 128.303 184.705 124.528 190.592C124.136 191.189 123.753 191.794 123.37 192.39Z" fill="#00ADB5"/>
<path d="M128.073 245.581L126.769 243.672C123.924 239.497 118.369 235.766 116.469 234.684C116.878 233.832 117.321 233.048 117.713 232.238C121.467 234.445 124.853 237.225 127.749 240.477C131.575 234.854 137.36 229.06 145.369 222.807L147.26 225.116C138.74 231.795 132.776 237.896 129.172 243.783L128.073 245.581Z" fill="#00ADB5"/>
<path d="M213.962 328.412C208.936 328.412 206.039 326.555 203.483 324.919C200.927 323.283 198.729 321.869 194.486 321.869C190.243 321.869 188.351 323.351 186.349 324.919C184.347 326.486 181.893 328.412 176.866 328.412C171.839 328.412 168.943 326.555 166.395 324.919C163.848 323.283 161.65 321.869 157.398 321.869C153.147 321.869 151.264 323.351 149.261 324.919C147.259 326.486 144.806 328.412 139.787 328.412C134.769 328.412 131.864 326.555 129.308 324.919C126.752 323.283 124.562 321.869 120.311 321.869C120.2 321.017 120.08 320.233 119.97 319.415C124.997 319.415 127.885 321.272 130.441 322.908C132.997 324.544 135.186 325.958 139.429 325.958C143.672 325.958 145.564 324.476 147.566 322.908C149.568 321.34 152.03 319.415 157.057 319.415C162.084 319.415 164.964 321.272 167.52 322.908C170.076 324.544 172.274 325.958 176.517 325.958C180.76 325.958 182.651 324.476 184.654 322.908C186.656 321.34 189.118 319.415 194.145 319.415C199.172 319.415 202.06 321.272 204.616 322.908C207.172 324.544 209.362 325.958 213.613 325.958C213.724 326.776 213.852 327.594 213.962 328.412Z" fill="#EBEBEB"/>
<path d="M221.171 91.2236C218.292 83.5556 211.637 78.5203 204.481 78.5203H189.894C188.809 78.5109 187.749 78.1829 186.848 77.5771C185.947 76.9713 185.244 76.1143 184.825 75.1123C183.794 72.6635 182.07 70.5694 179.864 69.0875C177.659 67.6056 175.068 66.8005 172.411 66.7713C169.841 66.7452 167.33 67.5401 165.242 69.0403C163.155 70.5406 161.602 72.6678 160.807 75.1123C160.483 76.1125 159.848 76.9829 158.994 77.5961C158.14 78.2093 157.113 78.5332 156.061 78.5203H141.484C134.318 78.5203 128.15 83.5812 126.02 91.2236L125.168 94.2653H222.296L221.171 91.2236Z" fill="#263238"/>
<path d="M221.69 97.2643H126.095C125.289 97.2549 124.516 96.9402 123.933 96.3837C123.35 95.8272 122.999 95.0702 122.951 94.2653C122.93 93.8785 122.989 93.4916 123.123 93.1284C123.257 92.7651 123.465 92.4331 123.732 92.153C123.999 91.8728 124.321 91.6504 124.678 91.4993C125.035 91.3483 125.418 91.2718 125.806 91.2747H221.4C222.205 91.284 222.976 91.5975 223.56 92.1522C224.143 92.707 224.494 93.4619 224.544 94.2653C224.566 94.6527 224.508 95.0405 224.375 95.4048C224.241 95.7691 224.034 96.1021 223.767 96.3832C223.499 96.6642 223.177 96.8875 222.819 97.039C222.462 97.1906 222.078 97.2673 221.69 97.2643Z" fill="#00ADB5"/>
<path opacity="0.2" d="M221.69 97.2643H126.095C125.289 97.2549 124.516 96.9402 123.933 96.3837C123.35 95.8272 122.999 95.0702 122.951 94.2653C122.93 93.8785 122.989 93.4916 123.123 93.1284C123.257 92.7651 123.465 92.4331 123.732 92.153C123.999 91.8728 124.321 91.6504 124.678 91.4993C125.035 91.3483 125.418 91.2718 125.806 91.2747H221.4C222.205 91.284 222.976 91.5975 223.56 92.1522C224.143 92.707 224.494 93.4619 224.544 94.2653C224.566 94.6527 224.508 95.0405 224.375 95.4048C224.241 95.7691 224.034 96.1021 223.767 96.3832C223.499 96.6642 223.177 96.8875 222.819 97.039C222.462 97.1906 222.078 97.2673 221.69 97.2643Z" fill="black"/>
<path d="M307.503 349.516H301.258L300.636 335.057H306.881L307.503 349.516Z" fill="#FFC3BD"/>
<path d="M344.982 349.516H338.737L335.602 335.057H341.838L344.982 349.516Z" fill="#FFC3BD"/>
<path d="M338.294 348.792H345.306C345.43 348.791 345.55 348.833 345.646 348.911C345.742 348.988 345.809 349.097 345.834 349.218L347.07 354.773C347.098 354.908 347.095 355.047 347.062 355.181C347.029 355.314 346.967 355.439 346.879 355.545C346.792 355.651 346.682 355.737 346.557 355.795C346.432 355.853 346.296 355.882 346.158 355.88C343.713 355.838 342.52 355.693 339.436 355.693C337.536 355.693 333.625 355.889 331.01 355.889C328.394 355.889 328.045 353.333 329.118 353.069C333.932 352.012 335.738 350.564 337.28 349.175C337.56 348.928 337.921 348.792 338.294 348.792Z" fill="#263238"/>
<path d="M301.3 348.792H308.116C308.239 348.791 308.359 348.833 308.455 348.911C308.552 348.988 308.618 349.097 308.644 349.218L309.879 354.773C309.909 354.903 309.911 355.038 309.882 355.169C309.854 355.3 309.797 355.422 309.715 355.528C309.634 355.634 309.53 355.721 309.411 355.782C309.292 355.843 309.161 355.876 309.027 355.88C306.565 355.838 303.012 355.693 299.919 355.693C296.307 355.693 293.188 355.889 288.946 355.889C286.39 355.889 285.674 353.333 286.747 353.069C291.629 351.995 295.617 351.885 299.834 349.277C300.27 348.987 300.776 348.82 301.3 348.792Z" fill="#263238"/>
<path d="M313.535 121.768C312.683 126.335 312.189 131.992 315.384 135.042C315.384 135.042 313.552 139.677 305.066 139.677C297.313 139.677 301.198 135.042 301.198 135.042C306.31 133.824 306.02 127.527 305.134 123.966L313.535 121.768Z" fill="#FFC3BD"/>
<path d="M298.761 135.681C298.931 134.548 300.925 133.227 303.191 132.733C305.457 132.239 314.165 131.14 316.823 132.239C319.481 133.338 316.363 136.593 316.363 136.593L298.761 135.681Z" fill="#00ADB5"/>
<path opacity="0.4" d="M298.761 135.681C298.931 134.548 300.925 133.227 303.191 132.733C305.457 132.239 314.165 131.14 316.823 132.239C319.481 133.338 316.363 136.593 316.363 136.593L298.761 135.681Z" fill="white"/>
<path opacity="0.2" d="M300.636 335.066L300.96 342.512H307.205L306.881 335.066H300.636Z" fill="black"/>
<path opacity="0.2" d="M341.847 335.066H335.602L337.22 342.512H343.466L341.847 335.066Z" fill="black"/>
<path d="M328.317 140.665L320.794 145.692C320.794 145.692 331.597 164.905 330.694 167.98C329.459 172.172 327.738 181.331 325.395 185.983C325.701 186.988 327.261 189.28 328.13 189.672C334.094 185.14 340.117 170.928 339.896 166.949C339.376 157.927 328.317 140.665 328.317 140.665Z" fill="#FFC3BD"/>
<path d="M325.395 186L319.431 185.54L322.557 192.109C322.557 192.109 327.763 192.339 328.632 188.36L325.395 186Z" fill="#B55B52"/>
<path d="M354.873 218.035L354.371 218.981L350.997 225.362L231.223 162.033L235.091 154.706L354.873 218.035Z" fill="#00ADB5"/>
<path d="M362.619 203.406L360.148 208.075L358.75 210.717L238.968 147.387L242.836 140.06L362.619 203.406Z" fill="#00ADB5"/>
<path d="M239.007 147.366L235.131 154.684L354.864 218.106L358.741 210.788L239.007 147.366Z" fill="#00ADB5"/>
<path opacity="0.2" d="M239.007 147.366L235.131 154.684L354.864 218.106L358.741 210.788L239.007 147.366Z" fill="black"/>
<path d="M226.06 141.031L222.575 147.626L231.223 162.033L242.836 140.069L226.06 141.031Z" fill="#00ADB5"/>
<path opacity="0.8" d="M226.06 141.031L222.575 147.626L231.223 162.033L242.836 140.069L226.06 141.031Z" fill="white"/>
<path d="M218.869 141.449L222.575 147.626L226.06 141.031L218.869 141.449Z" fill="#00ADB5"/>
<path d="M314.634 188.531L317.752 194.341L322.583 192.109L319.456 185.54L314.634 188.531Z" fill="#B55B52"/>
<path d="M326.528 136.456C332.432 137.308 339.197 157.756 339.197 157.756L326.792 164.76C326.792 164.76 321.331 155.064 318.647 147.822C315.818 140.248 320.197 135.536 326.528 136.456Z" fill="#263238"/>
<path opacity="0.2" d="M323.095 143.468C320.411 141.014 322.056 151.52 323.334 158.242C323.99 159.554 324.612 160.747 325.14 161.744C328.13 156.461 326.793 146.851 323.095 143.468Z" fill="black"/>
<path d="M291.562 136.78C291.562 136.78 284.192 155.626 291.187 190.729H324.611C324.841 185.617 321.621 160.602 326.562 136.456C322.871 135.743 319.137 135.271 315.384 135.042C310.66 134.769 305.923 134.769 301.198 135.042C297.946 135.367 294.724 135.948 291.562 136.78Z" fill="#263238"/>
<path d="M296.7 145.539L288.282 142.207C288.282 142.207 278.586 161.999 275.502 162.996C271.353 164.359 262.833 168.108 257.67 168.841C257.022 169.693 256.017 172.249 256.179 173.186C263.293 175.512 278.433 172.428 281.568 169.991C288.759 164.436 296.7 145.539 296.7 145.539Z" fill="#FFC3BD"/>
<path opacity="0.2" d="M297.644 143.289C296.256 140.086 293.597 138.748 290.828 139.217C289.755 143.145 287.94 151.775 288.272 164.777L290.258 165.731C290.258 165.731 300.022 148.768 297.644 143.289Z" fill="black"/>
<path d="M298.974 141.049C301.07 146.638 290.454 163.081 290.454 163.081L277.964 156.265C279.84 151.151 282.26 146.252 285.18 141.653C289.568 135.102 296.665 134.923 298.974 141.049Z" fill="#263238"/>
<path d="M257.976 168.824L250.547 170.4L254.313 177.276C256.389 176.243 258.276 174.866 259.893 173.203L257.976 168.824Z" fill="#FFC3BD"/>
<path d="M247.036 171.959L250.001 176.066L254.312 177.31L250.546 170.434L247.036 171.959Z" fill="#FFC3BD"/>
<path d="M299.375 115.199C299.375 115.702 299.06 116.051 298.728 116.051C298.395 116.051 298.157 115.608 298.191 115.105C298.225 114.602 298.506 114.253 298.838 114.253C299.171 114.253 299.409 114.696 299.375 115.199Z" fill="#263238"/>
<path d="M299.818 115.242C299.13 116.743 298.238 118.142 297.168 119.399C297.497 119.665 297.88 119.856 298.291 119.958C298.702 120.059 299.13 120.069 299.545 119.987L299.818 115.242Z" fill="#ED847E"/>
<path d="M298.736 113.461C298.691 113.451 298.648 113.434 298.608 113.41C298.575 113.389 298.547 113.362 298.525 113.33C298.502 113.298 298.487 113.262 298.479 113.223C298.471 113.185 298.471 113.146 298.478 113.108C298.486 113.069 298.501 113.033 298.523 113.001C298.77 112.602 299.108 112.267 299.51 112.024C299.911 111.781 300.364 111.637 300.832 111.604C300.91 111.608 300.983 111.64 301.038 111.695C301.094 111.75 301.126 111.824 301.13 111.902C301.13 111.981 301.099 112.057 301.043 112.113C300.987 112.168 300.911 112.2 300.832 112.2C300.469 112.234 300.118 112.352 299.809 112.546C299.5 112.74 299.24 113.004 299.051 113.316C299.021 113.37 298.974 113.413 298.917 113.439C298.861 113.465 298.797 113.473 298.736 113.461Z" fill="#263238"/>
<path d="M316.312 114.764C315.58 120.916 315.46 124.545 312.163 127.544C307.196 132.043 299.741 128.78 298.616 122.526C297.611 116.903 298.983 107.795 305.168 105.682C306.529 105.211 307.988 105.096 309.406 105.347C310.824 105.598 312.155 106.208 313.271 107.118C314.388 108.028 315.253 109.208 315.785 110.546C316.318 111.884 316.499 113.336 316.312 114.764Z" fill="#FFC3BD"/>
<path d="M303.916 115.966C301.761 116.392 298.319 111.603 301.13 107.539C299.708 106.832 295.064 109.627 293.318 107.02C291.571 104.413 296.419 103.024 295.49 100.817C298.779 101.49 293.36 105.597 296.487 105.196C299.614 104.796 303.218 99.0194 306.711 101.388C312.888 105.537 321.306 98.619 317.872 107.284C322.081 106.432 324.961 111.407 320.948 114.858C312.948 121.717 317.872 122.62 312.803 122.969C310.264 123.157 304.359 120.132 303.916 115.966Z" fill="#263238"/>
<path d="M307.112 117.576C306.817 118.191 306.402 118.741 305.891 119.193C305.38 119.645 304.784 119.99 304.138 120.209C302.434 120.797 301.454 119.272 301.855 117.593C302.213 116.077 303.559 113.947 305.322 114.1C305.71 114.138 306.081 114.272 306.403 114.49C306.725 114.709 306.986 115.005 307.164 115.35C307.342 115.696 307.431 116.081 307.422 116.47C307.412 116.859 307.306 117.239 307.112 117.576Z" fill="#FFC3BD"/>
<path d="M303.03 190.729C303.03 190.729 310.119 238.441 314.004 256.333C318.264 275.929 334.307 341.098 334.307 341.098H345.741C345.741 341.098 335.168 277.488 332.731 258.105C330.098 237.077 324.577 190.754 324.577 190.754L303.03 190.729Z" fill="#00ADB5"/>
<path opacity="0.2" d="M303.03 190.729C303.03 190.729 310.119 238.441 314.004 256.333C318.264 275.929 334.307 341.098 334.307 341.098H345.741C345.741 341.098 335.168 277.488 332.731 258.105C330.098 237.077 324.577 190.754 324.577 190.754L303.03 190.729Z" fill="white"/>
<path opacity="0.2" d="M311.448 207.411C310.92 206.661 310.443 206.405 310 206.559H309.906C309.805 206.603 309.71 206.66 309.625 206.729C309.534 206.803 309.451 206.886 309.378 206.976L309.241 207.147L309.062 207.428C308.914 207.676 308.786 207.935 308.679 208.203C308.611 208.365 308.543 208.535 308.483 208.706C308.423 208.876 308.33 209.14 308.261 209.379C308.193 209.618 308.066 210.026 307.972 210.376C307.972 210.469 307.929 210.555 307.904 210.648C307.878 210.742 307.81 211.04 307.767 211.236C307.725 211.432 307.691 211.577 307.657 211.747C307.58 212.08 307.512 212.429 307.444 212.787C307.375 213.145 307.299 213.562 307.231 213.963C307.231 214.099 307.188 214.235 307.162 214.38C307.077 214.891 307.001 215.411 306.924 215.948C308.815 227.825 311.065 241.44 312.888 250.939C312.973 250.633 313.067 250.309 313.143 249.96C313.516 248.375 313.8 246.771 313.995 245.154C315.606 232.911 314.864 212.293 311.448 207.411Z" fill="black"/>
<path d="M291.188 190.729C291.188 190.729 290.336 237.401 291.009 256.443C291.716 276.244 298.634 341.073 298.634 341.073H309.208C309.208 341.073 309.591 277.394 310.06 257.951C310.571 236.754 313.127 190.729 313.127 190.729H291.188Z" fill="#00ADB5"/>
<path opacity="0.2" d="M291.188 190.729C291.188 190.729 290.336 237.401 291.009 256.443C291.716 276.244 298.634 341.073 298.634 341.073H309.208C309.208 341.073 309.591 277.394 310.06 257.951C310.571 236.754 313.127 190.729 313.127 190.729H291.188Z" fill="white"/>
<path d="M309.905 337.835C309.948 337.835 309.905 341.286 309.905 341.286H297.713L297.202 337.409L309.905 337.835Z" fill="#263238"/>
<path d="M345.74 338.091C345.792 338.091 346.311 341.286 346.311 341.286H333.744L332.637 337.622L345.74 338.091Z" fill="#263238"/>
<path d="M336.233 349.882C335.808 349.917 335.384 349.806 335.031 349.567C334.917 349.474 334.828 349.353 334.774 349.216C334.721 349.078 334.703 348.929 334.725 348.783C334.726 348.698 334.749 348.615 334.792 348.541C334.836 348.468 334.898 348.408 334.972 348.366C335.662 348.016 337.681 349.218 337.911 349.388C337.935 349.405 337.953 349.429 337.963 349.456C337.974 349.483 337.976 349.513 337.971 349.541C337.966 349.57 337.953 349.597 337.934 349.618C337.914 349.639 337.888 349.654 337.86 349.661C337.327 349.794 336.782 349.868 336.233 349.882ZM335.304 348.596C335.239 348.581 335.173 348.581 335.108 348.596C335.078 348.613 335.054 348.638 335.037 348.668C335.021 348.698 335.013 348.732 335.014 348.766C335.001 348.866 335.013 348.967 335.049 349.06C335.084 349.154 335.143 349.237 335.219 349.303C335.914 349.626 336.708 349.669 337.434 349.422C336.784 349.012 336.061 348.731 335.304 348.596Z" fill="#00ADB5"/>
<path d="M337.825 349.669C337.803 349.676 337.779 349.676 337.757 349.669C337.11 349.32 335.866 347.965 335.994 347.258C336.015 347.15 336.074 347.052 336.159 346.983C336.245 346.913 336.352 346.875 336.462 346.875C336.575 346.858 336.689 346.866 336.798 346.898C336.907 346.931 337.008 346.987 337.093 347.062C337.817 347.65 337.945 349.456 337.945 349.533C337.944 349.559 337.938 349.585 337.926 349.609C337.914 349.632 337.897 349.653 337.876 349.669C337.86 349.672 337.842 349.672 337.825 349.669ZM336.564 347.113H336.539C336.343 347.113 336.326 347.224 336.317 347.267C336.241 347.676 337.033 348.706 337.68 349.192C337.636 348.482 337.377 347.802 336.939 347.241C336.885 347.194 336.821 347.16 336.751 347.141C336.682 347.122 336.61 347.118 336.539 347.13L336.564 347.113Z" fill="#00ADB5"/>
<path d="M298.702 349.882C298.167 349.932 297.632 349.797 297.185 349.499C297.087 349.409 297.011 349.298 296.964 349.173C296.917 349.049 296.899 348.916 296.913 348.783C296.913 348.702 296.935 348.623 296.977 348.554C297.019 348.485 297.079 348.429 297.151 348.391C297.909 347.965 300.423 349.243 300.704 349.388C300.732 349.401 300.756 349.423 300.77 349.451C300.783 349.479 300.787 349.511 300.781 349.542C300.777 349.572 300.763 349.6 300.742 349.622C300.72 349.643 300.692 349.657 300.661 349.661C300.017 349.798 299.361 349.873 298.702 349.882ZM297.569 348.596C297.475 348.592 297.382 348.61 297.296 348.647C297.268 348.663 297.244 348.687 297.228 348.715C297.211 348.744 297.202 348.776 297.202 348.809C297.19 348.896 297.2 348.984 297.232 349.066C297.263 349.148 297.314 349.221 297.381 349.277C297.765 349.618 298.796 349.678 300.176 349.448C299.361 349.02 298.479 348.732 297.569 348.596Z" fill="#00ADB5"/>
<path d="M300.636 349.669H300.576C299.818 349.328 298.327 347.965 298.446 347.275C298.446 347.113 298.591 346.9 298.991 346.866C299.143 346.844 299.297 346.854 299.444 346.897C299.591 346.939 299.728 347.013 299.843 347.113C300.636 347.769 300.798 349.448 300.806 349.524C300.81 349.549 300.806 349.575 300.796 349.597C300.785 349.62 300.768 349.639 300.747 349.652C300.713 349.672 300.674 349.678 300.636 349.669ZM299.111 347.113H299.051C298.787 347.113 298.77 347.241 298.761 347.284C298.693 347.701 299.707 348.766 300.465 349.226C300.392 348.511 300.094 347.836 299.613 347.301C299.468 347.192 299.292 347.132 299.111 347.13V347.113Z" fill="#00ADB5"/>
</g>
<defs>
<clipPath id="clip0_342_727">
<rect width="426" height="426" fill="white"/>
</clipPath>
</defs>
</svg>
